M48
; DRILL file {KiCad 8.0.9} date 2026-06-12T01:55:35+0000
; FORMAT={-:-/ absolute / metric / decimal}
; #@! TF.CreationDate,2026-06-12T01:55:35+00:00
; #@! TF.GenerationSoftware,Kicad,Pcbnew,8.0.9
; #@! TF.FileFunction,MixedPlating,1,2
FMAT,2
METRIC
; #@! TA.AperFunction,Plated,PTH,ViaDrill
T1C0.350
; #@! TA.AperFunction,Plated,PTH,ViaDrill
T2C0.400
; #@! TA.AperFunction,Plated,PTH,ComponentDrill
T3C1.000
; #@! TA.AperFunction,Plated,PTH,ComponentDrill
T4C1.020
; #@! TA.AperFunction,NonPlated,NPTH,ComponentDrill
T5C1.500
; #@! TA.AperFunction,NonPlated,NPTH,ComponentDrill
T6C1.800
; #@! TA.AperFunction,NonPlated,NPTH,ComponentDrill
T7C2.750
%
G90
G05
T1
X49.545Y-63.852
X57.175Y-75.388
X65.034Y-74.626
X66.58Y-64.941
X66.638Y-67.526
X67.3Y-60.2
X67.3Y-61.9
X68.121Y-67.526
X98.6Y-61.0
X99.4Y-62.3
X99.552Y-63.536
X100.2Y-60.2
X102.3Y-62.3
X102.806Y-53.947
X104.152Y-62.386
X105.86Y-60.2
X106.5Y-61.0
X111.046Y-62.386
T2
X51.0Y-53.0
X52.0Y-79.0
X56.335Y-68.355
X57.1Y-50.72
X59.593Y-69.386
X62.518Y-73.754
X67.5Y-73.5
X74.88Y-50.72
X84.468Y-70.191
X87.0Y-69.0
X88.227Y-70.164
X90.168Y-73.987
X95.2Y-50.72
X97.568Y-74.066
X99.28Y-68.083
X100.036Y-70.164
X100.223Y-71.668
X102.021Y-70.629
X103.0Y-64.0
X103.41Y-70.54
X106.736Y-74.491
X110.0Y-50.72
X114.2Y-67.0
T3
X51.8Y-58.68
X51.8Y-61.22
X51.8Y-63.76
X51.8Y-66.3
X51.8Y-68.84
X51.8Y-71.38
X58.37Y-52.23
X58.37Y-54.77
X60.91Y-52.23
X60.91Y-54.77
X61.96Y-58.68
X61.96Y-61.22
X61.96Y-63.76
X61.96Y-66.3
X61.96Y-68.84
X61.96Y-71.38
X63.45Y-52.23
X63.45Y-54.77
X65.99Y-52.23
X65.99Y-54.77
X68.53Y-52.23
X68.53Y-54.77
X71.07Y-52.23
X71.07Y-54.77
X73.61Y-52.23
X73.61Y-54.77
X76.15Y-52.23
X76.15Y-54.77
X78.69Y-52.23
X78.69Y-54.77
X81.23Y-52.23
X81.23Y-54.77
X83.77Y-52.23
X83.77Y-54.77
X86.31Y-52.23
X86.31Y-54.77
X88.85Y-52.23
X88.85Y-54.77
X91.39Y-52.23
X91.39Y-54.77
X93.93Y-52.23
X93.93Y-54.77
X96.47Y-52.23
X96.47Y-54.77
X99.01Y-52.23
X99.01Y-54.77
X101.55Y-52.23
X101.55Y-54.77
X104.09Y-52.23
X104.09Y-54.77
X106.63Y-52.23
X106.63Y-54.77
T4
X64.37Y-58.66
X64.37Y-76.44
X64.6Y-65.01
X64.6Y-67.55
X64.6Y-70.09
X66.91Y-58.66
X66.91Y-76.44
X69.45Y-58.66
X69.45Y-76.44
X71.99Y-58.66
X71.99Y-76.44
X74.53Y-58.66
X74.53Y-76.44
X77.07Y-58.66
X77.07Y-76.44
X79.61Y-58.66
X79.61Y-76.44
X82.15Y-58.66
X82.15Y-76.44
X84.69Y-58.66
X84.69Y-76.44
X87.23Y-58.66
X87.23Y-76.44
X89.77Y-58.66
X89.77Y-76.44
X92.31Y-58.66
X92.31Y-76.44
X94.85Y-58.66
X94.85Y-76.44
X97.39Y-58.66
X99.93Y-58.66
X99.93Y-76.44
X102.47Y-58.66
X105.01Y-58.66
X107.55Y-58.66
X107.55Y-76.44
X110.09Y-58.66
X110.09Y-76.44
X112.63Y-58.66
X112.63Y-76.44
T5
X109.47Y-65.125
X109.47Y-69.975
T6
X112.5Y-64.825
X112.5Y-70.275
T7
X53.5Y-53.5
X53.5Y-76.5
X111.5Y-53.5
M30
