%TF.GenerationSoftware,KiCad,Pcbnew,8.0.9*%
%TF.CreationDate,2026-06-12T01:55:34+00:00*%
%TF.ProjectId,pico-ball-deck,7069636f-2d62-4616-9c6c-2d6465636b2e,rev?*%
%TF.SameCoordinates,Original*%
%TF.FileFunction,Soldermask,Top*%
%TF.FilePolarity,Negative*%
%FSLAX46Y46*%
G04 Gerber Fmt 4.6, Leading zero omitted, Abs format (unit mm)*
G04 Created by KiCad (PCBNEW 8.0.9) date 2026-06-12 01:55:34*
%MOMM*%
%LPD*%
G01*
G04 APERTURE LIST*
%ADD10R,5.000000X1.000000*%
%ADD11C,2.750000*%
%ADD12O,1.800000X1.800000*%
%ADD13O,1.500000X1.500000*%
%ADD14O,1.700000X1.700000*%
%ADD15R,1.700000X3.500000*%
%ADD16R,1.700000X1.700000*%
%ADD17R,0.900000X0.950000*%
%ADD18C,1.700000*%
G04 APERTURE END LIST*
D10*
%TO.C,J1*%
X46500000Y-63000000D03*
X46500000Y-65000000D03*
X46500000Y-67000000D03*
%TD*%
D11*
%TO.C,H3*%
X53500000Y-76500000D03*
%TD*%
%TO.C,H2*%
X111500000Y-53500000D03*
%TD*%
D12*
%TO.C,U1*%
X112500000Y-64825000D03*
D13*
X109470000Y-65125000D03*
X109470000Y-69975000D03*
D12*
X112500000Y-70275000D03*
D14*
X112630000Y-58660000D03*
D15*
X112630000Y-57760000D03*
D14*
X110090000Y-58660000D03*
D15*
X110090000Y-57760000D03*
D16*
X107550000Y-58660000D03*
D15*
X107550000Y-57760000D03*
D14*
X105010000Y-58660000D03*
D15*
X105010000Y-57760000D03*
D14*
X102470000Y-58660000D03*
D15*
X102470000Y-57760000D03*
D14*
X99930000Y-58660000D03*
D15*
X99930000Y-57760000D03*
D14*
X97390000Y-58660000D03*
D15*
X97390000Y-57760000D03*
D16*
X94850000Y-58660000D03*
D15*
X94850000Y-57760000D03*
D14*
X92310000Y-58660000D03*
D15*
X92310000Y-57760000D03*
D14*
X89770000Y-58660000D03*
D15*
X89770000Y-57760000D03*
D14*
X87230000Y-58660000D03*
D15*
X87230000Y-57760000D03*
D14*
X84690000Y-58660000D03*
D15*
X84690000Y-57760000D03*
D16*
X82150000Y-58660000D03*
D15*
X82150000Y-57760000D03*
D14*
X79610000Y-58660000D03*
D15*
X79610000Y-57760000D03*
D14*
X77070000Y-58660000D03*
D15*
X77070000Y-57760000D03*
D14*
X74530000Y-58660000D03*
D15*
X74530000Y-57760000D03*
D14*
X71990000Y-58660000D03*
D15*
X71990000Y-57760000D03*
D16*
X69450000Y-58660000D03*
D15*
X69450000Y-57760000D03*
D14*
X66910000Y-58660000D03*
D15*
X66910000Y-57760000D03*
D14*
X64370000Y-58660000D03*
D15*
X64370000Y-57760000D03*
D14*
X64370000Y-76440000D03*
D15*
X64370000Y-77340000D03*
D14*
X66910000Y-76440000D03*
D15*
X66910000Y-77340000D03*
D16*
X69450000Y-76440000D03*
D15*
X69450000Y-77340000D03*
D14*
X71990000Y-76440000D03*
D15*
X71990000Y-77340000D03*
D14*
X74530000Y-76440000D03*
D15*
X74530000Y-77340000D03*
D14*
X77070000Y-76440000D03*
D15*
X77070000Y-77340000D03*
D14*
X79610000Y-76440000D03*
D15*
X79610000Y-77340000D03*
D16*
X82150000Y-76440000D03*
D15*
X82150000Y-77340000D03*
D14*
X84690000Y-76440000D03*
D15*
X84690000Y-77340000D03*
D14*
X87230000Y-76440000D03*
D15*
X87230000Y-77340000D03*
D14*
X89770000Y-76440000D03*
D15*
X89770000Y-77340000D03*
D14*
X92310000Y-76440000D03*
D15*
X92310000Y-77340000D03*
D16*
X94850000Y-76440000D03*
D15*
X94850000Y-77340000D03*
X97390000Y-77340000D03*
D14*
X99930000Y-76440000D03*
D15*
X99930000Y-77340000D03*
X102470000Y-77340000D03*
X105010000Y-77340000D03*
D16*
X107550000Y-76440000D03*
D15*
X107550000Y-77340000D03*
D14*
X110090000Y-76440000D03*
D15*
X110090000Y-77340000D03*
D14*
X112630000Y-76440000D03*
D15*
X112630000Y-77340000D03*
D14*
X64600000Y-65010000D03*
D16*
X64600000Y-67550000D03*
D14*
X64600000Y-70090000D03*
%TD*%
D17*
%TO.C,R1*%
X57175000Y-76500000D03*
X58825000Y-76500000D03*
%TD*%
D11*
%TO.C,H1*%
X53500000Y-53500000D03*
%TD*%
D16*
%TO.C,J2*%
X58370000Y-54770000D03*
D14*
X58370000Y-52230000D03*
X60910000Y-54770000D03*
X60910000Y-52230000D03*
X63450000Y-54770000D03*
X63450000Y-52230000D03*
X65990000Y-54770000D03*
X65990000Y-52230000D03*
X68530000Y-54770000D03*
X68530000Y-52230000D03*
X71070000Y-54770000D03*
X71070000Y-52230000D03*
X73610000Y-54770000D03*
X73610000Y-52230000D03*
X76150000Y-54770000D03*
X76150000Y-52230000D03*
X78690000Y-54770000D03*
X78690000Y-52230000D03*
X81230000Y-54770000D03*
X81230000Y-52230000D03*
X83770000Y-54770000D03*
X83770000Y-52230000D03*
X86310000Y-54770000D03*
X86310000Y-52230000D03*
X88850000Y-54770000D03*
X88850000Y-52230000D03*
X91390000Y-54770000D03*
X91390000Y-52230000D03*
X93930000Y-54770000D03*
X93930000Y-52230000D03*
X96470000Y-54770000D03*
X96470000Y-52230000D03*
X99010000Y-54770000D03*
X99010000Y-52230000D03*
X101550000Y-54770000D03*
X101550000Y-52230000D03*
X104090000Y-54770000D03*
X104090000Y-52230000D03*
X106630000Y-54770000D03*
X106630000Y-52230000D03*
%TD*%
D17*
%TO.C,R2*%
X57175000Y-78400000D03*
X58825000Y-78400000D03*
%TD*%
D16*
%TO.C,U2*%
X61960000Y-58680000D03*
D18*
X61960000Y-61220000D03*
X61960000Y-63760000D03*
X61960000Y-66300000D03*
X61960000Y-68840000D03*
X61960000Y-71380000D03*
X51800000Y-58680000D03*
X51800000Y-61220000D03*
X51800000Y-63760000D03*
X51800000Y-66300000D03*
X51800000Y-68840000D03*
X51800000Y-71380000D03*
%TD*%
M02*
