%TF.GenerationSoftware,KiCad,Pcbnew,8.0.9*%
%TF.CreationDate,2026-06-12T01:55:34+00:00*%
%TF.ProjectId,pico-ball-deck,7069636f-2d62-4616-9c6c-2d6465636b2e,rev?*%
%TF.SameCoordinates,Original*%
%TF.FileFunction,Soldermask,Bot*%
%TF.FilePolarity,Negative*%
%FSLAX46Y46*%
G04 Gerber Fmt 4.6, Leading zero omitted, Abs format (unit mm)*
G04 Created by KiCad (PCBNEW 8.0.9) date 2026-06-12 01:55:34*
%MOMM*%
%LPD*%
G01*
G04 APERTURE LIST*
%ADD10R,5.000000X1.000000*%
%ADD11C,2.750000*%
%ADD12O,1.800000X1.800000*%
%ADD13O,1.500000X1.500000*%
%ADD14O,1.700000X1.700000*%
%ADD15R,1.700000X1.700000*%
%ADD16C,2.200000*%
%ADD17C,1.700000*%
%ADD18R,1.600000X2.000000*%
%ADD19R,2.600000X1.600000*%
%ADD20R,1.300000X1.450000*%
G04 APERTURE END LIST*
D10*
%TO.C,J1*%
X46500000Y-63000000D03*
X46500000Y-65000000D03*
X46500000Y-67000000D03*
%TD*%
D11*
%TO.C,H3*%
X53500000Y-76500000D03*
%TD*%
%TO.C,H2*%
X111500000Y-53500000D03*
%TD*%
D12*
%TO.C,U1*%
X112500000Y-64825000D03*
D13*
X109470000Y-65125000D03*
X109470000Y-69975000D03*
D12*
X112500000Y-70275000D03*
D14*
X112630000Y-58660000D03*
X110090000Y-58660000D03*
D15*
X107550000Y-58660000D03*
D14*
X105010000Y-58660000D03*
X102470000Y-58660000D03*
X99930000Y-58660000D03*
X97390000Y-58660000D03*
D15*
X94850000Y-58660000D03*
D14*
X92310000Y-58660000D03*
X89770000Y-58660000D03*
X87230000Y-58660000D03*
X84690000Y-58660000D03*
D15*
X82150000Y-58660000D03*
D14*
X79610000Y-58660000D03*
X77070000Y-58660000D03*
X74530000Y-58660000D03*
X71990000Y-58660000D03*
D15*
X69450000Y-58660000D03*
D14*
X66910000Y-58660000D03*
X64370000Y-58660000D03*
X64370000Y-76440000D03*
X66910000Y-76440000D03*
D15*
X69450000Y-76440000D03*
D14*
X71990000Y-76440000D03*
X74530000Y-76440000D03*
X77070000Y-76440000D03*
X79610000Y-76440000D03*
D15*
X82150000Y-76440000D03*
D14*
X84690000Y-76440000D03*
X87230000Y-76440000D03*
X89770000Y-76440000D03*
X92310000Y-76440000D03*
D15*
X94850000Y-76440000D03*
D14*
X99930000Y-76440000D03*
D15*
X107550000Y-76440000D03*
D14*
X110090000Y-76440000D03*
X112630000Y-76440000D03*
X64600000Y-65010000D03*
D15*
X64600000Y-67550000D03*
D14*
X64600000Y-70090000D03*
%TD*%
D11*
%TO.C,H1*%
X53500000Y-53500000D03*
%TD*%
D15*
%TO.C,J2*%
X58370000Y-54770000D03*
D14*
X58370000Y-52230000D03*
X60910000Y-54770000D03*
X60910000Y-52230000D03*
X63450000Y-54770000D03*
X63450000Y-52230000D03*
X65990000Y-54770000D03*
X65990000Y-52230000D03*
X68530000Y-54770000D03*
X68530000Y-52230000D03*
X71070000Y-54770000D03*
X71070000Y-52230000D03*
X73610000Y-54770000D03*
X73610000Y-52230000D03*
X76150000Y-54770000D03*
X76150000Y-52230000D03*
X78690000Y-54770000D03*
X78690000Y-52230000D03*
X81230000Y-54770000D03*
X81230000Y-52230000D03*
X83770000Y-54770000D03*
X83770000Y-52230000D03*
X86310000Y-54770000D03*
X86310000Y-52230000D03*
X88850000Y-54770000D03*
X88850000Y-52230000D03*
X91390000Y-54770000D03*
X91390000Y-52230000D03*
X93930000Y-54770000D03*
X93930000Y-52230000D03*
X96470000Y-54770000D03*
X96470000Y-52230000D03*
X99010000Y-54770000D03*
X99010000Y-52230000D03*
X101550000Y-54770000D03*
X101550000Y-52230000D03*
X104090000Y-54770000D03*
X104090000Y-52230000D03*
X106630000Y-54770000D03*
X106630000Y-52230000D03*
%TD*%
D16*
%TO.C,PB3*%
X104100000Y-76310000D03*
%TD*%
D15*
%TO.C,U2*%
X61960000Y-58680000D03*
D17*
X61960000Y-61220000D03*
X61960000Y-63760000D03*
X61960000Y-66300000D03*
X61960000Y-68840000D03*
X61960000Y-71380000D03*
X51800000Y-58680000D03*
X51800000Y-61220000D03*
X51800000Y-63760000D03*
X51800000Y-66300000D03*
X51800000Y-68840000D03*
X51800000Y-71380000D03*
%TD*%
D16*
%TO.C,PB1*%
X106250000Y-68950000D03*
%TD*%
D18*
%TO.C,JP1*%
X80000000Y-70000000D03*
X82000000Y-70000000D03*
%TD*%
D19*
%TO.C,D1*%
X73000000Y-70000000D03*
X77000000Y-70000000D03*
%TD*%
D16*
%TO.C,PB4*%
X97710000Y-77590000D03*
%TD*%
%TO.C,PB2*%
X103790000Y-73700000D03*
%TD*%
D20*
%TO.C,C1*%
X74000000Y-73500000D03*
X76000000Y-73500000D03*
%TD*%
M02*
