%TF.GenerationSoftware,KiCad,Pcbnew,8.0.9*%
%TF.CreationDate,2026-06-12T01:55:35+00:00*%
%TF.ProjectId,pico-ball-deck,7069636f-2d62-4616-9c6c-2d6465636b2e,rev?*%
%TF.SameCoordinates,Original*%
%TF.FileFunction,Drillmap*%
%TF.FilePolarity,Positive*%
%FSLAX45Y45*%
G04 Gerber Fmt 4.5, Leading zero omitted, Abs format (unit mm)*
G04 Created by KiCad (PCBNEW 8.0.9) date 2026-06-12 01:55:35*
%MOMM*%
%LPD*%
G01*
G04 APERTURE LIST*
%ADD10C,0.120000*%
%ADD11C,0.200000*%
%ADD12C,0.100000*%
%ADD13C,0.102000*%
%ADD14C,0.150000*%
%ADD15C,0.180000*%
%ADD16C,0.275000*%
G04 APERTURE END LIST*
D10*
X5300000Y-5000000D02*
X11200000Y-5000000D01*
X4350000Y-6825000D02*
X4350000Y-6175000D01*
X5000000Y-6175000D02*
X5000000Y-5300000D01*
X11200000Y-5000000D02*
G75*
G02*
X11500000Y-5300000I0J-300000D01*
G01*
X5000000Y-5300000D02*
G75*
G02*
X5300000Y-5000000I300000J0D01*
G01*
X4350000Y-6175000D02*
X5000000Y-6175000D01*
X5300000Y-8000000D02*
G75*
G02*
X5000000Y-7700000I0J300000D01*
G01*
X11500000Y-5300000D02*
X11500000Y-7700000D01*
X5000000Y-6825000D02*
X4350000Y-6825000D01*
X11200000Y-8000000D02*
X5300000Y-8000000D01*
X11500000Y-7700000D02*
G75*
G02*
X11200000Y-8000000I-300000J0D01*
G01*
X5000000Y-7700000D02*
X5000000Y-6825000D01*
D11*
D12*
X4937050Y-6367710D02*
X4972050Y-6402710D01*
X4972050Y-6367710D02*
X4937050Y-6402710D01*
X5700000Y-7521350D02*
X5735000Y-7556350D01*
X5735000Y-7521350D02*
X5700000Y-7556350D01*
X6485950Y-7445090D02*
X6520950Y-7480090D01*
X6520950Y-7445090D02*
X6485950Y-7480090D01*
X6640470Y-6476600D02*
X6675470Y-6511600D01*
X6675470Y-6476600D02*
X6640470Y-6511600D01*
X6646340Y-6735130D02*
X6681340Y-6770130D01*
X6681340Y-6735130D02*
X6646340Y-6770130D01*
X6712500Y-6002500D02*
X6747500Y-6037500D01*
X6747500Y-6002500D02*
X6712500Y-6037500D01*
X6712500Y-6172500D02*
X6747500Y-6207500D01*
X6747500Y-6172500D02*
X6712500Y-6207500D01*
X6794580Y-6735130D02*
X6829580Y-6770130D01*
X6829580Y-6735130D02*
X6794580Y-6770130D01*
X9842500Y-6082500D02*
X9877500Y-6117500D01*
X9877500Y-6082500D02*
X9842500Y-6117500D01*
X9922500Y-6212500D02*
X9957500Y-6247500D01*
X9957500Y-6212500D02*
X9922500Y-6247500D01*
X9937690Y-6336100D02*
X9972690Y-6371100D01*
X9972690Y-6336100D02*
X9937690Y-6371100D01*
X10002500Y-6002500D02*
X10037500Y-6037500D01*
X10037500Y-6002500D02*
X10002500Y-6037500D01*
X10212500Y-6212500D02*
X10247500Y-6247500D01*
X10247500Y-6212500D02*
X10212500Y-6247500D01*
X10263080Y-5377180D02*
X10298080Y-5412180D01*
X10298080Y-5377180D02*
X10263080Y-5412180D01*
X10397710Y-6221100D02*
X10432710Y-6256100D01*
X10432710Y-6221100D02*
X10397710Y-6256100D01*
X10568500Y-6002500D02*
X10603500Y-6037500D01*
X10603500Y-6002500D02*
X10568500Y-6037500D01*
X10632500Y-6082500D02*
X10667500Y-6117500D01*
X10667500Y-6082500D02*
X10632500Y-6117500D01*
X11087060Y-6221100D02*
X11122060Y-6256100D01*
X11122060Y-6221100D02*
X11087060Y-6256100D01*
X5120000Y-5300000D02*
G75*
G02*
X5080000Y-5300000I-20000J0D01*
G01*
X5080000Y-5300000D02*
G75*
G02*
X5120000Y-5300000I20000J0D01*
G01*
X5220000Y-7900000D02*
G75*
G02*
X5180000Y-7900000I-20000J0D01*
G01*
X5180000Y-7900000D02*
G75*
G02*
X5220000Y-7900000I20000J0D01*
G01*
X5653540Y-6835540D02*
G75*
G02*
X5613540Y-6835540I-20000J0D01*
G01*
X5613540Y-6835540D02*
G75*
G02*
X5653540Y-6835540I20000J0D01*
G01*
X5730000Y-5072000D02*
G75*
G02*
X5690000Y-5072000I-20000J0D01*
G01*
X5690000Y-5072000D02*
G75*
G02*
X5730000Y-5072000I20000J0D01*
G01*
X5979340Y-6938650D02*
G75*
G02*
X5939340Y-6938650I-20000J0D01*
G01*
X5939340Y-6938650D02*
G75*
G02*
X5979340Y-6938650I20000J0D01*
G01*
X6271770Y-7375410D02*
G75*
G02*
X6231770Y-7375410I-20000J0D01*
G01*
X6231770Y-7375410D02*
G75*
G02*
X6271770Y-7375410I20000J0D01*
G01*
X6770000Y-7350000D02*
G75*
G02*
X6730000Y-7350000I-20000J0D01*
G01*
X6730000Y-7350000D02*
G75*
G02*
X6770000Y-7350000I20000J0D01*
G01*
X7508000Y-5072000D02*
G75*
G02*
X7468000Y-5072000I-20000J0D01*
G01*
X7468000Y-5072000D02*
G75*
G02*
X7508000Y-5072000I20000J0D01*
G01*
X8466760Y-7019060D02*
G75*
G02*
X8426760Y-7019060I-20000J0D01*
G01*
X8426760Y-7019060D02*
G75*
G02*
X8466760Y-7019060I20000J0D01*
G01*
X8720000Y-6900000D02*
G75*
G02*
X8680000Y-6900000I-20000J0D01*
G01*
X8680000Y-6900000D02*
G75*
G02*
X8720000Y-6900000I20000J0D01*
G01*
X8842700Y-7016370D02*
G75*
G02*
X8802700Y-7016370I-20000J0D01*
G01*
X8802700Y-7016370D02*
G75*
G02*
X8842700Y-7016370I20000J0D01*
G01*
X9036840Y-7398660D02*
G75*
G02*
X8996840Y-7398660I-20000J0D01*
G01*
X8996840Y-7398660D02*
G75*
G02*
X9036840Y-7398660I20000J0D01*
G01*
X9540000Y-5072000D02*
G75*
G02*
X9500000Y-5072000I-20000J0D01*
G01*
X9500000Y-5072000D02*
G75*
G02*
X9540000Y-5072000I20000J0D01*
G01*
X9776800Y-7406550D02*
G75*
G02*
X9736800Y-7406550I-20000J0D01*
G01*
X9736800Y-7406550D02*
G75*
G02*
X9776800Y-7406550I20000J0D01*
G01*
X9947990Y-6808340D02*
G75*
G02*
X9907990Y-6808340I-20000J0D01*
G01*
X9907990Y-6808340D02*
G75*
G02*
X9947990Y-6808340I20000J0D01*
G01*
X10023590Y-7016370D02*
G75*
G02*
X9983590Y-7016370I-20000J0D01*
G01*
X9983590Y-7016370D02*
G75*
G02*
X10023590Y-7016370I20000J0D01*
G01*
X10042340Y-7166780D02*
G75*
G02*
X10002340Y-7166780I-20000J0D01*
G01*
X10002340Y-7166780D02*
G75*
G02*
X10042340Y-7166780I20000J0D01*
G01*
X10222150Y-7062950D02*
G75*
G02*
X10182150Y-7062950I-20000J0D01*
G01*
X10182150Y-7062950D02*
G75*
G02*
X10222150Y-7062950I20000J0D01*
G01*
X10320000Y-6400000D02*
G75*
G02*
X10280000Y-6400000I-20000J0D01*
G01*
X10280000Y-6400000D02*
G75*
G02*
X10320000Y-6400000I20000J0D01*
G01*
X10360990Y-7053970D02*
G75*
G02*
X10320990Y-7053970I-20000J0D01*
G01*
X10320990Y-7053970D02*
G75*
G02*
X10360990Y-7053970I20000J0D01*
G01*
X10693590Y-7449100D02*
G75*
G02*
X10653590Y-7449100I-20000J0D01*
G01*
X10653590Y-7449100D02*
G75*
G02*
X10693590Y-7449100I20000J0D01*
G01*
X11020000Y-5072000D02*
G75*
G02*
X10980000Y-5072000I-20000J0D01*
G01*
X10980000Y-5072000D02*
G75*
G02*
X11020000Y-5072000I20000J0D01*
G01*
X11440000Y-6700000D02*
G75*
G02*
X11400000Y-6700000I-20000J0D01*
G01*
X11400000Y-6700000D02*
G75*
G02*
X11440000Y-6700000I20000J0D01*
G01*
X5180000Y-5818000D02*
X5180000Y-5918000D01*
X5130000Y-5868000D02*
X5230000Y-5868000D01*
X5180000Y-6072000D02*
X5180000Y-6172000D01*
X5130000Y-6122000D02*
X5230000Y-6122000D01*
X5180000Y-6326000D02*
X5180000Y-6426000D01*
X5130000Y-6376000D02*
X5230000Y-6376000D01*
X5180000Y-6580000D02*
X5180000Y-6680000D01*
X5130000Y-6630000D02*
X5230000Y-6630000D01*
X5180000Y-6834000D02*
X5180000Y-6934000D01*
X5130000Y-6884000D02*
X5230000Y-6884000D01*
X5180000Y-7088000D02*
X5180000Y-7188000D01*
X5130000Y-7138000D02*
X5230000Y-7138000D01*
X5837000Y-5173000D02*
X5837000Y-5273000D01*
X5787000Y-5223000D02*
X5887000Y-5223000D01*
X5837000Y-5427000D02*
X5837000Y-5527000D01*
X5787000Y-5477000D02*
X5887000Y-5477000D01*
X6091000Y-5173000D02*
X6091000Y-5273000D01*
X6041000Y-5223000D02*
X6141000Y-5223000D01*
X6091000Y-5427000D02*
X6091000Y-5527000D01*
X6041000Y-5477000D02*
X6141000Y-5477000D01*
X6196000Y-5818000D02*
X6196000Y-5918000D01*
X6146000Y-5868000D02*
X6246000Y-5868000D01*
X6196000Y-6072000D02*
X6196000Y-6172000D01*
X6146000Y-6122000D02*
X6246000Y-6122000D01*
X6196000Y-6326000D02*
X6196000Y-6426000D01*
X6146000Y-6376000D02*
X6246000Y-6376000D01*
X6196000Y-6580000D02*
X6196000Y-6680000D01*
X6146000Y-6630000D02*
X6246000Y-6630000D01*
X6196000Y-6834000D02*
X6196000Y-6934000D01*
X6146000Y-6884000D02*
X6246000Y-6884000D01*
X6196000Y-7088000D02*
X6196000Y-7188000D01*
X6146000Y-7138000D02*
X6246000Y-7138000D01*
X6345000Y-5173000D02*
X6345000Y-5273000D01*
X6295000Y-5223000D02*
X6395000Y-5223000D01*
X6345000Y-5427000D02*
X6345000Y-5527000D01*
X6295000Y-5477000D02*
X6395000Y-5477000D01*
X6599000Y-5173000D02*
X6599000Y-5273000D01*
X6549000Y-5223000D02*
X6649000Y-5223000D01*
X6599000Y-5427000D02*
X6599000Y-5527000D01*
X6549000Y-5477000D02*
X6649000Y-5477000D01*
X6853000Y-5173000D02*
X6853000Y-5273000D01*
X6803000Y-5223000D02*
X6903000Y-5223000D01*
X6853000Y-5427000D02*
X6853000Y-5527000D01*
X6803000Y-5477000D02*
X6903000Y-5477000D01*
X7107000Y-5173000D02*
X7107000Y-5273000D01*
X7057000Y-5223000D02*
X7157000Y-5223000D01*
X7107000Y-5427000D02*
X7107000Y-5527000D01*
X7057000Y-5477000D02*
X7157000Y-5477000D01*
X7361000Y-5173000D02*
X7361000Y-5273000D01*
X7311000Y-5223000D02*
X7411000Y-5223000D01*
X7361000Y-5427000D02*
X7361000Y-5527000D01*
X7311000Y-5477000D02*
X7411000Y-5477000D01*
X7615000Y-5173000D02*
X7615000Y-5273000D01*
X7565000Y-5223000D02*
X7665000Y-5223000D01*
X7615000Y-5427000D02*
X7615000Y-5527000D01*
X7565000Y-5477000D02*
X7665000Y-5477000D01*
X7869000Y-5173000D02*
X7869000Y-5273000D01*
X7819000Y-5223000D02*
X7919000Y-5223000D01*
X7869000Y-5427000D02*
X7869000Y-5527000D01*
X7819000Y-5477000D02*
X7919000Y-5477000D01*
X8123000Y-5173000D02*
X8123000Y-5273000D01*
X8073000Y-5223000D02*
X8173000Y-5223000D01*
X8123000Y-5427000D02*
X8123000Y-5527000D01*
X8073000Y-5477000D02*
X8173000Y-5477000D01*
X8377000Y-5173000D02*
X8377000Y-5273000D01*
X8327000Y-5223000D02*
X8427000Y-5223000D01*
X8377000Y-5427000D02*
X8377000Y-5527000D01*
X8327000Y-5477000D02*
X8427000Y-5477000D01*
X8631000Y-5173000D02*
X8631000Y-5273000D01*
X8581000Y-5223000D02*
X8681000Y-5223000D01*
X8631000Y-5427000D02*
X8631000Y-5527000D01*
X8581000Y-5477000D02*
X8681000Y-5477000D01*
X8885000Y-5173000D02*
X8885000Y-5273000D01*
X8835000Y-5223000D02*
X8935000Y-5223000D01*
X8885000Y-5427000D02*
X8885000Y-5527000D01*
X8835000Y-5477000D02*
X8935000Y-5477000D01*
X9139000Y-5173000D02*
X9139000Y-5273000D01*
X9089000Y-5223000D02*
X9189000Y-5223000D01*
X9139000Y-5427000D02*
X9139000Y-5527000D01*
X9089000Y-5477000D02*
X9189000Y-5477000D01*
X9393000Y-5173000D02*
X9393000Y-5273000D01*
X9343000Y-5223000D02*
X9443000Y-5223000D01*
X9393000Y-5427000D02*
X9393000Y-5527000D01*
X9343000Y-5477000D02*
X9443000Y-5477000D01*
X9647000Y-5173000D02*
X9647000Y-5273000D01*
X9597000Y-5223000D02*
X9697000Y-5223000D01*
X9647000Y-5427000D02*
X9647000Y-5527000D01*
X9597000Y-5477000D02*
X9697000Y-5477000D01*
X9901000Y-5173000D02*
X9901000Y-5273000D01*
X9851000Y-5223000D02*
X9951000Y-5223000D01*
X9901000Y-5427000D02*
X9901000Y-5527000D01*
X9851000Y-5477000D02*
X9951000Y-5477000D01*
X10155000Y-5173000D02*
X10155000Y-5273000D01*
X10105000Y-5223000D02*
X10205000Y-5223000D01*
X10155000Y-5427000D02*
X10155000Y-5527000D01*
X10105000Y-5477000D02*
X10205000Y-5477000D01*
X10409000Y-5173000D02*
X10409000Y-5273000D01*
X10359000Y-5223000D02*
X10459000Y-5223000D01*
X10409000Y-5427000D02*
X10409000Y-5527000D01*
X10359000Y-5477000D02*
X10459000Y-5477000D01*
X10663000Y-5173000D02*
X10663000Y-5273000D01*
X10613000Y-5223000D02*
X10713000Y-5223000D01*
X10663000Y-5427000D02*
X10663000Y-5527000D01*
X10613000Y-5477000D02*
X10713000Y-5477000D01*
D13*
X6473063Y-5902063D02*
X6473063Y-5829937D01*
X6400937Y-5829937D01*
X6400937Y-5902063D01*
X6473063Y-5902063D01*
X6473063Y-7680063D02*
X6473063Y-7607937D01*
X6400937Y-7607937D01*
X6400937Y-7680063D01*
X6473063Y-7680063D01*
X6496063Y-6537063D02*
X6496063Y-6464937D01*
X6423937Y-6464937D01*
X6423937Y-6537063D01*
X6496063Y-6537063D01*
X6496063Y-6791063D02*
X6496063Y-6718937D01*
X6423937Y-6718937D01*
X6423937Y-6791063D01*
X6496063Y-6791063D01*
X6496063Y-7045063D02*
X6496063Y-6972937D01*
X6423937Y-6972937D01*
X6423937Y-7045063D01*
X6496063Y-7045063D01*
X6727063Y-5902063D02*
X6727063Y-5829937D01*
X6654937Y-5829937D01*
X6654937Y-5902063D01*
X6727063Y-5902063D01*
X6727063Y-7680063D02*
X6727063Y-7607937D01*
X6654937Y-7607937D01*
X6654937Y-7680063D01*
X6727063Y-7680063D01*
X6981063Y-5902063D02*
X6981063Y-5829937D01*
X6908937Y-5829937D01*
X6908937Y-5902063D01*
X6981063Y-5902063D01*
X6981063Y-7680063D02*
X6981063Y-7607937D01*
X6908937Y-7607937D01*
X6908937Y-7680063D01*
X6981063Y-7680063D01*
X7235063Y-5902063D02*
X7235063Y-5829937D01*
X7162937Y-5829937D01*
X7162937Y-5902063D01*
X7235063Y-5902063D01*
X7235063Y-7680063D02*
X7235063Y-7607937D01*
X7162937Y-7607937D01*
X7162937Y-7680063D01*
X7235063Y-7680063D01*
X7489063Y-5902063D02*
X7489063Y-5829937D01*
X7416937Y-5829937D01*
X7416937Y-5902063D01*
X7489063Y-5902063D01*
X7489063Y-7680063D02*
X7489063Y-7607937D01*
X7416937Y-7607937D01*
X7416937Y-7680063D01*
X7489063Y-7680063D01*
X7743063Y-5902063D02*
X7743063Y-5829937D01*
X7670937Y-5829937D01*
X7670937Y-5902063D01*
X7743063Y-5902063D01*
X7743063Y-7680063D02*
X7743063Y-7607937D01*
X7670937Y-7607937D01*
X7670937Y-7680063D01*
X7743063Y-7680063D01*
X7997063Y-5902063D02*
X7997063Y-5829937D01*
X7924937Y-5829937D01*
X7924937Y-5902063D01*
X7997063Y-5902063D01*
X7997063Y-7680063D02*
X7997063Y-7607937D01*
X7924937Y-7607937D01*
X7924937Y-7680063D01*
X7997063Y-7680063D01*
X8251063Y-5902063D02*
X8251063Y-5829937D01*
X8178937Y-5829937D01*
X8178937Y-5902063D01*
X8251063Y-5902063D01*
X8251063Y-7680063D02*
X8251063Y-7607937D01*
X8178937Y-7607937D01*
X8178937Y-7680063D01*
X8251063Y-7680063D01*
X8505063Y-5902063D02*
X8505063Y-5829937D01*
X8432937Y-5829937D01*
X8432937Y-5902063D01*
X8505063Y-5902063D01*
X8505063Y-7680063D02*
X8505063Y-7607937D01*
X8432937Y-7607937D01*
X8432937Y-7680063D01*
X8505063Y-7680063D01*
X8759063Y-5902063D02*
X8759063Y-5829937D01*
X8686937Y-5829937D01*
X8686937Y-5902063D01*
X8759063Y-5902063D01*
X8759063Y-7680063D02*
X8759063Y-7607937D01*
X8686937Y-7607937D01*
X8686937Y-7680063D01*
X8759063Y-7680063D01*
X9013063Y-5902063D02*
X9013063Y-5829937D01*
X8940937Y-5829937D01*
X8940937Y-5902063D01*
X9013063Y-5902063D01*
X9013063Y-7680063D02*
X9013063Y-7607937D01*
X8940937Y-7607937D01*
X8940937Y-7680063D01*
X9013063Y-7680063D01*
X9267063Y-5902063D02*
X9267063Y-5829937D01*
X9194937Y-5829937D01*
X9194937Y-5902063D01*
X9267063Y-5902063D01*
X9267063Y-7680063D02*
X9267063Y-7607937D01*
X9194937Y-7607937D01*
X9194937Y-7680063D01*
X9267063Y-7680063D01*
X9521063Y-5902063D02*
X9521063Y-5829937D01*
X9448937Y-5829937D01*
X9448937Y-5902063D01*
X9521063Y-5902063D01*
X9521063Y-7680063D02*
X9521063Y-7607937D01*
X9448937Y-7607937D01*
X9448937Y-7680063D01*
X9521063Y-7680063D01*
X9775063Y-5902063D02*
X9775063Y-5829937D01*
X9702937Y-5829937D01*
X9702937Y-5902063D01*
X9775063Y-5902063D01*
X10029063Y-5902063D02*
X10029063Y-5829937D01*
X9956937Y-5829937D01*
X9956937Y-5902063D01*
X10029063Y-5902063D01*
X10029063Y-7680063D02*
X10029063Y-7607937D01*
X9956937Y-7607937D01*
X9956937Y-7680063D01*
X10029063Y-7680063D01*
X10283063Y-5902063D02*
X10283063Y-5829937D01*
X10210937Y-5829937D01*
X10210937Y-5902063D01*
X10283063Y-5902063D01*
X10537063Y-5902063D02*
X10537063Y-5829937D01*
X10464937Y-5829937D01*
X10464937Y-5902063D01*
X10537063Y-5902063D01*
X10791063Y-5902063D02*
X10791063Y-5829937D01*
X10718937Y-5829937D01*
X10718937Y-5902063D01*
X10791063Y-5902063D01*
X10791063Y-7680063D02*
X10791063Y-7607937D01*
X10718937Y-7607937D01*
X10718937Y-7680063D01*
X10791063Y-7680063D01*
X11045063Y-5902063D02*
X11045063Y-5829937D01*
X10972937Y-5829937D01*
X10972937Y-5902063D01*
X11045063Y-5902063D01*
X11045063Y-7680063D02*
X11045063Y-7607937D01*
X10972937Y-7607937D01*
X10972937Y-7680063D01*
X11045063Y-7680063D01*
X11299063Y-5902063D02*
X11299063Y-5829937D01*
X11226937Y-5829937D01*
X11226937Y-5902063D01*
X11299063Y-5902063D01*
X11299063Y-7680063D02*
X11299063Y-7607937D01*
X11226937Y-7607937D01*
X11226937Y-7680063D01*
X11299063Y-7680063D01*
D14*
X10947000Y-6587500D02*
X11022000Y-6512500D01*
X10947000Y-6437500D01*
X10872000Y-6512500D01*
X10947000Y-6587500D01*
X10947000Y-7072500D02*
X11022000Y-6997500D01*
X10947000Y-6922500D01*
X10872000Y-6997500D01*
X10947000Y-7072500D01*
D15*
X11160000Y-6392500D02*
X11340000Y-6572500D01*
X11340000Y-6392500D02*
X11160000Y-6572500D01*
X11340000Y-6482500D02*
G75*
G02*
X11160000Y-6482500I-90000J0D01*
G01*
X11160000Y-6482500D02*
G75*
G02*
X11340000Y-6482500I90000J0D01*
G01*
X11160000Y-6937500D02*
X11340000Y-7117500D01*
X11340000Y-6937500D02*
X11160000Y-7117500D01*
X11340000Y-7027500D02*
G75*
G02*
X11160000Y-7027500I-90000J0D01*
G01*
X11160000Y-7027500D02*
G75*
G02*
X11340000Y-7027500I90000J0D01*
G01*
D16*
X5212500Y-5212500D02*
X5487500Y-5487500D01*
X5487500Y-5212500D02*
X5212500Y-5487500D01*
X5350000Y-5212500D02*
X5350000Y-5487500D01*
X5212500Y-5350000D02*
X5487500Y-5350000D01*
X5212500Y-7512500D02*
X5487500Y-7787500D01*
X5487500Y-7512500D02*
X5212500Y-7787500D01*
X5350000Y-7512500D02*
X5350000Y-7787500D01*
X5212500Y-7650000D02*
X5487500Y-7650000D01*
X11012500Y-5212500D02*
X11287500Y-5487500D01*
X11287500Y-5212500D02*
X11012500Y-5487500D01*
X11150000Y-5212500D02*
X11150000Y-5487500D01*
X11012500Y-5350000D02*
X11287500Y-5350000D01*
D11*
X4604777Y-8317484D02*
X4604777Y-8117484D01*
X4604777Y-8117484D02*
X4652396Y-8117484D01*
X4652396Y-8117484D02*
X4680967Y-8127008D01*
X4680967Y-8127008D02*
X4700015Y-8146055D01*
X4700015Y-8146055D02*
X4709539Y-8165103D01*
X4709539Y-8165103D02*
X4719063Y-8203198D01*
X4719063Y-8203198D02*
X4719063Y-8231769D01*
X4719063Y-8231769D02*
X4709539Y-8269865D01*
X4709539Y-8269865D02*
X4700015Y-8288912D01*
X4700015Y-8288912D02*
X4680967Y-8307960D01*
X4680967Y-8307960D02*
X4652396Y-8317484D01*
X4652396Y-8317484D02*
X4604777Y-8317484D01*
X4804777Y-8317484D02*
X4804777Y-8184150D01*
X4804777Y-8222246D02*
X4814301Y-8203198D01*
X4814301Y-8203198D02*
X4823824Y-8193674D01*
X4823824Y-8193674D02*
X4842872Y-8184150D01*
X4842872Y-8184150D02*
X4861920Y-8184150D01*
X4928586Y-8317484D02*
X4928586Y-8184150D01*
X4928586Y-8117484D02*
X4919063Y-8127008D01*
X4919063Y-8127008D02*
X4928586Y-8136531D01*
X4928586Y-8136531D02*
X4938110Y-8127008D01*
X4938110Y-8127008D02*
X4928586Y-8117484D01*
X4928586Y-8117484D02*
X4928586Y-8136531D01*
X5052396Y-8317484D02*
X5033348Y-8307960D01*
X5033348Y-8307960D02*
X5023824Y-8288912D01*
X5023824Y-8288912D02*
X5023824Y-8117484D01*
X5157158Y-8317484D02*
X5138110Y-8307960D01*
X5138110Y-8307960D02*
X5128586Y-8288912D01*
X5128586Y-8288912D02*
X5128586Y-8117484D01*
X5385729Y-8317484D02*
X5385729Y-8117484D01*
X5385729Y-8117484D02*
X5452396Y-8260341D01*
X5452396Y-8260341D02*
X5519063Y-8117484D01*
X5519063Y-8117484D02*
X5519063Y-8317484D01*
X5700015Y-8317484D02*
X5700015Y-8212722D01*
X5700015Y-8212722D02*
X5690491Y-8193674D01*
X5690491Y-8193674D02*
X5671443Y-8184150D01*
X5671443Y-8184150D02*
X5633348Y-8184150D01*
X5633348Y-8184150D02*
X5614301Y-8193674D01*
X5700015Y-8307960D02*
X5680967Y-8317484D01*
X5680967Y-8317484D02*
X5633348Y-8317484D01*
X5633348Y-8317484D02*
X5614301Y-8307960D01*
X5614301Y-8307960D02*
X5604777Y-8288912D01*
X5604777Y-8288912D02*
X5604777Y-8269865D01*
X5604777Y-8269865D02*
X5614301Y-8250817D01*
X5614301Y-8250817D02*
X5633348Y-8241293D01*
X5633348Y-8241293D02*
X5680967Y-8241293D01*
X5680967Y-8241293D02*
X5700015Y-8231769D01*
X5795253Y-8184150D02*
X5795253Y-8384150D01*
X5795253Y-8193674D02*
X5814301Y-8184150D01*
X5814301Y-8184150D02*
X5852396Y-8184150D01*
X5852396Y-8184150D02*
X5871443Y-8193674D01*
X5871443Y-8193674D02*
X5880967Y-8203198D01*
X5880967Y-8203198D02*
X5890491Y-8222246D01*
X5890491Y-8222246D02*
X5890491Y-8279388D01*
X5890491Y-8279388D02*
X5880967Y-8298436D01*
X5880967Y-8298436D02*
X5871443Y-8307960D01*
X5871443Y-8307960D02*
X5852396Y-8317484D01*
X5852396Y-8317484D02*
X5814301Y-8317484D01*
X5814301Y-8317484D02*
X5795253Y-8307960D01*
X5976205Y-8298436D02*
X5985729Y-8307960D01*
X5985729Y-8307960D02*
X5976205Y-8317484D01*
X5976205Y-8317484D02*
X5966682Y-8307960D01*
X5966682Y-8307960D02*
X5976205Y-8298436D01*
X5976205Y-8298436D02*
X5976205Y-8317484D01*
X5976205Y-8193674D02*
X5985729Y-8203198D01*
X5985729Y-8203198D02*
X5976205Y-8212722D01*
X5976205Y-8212722D02*
X5966682Y-8203198D01*
X5966682Y-8203198D02*
X5976205Y-8193674D01*
X5976205Y-8193674D02*
X5976205Y-8212722D01*
D12*
X4309000Y-8628500D02*
X4344000Y-8663500D01*
X4344000Y-8628500D02*
X4309000Y-8663500D01*
D11*
X4642872Y-8537484D02*
X4661920Y-8537484D01*
X4661920Y-8537484D02*
X4680967Y-8547008D01*
X4680967Y-8547008D02*
X4690491Y-8556531D01*
X4690491Y-8556531D02*
X4700015Y-8575579D01*
X4700015Y-8575579D02*
X4709539Y-8613674D01*
X4709539Y-8613674D02*
X4709539Y-8661293D01*
X4709539Y-8661293D02*
X4700015Y-8699389D01*
X4700015Y-8699389D02*
X4690491Y-8718436D01*
X4690491Y-8718436D02*
X4680967Y-8727960D01*
X4680967Y-8727960D02*
X4661920Y-8737484D01*
X4661920Y-8737484D02*
X4642872Y-8737484D01*
X4642872Y-8737484D02*
X4623824Y-8727960D01*
X4623824Y-8727960D02*
X4614301Y-8718436D01*
X4614301Y-8718436D02*
X4604777Y-8699389D01*
X4604777Y-8699389D02*
X4595253Y-8661293D01*
X4595253Y-8661293D02*
X4595253Y-8613674D01*
X4595253Y-8613674D02*
X4604777Y-8575579D01*
X4604777Y-8575579D02*
X4614301Y-8556531D01*
X4614301Y-8556531D02*
X4623824Y-8547008D01*
X4623824Y-8547008D02*
X4642872Y-8537484D01*
X4795253Y-8718436D02*
X4804777Y-8727960D01*
X4804777Y-8727960D02*
X4795253Y-8737484D01*
X4795253Y-8737484D02*
X4785729Y-8727960D01*
X4785729Y-8727960D02*
X4795253Y-8718436D01*
X4795253Y-8718436D02*
X4795253Y-8737484D01*
X4871444Y-8537484D02*
X4995253Y-8537484D01*
X4995253Y-8537484D02*
X4928586Y-8613674D01*
X4928586Y-8613674D02*
X4957158Y-8613674D01*
X4957158Y-8613674D02*
X4976205Y-8623198D01*
X4976205Y-8623198D02*
X4985729Y-8632722D01*
X4985729Y-8632722D02*
X4995253Y-8651770D01*
X4995253Y-8651770D02*
X4995253Y-8699389D01*
X4995253Y-8699389D02*
X4985729Y-8718436D01*
X4985729Y-8718436D02*
X4976205Y-8727960D01*
X4976205Y-8727960D02*
X4957158Y-8737484D01*
X4957158Y-8737484D02*
X4900015Y-8737484D01*
X4900015Y-8737484D02*
X4880967Y-8727960D01*
X4880967Y-8727960D02*
X4871444Y-8718436D01*
X5176205Y-8537484D02*
X5080967Y-8537484D01*
X5080967Y-8537484D02*
X5071444Y-8632722D01*
X5071444Y-8632722D02*
X5080967Y-8623198D01*
X5080967Y-8623198D02*
X5100015Y-8613674D01*
X5100015Y-8613674D02*
X5147634Y-8613674D01*
X5147634Y-8613674D02*
X5166682Y-8623198D01*
X5166682Y-8623198D02*
X5176205Y-8632722D01*
X5176205Y-8632722D02*
X5185729Y-8651770D01*
X5185729Y-8651770D02*
X5185729Y-8699389D01*
X5185729Y-8699389D02*
X5176205Y-8718436D01*
X5176205Y-8718436D02*
X5166682Y-8727960D01*
X5166682Y-8727960D02*
X5147634Y-8737484D01*
X5147634Y-8737484D02*
X5100015Y-8737484D01*
X5100015Y-8737484D02*
X5080967Y-8727960D01*
X5080967Y-8727960D02*
X5071444Y-8718436D01*
X5309539Y-8537484D02*
X5328586Y-8537484D01*
X5328586Y-8537484D02*
X5347634Y-8547008D01*
X5347634Y-8547008D02*
X5357158Y-8556531D01*
X5357158Y-8556531D02*
X5366682Y-8575579D01*
X5366682Y-8575579D02*
X5376205Y-8613674D01*
X5376205Y-8613674D02*
X5376205Y-8661293D01*
X5376205Y-8661293D02*
X5366682Y-8699389D01*
X5366682Y-8699389D02*
X5357158Y-8718436D01*
X5357158Y-8718436D02*
X5347634Y-8727960D01*
X5347634Y-8727960D02*
X5328586Y-8737484D01*
X5328586Y-8737484D02*
X5309539Y-8737484D01*
X5309539Y-8737484D02*
X5290491Y-8727960D01*
X5290491Y-8727960D02*
X5280967Y-8718436D01*
X5280967Y-8718436D02*
X5271444Y-8699389D01*
X5271444Y-8699389D02*
X5261920Y-8661293D01*
X5261920Y-8661293D02*
X5261920Y-8613674D01*
X5261920Y-8613674D02*
X5271444Y-8575579D01*
X5271444Y-8575579D02*
X5280967Y-8556531D01*
X5280967Y-8556531D02*
X5290491Y-8547008D01*
X5290491Y-8547008D02*
X5309539Y-8537484D01*
X5461920Y-8737484D02*
X5461920Y-8604150D01*
X5461920Y-8623198D02*
X5471444Y-8613674D01*
X5471444Y-8613674D02*
X5490491Y-8604150D01*
X5490491Y-8604150D02*
X5519063Y-8604150D01*
X5519063Y-8604150D02*
X5538110Y-8613674D01*
X5538110Y-8613674D02*
X5547634Y-8632722D01*
X5547634Y-8632722D02*
X5547634Y-8737484D01*
X5547634Y-8632722D02*
X5557158Y-8613674D01*
X5557158Y-8613674D02*
X5576205Y-8604150D01*
X5576205Y-8604150D02*
X5604777Y-8604150D01*
X5604777Y-8604150D02*
X5623824Y-8613674D01*
X5623824Y-8613674D02*
X5633348Y-8632722D01*
X5633348Y-8632722D02*
X5633348Y-8737484D01*
X5728586Y-8737484D02*
X5728586Y-8604150D01*
X5728586Y-8623198D02*
X5738110Y-8613674D01*
X5738110Y-8613674D02*
X5757158Y-8604150D01*
X5757158Y-8604150D02*
X5785729Y-8604150D01*
X5785729Y-8604150D02*
X5804777Y-8613674D01*
X5804777Y-8613674D02*
X5814301Y-8632722D01*
X5814301Y-8632722D02*
X5814301Y-8737484D01*
X5814301Y-8632722D02*
X5823824Y-8613674D01*
X5823824Y-8613674D02*
X5842872Y-8604150D01*
X5842872Y-8604150D02*
X5871443Y-8604150D01*
X5871443Y-8604150D02*
X5890491Y-8613674D01*
X5890491Y-8613674D02*
X5900015Y-8632722D01*
X5900015Y-8632722D02*
X5900015Y-8737484D01*
X6290491Y-8527960D02*
X6119063Y-8785103D01*
X6547634Y-8537484D02*
X6566682Y-8537484D01*
X6566682Y-8537484D02*
X6585729Y-8547008D01*
X6585729Y-8547008D02*
X6595253Y-8556531D01*
X6595253Y-8556531D02*
X6604777Y-8575579D01*
X6604777Y-8575579D02*
X6614301Y-8613674D01*
X6614301Y-8613674D02*
X6614301Y-8661293D01*
X6614301Y-8661293D02*
X6604777Y-8699389D01*
X6604777Y-8699389D02*
X6595253Y-8718436D01*
X6595253Y-8718436D02*
X6585729Y-8727960D01*
X6585729Y-8727960D02*
X6566682Y-8737484D01*
X6566682Y-8737484D02*
X6547634Y-8737484D01*
X6547634Y-8737484D02*
X6528586Y-8727960D01*
X6528586Y-8727960D02*
X6519063Y-8718436D01*
X6519063Y-8718436D02*
X6509539Y-8699389D01*
X6509539Y-8699389D02*
X6500015Y-8661293D01*
X6500015Y-8661293D02*
X6500015Y-8613674D01*
X6500015Y-8613674D02*
X6509539Y-8575579D01*
X6509539Y-8575579D02*
X6519063Y-8556531D01*
X6519063Y-8556531D02*
X6528586Y-8547008D01*
X6528586Y-8547008D02*
X6547634Y-8537484D01*
X6700015Y-8718436D02*
X6709539Y-8727960D01*
X6709539Y-8727960D02*
X6700015Y-8737484D01*
X6700015Y-8737484D02*
X6690491Y-8727960D01*
X6690491Y-8727960D02*
X6700015Y-8718436D01*
X6700015Y-8718436D02*
X6700015Y-8737484D01*
X6833348Y-8537484D02*
X6852396Y-8537484D01*
X6852396Y-8537484D02*
X6871444Y-8547008D01*
X6871444Y-8547008D02*
X6880967Y-8556531D01*
X6880967Y-8556531D02*
X6890491Y-8575579D01*
X6890491Y-8575579D02*
X6900015Y-8613674D01*
X6900015Y-8613674D02*
X6900015Y-8661293D01*
X6900015Y-8661293D02*
X6890491Y-8699389D01*
X6890491Y-8699389D02*
X6880967Y-8718436D01*
X6880967Y-8718436D02*
X6871444Y-8727960D01*
X6871444Y-8727960D02*
X6852396Y-8737484D01*
X6852396Y-8737484D02*
X6833348Y-8737484D01*
X6833348Y-8737484D02*
X6814301Y-8727960D01*
X6814301Y-8727960D02*
X6804777Y-8718436D01*
X6804777Y-8718436D02*
X6795253Y-8699389D01*
X6795253Y-8699389D02*
X6785729Y-8661293D01*
X6785729Y-8661293D02*
X6785729Y-8613674D01*
X6785729Y-8613674D02*
X6795253Y-8575579D01*
X6795253Y-8575579D02*
X6804777Y-8556531D01*
X6804777Y-8556531D02*
X6814301Y-8547008D01*
X6814301Y-8547008D02*
X6833348Y-8537484D01*
X7090491Y-8737484D02*
X6976206Y-8737484D01*
X7033348Y-8737484D02*
X7033348Y-8537484D01*
X7033348Y-8537484D02*
X7014301Y-8566055D01*
X7014301Y-8566055D02*
X6995253Y-8585103D01*
X6995253Y-8585103D02*
X6976206Y-8594627D01*
X7157158Y-8537484D02*
X7280967Y-8537484D01*
X7280967Y-8537484D02*
X7214301Y-8613674D01*
X7214301Y-8613674D02*
X7242872Y-8613674D01*
X7242872Y-8613674D02*
X7261920Y-8623198D01*
X7261920Y-8623198D02*
X7271444Y-8632722D01*
X7271444Y-8632722D02*
X7280967Y-8651770D01*
X7280967Y-8651770D02*
X7280967Y-8699389D01*
X7280967Y-8699389D02*
X7271444Y-8718436D01*
X7271444Y-8718436D02*
X7261920Y-8727960D01*
X7261920Y-8727960D02*
X7242872Y-8737484D01*
X7242872Y-8737484D02*
X7185729Y-8737484D01*
X7185729Y-8737484D02*
X7166682Y-8727960D01*
X7166682Y-8727960D02*
X7157158Y-8718436D01*
X7395253Y-8623198D02*
X7376206Y-8613674D01*
X7376206Y-8613674D02*
X7366682Y-8604150D01*
X7366682Y-8604150D02*
X7357158Y-8585103D01*
X7357158Y-8585103D02*
X7357158Y-8575579D01*
X7357158Y-8575579D02*
X7366682Y-8556531D01*
X7366682Y-8556531D02*
X7376206Y-8547008D01*
X7376206Y-8547008D02*
X7395253Y-8537484D01*
X7395253Y-8537484D02*
X7433348Y-8537484D01*
X7433348Y-8537484D02*
X7452396Y-8547008D01*
X7452396Y-8547008D02*
X7461920Y-8556531D01*
X7461920Y-8556531D02*
X7471444Y-8575579D01*
X7471444Y-8575579D02*
X7471444Y-8585103D01*
X7471444Y-8585103D02*
X7461920Y-8604150D01*
X7461920Y-8604150D02*
X7452396Y-8613674D01*
X7452396Y-8613674D02*
X7433348Y-8623198D01*
X7433348Y-8623198D02*
X7395253Y-8623198D01*
X7395253Y-8623198D02*
X7376206Y-8632722D01*
X7376206Y-8632722D02*
X7366682Y-8642246D01*
X7366682Y-8642246D02*
X7357158Y-8661293D01*
X7357158Y-8661293D02*
X7357158Y-8699389D01*
X7357158Y-8699389D02*
X7366682Y-8718436D01*
X7366682Y-8718436D02*
X7376206Y-8727960D01*
X7376206Y-8727960D02*
X7395253Y-8737484D01*
X7395253Y-8737484D02*
X7433348Y-8737484D01*
X7433348Y-8737484D02*
X7452396Y-8727960D01*
X7452396Y-8727960D02*
X7461920Y-8718436D01*
X7461920Y-8718436D02*
X7471444Y-8699389D01*
X7471444Y-8699389D02*
X7471444Y-8661293D01*
X7471444Y-8661293D02*
X7461920Y-8642246D01*
X7461920Y-8642246D02*
X7452396Y-8632722D01*
X7452396Y-8632722D02*
X7433348Y-8623198D01*
X7547634Y-8537484D02*
X7547634Y-8575579D01*
X7623825Y-8537484D02*
X7623825Y-8575579D01*
X7919063Y-8813674D02*
X7909539Y-8804150D01*
X7909539Y-8804150D02*
X7890491Y-8775579D01*
X7890491Y-8775579D02*
X7880968Y-8756531D01*
X7880968Y-8756531D02*
X7871444Y-8727960D01*
X7871444Y-8727960D02*
X7861920Y-8680341D01*
X7861920Y-8680341D02*
X7861920Y-8642246D01*
X7861920Y-8642246D02*
X7871444Y-8594627D01*
X7871444Y-8594627D02*
X7880968Y-8566055D01*
X7880968Y-8566055D02*
X7890491Y-8547008D01*
X7890491Y-8547008D02*
X7909539Y-8518436D01*
X7909539Y-8518436D02*
X7919063Y-8508912D01*
X8100015Y-8737484D02*
X7985729Y-8737484D01*
X8042872Y-8737484D02*
X8042872Y-8537484D01*
X8042872Y-8537484D02*
X8023825Y-8566055D01*
X8023825Y-8566055D02*
X8004777Y-8585103D01*
X8004777Y-8585103D02*
X7985729Y-8594627D01*
X8214301Y-8623198D02*
X8195253Y-8613674D01*
X8195253Y-8613674D02*
X8185729Y-8604150D01*
X8185729Y-8604150D02*
X8176206Y-8585103D01*
X8176206Y-8585103D02*
X8176206Y-8575579D01*
X8176206Y-8575579D02*
X8185729Y-8556531D01*
X8185729Y-8556531D02*
X8195253Y-8547008D01*
X8195253Y-8547008D02*
X8214301Y-8537484D01*
X8214301Y-8537484D02*
X8252396Y-8537484D01*
X8252396Y-8537484D02*
X8271444Y-8547008D01*
X8271444Y-8547008D02*
X8280968Y-8556531D01*
X8280968Y-8556531D02*
X8290491Y-8575579D01*
X8290491Y-8575579D02*
X8290491Y-8585103D01*
X8290491Y-8585103D02*
X8280968Y-8604150D01*
X8280968Y-8604150D02*
X8271444Y-8613674D01*
X8271444Y-8613674D02*
X8252396Y-8623198D01*
X8252396Y-8623198D02*
X8214301Y-8623198D01*
X8214301Y-8623198D02*
X8195253Y-8632722D01*
X8195253Y-8632722D02*
X8185729Y-8642246D01*
X8185729Y-8642246D02*
X8176206Y-8661293D01*
X8176206Y-8661293D02*
X8176206Y-8699389D01*
X8176206Y-8699389D02*
X8185729Y-8718436D01*
X8185729Y-8718436D02*
X8195253Y-8727960D01*
X8195253Y-8727960D02*
X8214301Y-8737484D01*
X8214301Y-8737484D02*
X8252396Y-8737484D01*
X8252396Y-8737484D02*
X8271444Y-8727960D01*
X8271444Y-8727960D02*
X8280968Y-8718436D01*
X8280968Y-8718436D02*
X8290491Y-8699389D01*
X8290491Y-8699389D02*
X8290491Y-8661293D01*
X8290491Y-8661293D02*
X8280968Y-8642246D01*
X8280968Y-8642246D02*
X8271444Y-8632722D01*
X8271444Y-8632722D02*
X8252396Y-8623198D01*
X8528587Y-8737484D02*
X8528587Y-8537484D01*
X8614301Y-8737484D02*
X8614301Y-8632722D01*
X8614301Y-8632722D02*
X8604777Y-8613674D01*
X8604777Y-8613674D02*
X8585730Y-8604150D01*
X8585730Y-8604150D02*
X8557158Y-8604150D01*
X8557158Y-8604150D02*
X8538111Y-8613674D01*
X8538111Y-8613674D02*
X8528587Y-8623198D01*
X8738111Y-8737484D02*
X8719063Y-8727960D01*
X8719063Y-8727960D02*
X8709539Y-8718436D01*
X8709539Y-8718436D02*
X8700015Y-8699389D01*
X8700015Y-8699389D02*
X8700015Y-8642246D01*
X8700015Y-8642246D02*
X8709539Y-8623198D01*
X8709539Y-8623198D02*
X8719063Y-8613674D01*
X8719063Y-8613674D02*
X8738111Y-8604150D01*
X8738111Y-8604150D02*
X8766682Y-8604150D01*
X8766682Y-8604150D02*
X8785730Y-8613674D01*
X8785730Y-8613674D02*
X8795253Y-8623198D01*
X8795253Y-8623198D02*
X8804777Y-8642246D01*
X8804777Y-8642246D02*
X8804777Y-8699389D01*
X8804777Y-8699389D02*
X8795253Y-8718436D01*
X8795253Y-8718436D02*
X8785730Y-8727960D01*
X8785730Y-8727960D02*
X8766682Y-8737484D01*
X8766682Y-8737484D02*
X8738111Y-8737484D01*
X8919063Y-8737484D02*
X8900015Y-8727960D01*
X8900015Y-8727960D02*
X8890492Y-8708912D01*
X8890492Y-8708912D02*
X8890492Y-8537484D01*
X9071444Y-8727960D02*
X9052396Y-8737484D01*
X9052396Y-8737484D02*
X9014301Y-8737484D01*
X9014301Y-8737484D02*
X8995253Y-8727960D01*
X8995253Y-8727960D02*
X8985730Y-8708912D01*
X8985730Y-8708912D02*
X8985730Y-8632722D01*
X8985730Y-8632722D02*
X8995253Y-8613674D01*
X8995253Y-8613674D02*
X9014301Y-8604150D01*
X9014301Y-8604150D02*
X9052396Y-8604150D01*
X9052396Y-8604150D02*
X9071444Y-8613674D01*
X9071444Y-8613674D02*
X9080968Y-8632722D01*
X9080968Y-8632722D02*
X9080968Y-8651770D01*
X9080968Y-8651770D02*
X8985730Y-8670817D01*
X9157158Y-8727960D02*
X9176206Y-8737484D01*
X9176206Y-8737484D02*
X9214301Y-8737484D01*
X9214301Y-8737484D02*
X9233349Y-8727960D01*
X9233349Y-8727960D02*
X9242873Y-8708912D01*
X9242873Y-8708912D02*
X9242873Y-8699389D01*
X9242873Y-8699389D02*
X9233349Y-8680341D01*
X9233349Y-8680341D02*
X9214301Y-8670817D01*
X9214301Y-8670817D02*
X9185730Y-8670817D01*
X9185730Y-8670817D02*
X9166682Y-8661293D01*
X9166682Y-8661293D02*
X9157158Y-8642246D01*
X9157158Y-8642246D02*
X9157158Y-8632722D01*
X9157158Y-8632722D02*
X9166682Y-8613674D01*
X9166682Y-8613674D02*
X9185730Y-8604150D01*
X9185730Y-8604150D02*
X9214301Y-8604150D01*
X9214301Y-8604150D02*
X9233349Y-8613674D01*
X9309539Y-8813674D02*
X9319063Y-8804150D01*
X9319063Y-8804150D02*
X9338111Y-8775579D01*
X9338111Y-8775579D02*
X9347634Y-8756531D01*
X9347634Y-8756531D02*
X9357158Y-8727960D01*
X9357158Y-8727960D02*
X9366682Y-8680341D01*
X9366682Y-8680341D02*
X9366682Y-8642246D01*
X9366682Y-8642246D02*
X9357158Y-8594627D01*
X9357158Y-8594627D02*
X9347634Y-8566055D01*
X9347634Y-8566055D02*
X9338111Y-8547008D01*
X9338111Y-8547008D02*
X9319063Y-8518436D01*
X9319063Y-8518436D02*
X9309539Y-8508912D01*
D12*
X4344000Y-8910000D02*
G75*
G02*
X4304000Y-8910000I-20000J0D01*
G01*
X4304000Y-8910000D02*
G75*
G02*
X4344000Y-8910000I20000J0D01*
G01*
D11*
X4642872Y-8801484D02*
X4661920Y-8801484D01*
X4661920Y-8801484D02*
X4680967Y-8811008D01*
X4680967Y-8811008D02*
X4690491Y-8820531D01*
X4690491Y-8820531D02*
X4700015Y-8839579D01*
X4700015Y-8839579D02*
X4709539Y-8877674D01*
X4709539Y-8877674D02*
X4709539Y-8925293D01*
X4709539Y-8925293D02*
X4700015Y-8963389D01*
X4700015Y-8963389D02*
X4690491Y-8982436D01*
X4690491Y-8982436D02*
X4680967Y-8991960D01*
X4680967Y-8991960D02*
X4661920Y-9001484D01*
X4661920Y-9001484D02*
X4642872Y-9001484D01*
X4642872Y-9001484D02*
X4623824Y-8991960D01*
X4623824Y-8991960D02*
X4614301Y-8982436D01*
X4614301Y-8982436D02*
X4604777Y-8963389D01*
X4604777Y-8963389D02*
X4595253Y-8925293D01*
X4595253Y-8925293D02*
X4595253Y-8877674D01*
X4595253Y-8877674D02*
X4604777Y-8839579D01*
X4604777Y-8839579D02*
X4614301Y-8820531D01*
X4614301Y-8820531D02*
X4623824Y-8811008D01*
X4623824Y-8811008D02*
X4642872Y-8801484D01*
X4795253Y-8982436D02*
X4804777Y-8991960D01*
X4804777Y-8991960D02*
X4795253Y-9001484D01*
X4795253Y-9001484D02*
X4785729Y-8991960D01*
X4785729Y-8991960D02*
X4795253Y-8982436D01*
X4795253Y-8982436D02*
X4795253Y-9001484D01*
X4976205Y-8868150D02*
X4976205Y-9001484D01*
X4928586Y-8791960D02*
X4880967Y-8934817D01*
X4880967Y-8934817D02*
X5004777Y-8934817D01*
X5119063Y-8801484D02*
X5138110Y-8801484D01*
X5138110Y-8801484D02*
X5157158Y-8811008D01*
X5157158Y-8811008D02*
X5166682Y-8820531D01*
X5166682Y-8820531D02*
X5176205Y-8839579D01*
X5176205Y-8839579D02*
X5185729Y-8877674D01*
X5185729Y-8877674D02*
X5185729Y-8925293D01*
X5185729Y-8925293D02*
X5176205Y-8963389D01*
X5176205Y-8963389D02*
X5166682Y-8982436D01*
X5166682Y-8982436D02*
X5157158Y-8991960D01*
X5157158Y-8991960D02*
X5138110Y-9001484D01*
X5138110Y-9001484D02*
X5119063Y-9001484D01*
X5119063Y-9001484D02*
X5100015Y-8991960D01*
X5100015Y-8991960D02*
X5090491Y-8982436D01*
X5090491Y-8982436D02*
X5080967Y-8963389D01*
X5080967Y-8963389D02*
X5071444Y-8925293D01*
X5071444Y-8925293D02*
X5071444Y-8877674D01*
X5071444Y-8877674D02*
X5080967Y-8839579D01*
X5080967Y-8839579D02*
X5090491Y-8820531D01*
X5090491Y-8820531D02*
X5100015Y-8811008D01*
X5100015Y-8811008D02*
X5119063Y-8801484D01*
X5309539Y-8801484D02*
X5328586Y-8801484D01*
X5328586Y-8801484D02*
X5347634Y-8811008D01*
X5347634Y-8811008D02*
X5357158Y-8820531D01*
X5357158Y-8820531D02*
X5366682Y-8839579D01*
X5366682Y-8839579D02*
X5376205Y-8877674D01*
X5376205Y-8877674D02*
X5376205Y-8925293D01*
X5376205Y-8925293D02*
X5366682Y-8963389D01*
X5366682Y-8963389D02*
X5357158Y-8982436D01*
X5357158Y-8982436D02*
X5347634Y-8991960D01*
X5347634Y-8991960D02*
X5328586Y-9001484D01*
X5328586Y-9001484D02*
X5309539Y-9001484D01*
X5309539Y-9001484D02*
X5290491Y-8991960D01*
X5290491Y-8991960D02*
X5280967Y-8982436D01*
X5280967Y-8982436D02*
X5271444Y-8963389D01*
X5271444Y-8963389D02*
X5261920Y-8925293D01*
X5261920Y-8925293D02*
X5261920Y-8877674D01*
X5261920Y-8877674D02*
X5271444Y-8839579D01*
X5271444Y-8839579D02*
X5280967Y-8820531D01*
X5280967Y-8820531D02*
X5290491Y-8811008D01*
X5290491Y-8811008D02*
X5309539Y-8801484D01*
X5461920Y-9001484D02*
X5461920Y-8868150D01*
X5461920Y-8887198D02*
X5471444Y-8877674D01*
X5471444Y-8877674D02*
X5490491Y-8868150D01*
X5490491Y-8868150D02*
X5519063Y-8868150D01*
X5519063Y-8868150D02*
X5538110Y-8877674D01*
X5538110Y-8877674D02*
X5547634Y-8896722D01*
X5547634Y-8896722D02*
X5547634Y-9001484D01*
X5547634Y-8896722D02*
X5557158Y-8877674D01*
X5557158Y-8877674D02*
X5576205Y-8868150D01*
X5576205Y-8868150D02*
X5604777Y-8868150D01*
X5604777Y-8868150D02*
X5623824Y-8877674D01*
X5623824Y-8877674D02*
X5633348Y-8896722D01*
X5633348Y-8896722D02*
X5633348Y-9001484D01*
X5728586Y-9001484D02*
X5728586Y-8868150D01*
X5728586Y-8887198D02*
X5738110Y-8877674D01*
X5738110Y-8877674D02*
X5757158Y-8868150D01*
X5757158Y-8868150D02*
X5785729Y-8868150D01*
X5785729Y-8868150D02*
X5804777Y-8877674D01*
X5804777Y-8877674D02*
X5814301Y-8896722D01*
X5814301Y-8896722D02*
X5814301Y-9001484D01*
X5814301Y-8896722D02*
X5823824Y-8877674D01*
X5823824Y-8877674D02*
X5842872Y-8868150D01*
X5842872Y-8868150D02*
X5871443Y-8868150D01*
X5871443Y-8868150D02*
X5890491Y-8877674D01*
X5890491Y-8877674D02*
X5900015Y-8896722D01*
X5900015Y-8896722D02*
X5900015Y-9001484D01*
X6290491Y-8791960D02*
X6119063Y-9049103D01*
X6547634Y-8801484D02*
X6566682Y-8801484D01*
X6566682Y-8801484D02*
X6585729Y-8811008D01*
X6585729Y-8811008D02*
X6595253Y-8820531D01*
X6595253Y-8820531D02*
X6604777Y-8839579D01*
X6604777Y-8839579D02*
X6614301Y-8877674D01*
X6614301Y-8877674D02*
X6614301Y-8925293D01*
X6614301Y-8925293D02*
X6604777Y-8963389D01*
X6604777Y-8963389D02*
X6595253Y-8982436D01*
X6595253Y-8982436D02*
X6585729Y-8991960D01*
X6585729Y-8991960D02*
X6566682Y-9001484D01*
X6566682Y-9001484D02*
X6547634Y-9001484D01*
X6547634Y-9001484D02*
X6528586Y-8991960D01*
X6528586Y-8991960D02*
X6519063Y-8982436D01*
X6519063Y-8982436D02*
X6509539Y-8963389D01*
X6509539Y-8963389D02*
X6500015Y-8925293D01*
X6500015Y-8925293D02*
X6500015Y-8877674D01*
X6500015Y-8877674D02*
X6509539Y-8839579D01*
X6509539Y-8839579D02*
X6519063Y-8820531D01*
X6519063Y-8820531D02*
X6528586Y-8811008D01*
X6528586Y-8811008D02*
X6547634Y-8801484D01*
X6700015Y-8982436D02*
X6709539Y-8991960D01*
X6709539Y-8991960D02*
X6700015Y-9001484D01*
X6700015Y-9001484D02*
X6690491Y-8991960D01*
X6690491Y-8991960D02*
X6700015Y-8982436D01*
X6700015Y-8982436D02*
X6700015Y-9001484D01*
X6833348Y-8801484D02*
X6852396Y-8801484D01*
X6852396Y-8801484D02*
X6871444Y-8811008D01*
X6871444Y-8811008D02*
X6880967Y-8820531D01*
X6880967Y-8820531D02*
X6890491Y-8839579D01*
X6890491Y-8839579D02*
X6900015Y-8877674D01*
X6900015Y-8877674D02*
X6900015Y-8925293D01*
X6900015Y-8925293D02*
X6890491Y-8963389D01*
X6890491Y-8963389D02*
X6880967Y-8982436D01*
X6880967Y-8982436D02*
X6871444Y-8991960D01*
X6871444Y-8991960D02*
X6852396Y-9001484D01*
X6852396Y-9001484D02*
X6833348Y-9001484D01*
X6833348Y-9001484D02*
X6814301Y-8991960D01*
X6814301Y-8991960D02*
X6804777Y-8982436D01*
X6804777Y-8982436D02*
X6795253Y-8963389D01*
X6795253Y-8963389D02*
X6785729Y-8925293D01*
X6785729Y-8925293D02*
X6785729Y-8877674D01*
X6785729Y-8877674D02*
X6795253Y-8839579D01*
X6795253Y-8839579D02*
X6804777Y-8820531D01*
X6804777Y-8820531D02*
X6814301Y-8811008D01*
X6814301Y-8811008D02*
X6833348Y-8801484D01*
X7090491Y-9001484D02*
X6976206Y-9001484D01*
X7033348Y-9001484D02*
X7033348Y-8801484D01*
X7033348Y-8801484D02*
X7014301Y-8830055D01*
X7014301Y-8830055D02*
X6995253Y-8849103D01*
X6995253Y-8849103D02*
X6976206Y-8858627D01*
X7271444Y-8801484D02*
X7176206Y-8801484D01*
X7176206Y-8801484D02*
X7166682Y-8896722D01*
X7166682Y-8896722D02*
X7176206Y-8887198D01*
X7176206Y-8887198D02*
X7195253Y-8877674D01*
X7195253Y-8877674D02*
X7242872Y-8877674D01*
X7242872Y-8877674D02*
X7261920Y-8887198D01*
X7261920Y-8887198D02*
X7271444Y-8896722D01*
X7271444Y-8896722D02*
X7280967Y-8915770D01*
X7280967Y-8915770D02*
X7280967Y-8963389D01*
X7280967Y-8963389D02*
X7271444Y-8982436D01*
X7271444Y-8982436D02*
X7261920Y-8991960D01*
X7261920Y-8991960D02*
X7242872Y-9001484D01*
X7242872Y-9001484D02*
X7195253Y-9001484D01*
X7195253Y-9001484D02*
X7176206Y-8991960D01*
X7176206Y-8991960D02*
X7166682Y-8982436D01*
X7347634Y-8801484D02*
X7480967Y-8801484D01*
X7480967Y-8801484D02*
X7395253Y-9001484D01*
X7547634Y-8801484D02*
X7547634Y-8839579D01*
X7623825Y-8801484D02*
X7623825Y-8839579D01*
X7919063Y-9077674D02*
X7909539Y-9068150D01*
X7909539Y-9068150D02*
X7890491Y-9039579D01*
X7890491Y-9039579D02*
X7880968Y-9020531D01*
X7880968Y-9020531D02*
X7871444Y-8991960D01*
X7871444Y-8991960D02*
X7861920Y-8944341D01*
X7861920Y-8944341D02*
X7861920Y-8906246D01*
X7861920Y-8906246D02*
X7871444Y-8858627D01*
X7871444Y-8858627D02*
X7880968Y-8830055D01*
X7880968Y-8830055D02*
X7890491Y-8811008D01*
X7890491Y-8811008D02*
X7909539Y-8782436D01*
X7909539Y-8782436D02*
X7919063Y-8772912D01*
X7985729Y-8820531D02*
X7995253Y-8811008D01*
X7995253Y-8811008D02*
X8014301Y-8801484D01*
X8014301Y-8801484D02*
X8061920Y-8801484D01*
X8061920Y-8801484D02*
X8080968Y-8811008D01*
X8080968Y-8811008D02*
X8090491Y-8820531D01*
X8090491Y-8820531D02*
X8100015Y-8839579D01*
X8100015Y-8839579D02*
X8100015Y-8858627D01*
X8100015Y-8858627D02*
X8090491Y-8887198D01*
X8090491Y-8887198D02*
X7976206Y-9001484D01*
X7976206Y-9001484D02*
X8100015Y-9001484D01*
X8166682Y-8801484D02*
X8290491Y-8801484D01*
X8290491Y-8801484D02*
X8223825Y-8877674D01*
X8223825Y-8877674D02*
X8252396Y-8877674D01*
X8252396Y-8877674D02*
X8271444Y-8887198D01*
X8271444Y-8887198D02*
X8280968Y-8896722D01*
X8280968Y-8896722D02*
X8290491Y-8915770D01*
X8290491Y-8915770D02*
X8290491Y-8963389D01*
X8290491Y-8963389D02*
X8280968Y-8982436D01*
X8280968Y-8982436D02*
X8271444Y-8991960D01*
X8271444Y-8991960D02*
X8252396Y-9001484D01*
X8252396Y-9001484D02*
X8195253Y-9001484D01*
X8195253Y-9001484D02*
X8176206Y-8991960D01*
X8176206Y-8991960D02*
X8166682Y-8982436D01*
X8528587Y-9001484D02*
X8528587Y-8801484D01*
X8614301Y-9001484D02*
X8614301Y-8896722D01*
X8614301Y-8896722D02*
X8604777Y-8877674D01*
X8604777Y-8877674D02*
X8585730Y-8868150D01*
X8585730Y-8868150D02*
X8557158Y-8868150D01*
X8557158Y-8868150D02*
X8538111Y-8877674D01*
X8538111Y-8877674D02*
X8528587Y-8887198D01*
X8738111Y-9001484D02*
X8719063Y-8991960D01*
X8719063Y-8991960D02*
X8709539Y-8982436D01*
X8709539Y-8982436D02*
X8700015Y-8963389D01*
X8700015Y-8963389D02*
X8700015Y-8906246D01*
X8700015Y-8906246D02*
X8709539Y-8887198D01*
X8709539Y-8887198D02*
X8719063Y-8877674D01*
X8719063Y-8877674D02*
X8738111Y-8868150D01*
X8738111Y-8868150D02*
X8766682Y-8868150D01*
X8766682Y-8868150D02*
X8785730Y-8877674D01*
X8785730Y-8877674D02*
X8795253Y-8887198D01*
X8795253Y-8887198D02*
X8804777Y-8906246D01*
X8804777Y-8906246D02*
X8804777Y-8963389D01*
X8804777Y-8963389D02*
X8795253Y-8982436D01*
X8795253Y-8982436D02*
X8785730Y-8991960D01*
X8785730Y-8991960D02*
X8766682Y-9001484D01*
X8766682Y-9001484D02*
X8738111Y-9001484D01*
X8919063Y-9001484D02*
X8900015Y-8991960D01*
X8900015Y-8991960D02*
X8890492Y-8972912D01*
X8890492Y-8972912D02*
X8890492Y-8801484D01*
X9071444Y-8991960D02*
X9052396Y-9001484D01*
X9052396Y-9001484D02*
X9014301Y-9001484D01*
X9014301Y-9001484D02*
X8995253Y-8991960D01*
X8995253Y-8991960D02*
X8985730Y-8972912D01*
X8985730Y-8972912D02*
X8985730Y-8896722D01*
X8985730Y-8896722D02*
X8995253Y-8877674D01*
X8995253Y-8877674D02*
X9014301Y-8868150D01*
X9014301Y-8868150D02*
X9052396Y-8868150D01*
X9052396Y-8868150D02*
X9071444Y-8877674D01*
X9071444Y-8877674D02*
X9080968Y-8896722D01*
X9080968Y-8896722D02*
X9080968Y-8915770D01*
X9080968Y-8915770D02*
X8985730Y-8934817D01*
X9157158Y-8991960D02*
X9176206Y-9001484D01*
X9176206Y-9001484D02*
X9214301Y-9001484D01*
X9214301Y-9001484D02*
X9233349Y-8991960D01*
X9233349Y-8991960D02*
X9242873Y-8972912D01*
X9242873Y-8972912D02*
X9242873Y-8963389D01*
X9242873Y-8963389D02*
X9233349Y-8944341D01*
X9233349Y-8944341D02*
X9214301Y-8934817D01*
X9214301Y-8934817D02*
X9185730Y-8934817D01*
X9185730Y-8934817D02*
X9166682Y-8925293D01*
X9166682Y-8925293D02*
X9157158Y-8906246D01*
X9157158Y-8906246D02*
X9157158Y-8896722D01*
X9157158Y-8896722D02*
X9166682Y-8877674D01*
X9166682Y-8877674D02*
X9185730Y-8868150D01*
X9185730Y-8868150D02*
X9214301Y-8868150D01*
X9214301Y-8868150D02*
X9233349Y-8877674D01*
X9309539Y-9077674D02*
X9319063Y-9068150D01*
X9319063Y-9068150D02*
X9338111Y-9039579D01*
X9338111Y-9039579D02*
X9347634Y-9020531D01*
X9347634Y-9020531D02*
X9357158Y-8991960D01*
X9357158Y-8991960D02*
X9366682Y-8944341D01*
X9366682Y-8944341D02*
X9366682Y-8906246D01*
X9366682Y-8906246D02*
X9357158Y-8858627D01*
X9357158Y-8858627D02*
X9347634Y-8830055D01*
X9347634Y-8830055D02*
X9338111Y-8811008D01*
X9338111Y-8811008D02*
X9319063Y-8782436D01*
X9319063Y-8782436D02*
X9309539Y-8772912D01*
D12*
X4294000Y-9124000D02*
X4294000Y-9224000D01*
X4244000Y-9174000D02*
X4344000Y-9174000D01*
D11*
X4709539Y-9265484D02*
X4595253Y-9265484D01*
X4652396Y-9265484D02*
X4652396Y-9065484D01*
X4652396Y-9065484D02*
X4633348Y-9094055D01*
X4633348Y-9094055D02*
X4614301Y-9113103D01*
X4614301Y-9113103D02*
X4595253Y-9122627D01*
X4795253Y-9246436D02*
X4804777Y-9255960D01*
X4804777Y-9255960D02*
X4795253Y-9265484D01*
X4795253Y-9265484D02*
X4785729Y-9255960D01*
X4785729Y-9255960D02*
X4795253Y-9246436D01*
X4795253Y-9246436D02*
X4795253Y-9265484D01*
X4928586Y-9065484D02*
X4947634Y-9065484D01*
X4947634Y-9065484D02*
X4966682Y-9075008D01*
X4966682Y-9075008D02*
X4976205Y-9084531D01*
X4976205Y-9084531D02*
X4985729Y-9103579D01*
X4985729Y-9103579D02*
X4995253Y-9141674D01*
X4995253Y-9141674D02*
X4995253Y-9189293D01*
X4995253Y-9189293D02*
X4985729Y-9227389D01*
X4985729Y-9227389D02*
X4976205Y-9246436D01*
X4976205Y-9246436D02*
X4966682Y-9255960D01*
X4966682Y-9255960D02*
X4947634Y-9265484D01*
X4947634Y-9265484D02*
X4928586Y-9265484D01*
X4928586Y-9265484D02*
X4909539Y-9255960D01*
X4909539Y-9255960D02*
X4900015Y-9246436D01*
X4900015Y-9246436D02*
X4890491Y-9227389D01*
X4890491Y-9227389D02*
X4880967Y-9189293D01*
X4880967Y-9189293D02*
X4880967Y-9141674D01*
X4880967Y-9141674D02*
X4890491Y-9103579D01*
X4890491Y-9103579D02*
X4900015Y-9084531D01*
X4900015Y-9084531D02*
X4909539Y-9075008D01*
X4909539Y-9075008D02*
X4928586Y-9065484D01*
X5119063Y-9065484D02*
X5138110Y-9065484D01*
X5138110Y-9065484D02*
X5157158Y-9075008D01*
X5157158Y-9075008D02*
X5166682Y-9084531D01*
X5166682Y-9084531D02*
X5176205Y-9103579D01*
X5176205Y-9103579D02*
X5185729Y-9141674D01*
X5185729Y-9141674D02*
X5185729Y-9189293D01*
X5185729Y-9189293D02*
X5176205Y-9227389D01*
X5176205Y-9227389D02*
X5166682Y-9246436D01*
X5166682Y-9246436D02*
X5157158Y-9255960D01*
X5157158Y-9255960D02*
X5138110Y-9265484D01*
X5138110Y-9265484D02*
X5119063Y-9265484D01*
X5119063Y-9265484D02*
X5100015Y-9255960D01*
X5100015Y-9255960D02*
X5090491Y-9246436D01*
X5090491Y-9246436D02*
X5080967Y-9227389D01*
X5080967Y-9227389D02*
X5071444Y-9189293D01*
X5071444Y-9189293D02*
X5071444Y-9141674D01*
X5071444Y-9141674D02*
X5080967Y-9103579D01*
X5080967Y-9103579D02*
X5090491Y-9084531D01*
X5090491Y-9084531D02*
X5100015Y-9075008D01*
X5100015Y-9075008D02*
X5119063Y-9065484D01*
X5309539Y-9065484D02*
X5328586Y-9065484D01*
X5328586Y-9065484D02*
X5347634Y-9075008D01*
X5347634Y-9075008D02*
X5357158Y-9084531D01*
X5357158Y-9084531D02*
X5366682Y-9103579D01*
X5366682Y-9103579D02*
X5376205Y-9141674D01*
X5376205Y-9141674D02*
X5376205Y-9189293D01*
X5376205Y-9189293D02*
X5366682Y-9227389D01*
X5366682Y-9227389D02*
X5357158Y-9246436D01*
X5357158Y-9246436D02*
X5347634Y-9255960D01*
X5347634Y-9255960D02*
X5328586Y-9265484D01*
X5328586Y-9265484D02*
X5309539Y-9265484D01*
X5309539Y-9265484D02*
X5290491Y-9255960D01*
X5290491Y-9255960D02*
X5280967Y-9246436D01*
X5280967Y-9246436D02*
X5271444Y-9227389D01*
X5271444Y-9227389D02*
X5261920Y-9189293D01*
X5261920Y-9189293D02*
X5261920Y-9141674D01*
X5261920Y-9141674D02*
X5271444Y-9103579D01*
X5271444Y-9103579D02*
X5280967Y-9084531D01*
X5280967Y-9084531D02*
X5290491Y-9075008D01*
X5290491Y-9075008D02*
X5309539Y-9065484D01*
X5461920Y-9265484D02*
X5461920Y-9132150D01*
X5461920Y-9151198D02*
X5471444Y-9141674D01*
X5471444Y-9141674D02*
X5490491Y-9132150D01*
X5490491Y-9132150D02*
X5519063Y-9132150D01*
X5519063Y-9132150D02*
X5538110Y-9141674D01*
X5538110Y-9141674D02*
X5547634Y-9160722D01*
X5547634Y-9160722D02*
X5547634Y-9265484D01*
X5547634Y-9160722D02*
X5557158Y-9141674D01*
X5557158Y-9141674D02*
X5576205Y-9132150D01*
X5576205Y-9132150D02*
X5604777Y-9132150D01*
X5604777Y-9132150D02*
X5623824Y-9141674D01*
X5623824Y-9141674D02*
X5633348Y-9160722D01*
X5633348Y-9160722D02*
X5633348Y-9265484D01*
X5728586Y-9265484D02*
X5728586Y-9132150D01*
X5728586Y-9151198D02*
X5738110Y-9141674D01*
X5738110Y-9141674D02*
X5757158Y-9132150D01*
X5757158Y-9132150D02*
X5785729Y-9132150D01*
X5785729Y-9132150D02*
X5804777Y-9141674D01*
X5804777Y-9141674D02*
X5814301Y-9160722D01*
X5814301Y-9160722D02*
X5814301Y-9265484D01*
X5814301Y-9160722D02*
X5823824Y-9141674D01*
X5823824Y-9141674D02*
X5842872Y-9132150D01*
X5842872Y-9132150D02*
X5871443Y-9132150D01*
X5871443Y-9132150D02*
X5890491Y-9141674D01*
X5890491Y-9141674D02*
X5900015Y-9160722D01*
X5900015Y-9160722D02*
X5900015Y-9265484D01*
X6290491Y-9055960D02*
X6119063Y-9313103D01*
X6547634Y-9065484D02*
X6566682Y-9065484D01*
X6566682Y-9065484D02*
X6585729Y-9075008D01*
X6585729Y-9075008D02*
X6595253Y-9084531D01*
X6595253Y-9084531D02*
X6604777Y-9103579D01*
X6604777Y-9103579D02*
X6614301Y-9141674D01*
X6614301Y-9141674D02*
X6614301Y-9189293D01*
X6614301Y-9189293D02*
X6604777Y-9227389D01*
X6604777Y-9227389D02*
X6595253Y-9246436D01*
X6595253Y-9246436D02*
X6585729Y-9255960D01*
X6585729Y-9255960D02*
X6566682Y-9265484D01*
X6566682Y-9265484D02*
X6547634Y-9265484D01*
X6547634Y-9265484D02*
X6528586Y-9255960D01*
X6528586Y-9255960D02*
X6519063Y-9246436D01*
X6519063Y-9246436D02*
X6509539Y-9227389D01*
X6509539Y-9227389D02*
X6500015Y-9189293D01*
X6500015Y-9189293D02*
X6500015Y-9141674D01*
X6500015Y-9141674D02*
X6509539Y-9103579D01*
X6509539Y-9103579D02*
X6519063Y-9084531D01*
X6519063Y-9084531D02*
X6528586Y-9075008D01*
X6528586Y-9075008D02*
X6547634Y-9065484D01*
X6700015Y-9246436D02*
X6709539Y-9255960D01*
X6709539Y-9255960D02*
X6700015Y-9265484D01*
X6700015Y-9265484D02*
X6690491Y-9255960D01*
X6690491Y-9255960D02*
X6700015Y-9246436D01*
X6700015Y-9246436D02*
X6700015Y-9265484D01*
X6833348Y-9065484D02*
X6852396Y-9065484D01*
X6852396Y-9065484D02*
X6871444Y-9075008D01*
X6871444Y-9075008D02*
X6880967Y-9084531D01*
X6880967Y-9084531D02*
X6890491Y-9103579D01*
X6890491Y-9103579D02*
X6900015Y-9141674D01*
X6900015Y-9141674D02*
X6900015Y-9189293D01*
X6900015Y-9189293D02*
X6890491Y-9227389D01*
X6890491Y-9227389D02*
X6880967Y-9246436D01*
X6880967Y-9246436D02*
X6871444Y-9255960D01*
X6871444Y-9255960D02*
X6852396Y-9265484D01*
X6852396Y-9265484D02*
X6833348Y-9265484D01*
X6833348Y-9265484D02*
X6814301Y-9255960D01*
X6814301Y-9255960D02*
X6804777Y-9246436D01*
X6804777Y-9246436D02*
X6795253Y-9227389D01*
X6795253Y-9227389D02*
X6785729Y-9189293D01*
X6785729Y-9189293D02*
X6785729Y-9141674D01*
X6785729Y-9141674D02*
X6795253Y-9103579D01*
X6795253Y-9103579D02*
X6804777Y-9084531D01*
X6804777Y-9084531D02*
X6814301Y-9075008D01*
X6814301Y-9075008D02*
X6833348Y-9065484D01*
X6966682Y-9065484D02*
X7090491Y-9065484D01*
X7090491Y-9065484D02*
X7023825Y-9141674D01*
X7023825Y-9141674D02*
X7052396Y-9141674D01*
X7052396Y-9141674D02*
X7071444Y-9151198D01*
X7071444Y-9151198D02*
X7080967Y-9160722D01*
X7080967Y-9160722D02*
X7090491Y-9179770D01*
X7090491Y-9179770D02*
X7090491Y-9227389D01*
X7090491Y-9227389D02*
X7080967Y-9246436D01*
X7080967Y-9246436D02*
X7071444Y-9255960D01*
X7071444Y-9255960D02*
X7052396Y-9265484D01*
X7052396Y-9265484D02*
X6995253Y-9265484D01*
X6995253Y-9265484D02*
X6976206Y-9255960D01*
X6976206Y-9255960D02*
X6966682Y-9246436D01*
X7185729Y-9265484D02*
X7223825Y-9265484D01*
X7223825Y-9265484D02*
X7242872Y-9255960D01*
X7242872Y-9255960D02*
X7252396Y-9246436D01*
X7252396Y-9246436D02*
X7271444Y-9217865D01*
X7271444Y-9217865D02*
X7280967Y-9179770D01*
X7280967Y-9179770D02*
X7280967Y-9103579D01*
X7280967Y-9103579D02*
X7271444Y-9084531D01*
X7271444Y-9084531D02*
X7261920Y-9075008D01*
X7261920Y-9075008D02*
X7242872Y-9065484D01*
X7242872Y-9065484D02*
X7204777Y-9065484D01*
X7204777Y-9065484D02*
X7185729Y-9075008D01*
X7185729Y-9075008D02*
X7176206Y-9084531D01*
X7176206Y-9084531D02*
X7166682Y-9103579D01*
X7166682Y-9103579D02*
X7166682Y-9151198D01*
X7166682Y-9151198D02*
X7176206Y-9170246D01*
X7176206Y-9170246D02*
X7185729Y-9179770D01*
X7185729Y-9179770D02*
X7204777Y-9189293D01*
X7204777Y-9189293D02*
X7242872Y-9189293D01*
X7242872Y-9189293D02*
X7261920Y-9179770D01*
X7261920Y-9179770D02*
X7271444Y-9170246D01*
X7271444Y-9170246D02*
X7280967Y-9151198D01*
X7452396Y-9132150D02*
X7452396Y-9265484D01*
X7404777Y-9055960D02*
X7357158Y-9198817D01*
X7357158Y-9198817D02*
X7480967Y-9198817D01*
X7547634Y-9065484D02*
X7547634Y-9103579D01*
X7623825Y-9065484D02*
X7623825Y-9103579D01*
X7919063Y-9341674D02*
X7909539Y-9332150D01*
X7909539Y-9332150D02*
X7890491Y-9303579D01*
X7890491Y-9303579D02*
X7880968Y-9284531D01*
X7880968Y-9284531D02*
X7871444Y-9255960D01*
X7871444Y-9255960D02*
X7861920Y-9208341D01*
X7861920Y-9208341D02*
X7861920Y-9170246D01*
X7861920Y-9170246D02*
X7871444Y-9122627D01*
X7871444Y-9122627D02*
X7880968Y-9094055D01*
X7880968Y-9094055D02*
X7890491Y-9075008D01*
X7890491Y-9075008D02*
X7909539Y-9046436D01*
X7909539Y-9046436D02*
X7919063Y-9036912D01*
X8090491Y-9065484D02*
X7995253Y-9065484D01*
X7995253Y-9065484D02*
X7985729Y-9160722D01*
X7985729Y-9160722D02*
X7995253Y-9151198D01*
X7995253Y-9151198D02*
X8014301Y-9141674D01*
X8014301Y-9141674D02*
X8061920Y-9141674D01*
X8061920Y-9141674D02*
X8080968Y-9151198D01*
X8080968Y-9151198D02*
X8090491Y-9160722D01*
X8090491Y-9160722D02*
X8100015Y-9179770D01*
X8100015Y-9179770D02*
X8100015Y-9227389D01*
X8100015Y-9227389D02*
X8090491Y-9246436D01*
X8090491Y-9246436D02*
X8080968Y-9255960D01*
X8080968Y-9255960D02*
X8061920Y-9265484D01*
X8061920Y-9265484D02*
X8014301Y-9265484D01*
X8014301Y-9265484D02*
X7995253Y-9255960D01*
X7995253Y-9255960D02*
X7985729Y-9246436D01*
X8176206Y-9084531D02*
X8185729Y-9075008D01*
X8185729Y-9075008D02*
X8204777Y-9065484D01*
X8204777Y-9065484D02*
X8252396Y-9065484D01*
X8252396Y-9065484D02*
X8271444Y-9075008D01*
X8271444Y-9075008D02*
X8280968Y-9084531D01*
X8280968Y-9084531D02*
X8290491Y-9103579D01*
X8290491Y-9103579D02*
X8290491Y-9122627D01*
X8290491Y-9122627D02*
X8280968Y-9151198D01*
X8280968Y-9151198D02*
X8166682Y-9265484D01*
X8166682Y-9265484D02*
X8290491Y-9265484D01*
X8528587Y-9265484D02*
X8528587Y-9065484D01*
X8614301Y-9265484D02*
X8614301Y-9160722D01*
X8614301Y-9160722D02*
X8604777Y-9141674D01*
X8604777Y-9141674D02*
X8585730Y-9132150D01*
X8585730Y-9132150D02*
X8557158Y-9132150D01*
X8557158Y-9132150D02*
X8538111Y-9141674D01*
X8538111Y-9141674D02*
X8528587Y-9151198D01*
X8738111Y-9265484D02*
X8719063Y-9255960D01*
X8719063Y-9255960D02*
X8709539Y-9246436D01*
X8709539Y-9246436D02*
X8700015Y-9227389D01*
X8700015Y-9227389D02*
X8700015Y-9170246D01*
X8700015Y-9170246D02*
X8709539Y-9151198D01*
X8709539Y-9151198D02*
X8719063Y-9141674D01*
X8719063Y-9141674D02*
X8738111Y-9132150D01*
X8738111Y-9132150D02*
X8766682Y-9132150D01*
X8766682Y-9132150D02*
X8785730Y-9141674D01*
X8785730Y-9141674D02*
X8795253Y-9151198D01*
X8795253Y-9151198D02*
X8804777Y-9170246D01*
X8804777Y-9170246D02*
X8804777Y-9227389D01*
X8804777Y-9227389D02*
X8795253Y-9246436D01*
X8795253Y-9246436D02*
X8785730Y-9255960D01*
X8785730Y-9255960D02*
X8766682Y-9265484D01*
X8766682Y-9265484D02*
X8738111Y-9265484D01*
X8919063Y-9265484D02*
X8900015Y-9255960D01*
X8900015Y-9255960D02*
X8890492Y-9236912D01*
X8890492Y-9236912D02*
X8890492Y-9065484D01*
X9071444Y-9255960D02*
X9052396Y-9265484D01*
X9052396Y-9265484D02*
X9014301Y-9265484D01*
X9014301Y-9265484D02*
X8995253Y-9255960D01*
X8995253Y-9255960D02*
X8985730Y-9236912D01*
X8985730Y-9236912D02*
X8985730Y-9160722D01*
X8985730Y-9160722D02*
X8995253Y-9141674D01*
X8995253Y-9141674D02*
X9014301Y-9132150D01*
X9014301Y-9132150D02*
X9052396Y-9132150D01*
X9052396Y-9132150D02*
X9071444Y-9141674D01*
X9071444Y-9141674D02*
X9080968Y-9160722D01*
X9080968Y-9160722D02*
X9080968Y-9179770D01*
X9080968Y-9179770D02*
X8985730Y-9198817D01*
X9157158Y-9255960D02*
X9176206Y-9265484D01*
X9176206Y-9265484D02*
X9214301Y-9265484D01*
X9214301Y-9265484D02*
X9233349Y-9255960D01*
X9233349Y-9255960D02*
X9242873Y-9236912D01*
X9242873Y-9236912D02*
X9242873Y-9227389D01*
X9242873Y-9227389D02*
X9233349Y-9208341D01*
X9233349Y-9208341D02*
X9214301Y-9198817D01*
X9214301Y-9198817D02*
X9185730Y-9198817D01*
X9185730Y-9198817D02*
X9166682Y-9189293D01*
X9166682Y-9189293D02*
X9157158Y-9170246D01*
X9157158Y-9170246D02*
X9157158Y-9160722D01*
X9157158Y-9160722D02*
X9166682Y-9141674D01*
X9166682Y-9141674D02*
X9185730Y-9132150D01*
X9185730Y-9132150D02*
X9214301Y-9132150D01*
X9214301Y-9132150D02*
X9233349Y-9141674D01*
X9309539Y-9341674D02*
X9319063Y-9332150D01*
X9319063Y-9332150D02*
X9338111Y-9303579D01*
X9338111Y-9303579D02*
X9347634Y-9284531D01*
X9347634Y-9284531D02*
X9357158Y-9255960D01*
X9357158Y-9255960D02*
X9366682Y-9208341D01*
X9366682Y-9208341D02*
X9366682Y-9170246D01*
X9366682Y-9170246D02*
X9357158Y-9122627D01*
X9357158Y-9122627D02*
X9347634Y-9094055D01*
X9347634Y-9094055D02*
X9338111Y-9075008D01*
X9338111Y-9075008D02*
X9319063Y-9046436D01*
X9319063Y-9046436D02*
X9309539Y-9036912D01*
D13*
X4329063Y-9474063D02*
X4329063Y-9401937D01*
X4256937Y-9401937D01*
X4256937Y-9474063D01*
X4329063Y-9474063D01*
D11*
X4709539Y-9529484D02*
X4595253Y-9529484D01*
X4652396Y-9529484D02*
X4652396Y-9329484D01*
X4652396Y-9329484D02*
X4633348Y-9358055D01*
X4633348Y-9358055D02*
X4614301Y-9377103D01*
X4614301Y-9377103D02*
X4595253Y-9386627D01*
X4795253Y-9510436D02*
X4804777Y-9519960D01*
X4804777Y-9519960D02*
X4795253Y-9529484D01*
X4795253Y-9529484D02*
X4785729Y-9519960D01*
X4785729Y-9519960D02*
X4795253Y-9510436D01*
X4795253Y-9510436D02*
X4795253Y-9529484D01*
X4928586Y-9329484D02*
X4947634Y-9329484D01*
X4947634Y-9329484D02*
X4966682Y-9339008D01*
X4966682Y-9339008D02*
X4976205Y-9348531D01*
X4976205Y-9348531D02*
X4985729Y-9367579D01*
X4985729Y-9367579D02*
X4995253Y-9405674D01*
X4995253Y-9405674D02*
X4995253Y-9453293D01*
X4995253Y-9453293D02*
X4985729Y-9491389D01*
X4985729Y-9491389D02*
X4976205Y-9510436D01*
X4976205Y-9510436D02*
X4966682Y-9519960D01*
X4966682Y-9519960D02*
X4947634Y-9529484D01*
X4947634Y-9529484D02*
X4928586Y-9529484D01*
X4928586Y-9529484D02*
X4909539Y-9519960D01*
X4909539Y-9519960D02*
X4900015Y-9510436D01*
X4900015Y-9510436D02*
X4890491Y-9491389D01*
X4890491Y-9491389D02*
X4880967Y-9453293D01*
X4880967Y-9453293D02*
X4880967Y-9405674D01*
X4880967Y-9405674D02*
X4890491Y-9367579D01*
X4890491Y-9367579D02*
X4900015Y-9348531D01*
X4900015Y-9348531D02*
X4909539Y-9339008D01*
X4909539Y-9339008D02*
X4928586Y-9329484D01*
X5071444Y-9348531D02*
X5080967Y-9339008D01*
X5080967Y-9339008D02*
X5100015Y-9329484D01*
X5100015Y-9329484D02*
X5147634Y-9329484D01*
X5147634Y-9329484D02*
X5166682Y-9339008D01*
X5166682Y-9339008D02*
X5176205Y-9348531D01*
X5176205Y-9348531D02*
X5185729Y-9367579D01*
X5185729Y-9367579D02*
X5185729Y-9386627D01*
X5185729Y-9386627D02*
X5176205Y-9415198D01*
X5176205Y-9415198D02*
X5061920Y-9529484D01*
X5061920Y-9529484D02*
X5185729Y-9529484D01*
X5309539Y-9329484D02*
X5328586Y-9329484D01*
X5328586Y-9329484D02*
X5347634Y-9339008D01*
X5347634Y-9339008D02*
X5357158Y-9348531D01*
X5357158Y-9348531D02*
X5366682Y-9367579D01*
X5366682Y-9367579D02*
X5376205Y-9405674D01*
X5376205Y-9405674D02*
X5376205Y-9453293D01*
X5376205Y-9453293D02*
X5366682Y-9491389D01*
X5366682Y-9491389D02*
X5357158Y-9510436D01*
X5357158Y-9510436D02*
X5347634Y-9519960D01*
X5347634Y-9519960D02*
X5328586Y-9529484D01*
X5328586Y-9529484D02*
X5309539Y-9529484D01*
X5309539Y-9529484D02*
X5290491Y-9519960D01*
X5290491Y-9519960D02*
X5280967Y-9510436D01*
X5280967Y-9510436D02*
X5271444Y-9491389D01*
X5271444Y-9491389D02*
X5261920Y-9453293D01*
X5261920Y-9453293D02*
X5261920Y-9405674D01*
X5261920Y-9405674D02*
X5271444Y-9367579D01*
X5271444Y-9367579D02*
X5280967Y-9348531D01*
X5280967Y-9348531D02*
X5290491Y-9339008D01*
X5290491Y-9339008D02*
X5309539Y-9329484D01*
X5461920Y-9529484D02*
X5461920Y-9396150D01*
X5461920Y-9415198D02*
X5471444Y-9405674D01*
X5471444Y-9405674D02*
X5490491Y-9396150D01*
X5490491Y-9396150D02*
X5519063Y-9396150D01*
X5519063Y-9396150D02*
X5538110Y-9405674D01*
X5538110Y-9405674D02*
X5547634Y-9424722D01*
X5547634Y-9424722D02*
X5547634Y-9529484D01*
X5547634Y-9424722D02*
X5557158Y-9405674D01*
X5557158Y-9405674D02*
X5576205Y-9396150D01*
X5576205Y-9396150D02*
X5604777Y-9396150D01*
X5604777Y-9396150D02*
X5623824Y-9405674D01*
X5623824Y-9405674D02*
X5633348Y-9424722D01*
X5633348Y-9424722D02*
X5633348Y-9529484D01*
X5728586Y-9529484D02*
X5728586Y-9396150D01*
X5728586Y-9415198D02*
X5738110Y-9405674D01*
X5738110Y-9405674D02*
X5757158Y-9396150D01*
X5757158Y-9396150D02*
X5785729Y-9396150D01*
X5785729Y-9396150D02*
X5804777Y-9405674D01*
X5804777Y-9405674D02*
X5814301Y-9424722D01*
X5814301Y-9424722D02*
X5814301Y-9529484D01*
X5814301Y-9424722D02*
X5823824Y-9405674D01*
X5823824Y-9405674D02*
X5842872Y-9396150D01*
X5842872Y-9396150D02*
X5871443Y-9396150D01*
X5871443Y-9396150D02*
X5890491Y-9405674D01*
X5890491Y-9405674D02*
X5900015Y-9424722D01*
X5900015Y-9424722D02*
X5900015Y-9529484D01*
X6290491Y-9319960D02*
X6119063Y-9577103D01*
X6547634Y-9329484D02*
X6566682Y-9329484D01*
X6566682Y-9329484D02*
X6585729Y-9339008D01*
X6585729Y-9339008D02*
X6595253Y-9348531D01*
X6595253Y-9348531D02*
X6604777Y-9367579D01*
X6604777Y-9367579D02*
X6614301Y-9405674D01*
X6614301Y-9405674D02*
X6614301Y-9453293D01*
X6614301Y-9453293D02*
X6604777Y-9491389D01*
X6604777Y-9491389D02*
X6595253Y-9510436D01*
X6595253Y-9510436D02*
X6585729Y-9519960D01*
X6585729Y-9519960D02*
X6566682Y-9529484D01*
X6566682Y-9529484D02*
X6547634Y-9529484D01*
X6547634Y-9529484D02*
X6528586Y-9519960D01*
X6528586Y-9519960D02*
X6519063Y-9510436D01*
X6519063Y-9510436D02*
X6509539Y-9491389D01*
X6509539Y-9491389D02*
X6500015Y-9453293D01*
X6500015Y-9453293D02*
X6500015Y-9405674D01*
X6500015Y-9405674D02*
X6509539Y-9367579D01*
X6509539Y-9367579D02*
X6519063Y-9348531D01*
X6519063Y-9348531D02*
X6528586Y-9339008D01*
X6528586Y-9339008D02*
X6547634Y-9329484D01*
X6700015Y-9510436D02*
X6709539Y-9519960D01*
X6709539Y-9519960D02*
X6700015Y-9529484D01*
X6700015Y-9529484D02*
X6690491Y-9519960D01*
X6690491Y-9519960D02*
X6700015Y-9510436D01*
X6700015Y-9510436D02*
X6700015Y-9529484D01*
X6833348Y-9329484D02*
X6852396Y-9329484D01*
X6852396Y-9329484D02*
X6871444Y-9339008D01*
X6871444Y-9339008D02*
X6880967Y-9348531D01*
X6880967Y-9348531D02*
X6890491Y-9367579D01*
X6890491Y-9367579D02*
X6900015Y-9405674D01*
X6900015Y-9405674D02*
X6900015Y-9453293D01*
X6900015Y-9453293D02*
X6890491Y-9491389D01*
X6890491Y-9491389D02*
X6880967Y-9510436D01*
X6880967Y-9510436D02*
X6871444Y-9519960D01*
X6871444Y-9519960D02*
X6852396Y-9529484D01*
X6852396Y-9529484D02*
X6833348Y-9529484D01*
X6833348Y-9529484D02*
X6814301Y-9519960D01*
X6814301Y-9519960D02*
X6804777Y-9510436D01*
X6804777Y-9510436D02*
X6795253Y-9491389D01*
X6795253Y-9491389D02*
X6785729Y-9453293D01*
X6785729Y-9453293D02*
X6785729Y-9405674D01*
X6785729Y-9405674D02*
X6795253Y-9367579D01*
X6795253Y-9367579D02*
X6804777Y-9348531D01*
X6804777Y-9348531D02*
X6814301Y-9339008D01*
X6814301Y-9339008D02*
X6833348Y-9329484D01*
X7071444Y-9396150D02*
X7071444Y-9529484D01*
X7023825Y-9319960D02*
X6976206Y-9462817D01*
X6976206Y-9462817D02*
X7100015Y-9462817D01*
X7214301Y-9329484D02*
X7233348Y-9329484D01*
X7233348Y-9329484D02*
X7252396Y-9339008D01*
X7252396Y-9339008D02*
X7261920Y-9348531D01*
X7261920Y-9348531D02*
X7271444Y-9367579D01*
X7271444Y-9367579D02*
X7280967Y-9405674D01*
X7280967Y-9405674D02*
X7280967Y-9453293D01*
X7280967Y-9453293D02*
X7271444Y-9491389D01*
X7271444Y-9491389D02*
X7261920Y-9510436D01*
X7261920Y-9510436D02*
X7252396Y-9519960D01*
X7252396Y-9519960D02*
X7233348Y-9529484D01*
X7233348Y-9529484D02*
X7214301Y-9529484D01*
X7214301Y-9529484D02*
X7195253Y-9519960D01*
X7195253Y-9519960D02*
X7185729Y-9510436D01*
X7185729Y-9510436D02*
X7176206Y-9491389D01*
X7176206Y-9491389D02*
X7166682Y-9453293D01*
X7166682Y-9453293D02*
X7166682Y-9405674D01*
X7166682Y-9405674D02*
X7176206Y-9367579D01*
X7176206Y-9367579D02*
X7185729Y-9348531D01*
X7185729Y-9348531D02*
X7195253Y-9339008D01*
X7195253Y-9339008D02*
X7214301Y-9329484D01*
X7357158Y-9348531D02*
X7366682Y-9339008D01*
X7366682Y-9339008D02*
X7385729Y-9329484D01*
X7385729Y-9329484D02*
X7433348Y-9329484D01*
X7433348Y-9329484D02*
X7452396Y-9339008D01*
X7452396Y-9339008D02*
X7461920Y-9348531D01*
X7461920Y-9348531D02*
X7471444Y-9367579D01*
X7471444Y-9367579D02*
X7471444Y-9386627D01*
X7471444Y-9386627D02*
X7461920Y-9415198D01*
X7461920Y-9415198D02*
X7347634Y-9529484D01*
X7347634Y-9529484D02*
X7471444Y-9529484D01*
X7547634Y-9329484D02*
X7547634Y-9367579D01*
X7623825Y-9329484D02*
X7623825Y-9367579D01*
X7919063Y-9605674D02*
X7909539Y-9596150D01*
X7909539Y-9596150D02*
X7890491Y-9567579D01*
X7890491Y-9567579D02*
X7880968Y-9548531D01*
X7880968Y-9548531D02*
X7871444Y-9519960D01*
X7871444Y-9519960D02*
X7861920Y-9472341D01*
X7861920Y-9472341D02*
X7861920Y-9434246D01*
X7861920Y-9434246D02*
X7871444Y-9386627D01*
X7871444Y-9386627D02*
X7880968Y-9358055D01*
X7880968Y-9358055D02*
X7890491Y-9339008D01*
X7890491Y-9339008D02*
X7909539Y-9310436D01*
X7909539Y-9310436D02*
X7919063Y-9300912D01*
X8080968Y-9396150D02*
X8080968Y-9529484D01*
X8033348Y-9319960D02*
X7985729Y-9462817D01*
X7985729Y-9462817D02*
X8109539Y-9462817D01*
X8223825Y-9329484D02*
X8242872Y-9329484D01*
X8242872Y-9329484D02*
X8261920Y-9339008D01*
X8261920Y-9339008D02*
X8271444Y-9348531D01*
X8271444Y-9348531D02*
X8280968Y-9367579D01*
X8280968Y-9367579D02*
X8290491Y-9405674D01*
X8290491Y-9405674D02*
X8290491Y-9453293D01*
X8290491Y-9453293D02*
X8280968Y-9491389D01*
X8280968Y-9491389D02*
X8271444Y-9510436D01*
X8271444Y-9510436D02*
X8261920Y-9519960D01*
X8261920Y-9519960D02*
X8242872Y-9529484D01*
X8242872Y-9529484D02*
X8223825Y-9529484D01*
X8223825Y-9529484D02*
X8204777Y-9519960D01*
X8204777Y-9519960D02*
X8195253Y-9510436D01*
X8195253Y-9510436D02*
X8185729Y-9491389D01*
X8185729Y-9491389D02*
X8176206Y-9453293D01*
X8176206Y-9453293D02*
X8176206Y-9405674D01*
X8176206Y-9405674D02*
X8185729Y-9367579D01*
X8185729Y-9367579D02*
X8195253Y-9348531D01*
X8195253Y-9348531D02*
X8204777Y-9339008D01*
X8204777Y-9339008D02*
X8223825Y-9329484D01*
X8528587Y-9529484D02*
X8528587Y-9329484D01*
X8614301Y-9529484D02*
X8614301Y-9424722D01*
X8614301Y-9424722D02*
X8604777Y-9405674D01*
X8604777Y-9405674D02*
X8585730Y-9396150D01*
X8585730Y-9396150D02*
X8557158Y-9396150D01*
X8557158Y-9396150D02*
X8538111Y-9405674D01*
X8538111Y-9405674D02*
X8528587Y-9415198D01*
X8738111Y-9529484D02*
X8719063Y-9519960D01*
X8719063Y-9519960D02*
X8709539Y-9510436D01*
X8709539Y-9510436D02*
X8700015Y-9491389D01*
X8700015Y-9491389D02*
X8700015Y-9434246D01*
X8700015Y-9434246D02*
X8709539Y-9415198D01*
X8709539Y-9415198D02*
X8719063Y-9405674D01*
X8719063Y-9405674D02*
X8738111Y-9396150D01*
X8738111Y-9396150D02*
X8766682Y-9396150D01*
X8766682Y-9396150D02*
X8785730Y-9405674D01*
X8785730Y-9405674D02*
X8795253Y-9415198D01*
X8795253Y-9415198D02*
X8804777Y-9434246D01*
X8804777Y-9434246D02*
X8804777Y-9491389D01*
X8804777Y-9491389D02*
X8795253Y-9510436D01*
X8795253Y-9510436D02*
X8785730Y-9519960D01*
X8785730Y-9519960D02*
X8766682Y-9529484D01*
X8766682Y-9529484D02*
X8738111Y-9529484D01*
X8919063Y-9529484D02*
X8900015Y-9519960D01*
X8900015Y-9519960D02*
X8890492Y-9500912D01*
X8890492Y-9500912D02*
X8890492Y-9329484D01*
X9071444Y-9519960D02*
X9052396Y-9529484D01*
X9052396Y-9529484D02*
X9014301Y-9529484D01*
X9014301Y-9529484D02*
X8995253Y-9519960D01*
X8995253Y-9519960D02*
X8985730Y-9500912D01*
X8985730Y-9500912D02*
X8985730Y-9424722D01*
X8985730Y-9424722D02*
X8995253Y-9405674D01*
X8995253Y-9405674D02*
X9014301Y-9396150D01*
X9014301Y-9396150D02*
X9052396Y-9396150D01*
X9052396Y-9396150D02*
X9071444Y-9405674D01*
X9071444Y-9405674D02*
X9080968Y-9424722D01*
X9080968Y-9424722D02*
X9080968Y-9443770D01*
X9080968Y-9443770D02*
X8985730Y-9462817D01*
X9157158Y-9519960D02*
X9176206Y-9529484D01*
X9176206Y-9529484D02*
X9214301Y-9529484D01*
X9214301Y-9529484D02*
X9233349Y-9519960D01*
X9233349Y-9519960D02*
X9242873Y-9500912D01*
X9242873Y-9500912D02*
X9242873Y-9491389D01*
X9242873Y-9491389D02*
X9233349Y-9472341D01*
X9233349Y-9472341D02*
X9214301Y-9462817D01*
X9214301Y-9462817D02*
X9185730Y-9462817D01*
X9185730Y-9462817D02*
X9166682Y-9453293D01*
X9166682Y-9453293D02*
X9157158Y-9434246D01*
X9157158Y-9434246D02*
X9157158Y-9424722D01*
X9157158Y-9424722D02*
X9166682Y-9405674D01*
X9166682Y-9405674D02*
X9185730Y-9396150D01*
X9185730Y-9396150D02*
X9214301Y-9396150D01*
X9214301Y-9396150D02*
X9233349Y-9405674D01*
X9309539Y-9605674D02*
X9319063Y-9596150D01*
X9319063Y-9596150D02*
X9338111Y-9567579D01*
X9338111Y-9567579D02*
X9347634Y-9548531D01*
X9347634Y-9548531D02*
X9357158Y-9519960D01*
X9357158Y-9519960D02*
X9366682Y-9472341D01*
X9366682Y-9472341D02*
X9366682Y-9434246D01*
X9366682Y-9434246D02*
X9357158Y-9386627D01*
X9357158Y-9386627D02*
X9347634Y-9358055D01*
X9347634Y-9358055D02*
X9338111Y-9339008D01*
X9338111Y-9339008D02*
X9319063Y-9310436D01*
X9319063Y-9310436D02*
X9309539Y-9300912D01*
D14*
X4269000Y-9777000D02*
X4344000Y-9702000D01*
X4269000Y-9627000D01*
X4194000Y-9702000D01*
X4269000Y-9777000D01*
D11*
X4709539Y-9793484D02*
X4595253Y-9793484D01*
X4652396Y-9793484D02*
X4652396Y-9593484D01*
X4652396Y-9593484D02*
X4633348Y-9622055D01*
X4633348Y-9622055D02*
X4614301Y-9641103D01*
X4614301Y-9641103D02*
X4595253Y-9650627D01*
X4795253Y-9774436D02*
X4804777Y-9783960D01*
X4804777Y-9783960D02*
X4795253Y-9793484D01*
X4795253Y-9793484D02*
X4785729Y-9783960D01*
X4785729Y-9783960D02*
X4795253Y-9774436D01*
X4795253Y-9774436D02*
X4795253Y-9793484D01*
X4985729Y-9593484D02*
X4890491Y-9593484D01*
X4890491Y-9593484D02*
X4880967Y-9688722D01*
X4880967Y-9688722D02*
X4890491Y-9679198D01*
X4890491Y-9679198D02*
X4909539Y-9669674D01*
X4909539Y-9669674D02*
X4957158Y-9669674D01*
X4957158Y-9669674D02*
X4976205Y-9679198D01*
X4976205Y-9679198D02*
X4985729Y-9688722D01*
X4985729Y-9688722D02*
X4995253Y-9707770D01*
X4995253Y-9707770D02*
X4995253Y-9755389D01*
X4995253Y-9755389D02*
X4985729Y-9774436D01*
X4985729Y-9774436D02*
X4976205Y-9783960D01*
X4976205Y-9783960D02*
X4957158Y-9793484D01*
X4957158Y-9793484D02*
X4909539Y-9793484D01*
X4909539Y-9793484D02*
X4890491Y-9783960D01*
X4890491Y-9783960D02*
X4880967Y-9774436D01*
X5119063Y-9593484D02*
X5138110Y-9593484D01*
X5138110Y-9593484D02*
X5157158Y-9603008D01*
X5157158Y-9603008D02*
X5166682Y-9612531D01*
X5166682Y-9612531D02*
X5176205Y-9631579D01*
X5176205Y-9631579D02*
X5185729Y-9669674D01*
X5185729Y-9669674D02*
X5185729Y-9717293D01*
X5185729Y-9717293D02*
X5176205Y-9755389D01*
X5176205Y-9755389D02*
X5166682Y-9774436D01*
X5166682Y-9774436D02*
X5157158Y-9783960D01*
X5157158Y-9783960D02*
X5138110Y-9793484D01*
X5138110Y-9793484D02*
X5119063Y-9793484D01*
X5119063Y-9793484D02*
X5100015Y-9783960D01*
X5100015Y-9783960D02*
X5090491Y-9774436D01*
X5090491Y-9774436D02*
X5080967Y-9755389D01*
X5080967Y-9755389D02*
X5071444Y-9717293D01*
X5071444Y-9717293D02*
X5071444Y-9669674D01*
X5071444Y-9669674D02*
X5080967Y-9631579D01*
X5080967Y-9631579D02*
X5090491Y-9612531D01*
X5090491Y-9612531D02*
X5100015Y-9603008D01*
X5100015Y-9603008D02*
X5119063Y-9593484D01*
X5309539Y-9593484D02*
X5328586Y-9593484D01*
X5328586Y-9593484D02*
X5347634Y-9603008D01*
X5347634Y-9603008D02*
X5357158Y-9612531D01*
X5357158Y-9612531D02*
X5366682Y-9631579D01*
X5366682Y-9631579D02*
X5376205Y-9669674D01*
X5376205Y-9669674D02*
X5376205Y-9717293D01*
X5376205Y-9717293D02*
X5366682Y-9755389D01*
X5366682Y-9755389D02*
X5357158Y-9774436D01*
X5357158Y-9774436D02*
X5347634Y-9783960D01*
X5347634Y-9783960D02*
X5328586Y-9793484D01*
X5328586Y-9793484D02*
X5309539Y-9793484D01*
X5309539Y-9793484D02*
X5290491Y-9783960D01*
X5290491Y-9783960D02*
X5280967Y-9774436D01*
X5280967Y-9774436D02*
X5271444Y-9755389D01*
X5271444Y-9755389D02*
X5261920Y-9717293D01*
X5261920Y-9717293D02*
X5261920Y-9669674D01*
X5261920Y-9669674D02*
X5271444Y-9631579D01*
X5271444Y-9631579D02*
X5280967Y-9612531D01*
X5280967Y-9612531D02*
X5290491Y-9603008D01*
X5290491Y-9603008D02*
X5309539Y-9593484D01*
X5461920Y-9793484D02*
X5461920Y-9660150D01*
X5461920Y-9679198D02*
X5471444Y-9669674D01*
X5471444Y-9669674D02*
X5490491Y-9660150D01*
X5490491Y-9660150D02*
X5519063Y-9660150D01*
X5519063Y-9660150D02*
X5538110Y-9669674D01*
X5538110Y-9669674D02*
X5547634Y-9688722D01*
X5547634Y-9688722D02*
X5547634Y-9793484D01*
X5547634Y-9688722D02*
X5557158Y-9669674D01*
X5557158Y-9669674D02*
X5576205Y-9660150D01*
X5576205Y-9660150D02*
X5604777Y-9660150D01*
X5604777Y-9660150D02*
X5623824Y-9669674D01*
X5623824Y-9669674D02*
X5633348Y-9688722D01*
X5633348Y-9688722D02*
X5633348Y-9793484D01*
X5728586Y-9793484D02*
X5728586Y-9660150D01*
X5728586Y-9679198D02*
X5738110Y-9669674D01*
X5738110Y-9669674D02*
X5757158Y-9660150D01*
X5757158Y-9660150D02*
X5785729Y-9660150D01*
X5785729Y-9660150D02*
X5804777Y-9669674D01*
X5804777Y-9669674D02*
X5814301Y-9688722D01*
X5814301Y-9688722D02*
X5814301Y-9793484D01*
X5814301Y-9688722D02*
X5823824Y-9669674D01*
X5823824Y-9669674D02*
X5842872Y-9660150D01*
X5842872Y-9660150D02*
X5871443Y-9660150D01*
X5871443Y-9660150D02*
X5890491Y-9669674D01*
X5890491Y-9669674D02*
X5900015Y-9688722D01*
X5900015Y-9688722D02*
X5900015Y-9793484D01*
X6290491Y-9583960D02*
X6119063Y-9841103D01*
X6547634Y-9593484D02*
X6566682Y-9593484D01*
X6566682Y-9593484D02*
X6585729Y-9603008D01*
X6585729Y-9603008D02*
X6595253Y-9612531D01*
X6595253Y-9612531D02*
X6604777Y-9631579D01*
X6604777Y-9631579D02*
X6614301Y-9669674D01*
X6614301Y-9669674D02*
X6614301Y-9717293D01*
X6614301Y-9717293D02*
X6604777Y-9755389D01*
X6604777Y-9755389D02*
X6595253Y-9774436D01*
X6595253Y-9774436D02*
X6585729Y-9783960D01*
X6585729Y-9783960D02*
X6566682Y-9793484D01*
X6566682Y-9793484D02*
X6547634Y-9793484D01*
X6547634Y-9793484D02*
X6528586Y-9783960D01*
X6528586Y-9783960D02*
X6519063Y-9774436D01*
X6519063Y-9774436D02*
X6509539Y-9755389D01*
X6509539Y-9755389D02*
X6500015Y-9717293D01*
X6500015Y-9717293D02*
X6500015Y-9669674D01*
X6500015Y-9669674D02*
X6509539Y-9631579D01*
X6509539Y-9631579D02*
X6519063Y-9612531D01*
X6519063Y-9612531D02*
X6528586Y-9603008D01*
X6528586Y-9603008D02*
X6547634Y-9593484D01*
X6700015Y-9774436D02*
X6709539Y-9783960D01*
X6709539Y-9783960D02*
X6700015Y-9793484D01*
X6700015Y-9793484D02*
X6690491Y-9783960D01*
X6690491Y-9783960D02*
X6700015Y-9774436D01*
X6700015Y-9774436D02*
X6700015Y-9793484D01*
X6833348Y-9593484D02*
X6852396Y-9593484D01*
X6852396Y-9593484D02*
X6871444Y-9603008D01*
X6871444Y-9603008D02*
X6880967Y-9612531D01*
X6880967Y-9612531D02*
X6890491Y-9631579D01*
X6890491Y-9631579D02*
X6900015Y-9669674D01*
X6900015Y-9669674D02*
X6900015Y-9717293D01*
X6900015Y-9717293D02*
X6890491Y-9755389D01*
X6890491Y-9755389D02*
X6880967Y-9774436D01*
X6880967Y-9774436D02*
X6871444Y-9783960D01*
X6871444Y-9783960D02*
X6852396Y-9793484D01*
X6852396Y-9793484D02*
X6833348Y-9793484D01*
X6833348Y-9793484D02*
X6814301Y-9783960D01*
X6814301Y-9783960D02*
X6804777Y-9774436D01*
X6804777Y-9774436D02*
X6795253Y-9755389D01*
X6795253Y-9755389D02*
X6785729Y-9717293D01*
X6785729Y-9717293D02*
X6785729Y-9669674D01*
X6785729Y-9669674D02*
X6795253Y-9631579D01*
X6795253Y-9631579D02*
X6804777Y-9612531D01*
X6804777Y-9612531D02*
X6814301Y-9603008D01*
X6814301Y-9603008D02*
X6833348Y-9593484D01*
X7080967Y-9593484D02*
X6985729Y-9593484D01*
X6985729Y-9593484D02*
X6976206Y-9688722D01*
X6976206Y-9688722D02*
X6985729Y-9679198D01*
X6985729Y-9679198D02*
X7004777Y-9669674D01*
X7004777Y-9669674D02*
X7052396Y-9669674D01*
X7052396Y-9669674D02*
X7071444Y-9679198D01*
X7071444Y-9679198D02*
X7080967Y-9688722D01*
X7080967Y-9688722D02*
X7090491Y-9707770D01*
X7090491Y-9707770D02*
X7090491Y-9755389D01*
X7090491Y-9755389D02*
X7080967Y-9774436D01*
X7080967Y-9774436D02*
X7071444Y-9783960D01*
X7071444Y-9783960D02*
X7052396Y-9793484D01*
X7052396Y-9793484D02*
X7004777Y-9793484D01*
X7004777Y-9793484D02*
X6985729Y-9783960D01*
X6985729Y-9783960D02*
X6976206Y-9774436D01*
X7185729Y-9793484D02*
X7223825Y-9793484D01*
X7223825Y-9793484D02*
X7242872Y-9783960D01*
X7242872Y-9783960D02*
X7252396Y-9774436D01*
X7252396Y-9774436D02*
X7271444Y-9745865D01*
X7271444Y-9745865D02*
X7280967Y-9707770D01*
X7280967Y-9707770D02*
X7280967Y-9631579D01*
X7280967Y-9631579D02*
X7271444Y-9612531D01*
X7271444Y-9612531D02*
X7261920Y-9603008D01*
X7261920Y-9603008D02*
X7242872Y-9593484D01*
X7242872Y-9593484D02*
X7204777Y-9593484D01*
X7204777Y-9593484D02*
X7185729Y-9603008D01*
X7185729Y-9603008D02*
X7176206Y-9612531D01*
X7176206Y-9612531D02*
X7166682Y-9631579D01*
X7166682Y-9631579D02*
X7166682Y-9679198D01*
X7166682Y-9679198D02*
X7176206Y-9698246D01*
X7176206Y-9698246D02*
X7185729Y-9707770D01*
X7185729Y-9707770D02*
X7204777Y-9717293D01*
X7204777Y-9717293D02*
X7242872Y-9717293D01*
X7242872Y-9717293D02*
X7261920Y-9707770D01*
X7261920Y-9707770D02*
X7271444Y-9698246D01*
X7271444Y-9698246D02*
X7280967Y-9679198D01*
X7471444Y-9793484D02*
X7357158Y-9793484D01*
X7414301Y-9793484D02*
X7414301Y-9593484D01*
X7414301Y-9593484D02*
X7395253Y-9622055D01*
X7395253Y-9622055D02*
X7376206Y-9641103D01*
X7376206Y-9641103D02*
X7357158Y-9650627D01*
X7547634Y-9593484D02*
X7547634Y-9631579D01*
X7623825Y-9593484D02*
X7623825Y-9631579D01*
X7919063Y-9869674D02*
X7909539Y-9860150D01*
X7909539Y-9860150D02*
X7890491Y-9831579D01*
X7890491Y-9831579D02*
X7880968Y-9812531D01*
X7880968Y-9812531D02*
X7871444Y-9783960D01*
X7871444Y-9783960D02*
X7861920Y-9736341D01*
X7861920Y-9736341D02*
X7861920Y-9698246D01*
X7861920Y-9698246D02*
X7871444Y-9650627D01*
X7871444Y-9650627D02*
X7880968Y-9622055D01*
X7880968Y-9622055D02*
X7890491Y-9603008D01*
X7890491Y-9603008D02*
X7909539Y-9574436D01*
X7909539Y-9574436D02*
X7919063Y-9564912D01*
X7985729Y-9612531D02*
X7995253Y-9603008D01*
X7995253Y-9603008D02*
X8014301Y-9593484D01*
X8014301Y-9593484D02*
X8061920Y-9593484D01*
X8061920Y-9593484D02*
X8080968Y-9603008D01*
X8080968Y-9603008D02*
X8090491Y-9612531D01*
X8090491Y-9612531D02*
X8100015Y-9631579D01*
X8100015Y-9631579D02*
X8100015Y-9650627D01*
X8100015Y-9650627D02*
X8090491Y-9679198D01*
X8090491Y-9679198D02*
X7976206Y-9793484D01*
X7976206Y-9793484D02*
X8100015Y-9793484D01*
X8338110Y-9793484D02*
X8338110Y-9593484D01*
X8423825Y-9793484D02*
X8423825Y-9688722D01*
X8423825Y-9688722D02*
X8414301Y-9669674D01*
X8414301Y-9669674D02*
X8395253Y-9660150D01*
X8395253Y-9660150D02*
X8366682Y-9660150D01*
X8366682Y-9660150D02*
X8347634Y-9669674D01*
X8347634Y-9669674D02*
X8338110Y-9679198D01*
X8547634Y-9793484D02*
X8528587Y-9783960D01*
X8528587Y-9783960D02*
X8519063Y-9774436D01*
X8519063Y-9774436D02*
X8509539Y-9755389D01*
X8509539Y-9755389D02*
X8509539Y-9698246D01*
X8509539Y-9698246D02*
X8519063Y-9679198D01*
X8519063Y-9679198D02*
X8528587Y-9669674D01*
X8528587Y-9669674D02*
X8547634Y-9660150D01*
X8547634Y-9660150D02*
X8576206Y-9660150D01*
X8576206Y-9660150D02*
X8595253Y-9669674D01*
X8595253Y-9669674D02*
X8604777Y-9679198D01*
X8604777Y-9679198D02*
X8614301Y-9698246D01*
X8614301Y-9698246D02*
X8614301Y-9755389D01*
X8614301Y-9755389D02*
X8604777Y-9774436D01*
X8604777Y-9774436D02*
X8595253Y-9783960D01*
X8595253Y-9783960D02*
X8576206Y-9793484D01*
X8576206Y-9793484D02*
X8547634Y-9793484D01*
X8728587Y-9793484D02*
X8709539Y-9783960D01*
X8709539Y-9783960D02*
X8700015Y-9764912D01*
X8700015Y-9764912D02*
X8700015Y-9593484D01*
X8880968Y-9783960D02*
X8861920Y-9793484D01*
X8861920Y-9793484D02*
X8823825Y-9793484D01*
X8823825Y-9793484D02*
X8804777Y-9783960D01*
X8804777Y-9783960D02*
X8795253Y-9764912D01*
X8795253Y-9764912D02*
X8795253Y-9688722D01*
X8795253Y-9688722D02*
X8804777Y-9669674D01*
X8804777Y-9669674D02*
X8823825Y-9660150D01*
X8823825Y-9660150D02*
X8861920Y-9660150D01*
X8861920Y-9660150D02*
X8880968Y-9669674D01*
X8880968Y-9669674D02*
X8890492Y-9688722D01*
X8890492Y-9688722D02*
X8890492Y-9707770D01*
X8890492Y-9707770D02*
X8795253Y-9726817D01*
X8966682Y-9783960D02*
X8985730Y-9793484D01*
X8985730Y-9793484D02*
X9023825Y-9793484D01*
X9023825Y-9793484D02*
X9042873Y-9783960D01*
X9042873Y-9783960D02*
X9052396Y-9764912D01*
X9052396Y-9764912D02*
X9052396Y-9755389D01*
X9052396Y-9755389D02*
X9042873Y-9736341D01*
X9042873Y-9736341D02*
X9023825Y-9726817D01*
X9023825Y-9726817D02*
X8995253Y-9726817D01*
X8995253Y-9726817D02*
X8976206Y-9717293D01*
X8976206Y-9717293D02*
X8966682Y-9698246D01*
X8966682Y-9698246D02*
X8966682Y-9688722D01*
X8966682Y-9688722D02*
X8976206Y-9669674D01*
X8976206Y-9669674D02*
X8995253Y-9660150D01*
X8995253Y-9660150D02*
X9023825Y-9660150D01*
X9023825Y-9660150D02*
X9042873Y-9669674D01*
X9119063Y-9869674D02*
X9128587Y-9860150D01*
X9128587Y-9860150D02*
X9147634Y-9831579D01*
X9147634Y-9831579D02*
X9157158Y-9812531D01*
X9157158Y-9812531D02*
X9166682Y-9783960D01*
X9166682Y-9783960D02*
X9176206Y-9736341D01*
X9176206Y-9736341D02*
X9176206Y-9698246D01*
X9176206Y-9698246D02*
X9166682Y-9650627D01*
X9166682Y-9650627D02*
X9157158Y-9622055D01*
X9157158Y-9622055D02*
X9147634Y-9603008D01*
X9147634Y-9603008D02*
X9128587Y-9574436D01*
X9128587Y-9574436D02*
X9119063Y-9564912D01*
X9480968Y-9869674D02*
X9471444Y-9860150D01*
X9471444Y-9860150D02*
X9452396Y-9831579D01*
X9452396Y-9831579D02*
X9442873Y-9812531D01*
X9442873Y-9812531D02*
X9433349Y-9783960D01*
X9433349Y-9783960D02*
X9423825Y-9736341D01*
X9423825Y-9736341D02*
X9423825Y-9698246D01*
X9423825Y-9698246D02*
X9433349Y-9650627D01*
X9433349Y-9650627D02*
X9442873Y-9622055D01*
X9442873Y-9622055D02*
X9452396Y-9603008D01*
X9452396Y-9603008D02*
X9471444Y-9574436D01*
X9471444Y-9574436D02*
X9480968Y-9564912D01*
X9557158Y-9660150D02*
X9557158Y-9793484D01*
X9557158Y-9679198D02*
X9566682Y-9669674D01*
X9566682Y-9669674D02*
X9585730Y-9660150D01*
X9585730Y-9660150D02*
X9614301Y-9660150D01*
X9614301Y-9660150D02*
X9633349Y-9669674D01*
X9633349Y-9669674D02*
X9642873Y-9688722D01*
X9642873Y-9688722D02*
X9642873Y-9793484D01*
X9766682Y-9793484D02*
X9747634Y-9783960D01*
X9747634Y-9783960D02*
X9738111Y-9774436D01*
X9738111Y-9774436D02*
X9728587Y-9755389D01*
X9728587Y-9755389D02*
X9728587Y-9698246D01*
X9728587Y-9698246D02*
X9738111Y-9679198D01*
X9738111Y-9679198D02*
X9747634Y-9669674D01*
X9747634Y-9669674D02*
X9766682Y-9660150D01*
X9766682Y-9660150D02*
X9795254Y-9660150D01*
X9795254Y-9660150D02*
X9814301Y-9669674D01*
X9814301Y-9669674D02*
X9823825Y-9679198D01*
X9823825Y-9679198D02*
X9833349Y-9698246D01*
X9833349Y-9698246D02*
X9833349Y-9755389D01*
X9833349Y-9755389D02*
X9823825Y-9774436D01*
X9823825Y-9774436D02*
X9814301Y-9783960D01*
X9814301Y-9783960D02*
X9795254Y-9793484D01*
X9795254Y-9793484D02*
X9766682Y-9793484D01*
X9890492Y-9660150D02*
X9966682Y-9660150D01*
X9919063Y-9593484D02*
X9919063Y-9764912D01*
X9919063Y-9764912D02*
X9928587Y-9783960D01*
X9928587Y-9783960D02*
X9947634Y-9793484D01*
X9947634Y-9793484D02*
X9966682Y-9793484D01*
X10185730Y-9660150D02*
X10185730Y-9860150D01*
X10185730Y-9669674D02*
X10204777Y-9660150D01*
X10204777Y-9660150D02*
X10242873Y-9660150D01*
X10242873Y-9660150D02*
X10261920Y-9669674D01*
X10261920Y-9669674D02*
X10271444Y-9679198D01*
X10271444Y-9679198D02*
X10280968Y-9698246D01*
X10280968Y-9698246D02*
X10280968Y-9755389D01*
X10280968Y-9755389D02*
X10271444Y-9774436D01*
X10271444Y-9774436D02*
X10261920Y-9783960D01*
X10261920Y-9783960D02*
X10242873Y-9793484D01*
X10242873Y-9793484D02*
X10204777Y-9793484D01*
X10204777Y-9793484D02*
X10185730Y-9783960D01*
X10395254Y-9793484D02*
X10376206Y-9783960D01*
X10376206Y-9783960D02*
X10366682Y-9764912D01*
X10366682Y-9764912D02*
X10366682Y-9593484D01*
X10557158Y-9793484D02*
X10557158Y-9688722D01*
X10557158Y-9688722D02*
X10547635Y-9669674D01*
X10547635Y-9669674D02*
X10528587Y-9660150D01*
X10528587Y-9660150D02*
X10490492Y-9660150D01*
X10490492Y-9660150D02*
X10471444Y-9669674D01*
X10557158Y-9783960D02*
X10538111Y-9793484D01*
X10538111Y-9793484D02*
X10490492Y-9793484D01*
X10490492Y-9793484D02*
X10471444Y-9783960D01*
X10471444Y-9783960D02*
X10461920Y-9764912D01*
X10461920Y-9764912D02*
X10461920Y-9745865D01*
X10461920Y-9745865D02*
X10471444Y-9726817D01*
X10471444Y-9726817D02*
X10490492Y-9717293D01*
X10490492Y-9717293D02*
X10538111Y-9717293D01*
X10538111Y-9717293D02*
X10557158Y-9707770D01*
X10623825Y-9660150D02*
X10700015Y-9660150D01*
X10652396Y-9593484D02*
X10652396Y-9764912D01*
X10652396Y-9764912D02*
X10661920Y-9783960D01*
X10661920Y-9783960D02*
X10680968Y-9793484D01*
X10680968Y-9793484D02*
X10700015Y-9793484D01*
X10842873Y-9783960D02*
X10823825Y-9793484D01*
X10823825Y-9793484D02*
X10785730Y-9793484D01*
X10785730Y-9793484D02*
X10766682Y-9783960D01*
X10766682Y-9783960D02*
X10757158Y-9764912D01*
X10757158Y-9764912D02*
X10757158Y-9688722D01*
X10757158Y-9688722D02*
X10766682Y-9669674D01*
X10766682Y-9669674D02*
X10785730Y-9660150D01*
X10785730Y-9660150D02*
X10823825Y-9660150D01*
X10823825Y-9660150D02*
X10842873Y-9669674D01*
X10842873Y-9669674D02*
X10852396Y-9688722D01*
X10852396Y-9688722D02*
X10852396Y-9707770D01*
X10852396Y-9707770D02*
X10757158Y-9726817D01*
X11023825Y-9793484D02*
X11023825Y-9593484D01*
X11023825Y-9783960D02*
X11004777Y-9793484D01*
X11004777Y-9793484D02*
X10966682Y-9793484D01*
X10966682Y-9793484D02*
X10947635Y-9783960D01*
X10947635Y-9783960D02*
X10938111Y-9774436D01*
X10938111Y-9774436D02*
X10928587Y-9755389D01*
X10928587Y-9755389D02*
X10928587Y-9698246D01*
X10928587Y-9698246D02*
X10938111Y-9679198D01*
X10938111Y-9679198D02*
X10947635Y-9669674D01*
X10947635Y-9669674D02*
X10966682Y-9660150D01*
X10966682Y-9660150D02*
X11004777Y-9660150D01*
X11004777Y-9660150D02*
X11023825Y-9669674D01*
X11100016Y-9869674D02*
X11109539Y-9860150D01*
X11109539Y-9860150D02*
X11128587Y-9831579D01*
X11128587Y-9831579D02*
X11138111Y-9812531D01*
X11138111Y-9812531D02*
X11147635Y-9783960D01*
X11147635Y-9783960D02*
X11157158Y-9736341D01*
X11157158Y-9736341D02*
X11157158Y-9698246D01*
X11157158Y-9698246D02*
X11147635Y-9650627D01*
X11147635Y-9650627D02*
X11138111Y-9622055D01*
X11138111Y-9622055D02*
X11128587Y-9603008D01*
X11128587Y-9603008D02*
X11109539Y-9574436D01*
X11109539Y-9574436D02*
X11100016Y-9564912D01*
D15*
X4164000Y-9882000D02*
X4344000Y-10062000D01*
X4344000Y-9882000D02*
X4164000Y-10062000D01*
X4344000Y-9972000D02*
G75*
G02*
X4164000Y-9972000I-90000J0D01*
G01*
X4164000Y-9972000D02*
G75*
G02*
X4344000Y-9972000I90000J0D01*
G01*
D11*
X4709539Y-10063484D02*
X4595253Y-10063484D01*
X4652396Y-10063484D02*
X4652396Y-9863484D01*
X4652396Y-9863484D02*
X4633348Y-9892055D01*
X4633348Y-9892055D02*
X4614301Y-9911103D01*
X4614301Y-9911103D02*
X4595253Y-9920627D01*
X4795253Y-10044436D02*
X4804777Y-10053960D01*
X4804777Y-10053960D02*
X4795253Y-10063484D01*
X4795253Y-10063484D02*
X4785729Y-10053960D01*
X4785729Y-10053960D02*
X4795253Y-10044436D01*
X4795253Y-10044436D02*
X4795253Y-10063484D01*
X4919063Y-9949198D02*
X4900015Y-9939674D01*
X4900015Y-9939674D02*
X4890491Y-9930150D01*
X4890491Y-9930150D02*
X4880967Y-9911103D01*
X4880967Y-9911103D02*
X4880967Y-9901579D01*
X4880967Y-9901579D02*
X4890491Y-9882531D01*
X4890491Y-9882531D02*
X4900015Y-9873008D01*
X4900015Y-9873008D02*
X4919063Y-9863484D01*
X4919063Y-9863484D02*
X4957158Y-9863484D01*
X4957158Y-9863484D02*
X4976205Y-9873008D01*
X4976205Y-9873008D02*
X4985729Y-9882531D01*
X4985729Y-9882531D02*
X4995253Y-9901579D01*
X4995253Y-9901579D02*
X4995253Y-9911103D01*
X4995253Y-9911103D02*
X4985729Y-9930150D01*
X4985729Y-9930150D02*
X4976205Y-9939674D01*
X4976205Y-9939674D02*
X4957158Y-9949198D01*
X4957158Y-9949198D02*
X4919063Y-9949198D01*
X4919063Y-9949198D02*
X4900015Y-9958722D01*
X4900015Y-9958722D02*
X4890491Y-9968246D01*
X4890491Y-9968246D02*
X4880967Y-9987293D01*
X4880967Y-9987293D02*
X4880967Y-10025389D01*
X4880967Y-10025389D02*
X4890491Y-10044436D01*
X4890491Y-10044436D02*
X4900015Y-10053960D01*
X4900015Y-10053960D02*
X4919063Y-10063484D01*
X4919063Y-10063484D02*
X4957158Y-10063484D01*
X4957158Y-10063484D02*
X4976205Y-10053960D01*
X4976205Y-10053960D02*
X4985729Y-10044436D01*
X4985729Y-10044436D02*
X4995253Y-10025389D01*
X4995253Y-10025389D02*
X4995253Y-9987293D01*
X4995253Y-9987293D02*
X4985729Y-9968246D01*
X4985729Y-9968246D02*
X4976205Y-9958722D01*
X4976205Y-9958722D02*
X4957158Y-9949198D01*
X5119063Y-9863484D02*
X5138110Y-9863484D01*
X5138110Y-9863484D02*
X5157158Y-9873008D01*
X5157158Y-9873008D02*
X5166682Y-9882531D01*
X5166682Y-9882531D02*
X5176205Y-9901579D01*
X5176205Y-9901579D02*
X5185729Y-9939674D01*
X5185729Y-9939674D02*
X5185729Y-9987293D01*
X5185729Y-9987293D02*
X5176205Y-10025389D01*
X5176205Y-10025389D02*
X5166682Y-10044436D01*
X5166682Y-10044436D02*
X5157158Y-10053960D01*
X5157158Y-10053960D02*
X5138110Y-10063484D01*
X5138110Y-10063484D02*
X5119063Y-10063484D01*
X5119063Y-10063484D02*
X5100015Y-10053960D01*
X5100015Y-10053960D02*
X5090491Y-10044436D01*
X5090491Y-10044436D02*
X5080967Y-10025389D01*
X5080967Y-10025389D02*
X5071444Y-9987293D01*
X5071444Y-9987293D02*
X5071444Y-9939674D01*
X5071444Y-9939674D02*
X5080967Y-9901579D01*
X5080967Y-9901579D02*
X5090491Y-9882531D01*
X5090491Y-9882531D02*
X5100015Y-9873008D01*
X5100015Y-9873008D02*
X5119063Y-9863484D01*
X5309539Y-9863484D02*
X5328586Y-9863484D01*
X5328586Y-9863484D02*
X5347634Y-9873008D01*
X5347634Y-9873008D02*
X5357158Y-9882531D01*
X5357158Y-9882531D02*
X5366682Y-9901579D01*
X5366682Y-9901579D02*
X5376205Y-9939674D01*
X5376205Y-9939674D02*
X5376205Y-9987293D01*
X5376205Y-9987293D02*
X5366682Y-10025389D01*
X5366682Y-10025389D02*
X5357158Y-10044436D01*
X5357158Y-10044436D02*
X5347634Y-10053960D01*
X5347634Y-10053960D02*
X5328586Y-10063484D01*
X5328586Y-10063484D02*
X5309539Y-10063484D01*
X5309539Y-10063484D02*
X5290491Y-10053960D01*
X5290491Y-10053960D02*
X5280967Y-10044436D01*
X5280967Y-10044436D02*
X5271444Y-10025389D01*
X5271444Y-10025389D02*
X5261920Y-9987293D01*
X5261920Y-9987293D02*
X5261920Y-9939674D01*
X5261920Y-9939674D02*
X5271444Y-9901579D01*
X5271444Y-9901579D02*
X5280967Y-9882531D01*
X5280967Y-9882531D02*
X5290491Y-9873008D01*
X5290491Y-9873008D02*
X5309539Y-9863484D01*
X5461920Y-10063484D02*
X5461920Y-9930150D01*
X5461920Y-9949198D02*
X5471444Y-9939674D01*
X5471444Y-9939674D02*
X5490491Y-9930150D01*
X5490491Y-9930150D02*
X5519063Y-9930150D01*
X5519063Y-9930150D02*
X5538110Y-9939674D01*
X5538110Y-9939674D02*
X5547634Y-9958722D01*
X5547634Y-9958722D02*
X5547634Y-10063484D01*
X5547634Y-9958722D02*
X5557158Y-9939674D01*
X5557158Y-9939674D02*
X5576205Y-9930150D01*
X5576205Y-9930150D02*
X5604777Y-9930150D01*
X5604777Y-9930150D02*
X5623824Y-9939674D01*
X5623824Y-9939674D02*
X5633348Y-9958722D01*
X5633348Y-9958722D02*
X5633348Y-10063484D01*
X5728586Y-10063484D02*
X5728586Y-9930150D01*
X5728586Y-9949198D02*
X5738110Y-9939674D01*
X5738110Y-9939674D02*
X5757158Y-9930150D01*
X5757158Y-9930150D02*
X5785729Y-9930150D01*
X5785729Y-9930150D02*
X5804777Y-9939674D01*
X5804777Y-9939674D02*
X5814301Y-9958722D01*
X5814301Y-9958722D02*
X5814301Y-10063484D01*
X5814301Y-9958722D02*
X5823824Y-9939674D01*
X5823824Y-9939674D02*
X5842872Y-9930150D01*
X5842872Y-9930150D02*
X5871443Y-9930150D01*
X5871443Y-9930150D02*
X5890491Y-9939674D01*
X5890491Y-9939674D02*
X5900015Y-9958722D01*
X5900015Y-9958722D02*
X5900015Y-10063484D01*
X6290491Y-9853960D02*
X6119063Y-10111103D01*
X6547634Y-9863484D02*
X6566682Y-9863484D01*
X6566682Y-9863484D02*
X6585729Y-9873008D01*
X6585729Y-9873008D02*
X6595253Y-9882531D01*
X6595253Y-9882531D02*
X6604777Y-9901579D01*
X6604777Y-9901579D02*
X6614301Y-9939674D01*
X6614301Y-9939674D02*
X6614301Y-9987293D01*
X6614301Y-9987293D02*
X6604777Y-10025389D01*
X6604777Y-10025389D02*
X6595253Y-10044436D01*
X6595253Y-10044436D02*
X6585729Y-10053960D01*
X6585729Y-10053960D02*
X6566682Y-10063484D01*
X6566682Y-10063484D02*
X6547634Y-10063484D01*
X6547634Y-10063484D02*
X6528586Y-10053960D01*
X6528586Y-10053960D02*
X6519063Y-10044436D01*
X6519063Y-10044436D02*
X6509539Y-10025389D01*
X6509539Y-10025389D02*
X6500015Y-9987293D01*
X6500015Y-9987293D02*
X6500015Y-9939674D01*
X6500015Y-9939674D02*
X6509539Y-9901579D01*
X6509539Y-9901579D02*
X6519063Y-9882531D01*
X6519063Y-9882531D02*
X6528586Y-9873008D01*
X6528586Y-9873008D02*
X6547634Y-9863484D01*
X6700015Y-10044436D02*
X6709539Y-10053960D01*
X6709539Y-10053960D02*
X6700015Y-10063484D01*
X6700015Y-10063484D02*
X6690491Y-10053960D01*
X6690491Y-10053960D02*
X6700015Y-10044436D01*
X6700015Y-10044436D02*
X6700015Y-10063484D01*
X6833348Y-9863484D02*
X6852396Y-9863484D01*
X6852396Y-9863484D02*
X6871444Y-9873008D01*
X6871444Y-9873008D02*
X6880967Y-9882531D01*
X6880967Y-9882531D02*
X6890491Y-9901579D01*
X6890491Y-9901579D02*
X6900015Y-9939674D01*
X6900015Y-9939674D02*
X6900015Y-9987293D01*
X6900015Y-9987293D02*
X6890491Y-10025389D01*
X6890491Y-10025389D02*
X6880967Y-10044436D01*
X6880967Y-10044436D02*
X6871444Y-10053960D01*
X6871444Y-10053960D02*
X6852396Y-10063484D01*
X6852396Y-10063484D02*
X6833348Y-10063484D01*
X6833348Y-10063484D02*
X6814301Y-10053960D01*
X6814301Y-10053960D02*
X6804777Y-10044436D01*
X6804777Y-10044436D02*
X6795253Y-10025389D01*
X6795253Y-10025389D02*
X6785729Y-9987293D01*
X6785729Y-9987293D02*
X6785729Y-9939674D01*
X6785729Y-9939674D02*
X6795253Y-9901579D01*
X6795253Y-9901579D02*
X6804777Y-9882531D01*
X6804777Y-9882531D02*
X6814301Y-9873008D01*
X6814301Y-9873008D02*
X6833348Y-9863484D01*
X6966682Y-9863484D02*
X7100015Y-9863484D01*
X7100015Y-9863484D02*
X7014301Y-10063484D01*
X7214301Y-9863484D02*
X7233348Y-9863484D01*
X7233348Y-9863484D02*
X7252396Y-9873008D01*
X7252396Y-9873008D02*
X7261920Y-9882531D01*
X7261920Y-9882531D02*
X7271444Y-9901579D01*
X7271444Y-9901579D02*
X7280967Y-9939674D01*
X7280967Y-9939674D02*
X7280967Y-9987293D01*
X7280967Y-9987293D02*
X7271444Y-10025389D01*
X7271444Y-10025389D02*
X7261920Y-10044436D01*
X7261920Y-10044436D02*
X7252396Y-10053960D01*
X7252396Y-10053960D02*
X7233348Y-10063484D01*
X7233348Y-10063484D02*
X7214301Y-10063484D01*
X7214301Y-10063484D02*
X7195253Y-10053960D01*
X7195253Y-10053960D02*
X7185729Y-10044436D01*
X7185729Y-10044436D02*
X7176206Y-10025389D01*
X7176206Y-10025389D02*
X7166682Y-9987293D01*
X7166682Y-9987293D02*
X7166682Y-9939674D01*
X7166682Y-9939674D02*
X7176206Y-9901579D01*
X7176206Y-9901579D02*
X7185729Y-9882531D01*
X7185729Y-9882531D02*
X7195253Y-9873008D01*
X7195253Y-9873008D02*
X7214301Y-9863484D01*
X7376206Y-10063484D02*
X7414301Y-10063484D01*
X7414301Y-10063484D02*
X7433348Y-10053960D01*
X7433348Y-10053960D02*
X7442872Y-10044436D01*
X7442872Y-10044436D02*
X7461920Y-10015865D01*
X7461920Y-10015865D02*
X7471444Y-9977770D01*
X7471444Y-9977770D02*
X7471444Y-9901579D01*
X7471444Y-9901579D02*
X7461920Y-9882531D01*
X7461920Y-9882531D02*
X7452396Y-9873008D01*
X7452396Y-9873008D02*
X7433348Y-9863484D01*
X7433348Y-9863484D02*
X7395253Y-9863484D01*
X7395253Y-9863484D02*
X7376206Y-9873008D01*
X7376206Y-9873008D02*
X7366682Y-9882531D01*
X7366682Y-9882531D02*
X7357158Y-9901579D01*
X7357158Y-9901579D02*
X7357158Y-9949198D01*
X7357158Y-9949198D02*
X7366682Y-9968246D01*
X7366682Y-9968246D02*
X7376206Y-9977770D01*
X7376206Y-9977770D02*
X7395253Y-9987293D01*
X7395253Y-9987293D02*
X7433348Y-9987293D01*
X7433348Y-9987293D02*
X7452396Y-9977770D01*
X7452396Y-9977770D02*
X7461920Y-9968246D01*
X7461920Y-9968246D02*
X7471444Y-9949198D01*
X7547634Y-9863484D02*
X7547634Y-9901579D01*
X7623825Y-9863484D02*
X7623825Y-9901579D01*
X7919063Y-10139674D02*
X7909539Y-10130150D01*
X7909539Y-10130150D02*
X7890491Y-10101579D01*
X7890491Y-10101579D02*
X7880968Y-10082531D01*
X7880968Y-10082531D02*
X7871444Y-10053960D01*
X7871444Y-10053960D02*
X7861920Y-10006341D01*
X7861920Y-10006341D02*
X7861920Y-9968246D01*
X7861920Y-9968246D02*
X7871444Y-9920627D01*
X7871444Y-9920627D02*
X7880968Y-9892055D01*
X7880968Y-9892055D02*
X7890491Y-9873008D01*
X7890491Y-9873008D02*
X7909539Y-9844436D01*
X7909539Y-9844436D02*
X7919063Y-9834912D01*
X7985729Y-9882531D02*
X7995253Y-9873008D01*
X7995253Y-9873008D02*
X8014301Y-9863484D01*
X8014301Y-9863484D02*
X8061920Y-9863484D01*
X8061920Y-9863484D02*
X8080968Y-9873008D01*
X8080968Y-9873008D02*
X8090491Y-9882531D01*
X8090491Y-9882531D02*
X8100015Y-9901579D01*
X8100015Y-9901579D02*
X8100015Y-9920627D01*
X8100015Y-9920627D02*
X8090491Y-9949198D01*
X8090491Y-9949198D02*
X7976206Y-10063484D01*
X7976206Y-10063484D02*
X8100015Y-10063484D01*
X8338110Y-10063484D02*
X8338110Y-9863484D01*
X8423825Y-10063484D02*
X8423825Y-9958722D01*
X8423825Y-9958722D02*
X8414301Y-9939674D01*
X8414301Y-9939674D02*
X8395253Y-9930150D01*
X8395253Y-9930150D02*
X8366682Y-9930150D01*
X8366682Y-9930150D02*
X8347634Y-9939674D01*
X8347634Y-9939674D02*
X8338110Y-9949198D01*
X8547634Y-10063484D02*
X8528587Y-10053960D01*
X8528587Y-10053960D02*
X8519063Y-10044436D01*
X8519063Y-10044436D02*
X8509539Y-10025389D01*
X8509539Y-10025389D02*
X8509539Y-9968246D01*
X8509539Y-9968246D02*
X8519063Y-9949198D01*
X8519063Y-9949198D02*
X8528587Y-9939674D01*
X8528587Y-9939674D02*
X8547634Y-9930150D01*
X8547634Y-9930150D02*
X8576206Y-9930150D01*
X8576206Y-9930150D02*
X8595253Y-9939674D01*
X8595253Y-9939674D02*
X8604777Y-9949198D01*
X8604777Y-9949198D02*
X8614301Y-9968246D01*
X8614301Y-9968246D02*
X8614301Y-10025389D01*
X8614301Y-10025389D02*
X8604777Y-10044436D01*
X8604777Y-10044436D02*
X8595253Y-10053960D01*
X8595253Y-10053960D02*
X8576206Y-10063484D01*
X8576206Y-10063484D02*
X8547634Y-10063484D01*
X8728587Y-10063484D02*
X8709539Y-10053960D01*
X8709539Y-10053960D02*
X8700015Y-10034912D01*
X8700015Y-10034912D02*
X8700015Y-9863484D01*
X8880968Y-10053960D02*
X8861920Y-10063484D01*
X8861920Y-10063484D02*
X8823825Y-10063484D01*
X8823825Y-10063484D02*
X8804777Y-10053960D01*
X8804777Y-10053960D02*
X8795253Y-10034912D01*
X8795253Y-10034912D02*
X8795253Y-9958722D01*
X8795253Y-9958722D02*
X8804777Y-9939674D01*
X8804777Y-9939674D02*
X8823825Y-9930150D01*
X8823825Y-9930150D02*
X8861920Y-9930150D01*
X8861920Y-9930150D02*
X8880968Y-9939674D01*
X8880968Y-9939674D02*
X8890492Y-9958722D01*
X8890492Y-9958722D02*
X8890492Y-9977770D01*
X8890492Y-9977770D02*
X8795253Y-9996817D01*
X8966682Y-10053960D02*
X8985730Y-10063484D01*
X8985730Y-10063484D02*
X9023825Y-10063484D01*
X9023825Y-10063484D02*
X9042873Y-10053960D01*
X9042873Y-10053960D02*
X9052396Y-10034912D01*
X9052396Y-10034912D02*
X9052396Y-10025389D01*
X9052396Y-10025389D02*
X9042873Y-10006341D01*
X9042873Y-10006341D02*
X9023825Y-9996817D01*
X9023825Y-9996817D02*
X8995253Y-9996817D01*
X8995253Y-9996817D02*
X8976206Y-9987293D01*
X8976206Y-9987293D02*
X8966682Y-9968246D01*
X8966682Y-9968246D02*
X8966682Y-9958722D01*
X8966682Y-9958722D02*
X8976206Y-9939674D01*
X8976206Y-9939674D02*
X8995253Y-9930150D01*
X8995253Y-9930150D02*
X9023825Y-9930150D01*
X9023825Y-9930150D02*
X9042873Y-9939674D01*
X9119063Y-10139674D02*
X9128587Y-10130150D01*
X9128587Y-10130150D02*
X9147634Y-10101579D01*
X9147634Y-10101579D02*
X9157158Y-10082531D01*
X9157158Y-10082531D02*
X9166682Y-10053960D01*
X9166682Y-10053960D02*
X9176206Y-10006341D01*
X9176206Y-10006341D02*
X9176206Y-9968246D01*
X9176206Y-9968246D02*
X9166682Y-9920627D01*
X9166682Y-9920627D02*
X9157158Y-9892055D01*
X9157158Y-9892055D02*
X9147634Y-9873008D01*
X9147634Y-9873008D02*
X9128587Y-9844436D01*
X9128587Y-9844436D02*
X9119063Y-9834912D01*
X9480968Y-10139674D02*
X9471444Y-10130150D01*
X9471444Y-10130150D02*
X9452396Y-10101579D01*
X9452396Y-10101579D02*
X9442873Y-10082531D01*
X9442873Y-10082531D02*
X9433349Y-10053960D01*
X9433349Y-10053960D02*
X9423825Y-10006341D01*
X9423825Y-10006341D02*
X9423825Y-9968246D01*
X9423825Y-9968246D02*
X9433349Y-9920627D01*
X9433349Y-9920627D02*
X9442873Y-9892055D01*
X9442873Y-9892055D02*
X9452396Y-9873008D01*
X9452396Y-9873008D02*
X9471444Y-9844436D01*
X9471444Y-9844436D02*
X9480968Y-9834912D01*
X9557158Y-9930150D02*
X9557158Y-10063484D01*
X9557158Y-9949198D02*
X9566682Y-9939674D01*
X9566682Y-9939674D02*
X9585730Y-9930150D01*
X9585730Y-9930150D02*
X9614301Y-9930150D01*
X9614301Y-9930150D02*
X9633349Y-9939674D01*
X9633349Y-9939674D02*
X9642873Y-9958722D01*
X9642873Y-9958722D02*
X9642873Y-10063484D01*
X9766682Y-10063484D02*
X9747634Y-10053960D01*
X9747634Y-10053960D02*
X9738111Y-10044436D01*
X9738111Y-10044436D02*
X9728587Y-10025389D01*
X9728587Y-10025389D02*
X9728587Y-9968246D01*
X9728587Y-9968246D02*
X9738111Y-9949198D01*
X9738111Y-9949198D02*
X9747634Y-9939674D01*
X9747634Y-9939674D02*
X9766682Y-9930150D01*
X9766682Y-9930150D02*
X9795254Y-9930150D01*
X9795254Y-9930150D02*
X9814301Y-9939674D01*
X9814301Y-9939674D02*
X9823825Y-9949198D01*
X9823825Y-9949198D02*
X9833349Y-9968246D01*
X9833349Y-9968246D02*
X9833349Y-10025389D01*
X9833349Y-10025389D02*
X9823825Y-10044436D01*
X9823825Y-10044436D02*
X9814301Y-10053960D01*
X9814301Y-10053960D02*
X9795254Y-10063484D01*
X9795254Y-10063484D02*
X9766682Y-10063484D01*
X9890492Y-9930150D02*
X9966682Y-9930150D01*
X9919063Y-9863484D02*
X9919063Y-10034912D01*
X9919063Y-10034912D02*
X9928587Y-10053960D01*
X9928587Y-10053960D02*
X9947634Y-10063484D01*
X9947634Y-10063484D02*
X9966682Y-10063484D01*
X10185730Y-9930150D02*
X10185730Y-10130150D01*
X10185730Y-9939674D02*
X10204777Y-9930150D01*
X10204777Y-9930150D02*
X10242873Y-9930150D01*
X10242873Y-9930150D02*
X10261920Y-9939674D01*
X10261920Y-9939674D02*
X10271444Y-9949198D01*
X10271444Y-9949198D02*
X10280968Y-9968246D01*
X10280968Y-9968246D02*
X10280968Y-10025389D01*
X10280968Y-10025389D02*
X10271444Y-10044436D01*
X10271444Y-10044436D02*
X10261920Y-10053960D01*
X10261920Y-10053960D02*
X10242873Y-10063484D01*
X10242873Y-10063484D02*
X10204777Y-10063484D01*
X10204777Y-10063484D02*
X10185730Y-10053960D01*
X10395254Y-10063484D02*
X10376206Y-10053960D01*
X10376206Y-10053960D02*
X10366682Y-10034912D01*
X10366682Y-10034912D02*
X10366682Y-9863484D01*
X10557158Y-10063484D02*
X10557158Y-9958722D01*
X10557158Y-9958722D02*
X10547635Y-9939674D01*
X10547635Y-9939674D02*
X10528587Y-9930150D01*
X10528587Y-9930150D02*
X10490492Y-9930150D01*
X10490492Y-9930150D02*
X10471444Y-9939674D01*
X10557158Y-10053960D02*
X10538111Y-10063484D01*
X10538111Y-10063484D02*
X10490492Y-10063484D01*
X10490492Y-10063484D02*
X10471444Y-10053960D01*
X10471444Y-10053960D02*
X10461920Y-10034912D01*
X10461920Y-10034912D02*
X10461920Y-10015865D01*
X10461920Y-10015865D02*
X10471444Y-9996817D01*
X10471444Y-9996817D02*
X10490492Y-9987293D01*
X10490492Y-9987293D02*
X10538111Y-9987293D01*
X10538111Y-9987293D02*
X10557158Y-9977770D01*
X10623825Y-9930150D02*
X10700015Y-9930150D01*
X10652396Y-9863484D02*
X10652396Y-10034912D01*
X10652396Y-10034912D02*
X10661920Y-10053960D01*
X10661920Y-10053960D02*
X10680968Y-10063484D01*
X10680968Y-10063484D02*
X10700015Y-10063484D01*
X10842873Y-10053960D02*
X10823825Y-10063484D01*
X10823825Y-10063484D02*
X10785730Y-10063484D01*
X10785730Y-10063484D02*
X10766682Y-10053960D01*
X10766682Y-10053960D02*
X10757158Y-10034912D01*
X10757158Y-10034912D02*
X10757158Y-9958722D01*
X10757158Y-9958722D02*
X10766682Y-9939674D01*
X10766682Y-9939674D02*
X10785730Y-9930150D01*
X10785730Y-9930150D02*
X10823825Y-9930150D01*
X10823825Y-9930150D02*
X10842873Y-9939674D01*
X10842873Y-9939674D02*
X10852396Y-9958722D01*
X10852396Y-9958722D02*
X10852396Y-9977770D01*
X10852396Y-9977770D02*
X10757158Y-9996817D01*
X11023825Y-10063484D02*
X11023825Y-9863484D01*
X11023825Y-10053960D02*
X11004777Y-10063484D01*
X11004777Y-10063484D02*
X10966682Y-10063484D01*
X10966682Y-10063484D02*
X10947635Y-10053960D01*
X10947635Y-10053960D02*
X10938111Y-10044436D01*
X10938111Y-10044436D02*
X10928587Y-10025389D01*
X10928587Y-10025389D02*
X10928587Y-9968246D01*
X10928587Y-9968246D02*
X10938111Y-9949198D01*
X10938111Y-9949198D02*
X10947635Y-9939674D01*
X10947635Y-9939674D02*
X10966682Y-9930150D01*
X10966682Y-9930150D02*
X11004777Y-9930150D01*
X11004777Y-9930150D02*
X11023825Y-9939674D01*
X11100016Y-10139674D02*
X11109539Y-10130150D01*
X11109539Y-10130150D02*
X11128587Y-10101579D01*
X11128587Y-10101579D02*
X11138111Y-10082531D01*
X11138111Y-10082531D02*
X11147635Y-10053960D01*
X11147635Y-10053960D02*
X11157158Y-10006341D01*
X11157158Y-10006341D02*
X11157158Y-9968246D01*
X11157158Y-9968246D02*
X11147635Y-9920627D01*
X11147635Y-9920627D02*
X11138111Y-9892055D01*
X11138111Y-9892055D02*
X11128587Y-9873008D01*
X11128587Y-9873008D02*
X11109539Y-9844436D01*
X11109539Y-9844436D02*
X11100016Y-9834912D01*
X4144000Y-10172000D02*
X4344000Y-10372000D01*
X4344000Y-10172000D02*
X4144000Y-10372000D01*
X4244000Y-10172000D02*
X4244000Y-10372000D01*
X4144000Y-10272000D02*
X4344000Y-10272000D01*
X4595253Y-10182531D02*
X4604777Y-10173008D01*
X4604777Y-10173008D02*
X4623824Y-10163484D01*
X4623824Y-10163484D02*
X4671444Y-10163484D01*
X4671444Y-10163484D02*
X4690491Y-10173008D01*
X4690491Y-10173008D02*
X4700015Y-10182531D01*
X4700015Y-10182531D02*
X4709539Y-10201579D01*
X4709539Y-10201579D02*
X4709539Y-10220627D01*
X4709539Y-10220627D02*
X4700015Y-10249198D01*
X4700015Y-10249198D02*
X4585729Y-10363484D01*
X4585729Y-10363484D02*
X4709539Y-10363484D01*
X4795253Y-10344436D02*
X4804777Y-10353960D01*
X4804777Y-10353960D02*
X4795253Y-10363484D01*
X4795253Y-10363484D02*
X4785729Y-10353960D01*
X4785729Y-10353960D02*
X4795253Y-10344436D01*
X4795253Y-10344436D02*
X4795253Y-10363484D01*
X4871444Y-10163484D02*
X5004777Y-10163484D01*
X5004777Y-10163484D02*
X4919063Y-10363484D01*
X5176205Y-10163484D02*
X5080967Y-10163484D01*
X5080967Y-10163484D02*
X5071444Y-10258722D01*
X5071444Y-10258722D02*
X5080967Y-10249198D01*
X5080967Y-10249198D02*
X5100015Y-10239674D01*
X5100015Y-10239674D02*
X5147634Y-10239674D01*
X5147634Y-10239674D02*
X5166682Y-10249198D01*
X5166682Y-10249198D02*
X5176205Y-10258722D01*
X5176205Y-10258722D02*
X5185729Y-10277770D01*
X5185729Y-10277770D02*
X5185729Y-10325389D01*
X5185729Y-10325389D02*
X5176205Y-10344436D01*
X5176205Y-10344436D02*
X5166682Y-10353960D01*
X5166682Y-10353960D02*
X5147634Y-10363484D01*
X5147634Y-10363484D02*
X5100015Y-10363484D01*
X5100015Y-10363484D02*
X5080967Y-10353960D01*
X5080967Y-10353960D02*
X5071444Y-10344436D01*
X5309539Y-10163484D02*
X5328586Y-10163484D01*
X5328586Y-10163484D02*
X5347634Y-10173008D01*
X5347634Y-10173008D02*
X5357158Y-10182531D01*
X5357158Y-10182531D02*
X5366682Y-10201579D01*
X5366682Y-10201579D02*
X5376205Y-10239674D01*
X5376205Y-10239674D02*
X5376205Y-10287293D01*
X5376205Y-10287293D02*
X5366682Y-10325389D01*
X5366682Y-10325389D02*
X5357158Y-10344436D01*
X5357158Y-10344436D02*
X5347634Y-10353960D01*
X5347634Y-10353960D02*
X5328586Y-10363484D01*
X5328586Y-10363484D02*
X5309539Y-10363484D01*
X5309539Y-10363484D02*
X5290491Y-10353960D01*
X5290491Y-10353960D02*
X5280967Y-10344436D01*
X5280967Y-10344436D02*
X5271444Y-10325389D01*
X5271444Y-10325389D02*
X5261920Y-10287293D01*
X5261920Y-10287293D02*
X5261920Y-10239674D01*
X5261920Y-10239674D02*
X5271444Y-10201579D01*
X5271444Y-10201579D02*
X5280967Y-10182531D01*
X5280967Y-10182531D02*
X5290491Y-10173008D01*
X5290491Y-10173008D02*
X5309539Y-10163484D01*
X5461920Y-10363484D02*
X5461920Y-10230150D01*
X5461920Y-10249198D02*
X5471444Y-10239674D01*
X5471444Y-10239674D02*
X5490491Y-10230150D01*
X5490491Y-10230150D02*
X5519063Y-10230150D01*
X5519063Y-10230150D02*
X5538110Y-10239674D01*
X5538110Y-10239674D02*
X5547634Y-10258722D01*
X5547634Y-10258722D02*
X5547634Y-10363484D01*
X5547634Y-10258722D02*
X5557158Y-10239674D01*
X5557158Y-10239674D02*
X5576205Y-10230150D01*
X5576205Y-10230150D02*
X5604777Y-10230150D01*
X5604777Y-10230150D02*
X5623824Y-10239674D01*
X5623824Y-10239674D02*
X5633348Y-10258722D01*
X5633348Y-10258722D02*
X5633348Y-10363484D01*
X5728586Y-10363484D02*
X5728586Y-10230150D01*
X5728586Y-10249198D02*
X5738110Y-10239674D01*
X5738110Y-10239674D02*
X5757158Y-10230150D01*
X5757158Y-10230150D02*
X5785729Y-10230150D01*
X5785729Y-10230150D02*
X5804777Y-10239674D01*
X5804777Y-10239674D02*
X5814301Y-10258722D01*
X5814301Y-10258722D02*
X5814301Y-10363484D01*
X5814301Y-10258722D02*
X5823824Y-10239674D01*
X5823824Y-10239674D02*
X5842872Y-10230150D01*
X5842872Y-10230150D02*
X5871443Y-10230150D01*
X5871443Y-10230150D02*
X5890491Y-10239674D01*
X5890491Y-10239674D02*
X5900015Y-10258722D01*
X5900015Y-10258722D02*
X5900015Y-10363484D01*
X6290491Y-10153960D02*
X6119063Y-10411103D01*
X6547634Y-10163484D02*
X6566682Y-10163484D01*
X6566682Y-10163484D02*
X6585729Y-10173008D01*
X6585729Y-10173008D02*
X6595253Y-10182531D01*
X6595253Y-10182531D02*
X6604777Y-10201579D01*
X6604777Y-10201579D02*
X6614301Y-10239674D01*
X6614301Y-10239674D02*
X6614301Y-10287293D01*
X6614301Y-10287293D02*
X6604777Y-10325389D01*
X6604777Y-10325389D02*
X6595253Y-10344436D01*
X6595253Y-10344436D02*
X6585729Y-10353960D01*
X6585729Y-10353960D02*
X6566682Y-10363484D01*
X6566682Y-10363484D02*
X6547634Y-10363484D01*
X6547634Y-10363484D02*
X6528586Y-10353960D01*
X6528586Y-10353960D02*
X6519063Y-10344436D01*
X6519063Y-10344436D02*
X6509539Y-10325389D01*
X6509539Y-10325389D02*
X6500015Y-10287293D01*
X6500015Y-10287293D02*
X6500015Y-10239674D01*
X6500015Y-10239674D02*
X6509539Y-10201579D01*
X6509539Y-10201579D02*
X6519063Y-10182531D01*
X6519063Y-10182531D02*
X6528586Y-10173008D01*
X6528586Y-10173008D02*
X6547634Y-10163484D01*
X6700015Y-10344436D02*
X6709539Y-10353960D01*
X6709539Y-10353960D02*
X6700015Y-10363484D01*
X6700015Y-10363484D02*
X6690491Y-10353960D01*
X6690491Y-10353960D02*
X6700015Y-10344436D01*
X6700015Y-10344436D02*
X6700015Y-10363484D01*
X6900015Y-10363484D02*
X6785729Y-10363484D01*
X6842872Y-10363484D02*
X6842872Y-10163484D01*
X6842872Y-10163484D02*
X6823825Y-10192055D01*
X6823825Y-10192055D02*
X6804777Y-10211103D01*
X6804777Y-10211103D02*
X6785729Y-10220627D01*
X7023825Y-10163484D02*
X7042872Y-10163484D01*
X7042872Y-10163484D02*
X7061920Y-10173008D01*
X7061920Y-10173008D02*
X7071444Y-10182531D01*
X7071444Y-10182531D02*
X7080967Y-10201579D01*
X7080967Y-10201579D02*
X7090491Y-10239674D01*
X7090491Y-10239674D02*
X7090491Y-10287293D01*
X7090491Y-10287293D02*
X7080967Y-10325389D01*
X7080967Y-10325389D02*
X7071444Y-10344436D01*
X7071444Y-10344436D02*
X7061920Y-10353960D01*
X7061920Y-10353960D02*
X7042872Y-10363484D01*
X7042872Y-10363484D02*
X7023825Y-10363484D01*
X7023825Y-10363484D02*
X7004777Y-10353960D01*
X7004777Y-10353960D02*
X6995253Y-10344436D01*
X6995253Y-10344436D02*
X6985729Y-10325389D01*
X6985729Y-10325389D02*
X6976206Y-10287293D01*
X6976206Y-10287293D02*
X6976206Y-10239674D01*
X6976206Y-10239674D02*
X6985729Y-10201579D01*
X6985729Y-10201579D02*
X6995253Y-10182531D01*
X6995253Y-10182531D02*
X7004777Y-10173008D01*
X7004777Y-10173008D02*
X7023825Y-10163484D01*
X7204777Y-10249198D02*
X7185729Y-10239674D01*
X7185729Y-10239674D02*
X7176206Y-10230150D01*
X7176206Y-10230150D02*
X7166682Y-10211103D01*
X7166682Y-10211103D02*
X7166682Y-10201579D01*
X7166682Y-10201579D02*
X7176206Y-10182531D01*
X7176206Y-10182531D02*
X7185729Y-10173008D01*
X7185729Y-10173008D02*
X7204777Y-10163484D01*
X7204777Y-10163484D02*
X7242872Y-10163484D01*
X7242872Y-10163484D02*
X7261920Y-10173008D01*
X7261920Y-10173008D02*
X7271444Y-10182531D01*
X7271444Y-10182531D02*
X7280967Y-10201579D01*
X7280967Y-10201579D02*
X7280967Y-10211103D01*
X7280967Y-10211103D02*
X7271444Y-10230150D01*
X7271444Y-10230150D02*
X7261920Y-10239674D01*
X7261920Y-10239674D02*
X7242872Y-10249198D01*
X7242872Y-10249198D02*
X7204777Y-10249198D01*
X7204777Y-10249198D02*
X7185729Y-10258722D01*
X7185729Y-10258722D02*
X7176206Y-10268246D01*
X7176206Y-10268246D02*
X7166682Y-10287293D01*
X7166682Y-10287293D02*
X7166682Y-10325389D01*
X7166682Y-10325389D02*
X7176206Y-10344436D01*
X7176206Y-10344436D02*
X7185729Y-10353960D01*
X7185729Y-10353960D02*
X7204777Y-10363484D01*
X7204777Y-10363484D02*
X7242872Y-10363484D01*
X7242872Y-10363484D02*
X7261920Y-10353960D01*
X7261920Y-10353960D02*
X7271444Y-10344436D01*
X7271444Y-10344436D02*
X7280967Y-10325389D01*
X7280967Y-10325389D02*
X7280967Y-10287293D01*
X7280967Y-10287293D02*
X7271444Y-10268246D01*
X7271444Y-10268246D02*
X7261920Y-10258722D01*
X7261920Y-10258722D02*
X7242872Y-10249198D01*
X7347634Y-10163484D02*
X7471444Y-10163484D01*
X7471444Y-10163484D02*
X7404777Y-10239674D01*
X7404777Y-10239674D02*
X7433348Y-10239674D01*
X7433348Y-10239674D02*
X7452396Y-10249198D01*
X7452396Y-10249198D02*
X7461920Y-10258722D01*
X7461920Y-10258722D02*
X7471444Y-10277770D01*
X7471444Y-10277770D02*
X7471444Y-10325389D01*
X7471444Y-10325389D02*
X7461920Y-10344436D01*
X7461920Y-10344436D02*
X7452396Y-10353960D01*
X7452396Y-10353960D02*
X7433348Y-10363484D01*
X7433348Y-10363484D02*
X7376206Y-10363484D01*
X7376206Y-10363484D02*
X7357158Y-10353960D01*
X7357158Y-10353960D02*
X7347634Y-10344436D01*
X7547634Y-10163484D02*
X7547634Y-10201579D01*
X7623825Y-10163484D02*
X7623825Y-10201579D01*
X7919063Y-10439674D02*
X7909539Y-10430150D01*
X7909539Y-10430150D02*
X7890491Y-10401579D01*
X7890491Y-10401579D02*
X7880968Y-10382531D01*
X7880968Y-10382531D02*
X7871444Y-10353960D01*
X7871444Y-10353960D02*
X7861920Y-10306341D01*
X7861920Y-10306341D02*
X7861920Y-10268246D01*
X7861920Y-10268246D02*
X7871444Y-10220627D01*
X7871444Y-10220627D02*
X7880968Y-10192055D01*
X7880968Y-10192055D02*
X7890491Y-10173008D01*
X7890491Y-10173008D02*
X7909539Y-10144436D01*
X7909539Y-10144436D02*
X7919063Y-10134912D01*
X7976206Y-10163484D02*
X8100015Y-10163484D01*
X8100015Y-10163484D02*
X8033348Y-10239674D01*
X8033348Y-10239674D02*
X8061920Y-10239674D01*
X8061920Y-10239674D02*
X8080968Y-10249198D01*
X8080968Y-10249198D02*
X8090491Y-10258722D01*
X8090491Y-10258722D02*
X8100015Y-10277770D01*
X8100015Y-10277770D02*
X8100015Y-10325389D01*
X8100015Y-10325389D02*
X8090491Y-10344436D01*
X8090491Y-10344436D02*
X8080968Y-10353960D01*
X8080968Y-10353960D02*
X8061920Y-10363484D01*
X8061920Y-10363484D02*
X8004777Y-10363484D01*
X8004777Y-10363484D02*
X7985729Y-10353960D01*
X7985729Y-10353960D02*
X7976206Y-10344436D01*
X8338110Y-10363484D02*
X8338110Y-10163484D01*
X8423825Y-10363484D02*
X8423825Y-10258722D01*
X8423825Y-10258722D02*
X8414301Y-10239674D01*
X8414301Y-10239674D02*
X8395253Y-10230150D01*
X8395253Y-10230150D02*
X8366682Y-10230150D01*
X8366682Y-10230150D02*
X8347634Y-10239674D01*
X8347634Y-10239674D02*
X8338110Y-10249198D01*
X8547634Y-10363484D02*
X8528587Y-10353960D01*
X8528587Y-10353960D02*
X8519063Y-10344436D01*
X8519063Y-10344436D02*
X8509539Y-10325389D01*
X8509539Y-10325389D02*
X8509539Y-10268246D01*
X8509539Y-10268246D02*
X8519063Y-10249198D01*
X8519063Y-10249198D02*
X8528587Y-10239674D01*
X8528587Y-10239674D02*
X8547634Y-10230150D01*
X8547634Y-10230150D02*
X8576206Y-10230150D01*
X8576206Y-10230150D02*
X8595253Y-10239674D01*
X8595253Y-10239674D02*
X8604777Y-10249198D01*
X8604777Y-10249198D02*
X8614301Y-10268246D01*
X8614301Y-10268246D02*
X8614301Y-10325389D01*
X8614301Y-10325389D02*
X8604777Y-10344436D01*
X8604777Y-10344436D02*
X8595253Y-10353960D01*
X8595253Y-10353960D02*
X8576206Y-10363484D01*
X8576206Y-10363484D02*
X8547634Y-10363484D01*
X8728587Y-10363484D02*
X8709539Y-10353960D01*
X8709539Y-10353960D02*
X8700015Y-10334912D01*
X8700015Y-10334912D02*
X8700015Y-10163484D01*
X8880968Y-10353960D02*
X8861920Y-10363484D01*
X8861920Y-10363484D02*
X8823825Y-10363484D01*
X8823825Y-10363484D02*
X8804777Y-10353960D01*
X8804777Y-10353960D02*
X8795253Y-10334912D01*
X8795253Y-10334912D02*
X8795253Y-10258722D01*
X8795253Y-10258722D02*
X8804777Y-10239674D01*
X8804777Y-10239674D02*
X8823825Y-10230150D01*
X8823825Y-10230150D02*
X8861920Y-10230150D01*
X8861920Y-10230150D02*
X8880968Y-10239674D01*
X8880968Y-10239674D02*
X8890492Y-10258722D01*
X8890492Y-10258722D02*
X8890492Y-10277770D01*
X8890492Y-10277770D02*
X8795253Y-10296817D01*
X8966682Y-10353960D02*
X8985730Y-10363484D01*
X8985730Y-10363484D02*
X9023825Y-10363484D01*
X9023825Y-10363484D02*
X9042873Y-10353960D01*
X9042873Y-10353960D02*
X9052396Y-10334912D01*
X9052396Y-10334912D02*
X9052396Y-10325389D01*
X9052396Y-10325389D02*
X9042873Y-10306341D01*
X9042873Y-10306341D02*
X9023825Y-10296817D01*
X9023825Y-10296817D02*
X8995253Y-10296817D01*
X8995253Y-10296817D02*
X8976206Y-10287293D01*
X8976206Y-10287293D02*
X8966682Y-10268246D01*
X8966682Y-10268246D02*
X8966682Y-10258722D01*
X8966682Y-10258722D02*
X8976206Y-10239674D01*
X8976206Y-10239674D02*
X8995253Y-10230150D01*
X8995253Y-10230150D02*
X9023825Y-10230150D01*
X9023825Y-10230150D02*
X9042873Y-10239674D01*
X9119063Y-10439674D02*
X9128587Y-10430150D01*
X9128587Y-10430150D02*
X9147634Y-10401579D01*
X9147634Y-10401579D02*
X9157158Y-10382531D01*
X9157158Y-10382531D02*
X9166682Y-10353960D01*
X9166682Y-10353960D02*
X9176206Y-10306341D01*
X9176206Y-10306341D02*
X9176206Y-10268246D01*
X9176206Y-10268246D02*
X9166682Y-10220627D01*
X9166682Y-10220627D02*
X9157158Y-10192055D01*
X9157158Y-10192055D02*
X9147634Y-10173008D01*
X9147634Y-10173008D02*
X9128587Y-10144436D01*
X9128587Y-10144436D02*
X9119063Y-10134912D01*
X9480968Y-10439674D02*
X9471444Y-10430150D01*
X9471444Y-10430150D02*
X9452396Y-10401579D01*
X9452396Y-10401579D02*
X9442873Y-10382531D01*
X9442873Y-10382531D02*
X9433349Y-10353960D01*
X9433349Y-10353960D02*
X9423825Y-10306341D01*
X9423825Y-10306341D02*
X9423825Y-10268246D01*
X9423825Y-10268246D02*
X9433349Y-10220627D01*
X9433349Y-10220627D02*
X9442873Y-10192055D01*
X9442873Y-10192055D02*
X9452396Y-10173008D01*
X9452396Y-10173008D02*
X9471444Y-10144436D01*
X9471444Y-10144436D02*
X9480968Y-10134912D01*
X9557158Y-10230150D02*
X9557158Y-10363484D01*
X9557158Y-10249198D02*
X9566682Y-10239674D01*
X9566682Y-10239674D02*
X9585730Y-10230150D01*
X9585730Y-10230150D02*
X9614301Y-10230150D01*
X9614301Y-10230150D02*
X9633349Y-10239674D01*
X9633349Y-10239674D02*
X9642873Y-10258722D01*
X9642873Y-10258722D02*
X9642873Y-10363484D01*
X9766682Y-10363484D02*
X9747634Y-10353960D01*
X9747634Y-10353960D02*
X9738111Y-10344436D01*
X9738111Y-10344436D02*
X9728587Y-10325389D01*
X9728587Y-10325389D02*
X9728587Y-10268246D01*
X9728587Y-10268246D02*
X9738111Y-10249198D01*
X9738111Y-10249198D02*
X9747634Y-10239674D01*
X9747634Y-10239674D02*
X9766682Y-10230150D01*
X9766682Y-10230150D02*
X9795254Y-10230150D01*
X9795254Y-10230150D02*
X9814301Y-10239674D01*
X9814301Y-10239674D02*
X9823825Y-10249198D01*
X9823825Y-10249198D02*
X9833349Y-10268246D01*
X9833349Y-10268246D02*
X9833349Y-10325389D01*
X9833349Y-10325389D02*
X9823825Y-10344436D01*
X9823825Y-10344436D02*
X9814301Y-10353960D01*
X9814301Y-10353960D02*
X9795254Y-10363484D01*
X9795254Y-10363484D02*
X9766682Y-10363484D01*
X9890492Y-10230150D02*
X9966682Y-10230150D01*
X9919063Y-10163484D02*
X9919063Y-10334912D01*
X9919063Y-10334912D02*
X9928587Y-10353960D01*
X9928587Y-10353960D02*
X9947634Y-10363484D01*
X9947634Y-10363484D02*
X9966682Y-10363484D01*
X10185730Y-10230150D02*
X10185730Y-10430150D01*
X10185730Y-10239674D02*
X10204777Y-10230150D01*
X10204777Y-10230150D02*
X10242873Y-10230150D01*
X10242873Y-10230150D02*
X10261920Y-10239674D01*
X10261920Y-10239674D02*
X10271444Y-10249198D01*
X10271444Y-10249198D02*
X10280968Y-10268246D01*
X10280968Y-10268246D02*
X10280968Y-10325389D01*
X10280968Y-10325389D02*
X10271444Y-10344436D01*
X10271444Y-10344436D02*
X10261920Y-10353960D01*
X10261920Y-10353960D02*
X10242873Y-10363484D01*
X10242873Y-10363484D02*
X10204777Y-10363484D01*
X10204777Y-10363484D02*
X10185730Y-10353960D01*
X10395254Y-10363484D02*
X10376206Y-10353960D01*
X10376206Y-10353960D02*
X10366682Y-10334912D01*
X10366682Y-10334912D02*
X10366682Y-10163484D01*
X10557158Y-10363484D02*
X10557158Y-10258722D01*
X10557158Y-10258722D02*
X10547635Y-10239674D01*
X10547635Y-10239674D02*
X10528587Y-10230150D01*
X10528587Y-10230150D02*
X10490492Y-10230150D01*
X10490492Y-10230150D02*
X10471444Y-10239674D01*
X10557158Y-10353960D02*
X10538111Y-10363484D01*
X10538111Y-10363484D02*
X10490492Y-10363484D01*
X10490492Y-10363484D02*
X10471444Y-10353960D01*
X10471444Y-10353960D02*
X10461920Y-10334912D01*
X10461920Y-10334912D02*
X10461920Y-10315865D01*
X10461920Y-10315865D02*
X10471444Y-10296817D01*
X10471444Y-10296817D02*
X10490492Y-10287293D01*
X10490492Y-10287293D02*
X10538111Y-10287293D01*
X10538111Y-10287293D02*
X10557158Y-10277770D01*
X10623825Y-10230150D02*
X10700015Y-10230150D01*
X10652396Y-10163484D02*
X10652396Y-10334912D01*
X10652396Y-10334912D02*
X10661920Y-10353960D01*
X10661920Y-10353960D02*
X10680968Y-10363484D01*
X10680968Y-10363484D02*
X10700015Y-10363484D01*
X10842873Y-10353960D02*
X10823825Y-10363484D01*
X10823825Y-10363484D02*
X10785730Y-10363484D01*
X10785730Y-10363484D02*
X10766682Y-10353960D01*
X10766682Y-10353960D02*
X10757158Y-10334912D01*
X10757158Y-10334912D02*
X10757158Y-10258722D01*
X10757158Y-10258722D02*
X10766682Y-10239674D01*
X10766682Y-10239674D02*
X10785730Y-10230150D01*
X10785730Y-10230150D02*
X10823825Y-10230150D01*
X10823825Y-10230150D02*
X10842873Y-10239674D01*
X10842873Y-10239674D02*
X10852396Y-10258722D01*
X10852396Y-10258722D02*
X10852396Y-10277770D01*
X10852396Y-10277770D02*
X10757158Y-10296817D01*
X11023825Y-10363484D02*
X11023825Y-10163484D01*
X11023825Y-10353960D02*
X11004777Y-10363484D01*
X11004777Y-10363484D02*
X10966682Y-10363484D01*
X10966682Y-10363484D02*
X10947635Y-10353960D01*
X10947635Y-10353960D02*
X10938111Y-10344436D01*
X10938111Y-10344436D02*
X10928587Y-10325389D01*
X10928587Y-10325389D02*
X10928587Y-10268246D01*
X10928587Y-10268246D02*
X10938111Y-10249198D01*
X10938111Y-10249198D02*
X10947635Y-10239674D01*
X10947635Y-10239674D02*
X10966682Y-10230150D01*
X10966682Y-10230150D02*
X11004777Y-10230150D01*
X11004777Y-10230150D02*
X11023825Y-10239674D01*
X11100016Y-10439674D02*
X11109539Y-10430150D01*
X11109539Y-10430150D02*
X11128587Y-10401579D01*
X11128587Y-10401579D02*
X11138111Y-10382531D01*
X11138111Y-10382531D02*
X11147635Y-10353960D01*
X11147635Y-10353960D02*
X11157158Y-10306341D01*
X11157158Y-10306341D02*
X11157158Y-10268246D01*
X11157158Y-10268246D02*
X11147635Y-10220627D01*
X11147635Y-10220627D02*
X11138111Y-10192055D01*
X11138111Y-10192055D02*
X11128587Y-10173008D01*
X11128587Y-10173008D02*
X11109539Y-10144436D01*
X11109539Y-10144436D02*
X11100016Y-10134912D01*
M02*
