%TF.GenerationSoftware,KiCad,Pcbnew,8.0.9*%
%TF.CreationDate,2026-06-12T01:55:34+00:00*%
%TF.ProjectId,pico-ball-deck,7069636f-2d62-4616-9c6c-2d6465636b2e,rev?*%
%TF.SameCoordinates,Original*%
%TF.FileFunction,Copper,L2,Bot*%
%TF.FilePolarity,Positive*%
%FSLAX46Y46*%
G04 Gerber Fmt 4.6, Leading zero omitted, Abs format (unit mm)*
G04 Created by KiCad (PCBNEW 8.0.9) date 2026-06-12 01:55:34*
%MOMM*%
%LPD*%
G01*
G04 APERTURE LIST*
%TA.AperFunction,ConnectorPad*%
%ADD10R,5.000000X1.000000*%
%TD*%
%TA.AperFunction,ComponentPad*%
%ADD11O,1.700000X1.700000*%
%TD*%
%TA.AperFunction,ComponentPad*%
%ADD12R,1.700000X1.700000*%
%TD*%
%TA.AperFunction,SMDPad,CuDef*%
%ADD13C,2.200000*%
%TD*%
%TA.AperFunction,ComponentPad*%
%ADD14C,1.700000*%
%TD*%
%TA.AperFunction,SMDPad,CuDef*%
%ADD15R,1.600000X2.000000*%
%TD*%
%TA.AperFunction,SMDPad,CuDef*%
%ADD16R,2.600000X1.600000*%
%TD*%
%TA.AperFunction,SMDPad,CuDef*%
%ADD17R,1.300000X1.450000*%
%TD*%
%TA.AperFunction,ViaPad*%
%ADD18C,0.700000*%
%TD*%
%TA.AperFunction,ViaPad*%
%ADD19C,0.800000*%
%TD*%
%TA.AperFunction,Conductor*%
%ADD20C,0.500000*%
%TD*%
%TA.AperFunction,Conductor*%
%ADD21C,0.250000*%
%TD*%
G04 APERTURE END LIST*
D10*
%TO.P,J1,1,Pin_1*%
%TO.N,GBVCC*%
X46500000Y-63000000D03*
%TO.P,J1,3,Pin_3*%
%TO.N,SI*%
X46500000Y-65000000D03*
%TO.P,J1,5,Pin_5*%
%TO.N,SC*%
X46500000Y-67000000D03*
%TD*%
D11*
%TO.P,U1,1*%
%TO.N,PSC*%
X112630000Y-58660000D03*
%TO.P,U1,2*%
%TO.N,PSI*%
X110090000Y-58660000D03*
D12*
%TO.P,U1,3*%
%TO.N,GND*%
X107550000Y-58660000D03*
D11*
%TO.P,U1,4*%
%TO.N,PSO*%
X105010000Y-58660000D03*
%TO.P,U1,5*%
%TO.N,PSD*%
X102470000Y-58660000D03*
%TO.P,U1,6*%
%TO.N,JOY_PRESS*%
X99930000Y-58660000D03*
%TO.P,U1,7*%
%TO.N,JOY_UP*%
X97390000Y-58660000D03*
D12*
%TO.P,U1,8*%
%TO.N,GND*%
X94850000Y-58660000D03*
D11*
%TO.P,U1,9*%
%TO.N,JOY_LEFT*%
X92310000Y-58660000D03*
%TO.P,U1,10*%
%TO.N,KEY3*%
X89770000Y-58660000D03*
%TO.P,U1,11*%
%TO.N,LCD_CS*%
X87230000Y-58660000D03*
%TO.P,U1,12*%
%TO.N,LCD_DC*%
X84690000Y-58660000D03*
D12*
%TO.P,U1,13*%
%TO.N,GND*%
X82150000Y-58660000D03*
D11*
%TO.P,U1,14*%
%TO.N,LCD_SCK*%
X79610000Y-58660000D03*
%TO.P,U1,15*%
%TO.N,LCD_MOSI*%
X77070000Y-58660000D03*
%TO.P,U1,16*%
%TO.N,LCD_RST*%
X74530000Y-58660000D03*
%TO.P,U1,17*%
%TO.N,LCD_BL*%
X71990000Y-58660000D03*
D12*
%TO.P,U1,18*%
%TO.N,GND*%
X69450000Y-58660000D03*
D11*
%TO.P,U1,19*%
%TO.N,I2C_SDA*%
X66910000Y-58660000D03*
%TO.P,U1,20*%
%TO.N,I2C_SCL*%
X64370000Y-58660000D03*
%TO.P,U1,21*%
%TO.N,UART_TX*%
X64370000Y-76440000D03*
%TO.P,U1,22*%
%TO.N,UART_RX*%
X66910000Y-76440000D03*
D12*
%TO.P,U1,23*%
%TO.N,GND*%
X69450000Y-76440000D03*
D11*
%TO.P,U1,24*%
%TO.N,N/C*%
X71990000Y-76440000D03*
%TO.P,U1,25*%
X74530000Y-76440000D03*
%TO.P,U1,26*%
X77070000Y-76440000D03*
%TO.P,U1,27*%
X79610000Y-76440000D03*
D12*
%TO.P,U1,28*%
%TO.N,GND*%
X82150000Y-76440000D03*
D11*
%TO.P,U1,29*%
%TO.N,KEY1*%
X84690000Y-76440000D03*
%TO.P,U1,30*%
%TO.N,N/C*%
X87230000Y-76440000D03*
%TO.P,U1,31*%
%TO.N,JOY_RIGHT*%
X89770000Y-76440000D03*
%TO.P,U1,32*%
%TO.N,KEY2*%
X92310000Y-76440000D03*
D12*
%TO.P,U1,33*%
%TO.N,GND*%
X94850000Y-76440000D03*
D11*
%TO.P,U1,35*%
%TO.N,N/C*%
X99930000Y-76440000D03*
D12*
%TO.P,U1,38*%
%TO.N,GND*%
X107550000Y-76440000D03*
D11*
%TO.P,U1,39*%
%TO.N,VSYS*%
X110090000Y-76440000D03*
%TO.P,U1,40*%
%TO.N,VBUS*%
X112630000Y-76440000D03*
%TO.P,U1,41*%
%TO.N,N/C*%
X64600000Y-65010000D03*
D12*
%TO.P,U1,42*%
X64600000Y-67550000D03*
D11*
%TO.P,U1,43*%
X64600000Y-70090000D03*
%TD*%
D12*
%TO.P,J2,1*%
%TO.N,+3V3*%
X58370000Y-54770000D03*
D11*
%TO.P,J2,2*%
%TO.N,+5V_SUGAR*%
X58370000Y-52230000D03*
%TO.P,J2,3*%
%TO.N,I2C_SDA*%
X60910000Y-54770000D03*
%TO.P,J2,4*%
%TO.N,+5V_SUGAR*%
X60910000Y-52230000D03*
%TO.P,J2,5*%
%TO.N,I2C_SCL*%
X63450000Y-54770000D03*
%TO.P,J2,6*%
%TO.N,GND*%
X63450000Y-52230000D03*
%TO.P,J2,7*%
%TO.N,N/C*%
X65990000Y-54770000D03*
%TO.P,J2,8*%
%TO.N,UART_TX*%
X65990000Y-52230000D03*
%TO.P,J2,9*%
%TO.N,GND*%
X68530000Y-54770000D03*
%TO.P,J2,10*%
%TO.N,UART_RX*%
X68530000Y-52230000D03*
%TO.P,J2,11*%
%TO.N,N/C*%
X71070000Y-54770000D03*
%TO.P,J2,12*%
X71070000Y-52230000D03*
%TO.P,J2,13*%
%TO.N,LCD_RST*%
X73610000Y-54770000D03*
%TO.P,J2,14*%
%TO.N,GND*%
X73610000Y-52230000D03*
%TO.P,J2,15*%
%TO.N,N/C*%
X76150000Y-54770000D03*
%TO.P,J2,16*%
X76150000Y-52230000D03*
%TO.P,J2,17*%
%TO.N,+3V3*%
X78690000Y-54770000D03*
%TO.P,J2,18*%
%TO.N,LCD_BL*%
X78690000Y-52230000D03*
%TO.P,J2,19*%
%TO.N,LCD_MOSI*%
X81230000Y-54770000D03*
%TO.P,J2,20*%
%TO.N,GND*%
X81230000Y-52230000D03*
%TO.P,J2,21*%
%TO.N,N/C*%
X83770000Y-54770000D03*
%TO.P,J2,22*%
%TO.N,LCD_DC*%
X83770000Y-52230000D03*
%TO.P,J2,23*%
%TO.N,LCD_SCK*%
X86310000Y-54770000D03*
%TO.P,J2,24*%
%TO.N,LCD_CS*%
X86310000Y-52230000D03*
%TO.P,J2,25*%
%TO.N,GND*%
X88850000Y-54770000D03*
%TO.P,J2,26*%
%TO.N,N/C*%
X88850000Y-52230000D03*
%TO.P,J2,27*%
X91390000Y-54770000D03*
%TO.P,J2,28*%
X91390000Y-52230000D03*
%TO.P,J2,29*%
%TO.N,JOY_LEFT*%
X93930000Y-54770000D03*
%TO.P,J2,30*%
%TO.N,GND*%
X93930000Y-52230000D03*
%TO.P,J2,31*%
%TO.N,JOY_UP*%
X96470000Y-54770000D03*
%TO.P,J2,32*%
%TO.N,N/C*%
X96470000Y-52230000D03*
%TO.P,J2,33*%
%TO.N,JOY_PRESS*%
X99010000Y-54770000D03*
%TO.P,J2,34*%
%TO.N,GND*%
X99010000Y-52230000D03*
%TO.P,J2,35*%
%TO.N,JOY_DOWN*%
X101550000Y-54770000D03*
%TO.P,J2,36*%
%TO.N,KEY3*%
X101550000Y-52230000D03*
%TO.P,J2,37*%
%TO.N,JOY_RIGHT*%
X104090000Y-54770000D03*
%TO.P,J2,38*%
%TO.N,KEY2*%
X104090000Y-52230000D03*
%TO.P,J2,39*%
%TO.N,GND*%
X106630000Y-54770000D03*
%TO.P,J2,40*%
%TO.N,KEY1*%
X106630000Y-52230000D03*
%TD*%
D13*
%TO.P,PB3,1*%
%TO.N,GND*%
X104100000Y-76310000D03*
%TD*%
D12*
%TO.P,U2,1,LV1*%
%TO.N,PSC*%
X61960000Y-58680000D03*
D14*
%TO.P,U2,2,LV2*%
%TO.N,PSI*%
X61960000Y-61220000D03*
%TO.P,U2,3,LV*%
%TO.N,+3V3*%
X61960000Y-63760000D03*
%TO.P,U2,4,GND_1*%
%TO.N,GND*%
X61960000Y-66300000D03*
%TO.P,U2,5,LV3*%
%TO.N,PSO*%
X61960000Y-68840000D03*
%TO.P,U2,6,LV4*%
%TO.N,PSD*%
X61960000Y-71380000D03*
%TO.P,U2,7,HV1*%
%TO.N,SC*%
X51800000Y-58680000D03*
%TO.P,U2,8,HV2*%
%TO.N,SI*%
X51800000Y-61220000D03*
%TO.P,U2,9,HV*%
%TO.N,GBVCC*%
X51800000Y-63760000D03*
%TO.P,U2,10,GND_2*%
%TO.N,GND*%
X51800000Y-66300000D03*
%TO.P,U2,11,HV3*%
%TO.N,SO*%
X51800000Y-68840000D03*
%TO.P,U2,12,EL*%
%TO.N,SD*%
X51800000Y-71380000D03*
%TD*%
D13*
%TO.P,PB1,1*%
%TO.N,+5V_SUGAR*%
X106250000Y-68950000D03*
%TD*%
D15*
%TO.P,JP1,1*%
%TO.N,VBUS*%
X80000000Y-70000000D03*
%TO.P,JP1,2*%
%TO.N,+5V_SUGAR*%
X82000000Y-70000000D03*
%TD*%
D16*
%TO.P,D1,1*%
%TO.N,VSYS*%
X73000000Y-70000000D03*
%TO.P,D1,2*%
%TO.N,+5V_SUGAR*%
X77000000Y-70000000D03*
%TD*%
D13*
%TO.P,PB4,1*%
%TO.N,GND*%
X97710000Y-77590000D03*
%TD*%
%TO.P,PB2,1*%
%TO.N,+5V_SUGAR*%
X103790000Y-73700000D03*
%TD*%
D17*
%TO.P,C1,1*%
%TO.N,VSYS*%
X74000000Y-73500000D03*
%TO.P,C1,2*%
%TO.N,GND*%
X76000000Y-73500000D03*
%TD*%
D18*
%TO.N,GND*%
X52000000Y-79000000D03*
X57100000Y-50720000D03*
X103000000Y-64000000D03*
X87000000Y-69000000D03*
X74880000Y-50720000D03*
X67500000Y-73500000D03*
X110000000Y-50720000D03*
X51000000Y-53000000D03*
X95200000Y-50720000D03*
X114200000Y-67000000D03*
D19*
%TO.N,+3V3*%
X99279900Y-68083400D03*
X102021500Y-70629500D03*
%TO.N,+5V_SUGAR*%
X100223400Y-71667800D03*
X56335400Y-68355400D03*
X62517700Y-73754100D03*
X59593400Y-69386500D03*
X84467600Y-70190600D03*
%TO.N,VSYS*%
X90168400Y-73986600D03*
X106735900Y-74491000D03*
X97568000Y-74065500D03*
%TO.N,VBUS*%
X88227000Y-70163700D03*
X103409900Y-70539700D03*
X100035900Y-70163700D03*
D18*
%TO.N,SI*%
X49545500Y-63852100D03*
%TO.N,PSC*%
X98600000Y-61000000D03*
X106500000Y-61000000D03*
%TO.N,PSI*%
X105860000Y-60200000D03*
X100200000Y-60200000D03*
X67300000Y-60200000D03*
X67300000Y-61900000D03*
%TO.N,PSO*%
X102300000Y-62300000D03*
X99400000Y-62300000D03*
%TO.N,PSD*%
X104152100Y-62386000D03*
X102805800Y-53946800D03*
X99551900Y-63536000D03*
X111045600Y-62386000D03*
%TO.N,I2C_SDA*%
X66579700Y-64941000D03*
X57175000Y-75388500D03*
%TO.N,I2C_SCL*%
X65034500Y-74625900D03*
%TO.N,UART_RX*%
X66638400Y-67526300D03*
X68120800Y-67526300D03*
%TD*%
D20*
%TO.N,GND*%
X74878800Y-50721200D02*
X74877600Y-50722400D01*
X51000000Y-52888900D02*
X53168900Y-50720000D01*
X103840200Y-76050200D02*
X104100000Y-76310000D01*
X74880000Y-50720000D02*
X74879900Y-50720100D01*
X58181900Y-75653100D02*
X57567700Y-76267300D01*
X69450000Y-71550000D02*
X67500000Y-73500000D01*
X82150000Y-73850000D02*
X82150000Y-76440000D01*
X74879900Y-50720100D02*
X74879700Y-50720300D01*
X59775200Y-68484800D02*
X59219900Y-68484800D01*
X102612300Y-64387700D02*
X103000000Y-64000000D01*
X95041700Y-50878300D02*
X93930000Y-50878300D01*
X61960000Y-66300000D02*
X59775200Y-68484800D01*
X69450000Y-60050500D02*
X69450000Y-71550000D01*
X74875100Y-50724900D02*
X74870200Y-50729800D01*
X53168900Y-50720000D02*
X57100000Y-50720000D01*
X95195100Y-50724900D02*
X95190200Y-50729800D01*
X51885200Y-66385100D02*
X51800000Y-66300000D01*
X69450000Y-57984100D02*
X69450000Y-57308300D01*
X95525900Y-76440000D02*
X96201700Y-76440000D01*
X51000000Y-55941200D02*
X51000000Y-53000000D01*
X94850000Y-76440000D02*
X95525900Y-76440000D01*
X69088300Y-75088300D02*
X69450000Y-75088300D01*
X95190200Y-50729800D02*
X95180300Y-50739700D01*
X53700200Y-58641400D02*
X51000000Y-55941200D01*
X107707700Y-74107400D02*
X107707700Y-74930600D01*
X107550000Y-61179900D02*
X107550000Y-58660000D01*
X95199700Y-50720300D02*
X95199400Y-50720600D01*
X74879400Y-50720600D02*
X74878800Y-50721200D01*
X58691700Y-69013000D02*
X58691700Y-69568300D01*
X95199900Y-50720100D02*
X95199700Y-50720300D01*
X106337300Y-73553100D02*
X107153400Y-73553100D01*
X93930000Y-52230000D02*
X93930000Y-50878300D01*
X69450000Y-58660000D02*
X69450000Y-60050500D01*
X77151700Y-73500000D02*
X77501700Y-73850000D01*
X95200000Y-50720000D02*
X95199900Y-50720100D01*
X51000000Y-53000000D02*
X51000000Y-52888900D01*
X51885200Y-66385100D02*
X53700200Y-64570100D01*
X88850000Y-54770000D02*
X87171800Y-56448200D01*
X97132400Y-64387700D02*
X102612300Y-64387700D01*
X103000000Y-64000000D02*
X104729900Y-64000000D01*
X82150000Y-58660000D02*
X80759500Y-60050500D01*
X94850000Y-58660000D02*
X94850000Y-62105300D01*
X106630000Y-54770000D02*
X106630000Y-56388300D01*
X69450000Y-76440000D02*
X69450000Y-75088300D01*
X84361800Y-56448200D02*
X82150000Y-58660000D01*
X51287500Y-75623700D02*
X53606600Y-73304600D01*
X74879700Y-50720300D02*
X74879400Y-50720600D01*
X69450000Y-57308300D02*
X68530000Y-56388300D01*
X95197600Y-50722400D02*
X95195100Y-50724900D01*
X87171800Y-56448200D02*
X84361800Y-56448200D01*
X67500000Y-73500000D02*
X69088300Y-75088300D01*
X76000000Y-73500000D02*
X77151700Y-73500000D01*
X95525900Y-76440000D02*
X95525900Y-74752200D01*
X97132400Y-73145700D02*
X100935700Y-73145700D01*
X52000000Y-79000000D02*
X51287500Y-78287500D01*
X74840500Y-50759500D02*
X74800900Y-50799100D01*
X74860300Y-50739700D02*
X74840500Y-50759500D01*
X70859200Y-77849200D02*
X69450000Y-76440000D01*
X106630000Y-56388300D02*
X107550000Y-57308300D01*
X57567700Y-76267300D02*
X56569200Y-76267300D01*
X59219900Y-68484800D02*
X58691700Y-69013000D01*
X95198800Y-50721200D02*
X95197600Y-50722400D01*
X56569200Y-76267300D02*
X53606600Y-73304600D01*
X53606600Y-73304600D02*
X53162600Y-72860700D01*
X103840200Y-76050200D02*
X106337300Y-73553100D01*
X74800900Y-50799100D02*
X74721700Y-50878300D01*
X73610000Y-52230000D02*
X73610000Y-50878300D01*
X74877600Y-50722400D02*
X74875100Y-50724900D01*
X94850000Y-62105300D02*
X97132400Y-64387700D01*
X77501700Y-73850000D02*
X82150000Y-73850000D01*
X74870200Y-50729800D02*
X74860300Y-50739700D01*
X53162600Y-72860700D02*
X53162600Y-67662600D01*
X53700200Y-64570100D02*
X53700200Y-58641400D01*
X53162600Y-67662600D02*
X51885200Y-66385100D01*
X104729900Y-64000000D02*
X107550000Y-61179900D01*
X69450000Y-57984100D02*
X69450000Y-58660000D01*
X82150000Y-76440000D02*
X80740800Y-77849200D01*
X95160500Y-50759500D02*
X95120900Y-50799100D01*
X74721700Y-50878300D02*
X73610000Y-50878300D01*
X97351700Y-77590000D02*
X96201700Y-76440000D01*
X95120900Y-50799100D02*
X95041700Y-50878300D01*
X68530000Y-56388300D02*
X68530000Y-54770000D01*
X97710000Y-77590000D02*
X97351700Y-77590000D01*
X107153400Y-73553100D02*
X107707700Y-74107400D01*
X100935700Y-73145700D02*
X103840200Y-76050200D01*
X97132400Y-64387700D02*
X97132400Y-73145700D01*
X80740800Y-77849200D02*
X70859200Y-77849200D01*
X87000000Y-69000000D02*
X82150000Y-73850000D01*
X80759500Y-60050500D02*
X69450000Y-60050500D01*
X107550000Y-76440000D02*
X107550000Y-75088300D01*
X95199400Y-50720600D02*
X95198800Y-50721200D01*
X51287500Y-78287500D02*
X51287500Y-75623700D01*
X107550000Y-58660000D02*
X107550000Y-57308300D01*
X58181900Y-70078100D02*
X58181900Y-75653100D01*
X58691700Y-69568300D02*
X58181900Y-70078100D01*
X95180300Y-50739700D02*
X95160500Y-50759500D01*
X107707700Y-74930600D02*
X107550000Y-75088300D01*
X95525900Y-74752200D02*
X97132400Y-73145700D01*
%TO.N,+3V3*%
X61960000Y-63760000D02*
X58370000Y-60170000D01*
X100408300Y-68626700D02*
X99823200Y-68626700D01*
X102021500Y-70629500D02*
X101826000Y-70629500D01*
X100936400Y-69739900D02*
X100936400Y-69154800D01*
X100936400Y-69154800D02*
X100408300Y-68626700D01*
X99823200Y-68626700D02*
X99279900Y-68083400D01*
X58370000Y-60170000D02*
X58370000Y-54770000D01*
X101826000Y-70629500D02*
X100936400Y-69739900D01*
%TO.N,+5V_SUGAR*%
X57018300Y-52230000D02*
X56335400Y-52912900D01*
X82000000Y-70000000D02*
X83301700Y-70000000D01*
X106250000Y-69880700D02*
X103790000Y-72340700D01*
X59593400Y-69386500D02*
X59593400Y-70947400D01*
X84277000Y-70000000D02*
X84467600Y-70190600D01*
X58370000Y-52230000D02*
X57018300Y-52230000D01*
X77000000Y-70000000D02*
X77000000Y-71301700D01*
X77200000Y-71501700D02*
X82000000Y-71501700D01*
X62400000Y-73754000D02*
X62517700Y-73754000D01*
X83301700Y-70000000D02*
X84277000Y-70000000D01*
X59593400Y-70947400D02*
X62400000Y-73754000D01*
X100896300Y-72340700D02*
X100223400Y-71667800D01*
X106250000Y-68950000D02*
X106250000Y-69880700D01*
X62517700Y-73754000D02*
X62517700Y-73754100D01*
X103790000Y-72340700D02*
X103790000Y-73700000D01*
X82000000Y-70000000D02*
X82000000Y-71501700D01*
X77000000Y-71301700D02*
X77200000Y-71501700D01*
X56335400Y-52912900D02*
X56335400Y-68355400D01*
X103790000Y-72340700D02*
X100896300Y-72340700D01*
%TO.N,VSYS*%
X87697000Y-67351100D02*
X76299700Y-67351100D01*
X90168400Y-69822500D02*
X87697000Y-67351100D01*
X97568000Y-74065500D02*
X99590400Y-74065500D01*
X74000000Y-72273300D02*
X73971600Y-72273300D01*
X99590400Y-74065500D02*
X103436600Y-77911700D01*
X74000000Y-73500000D02*
X74000000Y-72273300D01*
X104763500Y-77911700D02*
X105857800Y-76817400D01*
X73000000Y-70000000D02*
X73000000Y-70650800D01*
X103436600Y-77911700D02*
X104763500Y-77911700D01*
X105857800Y-75369100D02*
X106735900Y-74491000D01*
X76299700Y-67351100D02*
X73000000Y-70650800D01*
X105857800Y-76817400D02*
X105857800Y-75369100D01*
X90168400Y-73986600D02*
X90168400Y-69822500D01*
X73971600Y-72273300D02*
X73000000Y-71301700D01*
X73000000Y-70650800D02*
X73000000Y-71301700D01*
%TO.N,VBUS*%
X102360600Y-71589000D02*
X101461200Y-71589000D01*
X101461200Y-71589000D02*
X100035900Y-70163700D01*
X88227000Y-69020600D02*
X88227000Y-70163700D01*
X103409900Y-70539700D02*
X102360600Y-71589000D01*
X80395500Y-68102800D02*
X87309200Y-68102800D01*
X87309200Y-68102800D02*
X88227000Y-69020600D01*
X80000000Y-70000000D02*
X80000000Y-68498300D01*
X80000000Y-68498300D02*
X80395500Y-68102800D01*
%TO.N,GBVCC*%
X51040000Y-63000000D02*
X49501700Y-63000000D01*
X46500000Y-63000000D02*
X49501700Y-63000000D01*
X51800000Y-63760000D02*
X51040000Y-63000000D01*
D21*
%TO.N,SC*%
X49376700Y-66882200D02*
X49376700Y-67000000D01*
X51800000Y-58680000D02*
X53059500Y-59939500D01*
X51258900Y-65000000D02*
X49376700Y-66882200D01*
X53059500Y-64284300D02*
X52343800Y-65000000D01*
X52343800Y-65000000D02*
X51258900Y-65000000D01*
X46500000Y-67000000D02*
X49376700Y-67000000D01*
X53059500Y-59939500D02*
X53059500Y-64284300D01*
%TO.N,SI*%
X46500000Y-65000000D02*
X49376700Y-65000000D01*
X49376700Y-64020900D02*
X49545500Y-63852100D01*
X49376700Y-65000000D02*
X49376700Y-64020900D01*
%TO.N,PSC*%
X106500000Y-61000000D02*
X98600000Y-61000000D01*
%TO.N,PSI*%
X105860000Y-60200000D02*
X100200000Y-60200000D01*
X67300000Y-60200000D02*
X67300000Y-61900000D01*
%TO.N,PSO*%
X102300000Y-62300000D02*
X99400000Y-62300000D01*
%TO.N,PSD*%
X103264800Y-63273300D02*
X104152100Y-62386000D01*
X111360100Y-62071500D02*
X111045600Y-62386000D01*
X102805800Y-51745400D02*
X103563000Y-50988200D01*
X109646000Y-51458400D02*
X112289900Y-51458400D01*
X102805800Y-53946800D02*
X102805800Y-51745400D01*
X113509000Y-54648800D02*
X111360100Y-56797700D01*
X99551900Y-63536000D02*
X99814600Y-63273300D01*
X112289900Y-51458400D02*
X113509000Y-52677500D01*
X111360100Y-56797700D02*
X111360100Y-62071500D01*
X103563000Y-50988200D02*
X109175800Y-50988200D01*
X99814600Y-63273300D02*
X103264800Y-63273300D01*
X113509000Y-52677500D02*
X113509000Y-54648800D01*
X109175800Y-50988200D02*
X109646000Y-51458400D01*
%TO.N,I2C_SDA*%
X66910000Y-58660000D02*
X66520900Y-59049100D01*
X57378600Y-53500000D02*
X59333300Y-53500000D01*
X57175000Y-75388500D02*
X57118000Y-75331500D01*
X57118000Y-75331500D02*
X57118000Y-53760600D01*
X59683300Y-53850000D02*
X59683300Y-54770000D01*
X57118000Y-53760600D02*
X57378600Y-53500000D01*
X66520900Y-59049100D02*
X66520900Y-64882200D01*
X66520900Y-64882200D02*
X66579700Y-64941000D01*
X60910000Y-54770000D02*
X59683300Y-54770000D01*
X59333300Y-53500000D02*
X59683300Y-53850000D01*
%TO.N,I2C_SCL*%
X64370000Y-56916700D02*
X64370000Y-58660000D01*
X64370000Y-58660000D02*
X64370000Y-59886700D01*
X65851700Y-61368400D02*
X65851700Y-73808700D01*
X64370000Y-59886700D02*
X65851700Y-61368400D01*
X65851700Y-73808700D02*
X65034500Y-74625900D01*
X63450000Y-54770000D02*
X63450000Y-55996700D01*
X63450000Y-55996700D02*
X64370000Y-56916700D01*
%TO.N,UART_TX*%
X60600000Y-59950000D02*
X60600000Y-57400000D01*
X62600000Y-59950000D02*
X60600000Y-59950000D01*
X62180000Y-55820000D02*
X62180000Y-53500000D01*
X63300000Y-60650000D02*
X62600000Y-59950000D01*
X64370000Y-76440000D02*
X63300000Y-75370000D01*
X62180000Y-53500000D02*
X65100000Y-53500000D01*
X65100000Y-53500000D02*
X65990000Y-52610000D01*
X65990000Y-52610000D02*
X65990000Y-52230000D01*
X60600000Y-57400000D02*
X62180000Y-55820000D01*
X63300000Y-75370000D02*
X63300000Y-60650000D01*
%TO.N,UART_RX*%
X67260000Y-56835500D02*
X68155000Y-57730500D01*
X66910000Y-75213300D02*
X66638400Y-74941700D01*
X66638400Y-74941700D02*
X66638400Y-67526300D01*
X68155000Y-57730500D02*
X68155000Y-67492100D01*
X68070000Y-53456700D02*
X67260000Y-54266700D01*
X68530000Y-53456700D02*
X68070000Y-53456700D01*
X66910000Y-76440000D02*
X66910000Y-75213300D01*
X68155000Y-67492100D02*
X68120800Y-67526300D01*
X67260000Y-54266700D02*
X67260000Y-56835500D01*
X68530000Y-52230000D02*
X68530000Y-53456700D01*
%TO.N,LCD_CS*%
X87536700Y-52738300D02*
X87536700Y-52230000D01*
X90110000Y-54215200D02*
X89394800Y-53500000D01*
X89394800Y-53500000D02*
X88298400Y-53500000D01*
X86310000Y-52230000D02*
X87536700Y-52230000D01*
X87230000Y-57433300D02*
X87996700Y-57433300D01*
X90110000Y-55320000D02*
X90110000Y-54215200D01*
X88298400Y-53500000D02*
X87536700Y-52738300D01*
X87996700Y-57433300D02*
X90110000Y-55320000D01*
X87230000Y-58660000D02*
X87230000Y-57433300D01*
%TO.N,LCD_SCK*%
X85083300Y-54310000D02*
X84273300Y-53500000D01*
X80387700Y-57433300D02*
X79610000Y-57433300D01*
X83225200Y-53500000D02*
X82500000Y-54225200D01*
X86310000Y-54770000D02*
X85083300Y-54770000D01*
X79610000Y-58660000D02*
X79610000Y-57433300D01*
X82500000Y-54225200D02*
X82500000Y-55321000D01*
X82500000Y-55321000D02*
X80387700Y-57433300D01*
X84273300Y-53500000D02*
X83225200Y-53500000D01*
X85083300Y-54770000D02*
X85083300Y-54310000D01*
%TO.N,LCD_MOSI*%
X81230000Y-54770000D02*
X80003300Y-54770000D01*
X80003300Y-55277700D02*
X77847700Y-57433300D01*
X77070000Y-58660000D02*
X77070000Y-57433300D01*
X77847700Y-57433300D02*
X77070000Y-57433300D01*
X80003300Y-54770000D02*
X80003300Y-55277700D01*
%TO.N,LCD_BL*%
X75712900Y-57000500D02*
X74367900Y-57000500D01*
X77463300Y-55250100D02*
X75712900Y-57000500D01*
X77463300Y-54223300D02*
X77463300Y-55250100D01*
X71990000Y-58660000D02*
X73216700Y-58660000D01*
X78690000Y-52230000D02*
X78690000Y-53456700D01*
X74367900Y-57000500D02*
X73216700Y-58151700D01*
X78229900Y-53456700D02*
X77463300Y-54223300D01*
X78690000Y-53456700D02*
X78229900Y-53456700D01*
X73216700Y-58151700D02*
X73216700Y-58660000D01*
%TO.N,JOY_RIGHT*%
X103740000Y-56200000D02*
X103740000Y-55450000D01*
X103190000Y-56750000D02*
X103740000Y-56200000D01*
X91040000Y-75170000D02*
X91040000Y-56750000D01*
X104090000Y-55100000D02*
X104090000Y-54770000D01*
X91040000Y-56750000D02*
X103190000Y-56750000D01*
X89770000Y-76440000D02*
X91040000Y-75170000D01*
X103740000Y-55450000D02*
X104090000Y-55100000D01*
%TO.N,KEY1*%
X108820000Y-52230000D02*
X106630000Y-52230000D01*
X108820000Y-72100000D02*
X108000000Y-71280000D01*
X108000000Y-71280000D02*
X108000000Y-63820000D01*
X107320000Y-79250000D02*
X108820000Y-77750000D01*
X87500000Y-79250000D02*
X107320000Y-79250000D01*
X108000000Y-63820000D02*
X108820000Y-63000000D01*
X84690000Y-76440000D02*
X87500000Y-79250000D01*
X108820000Y-63000000D02*
X108820000Y-52230000D01*
X108820000Y-77750000D02*
X108820000Y-72100000D01*
%TO.N,KEY2*%
X93580000Y-75170000D02*
X93580000Y-57350000D01*
X105360000Y-56800000D02*
X105360000Y-52230000D01*
X92310000Y-76440000D02*
X93580000Y-75170000D01*
X104810000Y-57350000D02*
X105360000Y-56800000D01*
X93580000Y-57350000D02*
X104810000Y-57350000D01*
X105360000Y-52230000D02*
X104090000Y-52230000D01*
%TO.N,KEY3*%
X97740000Y-55331400D02*
X96973700Y-56097700D01*
X101550000Y-52230000D02*
X100323300Y-52230000D01*
X100323300Y-52690100D02*
X99556700Y-53456700D01*
X99556700Y-53456700D02*
X98508500Y-53456700D01*
X90966900Y-56097700D02*
X89770000Y-57294600D01*
X98508500Y-53456700D02*
X97740000Y-54225200D01*
X89770000Y-57294600D02*
X89770000Y-58660000D01*
X97740000Y-54225200D02*
X97740000Y-55331400D01*
X100323300Y-52230000D02*
X100323300Y-52690100D01*
X96973700Y-56097700D02*
X90966900Y-56097700D01*
%TD*%
%TA.AperFunction,Conductor*%
%TO.N,GND*%
G36*
X112003471Y-50250695D02*
G01*
X112044188Y-50252981D01*
X112300900Y-50267397D01*
X112314703Y-50268953D01*
X112604953Y-50318269D01*
X112618510Y-50321363D01*
X112901413Y-50402866D01*
X112914537Y-50407459D01*
X113186527Y-50520120D01*
X113199049Y-50526149D01*
X113355650Y-50612700D01*
X113456726Y-50668563D01*
X113468500Y-50675961D01*
X113708604Y-50846323D01*
X113719476Y-50854993D01*
X113938693Y-51050898D01*
X113938997Y-51051169D01*
X113948828Y-51061000D01*
X113991268Y-51108490D01*
X114145006Y-51280523D01*
X114153676Y-51291395D01*
X114324038Y-51531499D01*
X114331436Y-51543273D01*
X114473846Y-51800943D01*
X114479879Y-51813472D01*
X114592540Y-52085462D01*
X114597133Y-52098586D01*
X114678636Y-52381489D01*
X114681730Y-52395046D01*
X114731045Y-52685288D01*
X114732602Y-52699106D01*
X114749305Y-52996527D01*
X114749500Y-53003480D01*
X114749500Y-76996519D01*
X114749305Y-77003472D01*
X114732602Y-77300893D01*
X114731045Y-77314711D01*
X114681730Y-77604953D01*
X114678636Y-77618510D01*
X114597133Y-77901413D01*
X114592540Y-77914537D01*
X114479879Y-78186527D01*
X114473846Y-78199056D01*
X114331436Y-78456726D01*
X114324038Y-78468500D01*
X114153676Y-78708604D01*
X114145006Y-78719476D01*
X113948830Y-78938997D01*
X113938997Y-78948830D01*
X113719476Y-79145006D01*
X113708604Y-79153676D01*
X113468500Y-79324038D01*
X113456726Y-79331436D01*
X113199056Y-79473846D01*
X113186527Y-79479879D01*
X112914537Y-79592540D01*
X112901413Y-79597133D01*
X112618510Y-79678636D01*
X112604953Y-79681730D01*
X112314711Y-79731045D01*
X112300893Y-79732602D01*
X112003472Y-79749305D01*
X111996519Y-79749500D01*
X107650899Y-79749500D01*
X107583860Y-79729815D01*
X107538105Y-79677011D01*
X107528161Y-79607853D01*
X107557186Y-79544297D01*
X107563218Y-79537819D01*
X108328258Y-78772779D01*
X109120474Y-77980563D01*
X109120475Y-77980562D01*
X109169910Y-77894938D01*
X109195500Y-77799435D01*
X109195500Y-77394546D01*
X109215185Y-77327507D01*
X109267989Y-77281752D01*
X109337147Y-77271808D01*
X109400703Y-77300833D01*
X109403039Y-77302910D01*
X109423957Y-77321980D01*
X109423960Y-77321982D01*
X109523141Y-77383392D01*
X109597363Y-77429348D01*
X109787544Y-77503024D01*
X109988024Y-77540500D01*
X109988026Y-77540500D01*
X110191974Y-77540500D01*
X110191976Y-77540500D01*
X110392456Y-77503024D01*
X110582637Y-77429348D01*
X110756041Y-77321981D01*
X110906764Y-77184579D01*
X111029673Y-77021821D01*
X111120582Y-76839250D01*
X111176397Y-76643083D01*
X111195215Y-76440000D01*
X111195215Y-76439999D01*
X111524785Y-76439999D01*
X111524785Y-76440000D01*
X111543602Y-76643082D01*
X111599417Y-76839247D01*
X111599422Y-76839260D01*
X111690327Y-77021821D01*
X111813237Y-77184581D01*
X111963958Y-77321980D01*
X111963960Y-77321982D01*
X112063141Y-77383392D01*
X112137363Y-77429348D01*
X112327544Y-77503024D01*
X112528024Y-77540500D01*
X112528026Y-77540500D01*
X112731974Y-77540500D01*
X112731976Y-77540500D01*
X112932456Y-77503024D01*
X113122637Y-77429348D01*
X113296041Y-77321981D01*
X113446764Y-77184579D01*
X113569673Y-77021821D01*
X113660582Y-76839250D01*
X113716397Y-76643083D01*
X113735215Y-76440000D01*
X113734205Y-76429105D01*
X113716397Y-76236917D01*
X113716396Y-76236915D01*
X113660582Y-76040750D01*
X113657836Y-76035236D01*
X113578559Y-75876025D01*
X113569673Y-75858179D01*
X113446764Y-75695421D01*
X113446762Y-75695418D01*
X113296041Y-75558019D01*
X113296039Y-75558017D01*
X113122642Y-75450655D01*
X113122639Y-75450653D01*
X113122637Y-75450652D01*
X113122636Y-75450651D01*
X113122635Y-75450651D01*
X112978700Y-75394891D01*
X112932456Y-75376976D01*
X112731976Y-75339500D01*
X112528024Y-75339500D01*
X112327544Y-75376976D01*
X112327541Y-75376976D01*
X112327541Y-75376977D01*
X112137364Y-75450651D01*
X112137357Y-75450655D01*
X111963960Y-75558017D01*
X111963958Y-75558019D01*
X111813237Y-75695418D01*
X111690327Y-75858178D01*
X111599422Y-76040739D01*
X111599417Y-76040752D01*
X111543602Y-76236917D01*
X111524785Y-76439999D01*
X111195215Y-76439999D01*
X111194205Y-76429105D01*
X111176397Y-76236917D01*
X111176396Y-76236915D01*
X111120582Y-76040750D01*
X111117836Y-76035236D01*
X111038559Y-75876025D01*
X111029673Y-75858179D01*
X110906764Y-75695421D01*
X110906762Y-75695418D01*
X110756041Y-75558019D01*
X110756039Y-75558017D01*
X110582642Y-75450655D01*
X110582639Y-75450653D01*
X110582637Y-75450652D01*
X110582636Y-75450651D01*
X110582635Y-75450651D01*
X110438700Y-75394891D01*
X110392456Y-75376976D01*
X110191976Y-75339500D01*
X109988024Y-75339500D01*
X109787544Y-75376976D01*
X109787541Y-75376976D01*
X109787541Y-75376977D01*
X109597364Y-75450651D01*
X109597357Y-75450655D01*
X109423960Y-75558017D01*
X109423958Y-75558019D01*
X109403037Y-75577091D01*
X109340232Y-75607708D01*
X109270845Y-75599509D01*
X109216906Y-75555098D01*
X109195539Y-75488576D01*
X109195500Y-75485453D01*
X109195500Y-72050565D01*
X109194030Y-72045080D01*
X109194029Y-72045077D01*
X109169910Y-71955064D01*
X109169909Y-71955060D01*
X109164533Y-71945749D01*
X109120475Y-71869438D01*
X109050562Y-71799525D01*
X108411819Y-71160782D01*
X108378334Y-71099459D01*
X108375500Y-71073101D01*
X108375500Y-70546590D01*
X108395185Y-70479551D01*
X108447989Y-70433796D01*
X108517147Y-70423852D01*
X108580703Y-70452877D01*
X108602604Y-70477702D01*
X108607428Y-70484922D01*
X108613678Y-70495350D01*
X108615104Y-70498017D01*
X108634088Y-70533535D01*
X108634094Y-70533543D01*
X108661552Y-70567002D01*
X108668799Y-70576772D01*
X108692860Y-70612781D01*
X108692862Y-70612783D01*
X108692865Y-70612787D01*
X108723479Y-70643401D01*
X108731651Y-70652416D01*
X108759118Y-70685884D01*
X108767046Y-70692390D01*
X108792579Y-70713345D01*
X108792581Y-70713346D01*
X108801599Y-70721520D01*
X108832214Y-70752136D01*
X108832219Y-70752140D01*
X108850852Y-70764590D01*
X108868217Y-70776193D01*
X108868219Y-70776194D01*
X108877988Y-70783438D01*
X108911462Y-70810910D01*
X108949640Y-70831316D01*
X108960078Y-70837572D01*
X108965358Y-70841100D01*
X108996086Y-70861632D01*
X109036095Y-70878203D01*
X109047091Y-70883404D01*
X109085273Y-70903814D01*
X109126710Y-70916383D01*
X109138160Y-70920480D01*
X109178165Y-70937051D01*
X109220640Y-70945499D01*
X109232414Y-70948448D01*
X109273868Y-70961024D01*
X109316964Y-70965268D01*
X109328990Y-70967052D01*
X109353763Y-70971980D01*
X109371458Y-70975500D01*
X109371459Y-70975500D01*
X109414756Y-70975500D01*
X109426909Y-70976096D01*
X109470000Y-70980341D01*
X109513090Y-70976096D01*
X109525244Y-70975500D01*
X109568542Y-70975500D01*
X109586237Y-70971980D01*
X109611005Y-70967053D01*
X109623037Y-70965268D01*
X109666132Y-70961024D01*
X109707580Y-70948450D01*
X109719353Y-70945500D01*
X109761835Y-70937051D01*
X109801847Y-70920476D01*
X109813280Y-70916386D01*
X109854727Y-70903814D01*
X109892918Y-70883399D01*
X109903910Y-70878201D01*
X109943914Y-70861632D01*
X109979938Y-70837560D01*
X109990351Y-70831320D01*
X110024598Y-70813016D01*
X110028535Y-70810912D01*
X110028539Y-70810909D01*
X110037816Y-70803296D01*
X110062005Y-70783444D01*
X110071782Y-70776193D01*
X110107781Y-70752140D01*
X110107783Y-70752138D01*
X110107785Y-70752136D01*
X110138408Y-70721512D01*
X110147402Y-70713359D01*
X110180883Y-70685883D01*
X110208359Y-70652402D01*
X110216512Y-70643408D01*
X110247139Y-70612782D01*
X110250244Y-70608136D01*
X110271193Y-70576782D01*
X110278444Y-70567005D01*
X110305909Y-70533539D01*
X110305912Y-70533535D01*
X110315205Y-70516148D01*
X110326320Y-70495351D01*
X110332560Y-70484938D01*
X110356632Y-70448914D01*
X110373202Y-70408906D01*
X110378399Y-70397918D01*
X110398814Y-70359727D01*
X110411386Y-70318280D01*
X110415476Y-70306847D01*
X110428669Y-70274999D01*
X111344571Y-70274999D01*
X111344571Y-70275000D01*
X111348971Y-70322484D01*
X111349500Y-70333925D01*
X111349500Y-70365546D01*
X111357158Y-70413897D01*
X111357213Y-70414244D01*
X111358210Y-70422198D01*
X111364244Y-70487309D01*
X111372448Y-70516148D01*
X111375652Y-70530672D01*
X111377827Y-70544401D01*
X111377831Y-70544418D01*
X111398530Y-70608124D01*
X111399865Y-70612505D01*
X111422595Y-70692389D01*
X111422597Y-70692394D01*
X111422600Y-70692401D01*
X111428046Y-70703340D01*
X111431684Y-70712228D01*
X111431921Y-70712131D01*
X111433787Y-70716635D01*
X111433788Y-70716638D01*
X111433789Y-70716639D01*
X111451877Y-70752139D01*
X111472238Y-70792100D01*
X111472753Y-70793123D01*
X111517628Y-70883245D01*
X111517635Y-70883257D01*
X111574775Y-70958921D01*
X111576140Y-70960764D01*
X111622443Y-71024497D01*
X111623923Y-71025977D01*
X111635195Y-71038930D01*
X111643932Y-71050500D01*
X111646128Y-71053407D01*
X111674584Y-71079348D01*
X111703146Y-71105386D01*
X111707289Y-71109343D01*
X111750495Y-71152550D01*
X111750498Y-71152553D01*
X111766537Y-71164206D01*
X111777187Y-71172885D01*
X111803695Y-71197050D01*
X111854261Y-71228359D01*
X111861867Y-71233466D01*
X111897006Y-71258996D01*
X111930434Y-71276028D01*
X111939416Y-71281086D01*
X111974767Y-71302974D01*
X111984981Y-71309298D01*
X112023940Y-71324390D01*
X112035436Y-71329530D01*
X112049777Y-71336837D01*
X112058361Y-71341211D01*
X112110871Y-71358272D01*
X112117337Y-71360573D01*
X112167485Y-71380000D01*
X112183802Y-71386321D01*
X112207457Y-71390742D01*
X112222984Y-71394699D01*
X112230591Y-71397171D01*
X112230601Y-71397172D01*
X112230603Y-71397173D01*
X112302601Y-71408576D01*
X112305966Y-71409156D01*
X112393388Y-71425499D01*
X112393389Y-71425500D01*
X112393390Y-71425500D01*
X112606610Y-71425500D01*
X112694057Y-71409152D01*
X112697372Y-71408579D01*
X112769409Y-71397171D01*
X112777013Y-71394699D01*
X112792544Y-71390742D01*
X112816198Y-71386321D01*
X112882684Y-71360563D01*
X112889106Y-71358279D01*
X112941639Y-71341211D01*
X112964564Y-71329529D01*
X112976060Y-71324390D01*
X112981610Y-71322239D01*
X113015019Y-71309298D01*
X113060589Y-71281080D01*
X113069544Y-71276038D01*
X113102994Y-71258996D01*
X113138133Y-71233464D01*
X113145708Y-71228377D01*
X113196302Y-71197052D01*
X113222811Y-71172885D01*
X113233467Y-71164202D01*
X113249501Y-71152553D01*
X113292729Y-71109323D01*
X113296853Y-71105386D01*
X113303355Y-71099459D01*
X113353872Y-71053407D01*
X113364802Y-71038933D01*
X113376080Y-71025973D01*
X113377553Y-71024501D01*
X113423947Y-70960642D01*
X113425184Y-70958973D01*
X113482366Y-70883255D01*
X113527302Y-70793009D01*
X113527697Y-70792224D01*
X113566211Y-70716639D01*
X113566213Y-70716630D01*
X113568072Y-70712144D01*
X113568315Y-70712244D01*
X113571958Y-70703326D01*
X113577405Y-70692389D01*
X113600153Y-70612435D01*
X113601452Y-70608172D01*
X113622171Y-70544409D01*
X113623892Y-70533539D01*
X113624345Y-70530681D01*
X113627553Y-70516137D01*
X113628814Y-70511706D01*
X113635756Y-70487310D01*
X113641788Y-70422196D01*
X113642782Y-70414264D01*
X113650500Y-70365546D01*
X113650500Y-70333925D01*
X113651029Y-70322484D01*
X113655429Y-70275000D01*
X113655429Y-70274999D01*
X113651029Y-70227514D01*
X113650500Y-70216073D01*
X113650500Y-70184456D01*
X113648390Y-70171134D01*
X113642783Y-70135738D01*
X113641787Y-70127790D01*
X113641439Y-70124035D01*
X113635756Y-70062690D01*
X113627550Y-70033850D01*
X113624345Y-70019318D01*
X113622172Y-70005595D01*
X113622171Y-70005590D01*
X113601466Y-69941867D01*
X113600131Y-69937484D01*
X113590326Y-69903024D01*
X113577405Y-69857611D01*
X113571956Y-69846668D01*
X113568313Y-69837758D01*
X113568073Y-69837858D01*
X113566213Y-69833367D01*
X113566211Y-69833361D01*
X113527658Y-69757697D01*
X113527310Y-69757006D01*
X113482366Y-69666745D01*
X113482365Y-69666744D01*
X113482365Y-69666743D01*
X113425256Y-69591121D01*
X113423891Y-69589278D01*
X113377556Y-69525502D01*
X113376075Y-69524021D01*
X113364802Y-69511066D01*
X113353874Y-69496595D01*
X113335467Y-69479815D01*
X113296851Y-69444611D01*
X113292709Y-69440655D01*
X113249505Y-69397450D01*
X113249498Y-69397445D01*
X113249492Y-69397441D01*
X113233462Y-69385793D01*
X113222823Y-69377125D01*
X113196302Y-69352948D01*
X113196303Y-69352948D01*
X113196298Y-69352944D01*
X113196296Y-69352943D01*
X113145724Y-69321630D01*
X113138125Y-69316528D01*
X113102994Y-69291004D01*
X113069555Y-69273965D01*
X113060577Y-69268910D01*
X113015022Y-69240703D01*
X113015016Y-69240700D01*
X112976057Y-69225608D01*
X112964558Y-69220467D01*
X112941639Y-69208789D01*
X112941636Y-69208788D01*
X112941634Y-69208787D01*
X112889119Y-69191723D01*
X112882646Y-69189420D01*
X112816203Y-69163680D01*
X112816194Y-69163678D01*
X112792546Y-69159257D01*
X112777025Y-69155303D01*
X112769416Y-69152831D01*
X112769413Y-69152830D01*
X112769409Y-69152829D01*
X112754590Y-69150482D01*
X112697447Y-69141431D01*
X112694062Y-69140847D01*
X112623967Y-69127744D01*
X112606610Y-69124500D01*
X112393390Y-69124500D01*
X112305935Y-69140847D01*
X112302551Y-69141431D01*
X112230590Y-69152829D01*
X112230587Y-69152829D01*
X112222975Y-69155303D01*
X112207449Y-69159258D01*
X112183806Y-69163677D01*
X112183795Y-69163680D01*
X112117358Y-69189418D01*
X112110887Y-69191721D01*
X112058365Y-69208787D01*
X112058356Y-69208791D01*
X112035436Y-69220469D01*
X112023942Y-69225607D01*
X111984984Y-69240700D01*
X111984982Y-69240701D01*
X111939415Y-69268914D01*
X111930439Y-69273968D01*
X111897007Y-69291003D01*
X111897004Y-69291005D01*
X111861874Y-69316528D01*
X111854270Y-69321634D01*
X111803697Y-69352948D01*
X111777186Y-69377115D01*
X111766542Y-69385789D01*
X111750506Y-69397441D01*
X111750495Y-69397450D01*
X111707276Y-69440668D01*
X111703137Y-69444621D01*
X111646126Y-69496594D01*
X111635188Y-69511077D01*
X111623939Y-69524005D01*
X111622450Y-69525494D01*
X111622449Y-69525494D01*
X111576119Y-69589262D01*
X111574757Y-69591101D01*
X111517634Y-69666743D01*
X111517630Y-69666750D01*
X111472753Y-69756876D01*
X111472238Y-69757898D01*
X111433790Y-69833358D01*
X111431925Y-69837860D01*
X111431688Y-69837762D01*
X111428050Y-69846652D01*
X111422599Y-69857600D01*
X111422595Y-69857610D01*
X111399868Y-69937484D01*
X111398534Y-69941863D01*
X111377829Y-70005589D01*
X111375653Y-70019327D01*
X111372448Y-70033853D01*
X111364244Y-70062691D01*
X111358210Y-70127800D01*
X111357212Y-70135754D01*
X111349500Y-70184447D01*
X111349500Y-70216073D01*
X111348971Y-70227514D01*
X111344571Y-70274999D01*
X110428669Y-70274999D01*
X110432051Y-70266835D01*
X110440500Y-70224353D01*
X110443450Y-70212580D01*
X110456024Y-70171132D01*
X110460268Y-70128037D01*
X110462054Y-70115999D01*
X110470500Y-70073541D01*
X110470500Y-70030244D01*
X110471097Y-70018090D01*
X110472201Y-70006881D01*
X110475341Y-69975000D01*
X110471097Y-69931907D01*
X110470500Y-69919754D01*
X110470500Y-69876458D01*
X110466749Y-69857600D01*
X110462052Y-69833990D01*
X110460268Y-69821961D01*
X110460212Y-69821396D01*
X110456024Y-69778868D01*
X110443448Y-69737414D01*
X110440499Y-69725640D01*
X110432051Y-69683165D01*
X110415480Y-69643160D01*
X110411382Y-69631706D01*
X110398814Y-69590273D01*
X110378404Y-69552091D01*
X110373201Y-69541090D01*
X110372791Y-69540100D01*
X110356632Y-69501086D01*
X110337395Y-69472296D01*
X110332572Y-69465078D01*
X110326316Y-69454640D01*
X110311548Y-69427011D01*
X110305910Y-69416462D01*
X110278438Y-69382988D01*
X110271194Y-69373219D01*
X110270353Y-69371961D01*
X110247139Y-69337218D01*
X110247136Y-69337214D01*
X110216520Y-69306599D01*
X110208346Y-69297581D01*
X110202948Y-69291004D01*
X110188968Y-69273968D01*
X110180884Y-69264118D01*
X110147416Y-69236651D01*
X110138401Y-69228479D01*
X110107787Y-69197865D01*
X110107783Y-69197862D01*
X110107780Y-69197860D01*
X110074057Y-69175326D01*
X110071772Y-69173799D01*
X110062002Y-69166552D01*
X110028543Y-69139094D01*
X110028535Y-69139088D01*
X110006291Y-69127199D01*
X109990350Y-69118678D01*
X109979918Y-69112425D01*
X109943918Y-69088370D01*
X109943914Y-69088368D01*
X109903915Y-69071800D01*
X109892913Y-69066597D01*
X109854729Y-69046187D01*
X109854728Y-69046186D01*
X109854727Y-69046186D01*
X109813277Y-69033612D01*
X109801834Y-69029517D01*
X109796240Y-69027200D01*
X109793499Y-69026064D01*
X109761834Y-69012948D01*
X109761827Y-69012946D01*
X109719378Y-69004503D01*
X109707575Y-69001547D01*
X109666134Y-68988976D01*
X109666130Y-68988975D01*
X109623035Y-68984730D01*
X109611006Y-68982945D01*
X109568544Y-68974500D01*
X109568541Y-68974500D01*
X109525244Y-68974500D01*
X109513090Y-68973903D01*
X109470000Y-68969659D01*
X109426910Y-68973903D01*
X109414756Y-68974500D01*
X109371453Y-68974500D01*
X109328991Y-68982945D01*
X109316963Y-68984730D01*
X109273867Y-68988976D01*
X109232427Y-69001546D01*
X109220626Y-69004502D01*
X109178166Y-69012948D01*
X109178161Y-69012949D01*
X109138159Y-69029518D01*
X109126707Y-69033616D01*
X109085272Y-69046186D01*
X109047091Y-69066594D01*
X109036093Y-69071795D01*
X108996091Y-69088364D01*
X108960080Y-69112426D01*
X108949645Y-69118680D01*
X108911465Y-69139087D01*
X108911460Y-69139091D01*
X108877990Y-69166557D01*
X108868225Y-69173799D01*
X108832225Y-69197855D01*
X108832219Y-69197860D01*
X108801595Y-69228483D01*
X108792584Y-69236650D01*
X108759117Y-69264117D01*
X108731650Y-69297584D01*
X108723483Y-69306595D01*
X108692860Y-69337219D01*
X108692855Y-69337225D01*
X108668799Y-69373225D01*
X108661557Y-69382990D01*
X108634091Y-69416460D01*
X108634087Y-69416465D01*
X108613680Y-69454645D01*
X108607426Y-69465079D01*
X108602604Y-69472296D01*
X108548993Y-69517103D01*
X108479668Y-69525812D01*
X108416640Y-69495659D01*
X108379919Y-69436216D01*
X108375500Y-69403408D01*
X108375500Y-65696590D01*
X108395185Y-65629551D01*
X108447989Y-65583796D01*
X108517147Y-65573852D01*
X108580703Y-65602877D01*
X108602602Y-65627700D01*
X108607425Y-65634917D01*
X108607428Y-65634922D01*
X108613678Y-65645350D01*
X108619043Y-65655386D01*
X108634088Y-65683535D01*
X108634094Y-65683543D01*
X108661552Y-65717002D01*
X108668799Y-65726772D01*
X108681740Y-65746139D01*
X108692860Y-65762781D01*
X108692862Y-65762783D01*
X108692865Y-65762787D01*
X108723479Y-65793401D01*
X108731651Y-65802416D01*
X108759117Y-65835883D01*
X108792579Y-65863345D01*
X108792581Y-65863346D01*
X108801599Y-65871520D01*
X108832214Y-65902136D01*
X108832217Y-65902138D01*
X108832218Y-65902139D01*
X108868217Y-65926193D01*
X108868219Y-65926194D01*
X108877988Y-65933438D01*
X108911462Y-65960910D01*
X108949640Y-65981316D01*
X108960078Y-65987572D01*
X108967899Y-65992797D01*
X108996086Y-66011632D01*
X109036095Y-66028203D01*
X109047091Y-66033404D01*
X109085273Y-66053814D01*
X109126710Y-66066383D01*
X109138160Y-66070480D01*
X109178165Y-66087051D01*
X109220640Y-66095499D01*
X109232414Y-66098448D01*
X109273868Y-66111024D01*
X109316964Y-66115268D01*
X109328990Y-66117052D01*
X109359480Y-66123117D01*
X109371458Y-66125500D01*
X109371459Y-66125500D01*
X109414756Y-66125500D01*
X109426909Y-66126096D01*
X109470000Y-66130341D01*
X109513090Y-66126096D01*
X109525244Y-66125500D01*
X109568542Y-66125500D01*
X109584454Y-66122334D01*
X109611005Y-66117053D01*
X109623037Y-66115268D01*
X109666132Y-66111024D01*
X109707580Y-66098450D01*
X109719353Y-66095500D01*
X109761835Y-66087051D01*
X109801847Y-66070476D01*
X109813280Y-66066386D01*
X109854727Y-66053814D01*
X109892918Y-66033399D01*
X109903910Y-66028201D01*
X109943914Y-66011632D01*
X109979938Y-65987560D01*
X109990351Y-65981320D01*
X110016591Y-65967295D01*
X110028535Y-65960912D01*
X110028539Y-65960909D01*
X110062005Y-65933444D01*
X110071782Y-65926193D01*
X110107781Y-65902140D01*
X110107783Y-65902138D01*
X110110020Y-65899901D01*
X110138408Y-65871512D01*
X110147402Y-65863359D01*
X110180883Y-65835883D01*
X110208359Y-65802402D01*
X110216512Y-65793408D01*
X110247139Y-65762782D01*
X110271200Y-65726772D01*
X110278444Y-65717005D01*
X110305909Y-65683539D01*
X110305912Y-65683535D01*
X110318840Y-65659346D01*
X110326320Y-65645351D01*
X110332560Y-65634938D01*
X110356632Y-65598914D01*
X110373202Y-65558906D01*
X110378399Y-65547918D01*
X110398814Y-65509727D01*
X110411386Y-65468280D01*
X110415476Y-65456847D01*
X110432051Y-65416835D01*
X110440500Y-65374353D01*
X110443450Y-65362580D01*
X110456024Y-65321132D01*
X110460268Y-65278037D01*
X110462054Y-65265999D01*
X110462824Y-65262131D01*
X110470500Y-65223541D01*
X110470500Y-65180244D01*
X110471097Y-65168090D01*
X110471647Y-65162505D01*
X110475341Y-65125000D01*
X110471097Y-65081907D01*
X110470500Y-65069754D01*
X110470500Y-65026458D01*
X110463831Y-64992934D01*
X110462052Y-64983990D01*
X110460268Y-64971961D01*
X110459898Y-64968209D01*
X110456024Y-64928868D01*
X110443448Y-64887414D01*
X110440499Y-64875640D01*
X110432051Y-64833165D01*
X110428668Y-64824999D01*
X111344571Y-64824999D01*
X111344571Y-64825000D01*
X111348971Y-64872484D01*
X111349500Y-64883925D01*
X111349500Y-64915546D01*
X111353532Y-64941000D01*
X111357213Y-64964244D01*
X111358210Y-64972198D01*
X111364244Y-65037309D01*
X111372448Y-65066148D01*
X111375652Y-65080672D01*
X111377827Y-65094401D01*
X111377831Y-65094418D01*
X111398530Y-65158124D01*
X111399865Y-65162505D01*
X111422595Y-65242389D01*
X111422597Y-65242394D01*
X111422600Y-65242401D01*
X111428046Y-65253340D01*
X111431684Y-65262228D01*
X111431921Y-65262131D01*
X111433787Y-65266635D01*
X111472238Y-65342100D01*
X111472753Y-65343123D01*
X111517628Y-65433245D01*
X111517635Y-65433257D01*
X111574775Y-65508921D01*
X111576127Y-65510747D01*
X111581216Y-65517751D01*
X111622443Y-65574497D01*
X111623923Y-65575977D01*
X111635195Y-65588930D01*
X111645727Y-65602877D01*
X111646128Y-65603407D01*
X111703146Y-65655386D01*
X111707289Y-65659343D01*
X111750495Y-65702550D01*
X111750498Y-65702553D01*
X111766537Y-65714206D01*
X111777187Y-65722885D01*
X111803695Y-65747050D01*
X111803697Y-65747051D01*
X111803698Y-65747052D01*
X111829103Y-65762782D01*
X111854261Y-65778359D01*
X111861867Y-65783466D01*
X111897006Y-65808996D01*
X111930434Y-65826028D01*
X111939416Y-65831086D01*
X111962795Y-65845561D01*
X111984981Y-65859298D01*
X112023940Y-65874390D01*
X112035436Y-65879530D01*
X112058355Y-65891208D01*
X112058361Y-65891211D01*
X112110871Y-65908272D01*
X112117337Y-65910573D01*
X112183799Y-65936320D01*
X112183802Y-65936321D01*
X112207457Y-65940742D01*
X112222984Y-65944699D01*
X112230591Y-65947171D01*
X112230601Y-65947172D01*
X112230603Y-65947173D01*
X112302601Y-65958576D01*
X112305966Y-65959156D01*
X112393388Y-65975499D01*
X112393389Y-65975500D01*
X112393390Y-65975500D01*
X112606610Y-65975500D01*
X112694057Y-65959152D01*
X112697372Y-65958579D01*
X112769409Y-65947171D01*
X112777013Y-65944699D01*
X112792544Y-65940742D01*
X112816198Y-65936321D01*
X112882684Y-65910563D01*
X112889106Y-65908279D01*
X112941639Y-65891211D01*
X112964564Y-65879529D01*
X112976060Y-65874390D01*
X112981610Y-65872239D01*
X113015019Y-65859298D01*
X113060589Y-65831080D01*
X113069544Y-65826038D01*
X113102994Y-65808996D01*
X113138133Y-65783464D01*
X113145708Y-65778377D01*
X113196302Y-65747052D01*
X113222811Y-65722885D01*
X113233467Y-65714202D01*
X113249501Y-65702553D01*
X113292729Y-65659323D01*
X113296853Y-65655386D01*
X113353872Y-65603407D01*
X113364802Y-65588933D01*
X113376080Y-65575973D01*
X113377553Y-65574501D01*
X113423947Y-65510642D01*
X113425184Y-65508973D01*
X113482366Y-65433255D01*
X113527302Y-65343009D01*
X113527697Y-65342224D01*
X113566211Y-65266639D01*
X113566213Y-65266630D01*
X113568072Y-65262144D01*
X113568315Y-65262244D01*
X113571958Y-65253326D01*
X113577405Y-65242389D01*
X113600153Y-65162435D01*
X113601452Y-65158172D01*
X113622171Y-65094409D01*
X113624345Y-65080681D01*
X113627553Y-65066137D01*
X113635756Y-65037310D01*
X113641788Y-64972196D01*
X113642782Y-64964264D01*
X113650500Y-64915546D01*
X113650500Y-64883925D01*
X113651029Y-64872484D01*
X113655429Y-64825000D01*
X113655429Y-64824999D01*
X113651029Y-64777514D01*
X113650500Y-64766073D01*
X113650500Y-64734456D01*
X113643631Y-64691090D01*
X113642783Y-64685738D01*
X113641787Y-64677790D01*
X113639280Y-64650733D01*
X113635756Y-64612690D01*
X113627550Y-64583850D01*
X113624345Y-64569318D01*
X113622172Y-64555595D01*
X113622171Y-64555590D01*
X113601466Y-64491867D01*
X113600131Y-64487484D01*
X113588778Y-64447584D01*
X113577405Y-64407611D01*
X113571956Y-64396668D01*
X113568313Y-64387758D01*
X113568073Y-64387858D01*
X113566213Y-64383367D01*
X113566211Y-64383361D01*
X113527658Y-64307697D01*
X113527310Y-64307006D01*
X113482366Y-64216745D01*
X113482365Y-64216744D01*
X113482365Y-64216743D01*
X113440652Y-64161508D01*
X113425236Y-64141094D01*
X113423891Y-64139278D01*
X113377556Y-64075502D01*
X113376075Y-64074021D01*
X113364802Y-64061066D01*
X113353874Y-64046595D01*
X113345290Y-64038770D01*
X113296851Y-63994611D01*
X113292709Y-63990655D01*
X113249505Y-63947450D01*
X113249498Y-63947445D01*
X113249492Y-63947441D01*
X113233462Y-63935793D01*
X113222823Y-63927125D01*
X113196302Y-63902948D01*
X113196303Y-63902948D01*
X113196298Y-63902944D01*
X113196296Y-63902943D01*
X113145724Y-63871630D01*
X113138125Y-63866528D01*
X113102994Y-63841004D01*
X113069555Y-63823965D01*
X113060577Y-63818910D01*
X113015022Y-63790703D01*
X113015016Y-63790700D01*
X112976057Y-63775608D01*
X112964558Y-63770467D01*
X112941639Y-63758789D01*
X112941636Y-63758788D01*
X112941634Y-63758787D01*
X112889119Y-63741723D01*
X112882646Y-63739420D01*
X112816203Y-63713680D01*
X112816194Y-63713678D01*
X112792546Y-63709257D01*
X112777025Y-63705303D01*
X112769416Y-63702831D01*
X112769413Y-63702830D01*
X112769409Y-63702829D01*
X112754590Y-63700482D01*
X112697447Y-63691431D01*
X112694062Y-63690847D01*
X112609616Y-63675062D01*
X112606610Y-63674500D01*
X112393390Y-63674500D01*
X112305935Y-63690847D01*
X112302551Y-63691431D01*
X112230590Y-63702829D01*
X112230587Y-63702829D01*
X112222975Y-63705303D01*
X112207449Y-63709258D01*
X112183806Y-63713677D01*
X112183795Y-63713680D01*
X112117358Y-63739418D01*
X112110887Y-63741721D01*
X112058365Y-63758787D01*
X112058356Y-63758791D01*
X112035436Y-63770469D01*
X112023942Y-63775607D01*
X111984984Y-63790700D01*
X111984982Y-63790701D01*
X111939415Y-63818914D01*
X111930439Y-63823968D01*
X111897007Y-63841003D01*
X111897004Y-63841005D01*
X111861874Y-63866528D01*
X111854270Y-63871634D01*
X111803697Y-63902948D01*
X111777186Y-63927115D01*
X111766542Y-63935789D01*
X111750506Y-63947441D01*
X111750495Y-63947450D01*
X111707276Y-63990668D01*
X111703137Y-63994621D01*
X111646126Y-64046594D01*
X111635188Y-64061077D01*
X111623939Y-64074005D01*
X111622450Y-64075494D01*
X111622449Y-64075494D01*
X111576119Y-64139262D01*
X111574757Y-64141101D01*
X111517634Y-64216743D01*
X111517630Y-64216750D01*
X111472753Y-64306876D01*
X111472238Y-64307898D01*
X111433790Y-64383358D01*
X111431925Y-64387860D01*
X111431688Y-64387762D01*
X111428050Y-64396652D01*
X111422599Y-64407600D01*
X111422595Y-64407610D01*
X111399868Y-64487484D01*
X111398534Y-64491863D01*
X111377829Y-64555589D01*
X111375653Y-64569327D01*
X111372448Y-64583853D01*
X111364244Y-64612691D01*
X111358210Y-64677800D01*
X111357212Y-64685754D01*
X111349500Y-64734447D01*
X111349500Y-64766073D01*
X111348971Y-64777514D01*
X111344571Y-64824999D01*
X110428668Y-64824999D01*
X110415480Y-64793160D01*
X110411382Y-64781706D01*
X110398814Y-64740273D01*
X110378404Y-64702091D01*
X110373201Y-64691090D01*
X110369349Y-64681790D01*
X110356632Y-64651086D01*
X110337395Y-64622296D01*
X110332572Y-64615078D01*
X110326316Y-64604640D01*
X110307441Y-64569327D01*
X110305910Y-64566462D01*
X110278438Y-64532988D01*
X110271194Y-64523219D01*
X110265611Y-64514864D01*
X110258739Y-64504579D01*
X110247140Y-64487219D01*
X110247136Y-64487214D01*
X110216520Y-64456599D01*
X110208346Y-64447581D01*
X110180884Y-64414118D01*
X110173301Y-64407895D01*
X110147415Y-64386650D01*
X110138401Y-64378479D01*
X110107787Y-64347865D01*
X110107783Y-64347862D01*
X110107780Y-64347860D01*
X110086643Y-64333736D01*
X110071772Y-64323799D01*
X110062002Y-64316552D01*
X110028543Y-64289094D01*
X110028535Y-64289088D01*
X110011436Y-64279948D01*
X109990350Y-64268678D01*
X109979918Y-64262425D01*
X109943918Y-64238370D01*
X109943914Y-64238368D01*
X109903915Y-64221800D01*
X109892913Y-64216597D01*
X109854729Y-64196187D01*
X109854728Y-64196186D01*
X109854727Y-64196186D01*
X109813277Y-64183612D01*
X109801834Y-64179517D01*
X109761834Y-64162948D01*
X109761827Y-64162946D01*
X109719378Y-64154503D01*
X109707575Y-64151547D01*
X109666134Y-64138976D01*
X109666130Y-64138975D01*
X109623035Y-64134730D01*
X109611006Y-64132945D01*
X109568544Y-64124500D01*
X109568541Y-64124500D01*
X109525244Y-64124500D01*
X109513090Y-64123903D01*
X109470000Y-64119659D01*
X109426910Y-64123903D01*
X109414756Y-64124500D01*
X109371453Y-64124500D01*
X109328991Y-64132945D01*
X109316963Y-64134730D01*
X109273867Y-64138976D01*
X109232427Y-64151546D01*
X109220626Y-64154502D01*
X109178166Y-64162948D01*
X109178161Y-64162949D01*
X109138159Y-64179518D01*
X109126707Y-64183616D01*
X109085272Y-64196186D01*
X109047091Y-64216594D01*
X109036093Y-64221795D01*
X108996091Y-64238364D01*
X108960080Y-64262426D01*
X108949645Y-64268680D01*
X108911465Y-64289087D01*
X108911460Y-64289091D01*
X108877990Y-64316557D01*
X108868225Y-64323799D01*
X108832225Y-64347855D01*
X108832219Y-64347860D01*
X108801595Y-64378483D01*
X108792584Y-64386650D01*
X108759117Y-64414117D01*
X108731650Y-64447584D01*
X108723483Y-64456595D01*
X108692860Y-64487219D01*
X108692855Y-64487225D01*
X108668799Y-64523225D01*
X108661557Y-64532990D01*
X108634091Y-64566460D01*
X108634087Y-64566465D01*
X108613680Y-64604645D01*
X108607426Y-64615079D01*
X108602604Y-64622296D01*
X108548993Y-64667103D01*
X108479668Y-64675812D01*
X108416640Y-64645659D01*
X108379919Y-64586216D01*
X108375500Y-64553408D01*
X108375500Y-64026899D01*
X108395185Y-63959860D01*
X108411819Y-63939218D01*
X108761601Y-63589436D01*
X109120474Y-63230563D01*
X109120475Y-63230562D01*
X109169910Y-63144938D01*
X109183313Y-63094916D01*
X109195500Y-63049436D01*
X109195500Y-62950564D01*
X109195500Y-59614546D01*
X109215185Y-59547507D01*
X109267989Y-59501752D01*
X109337147Y-59491808D01*
X109400703Y-59520833D01*
X109403039Y-59522910D01*
X109423957Y-59541980D01*
X109423960Y-59541982D01*
X109473570Y-59572699D01*
X109597363Y-59649348D01*
X109787544Y-59723024D01*
X109988024Y-59760500D01*
X109988026Y-59760500D01*
X110191974Y-59760500D01*
X110191976Y-59760500D01*
X110392456Y-59723024D01*
X110582637Y-59649348D01*
X110756041Y-59541981D01*
X110777062Y-59522817D01*
X110839865Y-59492201D01*
X110909252Y-59500398D01*
X110963193Y-59544808D01*
X110984561Y-59611330D01*
X110984600Y-59614455D01*
X110984600Y-61680148D01*
X110964915Y-61747187D01*
X110912111Y-61792942D01*
X110892697Y-61799922D01*
X110888839Y-61800955D01*
X110742760Y-61861463D01*
X110617318Y-61957718D01*
X110521063Y-62083160D01*
X110460556Y-62229237D01*
X110460555Y-62229239D01*
X110439918Y-62385998D01*
X110439918Y-62386001D01*
X110460555Y-62542760D01*
X110460556Y-62542762D01*
X110508910Y-62659500D01*
X110521064Y-62688841D01*
X110617318Y-62814282D01*
X110742759Y-62910536D01*
X110888838Y-62971044D01*
X110967219Y-62981363D01*
X111045599Y-62991682D01*
X111045600Y-62991682D01*
X111045601Y-62991682D01*
X111111562Y-62982998D01*
X111202362Y-62971044D01*
X111348441Y-62910536D01*
X111473882Y-62814282D01*
X111570136Y-62688841D01*
X111630644Y-62542762D01*
X111651282Y-62386000D01*
X111649503Y-62372486D01*
X111660269Y-62303451D01*
X111665056Y-62294300D01*
X111710007Y-62216443D01*
X111710008Y-62216442D01*
X111710008Y-62216440D01*
X111710010Y-62216438D01*
X111732426Y-62132780D01*
X111735600Y-62120936D01*
X111735600Y-62022064D01*
X111735600Y-59614637D01*
X111755285Y-59547598D01*
X111808089Y-59501843D01*
X111877247Y-59491899D01*
X111940803Y-59520924D01*
X111943139Y-59523001D01*
X111963958Y-59541980D01*
X111963960Y-59541982D01*
X112013570Y-59572699D01*
X112137363Y-59649348D01*
X112327544Y-59723024D01*
X112528024Y-59760500D01*
X112528026Y-59760500D01*
X112731974Y-59760500D01*
X112731976Y-59760500D01*
X112932456Y-59723024D01*
X113122637Y-59649348D01*
X113296041Y-59541981D01*
X113446764Y-59404579D01*
X113569673Y-59241821D01*
X113660582Y-59059250D01*
X113716397Y-58863083D01*
X113735215Y-58660000D01*
X113716397Y-58456917D01*
X113660582Y-58260750D01*
X113656174Y-58251898D01*
X113605435Y-58150000D01*
X113569673Y-58078179D01*
X113453414Y-57924227D01*
X113446762Y-57915418D01*
X113296041Y-57778019D01*
X113296039Y-57778017D01*
X113122642Y-57670655D01*
X113122639Y-57670653D01*
X113122637Y-57670652D01*
X113122636Y-57670651D01*
X113122635Y-57670651D01*
X112980600Y-57615627D01*
X112932456Y-57596976D01*
X112731976Y-57559500D01*
X112528024Y-57559500D01*
X112327544Y-57596976D01*
X112327541Y-57596976D01*
X112327541Y-57596977D01*
X112137364Y-57670651D01*
X112137357Y-57670655D01*
X111963960Y-57778017D01*
X111963958Y-57778019D01*
X111943137Y-57797000D01*
X111880333Y-57827616D01*
X111810946Y-57819418D01*
X111757006Y-57775008D01*
X111735639Y-57708485D01*
X111735600Y-57705362D01*
X111735600Y-57004599D01*
X111755285Y-56937560D01*
X111771919Y-56916918D01*
X112788344Y-55900493D01*
X113809475Y-54879362D01*
X113858911Y-54793737D01*
X113884500Y-54698236D01*
X113884500Y-54599364D01*
X113884500Y-52628065D01*
X113875202Y-52593363D01*
X113858911Y-52532563D01*
X113809475Y-52446937D01*
X112520463Y-51157926D01*
X112520462Y-51157925D01*
X112434838Y-51108490D01*
X112387086Y-51095695D01*
X112387084Y-51095694D01*
X112387082Y-51095693D01*
X112339336Y-51082900D01*
X112339335Y-51082900D01*
X109852899Y-51082900D01*
X109785860Y-51063215D01*
X109765218Y-51046581D01*
X109406363Y-50687726D01*
X109406362Y-50687725D01*
X109320738Y-50638290D01*
X109272986Y-50625495D01*
X109272984Y-50625494D01*
X109272982Y-50625493D01*
X109225236Y-50612700D01*
X109225235Y-50612700D01*
X103612436Y-50612700D01*
X103513564Y-50612700D01*
X103418061Y-50638289D01*
X103332438Y-50687725D01*
X103332435Y-50687727D01*
X102575238Y-51444925D01*
X102575237Y-51444926D01*
X102538356Y-51481806D01*
X102477032Y-51515291D01*
X102407341Y-51510305D01*
X102367138Y-51485761D01*
X102216041Y-51348019D01*
X102216039Y-51348017D01*
X102042642Y-51240655D01*
X102042635Y-51240651D01*
X101947546Y-51203814D01*
X101852456Y-51166976D01*
X101651976Y-51129500D01*
X101448024Y-51129500D01*
X101247544Y-51166976D01*
X101247541Y-51166976D01*
X101247541Y-51166977D01*
X101057364Y-51240651D01*
X101057357Y-51240655D01*
X100883960Y-51348017D01*
X100883958Y-51348019D01*
X100733237Y-51485418D01*
X100610329Y-51648176D01*
X100610327Y-51648179D01*
X100541813Y-51785773D01*
X100494313Y-51837008D01*
X100430815Y-51854500D01*
X100293121Y-51854500D01*
X100226082Y-51834815D01*
X100180739Y-51782905D01*
X100096666Y-51602612D01*
X100096664Y-51602608D01*
X99971216Y-51423450D01*
X99971211Y-51423444D01*
X99816554Y-51268787D01*
X99637387Y-51143333D01*
X99439159Y-51050898D01*
X99439150Y-51050894D01*
X99227889Y-50994288D01*
X99210000Y-50992722D01*
X99210000Y-51768120D01*
X99202993Y-51764075D01*
X99075826Y-51730000D01*
X98944174Y-51730000D01*
X98817007Y-51764075D01*
X98810000Y-51768120D01*
X98810000Y-50992722D01*
X98792110Y-50994288D01*
X98580849Y-51050894D01*
X98580840Y-51050898D01*
X98382612Y-51143333D01*
X98382608Y-51143335D01*
X98203450Y-51268783D01*
X98203444Y-51268788D01*
X98048788Y-51423444D01*
X98048783Y-51423450D01*
X97923335Y-51602608D01*
X97923333Y-51602612D01*
X97830898Y-51800840D01*
X97830895Y-51800846D01*
X97782756Y-51980506D01*
X97746391Y-52040166D01*
X97683544Y-52070695D01*
X97614168Y-52062400D01*
X97560290Y-52017915D01*
X97543715Y-51982347D01*
X97500582Y-51830750D01*
X97500159Y-51829901D01*
X97429980Y-51688962D01*
X97409673Y-51648179D01*
X97325849Y-51537178D01*
X97286762Y-51485418D01*
X97136041Y-51348019D01*
X97136039Y-51348017D01*
X96962642Y-51240655D01*
X96962635Y-51240651D01*
X96867546Y-51203814D01*
X96772456Y-51166976D01*
X96571976Y-51129500D01*
X96368024Y-51129500D01*
X96167544Y-51166976D01*
X96167541Y-51166976D01*
X96167541Y-51166977D01*
X95977364Y-51240651D01*
X95977357Y-51240655D01*
X95803960Y-51348017D01*
X95803958Y-51348019D01*
X95653237Y-51485418D01*
X95530327Y-51648178D01*
X95439422Y-51830739D01*
X95439417Y-51830752D01*
X95396284Y-51982347D01*
X95359004Y-52041440D01*
X95295694Y-52070997D01*
X95226455Y-52061635D01*
X95173269Y-52016325D01*
X95157243Y-51980505D01*
X95109105Y-51800849D01*
X95109101Y-51800840D01*
X95016666Y-51602612D01*
X95016664Y-51602608D01*
X94891216Y-51423450D01*
X94891211Y-51423444D01*
X94736554Y-51268787D01*
X94557387Y-51143333D01*
X94359159Y-51050898D01*
X94359150Y-51050894D01*
X94147889Y-50994288D01*
X94130000Y-50992722D01*
X94130000Y-51768120D01*
X94122993Y-51764075D01*
X93995826Y-51730000D01*
X93864174Y-51730000D01*
X93737007Y-51764075D01*
X93730000Y-51768120D01*
X93730000Y-50992722D01*
X93712110Y-50994288D01*
X93500849Y-51050894D01*
X93500840Y-51050898D01*
X93302612Y-51143333D01*
X93302608Y-51143335D01*
X93123450Y-51268783D01*
X93123444Y-51268788D01*
X92968788Y-51423444D01*
X92968783Y-51423450D01*
X92843335Y-51602608D01*
X92843333Y-51602612D01*
X92750898Y-51800840D01*
X92750895Y-51800846D01*
X92702756Y-51980506D01*
X92666391Y-52040166D01*
X92603544Y-52070695D01*
X92534168Y-52062400D01*
X92480290Y-52017915D01*
X92463715Y-51982347D01*
X92420582Y-51830750D01*
X92420159Y-51829901D01*
X92349980Y-51688962D01*
X92329673Y-51648179D01*
X92245849Y-51537178D01*
X92206762Y-51485418D01*
X92056041Y-51348019D01*
X92056039Y-51348017D01*
X91882642Y-51240655D01*
X91882635Y-51240651D01*
X91787546Y-51203814D01*
X91692456Y-51166976D01*
X91491976Y-51129500D01*
X91288024Y-51129500D01*
X91087544Y-51166976D01*
X91087541Y-51166976D01*
X91087541Y-51166977D01*
X90897364Y-51240651D01*
X90897357Y-51240655D01*
X90723960Y-51348017D01*
X90723958Y-51348019D01*
X90573237Y-51485418D01*
X90450327Y-51648178D01*
X90359422Y-51830739D01*
X90359417Y-51830752D01*
X90303602Y-52026917D01*
X90284785Y-52229999D01*
X90284785Y-52230000D01*
X90303602Y-52433082D01*
X90359417Y-52629247D01*
X90359422Y-52629260D01*
X90450327Y-52811821D01*
X90573237Y-52974581D01*
X90723958Y-53111980D01*
X90723960Y-53111982D01*
X90795417Y-53156226D01*
X90897363Y-53219348D01*
X91087544Y-53293024D01*
X91288024Y-53330500D01*
X91288026Y-53330500D01*
X91491974Y-53330500D01*
X91491976Y-53330500D01*
X91692456Y-53293024D01*
X91882637Y-53219348D01*
X92056041Y-53111981D01*
X92204112Y-52976997D01*
X92206762Y-52974581D01*
X92206764Y-52974579D01*
X92329673Y-52811821D01*
X92420582Y-52629250D01*
X92463716Y-52477651D01*
X92500994Y-52418559D01*
X92564304Y-52389002D01*
X92633543Y-52398364D01*
X92686730Y-52443674D01*
X92702756Y-52479494D01*
X92750894Y-52659150D01*
X92750898Y-52659159D01*
X92843333Y-52857387D01*
X92968787Y-53036554D01*
X93123445Y-53191212D01*
X93302612Y-53316666D01*
X93500840Y-53409101D01*
X93500849Y-53409105D01*
X93680305Y-53457189D01*
X93739965Y-53493553D01*
X93770495Y-53556400D01*
X93762201Y-53625776D01*
X93717716Y-53679654D01*
X93670999Y-53698852D01*
X93627544Y-53706975D01*
X93437364Y-53780651D01*
X93437357Y-53780655D01*
X93263960Y-53888017D01*
X93263958Y-53888019D01*
X93113237Y-54025418D01*
X92990327Y-54188178D01*
X92899422Y-54370739D01*
X92899417Y-54370752D01*
X92843602Y-54566917D01*
X92824785Y-54769999D01*
X92824785Y-54770000D01*
X92843602Y-54973082D01*
X92899417Y-55169247D01*
X92899422Y-55169260D01*
X92990327Y-55351821D01*
X93113238Y-55514582D01*
X93113314Y-55514665D01*
X93113337Y-55514713D01*
X93116691Y-55519154D01*
X93115822Y-55519810D01*
X93143929Y-55577470D01*
X93135729Y-55646857D01*
X93091317Y-55700796D01*
X93024794Y-55722161D01*
X93021674Y-55722200D01*
X92298326Y-55722200D01*
X92231287Y-55702515D01*
X92185532Y-55649711D01*
X92175588Y-55580553D01*
X92203546Y-55519333D01*
X92203309Y-55519154D01*
X92204115Y-55518085D01*
X92204613Y-55516997D01*
X92206686Y-55514665D01*
X92206761Y-55514582D01*
X92206761Y-55514581D01*
X92206764Y-55514579D01*
X92329673Y-55351821D01*
X92420582Y-55169250D01*
X92476397Y-54973083D01*
X92495215Y-54770000D01*
X92492422Y-54739863D01*
X92476397Y-54566917D01*
X92466418Y-54531844D01*
X92420582Y-54370750D01*
X92420159Y-54369901D01*
X92329673Y-54188180D01*
X92329673Y-54188179D01*
X92243621Y-54074227D01*
X92206762Y-54025418D01*
X92056041Y-53888019D01*
X92056039Y-53888017D01*
X91882642Y-53780655D01*
X91882639Y-53780653D01*
X91882637Y-53780652D01*
X91882636Y-53780651D01*
X91882635Y-53780651D01*
X91753339Y-53730562D01*
X91692456Y-53706976D01*
X91491976Y-53669500D01*
X91288024Y-53669500D01*
X91087544Y-53706976D01*
X91087541Y-53706976D01*
X91087541Y-53706977D01*
X90897364Y-53780651D01*
X90897357Y-53780655D01*
X90723962Y-53888016D01*
X90595626Y-54005009D01*
X90532821Y-54035625D01*
X90463434Y-54027427D01*
X90413712Y-53988857D01*
X90410473Y-53984636D01*
X89619615Y-53193778D01*
X89622052Y-53191340D01*
X89590219Y-53147778D01*
X89586039Y-53078034D01*
X89620229Y-53017101D01*
X89623338Y-53014166D01*
X89666764Y-52974579D01*
X89789673Y-52811821D01*
X89880582Y-52629250D01*
X89936397Y-52433083D01*
X89955215Y-52230000D01*
X89950634Y-52180567D01*
X89936397Y-52026917D01*
X89928578Y-51999436D01*
X89880582Y-51830750D01*
X89880159Y-51829901D01*
X89809980Y-51688962D01*
X89789673Y-51648179D01*
X89705849Y-51537178D01*
X89666762Y-51485418D01*
X89516041Y-51348019D01*
X89516039Y-51348017D01*
X89342642Y-51240655D01*
X89342635Y-51240651D01*
X89247546Y-51203814D01*
X89152456Y-51166976D01*
X88951976Y-51129500D01*
X88748024Y-51129500D01*
X88547544Y-51166976D01*
X88547541Y-51166976D01*
X88547541Y-51166977D01*
X88357364Y-51240651D01*
X88357357Y-51240655D01*
X88183960Y-51348017D01*
X88183958Y-51348019D01*
X88033237Y-51485418D01*
X87910327Y-51648178D01*
X87826704Y-51816116D01*
X87779201Y-51867353D01*
X87711538Y-51884774D01*
X87683610Y-51880619D01*
X87681639Y-51880091D01*
X87681638Y-51880090D01*
X87586135Y-51854500D01*
X87586133Y-51854500D01*
X87429185Y-51854500D01*
X87362146Y-51834815D01*
X87318186Y-51785774D01*
X87249673Y-51648179D01*
X87145556Y-51510305D01*
X87126762Y-51485418D01*
X86976041Y-51348019D01*
X86976039Y-51348017D01*
X86802642Y-51240655D01*
X86802635Y-51240651D01*
X86707546Y-51203814D01*
X86612456Y-51166976D01*
X86411976Y-51129500D01*
X86208024Y-51129500D01*
X86007544Y-51166976D01*
X86007541Y-51166976D01*
X86007541Y-51166977D01*
X85817364Y-51240651D01*
X85817357Y-51240655D01*
X85643960Y-51348017D01*
X85643958Y-51348019D01*
X85493237Y-51485418D01*
X85370327Y-51648178D01*
X85279422Y-51830739D01*
X85279417Y-51830752D01*
X85223602Y-52026917D01*
X85204785Y-52229999D01*
X85204785Y-52230000D01*
X85223602Y-52433082D01*
X85279417Y-52629247D01*
X85279422Y-52629260D01*
X85370327Y-52811821D01*
X85493237Y-52974581D01*
X85643958Y-53111980D01*
X85643960Y-53111982D01*
X85715417Y-53156226D01*
X85817363Y-53219348D01*
X86007544Y-53293024D01*
X86208024Y-53330500D01*
X86208026Y-53330500D01*
X86411974Y-53330500D01*
X86411976Y-53330500D01*
X86612456Y-53293024D01*
X86802637Y-53219348D01*
X86976041Y-53111981D01*
X87099520Y-52999414D01*
X87162320Y-52968800D01*
X87231707Y-52976997D01*
X87270736Y-53003373D01*
X87972117Y-53704754D01*
X88005602Y-53766077D01*
X88000618Y-53835769D01*
X87972117Y-53880116D01*
X87888788Y-53963444D01*
X87888783Y-53963450D01*
X87763335Y-54142608D01*
X87763333Y-54142612D01*
X87670898Y-54340840D01*
X87670895Y-54340846D01*
X87622756Y-54520506D01*
X87586391Y-54580166D01*
X87523544Y-54610695D01*
X87454168Y-54602400D01*
X87400290Y-54557915D01*
X87383715Y-54522347D01*
X87340582Y-54370750D01*
X87340159Y-54369901D01*
X87249673Y-54188180D01*
X87249673Y-54188179D01*
X87163621Y-54074227D01*
X87126762Y-54025418D01*
X86976041Y-53888019D01*
X86976039Y-53888017D01*
X86802642Y-53780655D01*
X86802639Y-53780653D01*
X86802637Y-53780652D01*
X86802636Y-53780651D01*
X86802635Y-53780651D01*
X86673339Y-53730562D01*
X86612456Y-53706976D01*
X86411976Y-53669500D01*
X86208024Y-53669500D01*
X86007544Y-53706976D01*
X86007541Y-53706976D01*
X86007541Y-53706977D01*
X85817364Y-53780651D01*
X85817357Y-53780655D01*
X85643962Y-53888016D01*
X85495215Y-54023616D01*
X85432410Y-54054232D01*
X85363023Y-54046034D01*
X85323996Y-54019659D01*
X84517552Y-53213215D01*
X84484067Y-53151892D01*
X84489051Y-53082200D01*
X84521692Y-53033899D01*
X84586764Y-52974579D01*
X84709673Y-52811821D01*
X84800582Y-52629250D01*
X84856397Y-52433083D01*
X84875215Y-52230000D01*
X84870634Y-52180567D01*
X84856397Y-52026917D01*
X84848578Y-51999436D01*
X84800582Y-51830750D01*
X84800159Y-51829901D01*
X84729980Y-51688962D01*
X84709673Y-51648179D01*
X84625849Y-51537178D01*
X84586762Y-51485418D01*
X84436041Y-51348019D01*
X84436039Y-51348017D01*
X84262642Y-51240655D01*
X84262635Y-51240651D01*
X84167546Y-51203814D01*
X84072456Y-51166976D01*
X83871976Y-51129500D01*
X83668024Y-51129500D01*
X83467544Y-51166976D01*
X83467541Y-51166976D01*
X83467541Y-51166977D01*
X83277364Y-51240651D01*
X83277357Y-51240655D01*
X83103960Y-51348017D01*
X83103958Y-51348019D01*
X82953237Y-51485418D01*
X82830327Y-51648178D01*
X82739422Y-51830739D01*
X82739417Y-51830752D01*
X82696284Y-51982347D01*
X82659004Y-52041440D01*
X82595694Y-52070997D01*
X82526455Y-52061635D01*
X82473269Y-52016325D01*
X82457243Y-51980505D01*
X82409105Y-51800849D01*
X82409101Y-51800840D01*
X82316666Y-51602612D01*
X82316664Y-51602608D01*
X82191216Y-51423450D01*
X82191211Y-51423444D01*
X82036554Y-51268787D01*
X81857387Y-51143333D01*
X81659159Y-51050898D01*
X81659150Y-51050894D01*
X81447889Y-50994288D01*
X81430000Y-50992722D01*
X81430000Y-51768120D01*
X81422993Y-51764075D01*
X81295826Y-51730000D01*
X81164174Y-51730000D01*
X81037007Y-51764075D01*
X81030000Y-51768120D01*
X81030000Y-50992722D01*
X81012110Y-50994288D01*
X80800849Y-51050894D01*
X80800840Y-51050898D01*
X80602612Y-51143333D01*
X80602608Y-51143335D01*
X80423450Y-51268783D01*
X80423444Y-51268788D01*
X80268788Y-51423444D01*
X80268783Y-51423450D01*
X80143335Y-51602608D01*
X80143333Y-51602612D01*
X80050898Y-51800840D01*
X80050895Y-51800846D01*
X80002756Y-51980506D01*
X79966391Y-52040166D01*
X79903544Y-52070695D01*
X79834168Y-52062400D01*
X79780290Y-52017915D01*
X79763715Y-51982347D01*
X79720582Y-51830750D01*
X79720159Y-51829901D01*
X79649980Y-51688962D01*
X79629673Y-51648179D01*
X79545849Y-51537178D01*
X79506762Y-51485418D01*
X79356041Y-51348019D01*
X79356039Y-51348017D01*
X79182642Y-51240655D01*
X79182635Y-51240651D01*
X79087546Y-51203814D01*
X78992456Y-51166976D01*
X78791976Y-51129500D01*
X78588024Y-51129500D01*
X78387544Y-51166976D01*
X78387541Y-51166976D01*
X78387541Y-51166977D01*
X78197364Y-51240651D01*
X78197357Y-51240655D01*
X78023960Y-51348017D01*
X78023958Y-51348019D01*
X77873237Y-51485418D01*
X77750327Y-51648178D01*
X77659422Y-51830739D01*
X77659417Y-51830752D01*
X77603602Y-52026917D01*
X77584785Y-52229999D01*
X77584785Y-52230000D01*
X77603602Y-52433082D01*
X77659417Y-52629247D01*
X77659422Y-52629260D01*
X77694202Y-52699107D01*
X77750327Y-52811821D01*
X77873234Y-52974577D01*
X77873237Y-52974580D01*
X77938252Y-53033849D01*
X77974534Y-53093560D01*
X77972773Y-53163407D01*
X77942395Y-53213167D01*
X77232738Y-53922825D01*
X77162825Y-53992737D01*
X77159900Y-53997804D01*
X77109332Y-54046018D01*
X77040724Y-54059239D01*
X76975860Y-54033269D01*
X76968977Y-54027438D01*
X76816041Y-53888019D01*
X76816039Y-53888017D01*
X76642642Y-53780655D01*
X76642639Y-53780653D01*
X76642637Y-53780652D01*
X76642636Y-53780651D01*
X76642635Y-53780651D01*
X76513339Y-53730562D01*
X76452456Y-53706976D01*
X76251976Y-53669500D01*
X76048024Y-53669500D01*
X75847544Y-53706976D01*
X75847541Y-53706976D01*
X75847541Y-53706977D01*
X75657364Y-53780651D01*
X75657357Y-53780655D01*
X75483960Y-53888017D01*
X75483958Y-53888019D01*
X75333237Y-54025418D01*
X75210327Y-54188178D01*
X75119422Y-54370739D01*
X75119417Y-54370752D01*
X75063602Y-54566917D01*
X75044785Y-54769999D01*
X75044785Y-54770000D01*
X75063602Y-54973082D01*
X75119417Y-55169247D01*
X75119422Y-55169260D01*
X75210327Y-55351821D01*
X75333237Y-55514581D01*
X75483958Y-55651980D01*
X75483960Y-55651982D01*
X75504118Y-55664463D01*
X75657363Y-55759348D01*
X75763850Y-55800601D01*
X75847538Y-55833022D01*
X75847544Y-55833024D01*
X76039072Y-55868826D01*
X76101351Y-55900493D01*
X76136624Y-55960805D01*
X76133691Y-56030613D01*
X76103966Y-56078395D01*
X75593682Y-56588681D01*
X75532359Y-56622166D01*
X75506001Y-56625000D01*
X74318464Y-56625000D01*
X74222963Y-56650589D01*
X74222960Y-56650590D01*
X74137340Y-56700022D01*
X74137335Y-56700026D01*
X72986138Y-57851225D01*
X72986137Y-57851226D01*
X72950735Y-57886627D01*
X72889411Y-57920112D01*
X72819720Y-57915126D01*
X72779517Y-57890582D01*
X72656041Y-57778019D01*
X72656039Y-57778017D01*
X72482642Y-57670655D01*
X72482639Y-57670653D01*
X72482637Y-57670652D01*
X72482636Y-57670651D01*
X72482635Y-57670651D01*
X72340600Y-57615627D01*
X72292456Y-57596976D01*
X72091976Y-57559500D01*
X71888024Y-57559500D01*
X71687544Y-57596976D01*
X71687541Y-57596976D01*
X71687541Y-57596977D01*
X71497364Y-57670651D01*
X71497357Y-57670655D01*
X71323960Y-57778017D01*
X71323958Y-57778019D01*
X71173237Y-57915418D01*
X71050327Y-58078178D01*
X70959422Y-58260739D01*
X70959417Y-58260752D01*
X70943265Y-58317521D01*
X70905985Y-58376614D01*
X70842675Y-58406171D01*
X70773436Y-58396809D01*
X70720250Y-58351498D01*
X70700003Y-58284626D01*
X70699999Y-58283586D01*
X70699999Y-57778520D01*
X70685164Y-57684850D01*
X70685162Y-57684844D01*
X70627643Y-57571958D01*
X70627636Y-57571949D01*
X70538050Y-57482363D01*
X70538046Y-57482360D01*
X70425144Y-57424833D01*
X70331486Y-57410000D01*
X69650000Y-57410000D01*
X69650000Y-58186571D01*
X69646853Y-58184755D01*
X69517143Y-58150000D01*
X69382857Y-58150000D01*
X69253147Y-58184755D01*
X69250000Y-58186571D01*
X69250000Y-57410000D01*
X68568520Y-57410000D01*
X68465213Y-57426362D01*
X68464971Y-57424835D01*
X68405951Y-57426514D01*
X68349810Y-57394273D01*
X67671819Y-56716282D01*
X67638334Y-56654959D01*
X67635500Y-56628601D01*
X67635500Y-55907834D01*
X67655185Y-55840795D01*
X67707989Y-55795040D01*
X67777147Y-55785096D01*
X67830624Y-55806260D01*
X67902605Y-55856663D01*
X67902611Y-55856666D01*
X68100840Y-55949101D01*
X68100849Y-55949105D01*
X68312110Y-56005711D01*
X68330000Y-56007276D01*
X68330000Y-55231879D01*
X68337007Y-55235925D01*
X68464174Y-55270000D01*
X68595826Y-55270000D01*
X68722993Y-55235925D01*
X68730000Y-55231879D01*
X68730000Y-56007276D01*
X68747887Y-56005711D01*
X68747891Y-56005711D01*
X68959150Y-55949105D01*
X68959159Y-55949101D01*
X69157387Y-55856666D01*
X69336554Y-55731212D01*
X69491212Y-55576554D01*
X69616666Y-55397387D01*
X69709101Y-55199159D01*
X69709105Y-55199150D01*
X69757243Y-55019494D01*
X69793608Y-54959834D01*
X69856454Y-54929304D01*
X69925830Y-54937598D01*
X69979708Y-54982083D01*
X69996284Y-55017652D01*
X70039417Y-55169247D01*
X70039422Y-55169260D01*
X70130327Y-55351821D01*
X70253237Y-55514581D01*
X70403958Y-55651980D01*
X70403960Y-55651982D01*
X70424118Y-55664463D01*
X70577363Y-55759348D01*
X70767544Y-55833024D01*
X70968024Y-55870500D01*
X70968026Y-55870500D01*
X71171974Y-55870500D01*
X71171976Y-55870500D01*
X71372456Y-55833024D01*
X71562637Y-55759348D01*
X71736041Y-55651981D01*
X71881549Y-55519333D01*
X71886762Y-55514581D01*
X71886764Y-55514579D01*
X72009673Y-55351821D01*
X72100582Y-55169250D01*
X72156397Y-54973083D01*
X72175215Y-54770000D01*
X72172422Y-54739863D01*
X72156397Y-54566917D01*
X72146418Y-54531844D01*
X72100582Y-54370750D01*
X72100159Y-54369901D01*
X72009673Y-54188180D01*
X72009673Y-54188179D01*
X71923621Y-54074227D01*
X71886762Y-54025418D01*
X71736041Y-53888019D01*
X71736039Y-53888017D01*
X71562642Y-53780655D01*
X71562639Y-53780653D01*
X71562637Y-53780652D01*
X71562636Y-53780651D01*
X71562635Y-53780651D01*
X71433339Y-53730562D01*
X71372456Y-53706976D01*
X71171976Y-53669500D01*
X70968024Y-53669500D01*
X70767544Y-53706976D01*
X70767541Y-53706976D01*
X70767541Y-53706977D01*
X70577364Y-53780651D01*
X70577357Y-53780655D01*
X70403960Y-53888017D01*
X70403958Y-53888019D01*
X70253237Y-54025418D01*
X70130327Y-54188178D01*
X70039422Y-54370739D01*
X70039417Y-54370752D01*
X69996284Y-54522347D01*
X69959004Y-54581440D01*
X69895694Y-54610997D01*
X69826455Y-54601635D01*
X69773269Y-54556325D01*
X69757243Y-54520505D01*
X69709105Y-54340849D01*
X69709101Y-54340840D01*
X69616666Y-54142612D01*
X69616664Y-54142608D01*
X69491216Y-53963450D01*
X69491211Y-53963444D01*
X69336554Y-53808787D01*
X69157387Y-53683332D01*
X68977095Y-53599261D01*
X68924656Y-53553089D01*
X68905500Y-53486879D01*
X68905500Y-53349668D01*
X68925185Y-53282629D01*
X68977989Y-53236874D01*
X68984679Y-53234052D01*
X69022637Y-53219348D01*
X69196041Y-53111981D01*
X69344112Y-52976997D01*
X69346762Y-52974581D01*
X69346764Y-52974579D01*
X69469673Y-52811821D01*
X69560582Y-52629250D01*
X69616397Y-52433083D01*
X69635215Y-52230000D01*
X69635215Y-52229999D01*
X69964785Y-52229999D01*
X69964785Y-52230000D01*
X69983602Y-52433082D01*
X70039417Y-52629247D01*
X70039422Y-52629260D01*
X70130327Y-52811821D01*
X70253237Y-52974581D01*
X70403958Y-53111980D01*
X70403960Y-53111982D01*
X70475417Y-53156226D01*
X70577363Y-53219348D01*
X70767544Y-53293024D01*
X70968024Y-53330500D01*
X70968026Y-53330500D01*
X71171974Y-53330500D01*
X71171976Y-53330500D01*
X71372456Y-53293024D01*
X71562637Y-53219348D01*
X71736041Y-53111981D01*
X71884112Y-52976997D01*
X71886762Y-52974581D01*
X71886764Y-52974579D01*
X72009673Y-52811821D01*
X72100582Y-52629250D01*
X72143716Y-52477651D01*
X72180994Y-52418559D01*
X72244304Y-52389002D01*
X72313543Y-52398364D01*
X72366730Y-52443674D01*
X72382756Y-52479494D01*
X72430894Y-52659150D01*
X72430898Y-52659159D01*
X72523333Y-52857387D01*
X72648787Y-53036554D01*
X72803445Y-53191212D01*
X72982612Y-53316666D01*
X73180840Y-53409101D01*
X73180849Y-53409105D01*
X73360305Y-53457189D01*
X73419965Y-53493553D01*
X73450495Y-53556400D01*
X73442201Y-53625776D01*
X73397716Y-53679654D01*
X73350999Y-53698852D01*
X73307544Y-53706975D01*
X73117364Y-53780651D01*
X73117357Y-53780655D01*
X72943960Y-53888017D01*
X72943958Y-53888019D01*
X72793237Y-54025418D01*
X72670327Y-54188178D01*
X72579422Y-54370739D01*
X72579417Y-54370752D01*
X72523602Y-54566917D01*
X72504785Y-54769999D01*
X72504785Y-54770000D01*
X72523602Y-54973082D01*
X72579417Y-55169247D01*
X72579422Y-55169260D01*
X72670327Y-55351821D01*
X72793237Y-55514581D01*
X72943958Y-55651980D01*
X72943960Y-55651982D01*
X72964118Y-55664463D01*
X73117363Y-55759348D01*
X73307544Y-55833024D01*
X73508024Y-55870500D01*
X73508026Y-55870500D01*
X73711974Y-55870500D01*
X73711976Y-55870500D01*
X73912456Y-55833024D01*
X74102637Y-55759348D01*
X74276041Y-55651981D01*
X74421549Y-55519333D01*
X74426762Y-55514581D01*
X74426764Y-55514579D01*
X74549673Y-55351821D01*
X74640582Y-55169250D01*
X74696397Y-54973083D01*
X74715215Y-54770000D01*
X74712422Y-54739863D01*
X74696397Y-54566917D01*
X74686418Y-54531844D01*
X74640582Y-54370750D01*
X74640159Y-54369901D01*
X74549673Y-54188180D01*
X74549673Y-54188179D01*
X74463621Y-54074227D01*
X74426762Y-54025418D01*
X74276041Y-53888019D01*
X74276039Y-53888017D01*
X74102642Y-53780655D01*
X74102639Y-53780653D01*
X74102637Y-53780652D01*
X74102636Y-53780651D01*
X74102635Y-53780651D01*
X73912455Y-53706975D01*
X73869000Y-53698852D01*
X73806720Y-53667184D01*
X73771448Y-53606871D01*
X73774382Y-53537063D01*
X73814592Y-53479923D01*
X73859694Y-53457189D01*
X74039150Y-53409105D01*
X74039159Y-53409101D01*
X74237387Y-53316666D01*
X74416554Y-53191212D01*
X74571212Y-53036554D01*
X74696666Y-52857387D01*
X74789101Y-52659159D01*
X74789105Y-52659150D01*
X74837243Y-52479494D01*
X74873608Y-52419834D01*
X74936454Y-52389304D01*
X75005830Y-52397598D01*
X75059708Y-52442083D01*
X75076284Y-52477652D01*
X75119417Y-52629247D01*
X75119422Y-52629260D01*
X75210327Y-52811821D01*
X75333237Y-52974581D01*
X75483958Y-53111980D01*
X75483960Y-53111982D01*
X75555417Y-53156226D01*
X75657363Y-53219348D01*
X75847544Y-53293024D01*
X76048024Y-53330500D01*
X76048026Y-53330500D01*
X76251974Y-53330500D01*
X76251976Y-53330500D01*
X76452456Y-53293024D01*
X76642637Y-53219348D01*
X76816041Y-53111981D01*
X76964112Y-52976997D01*
X76966762Y-52974581D01*
X76966764Y-52974579D01*
X77089673Y-52811821D01*
X77180582Y-52629250D01*
X77236397Y-52433083D01*
X77255215Y-52230000D01*
X77250634Y-52180567D01*
X77236397Y-52026917D01*
X77228578Y-51999436D01*
X77180582Y-51830750D01*
X77180159Y-51829901D01*
X77109980Y-51688962D01*
X77089673Y-51648179D01*
X77005849Y-51537178D01*
X76966762Y-51485418D01*
X76816041Y-51348019D01*
X76816039Y-51348017D01*
X76642642Y-51240655D01*
X76642635Y-51240651D01*
X76547546Y-51203814D01*
X76452456Y-51166976D01*
X76251976Y-51129500D01*
X76048024Y-51129500D01*
X75847544Y-51166976D01*
X75847541Y-51166976D01*
X75847541Y-51166977D01*
X75657364Y-51240651D01*
X75657357Y-51240655D01*
X75483960Y-51348017D01*
X75483958Y-51348019D01*
X75333237Y-51485418D01*
X75210327Y-51648178D01*
X75119422Y-51830739D01*
X75119417Y-51830752D01*
X75076284Y-51982347D01*
X75039004Y-52041440D01*
X74975694Y-52070997D01*
X74906455Y-52061635D01*
X74853269Y-52016325D01*
X74837243Y-51980505D01*
X74789105Y-51800849D01*
X74789101Y-51800840D01*
X74696666Y-51602612D01*
X74696664Y-51602608D01*
X74571216Y-51423450D01*
X74571211Y-51423444D01*
X74416554Y-51268787D01*
X74237387Y-51143333D01*
X74039159Y-51050898D01*
X74039150Y-51050894D01*
X73827889Y-50994288D01*
X73810000Y-50992722D01*
X73810000Y-51768120D01*
X73802993Y-51764075D01*
X73675826Y-51730000D01*
X73544174Y-51730000D01*
X73417007Y-51764075D01*
X73410000Y-51768120D01*
X73410000Y-50992722D01*
X73392110Y-50994288D01*
X73180849Y-51050894D01*
X73180840Y-51050898D01*
X72982612Y-51143333D01*
X72982608Y-51143335D01*
X72803450Y-51268783D01*
X72803444Y-51268788D01*
X72648788Y-51423444D01*
X72648783Y-51423450D01*
X72523335Y-51602608D01*
X72523333Y-51602612D01*
X72430898Y-51800840D01*
X72430895Y-51800846D01*
X72382756Y-51980506D01*
X72346391Y-52040166D01*
X72283544Y-52070695D01*
X72214168Y-52062400D01*
X72160290Y-52017915D01*
X72143715Y-51982347D01*
X72100582Y-51830750D01*
X72100159Y-51829901D01*
X72029980Y-51688962D01*
X72009673Y-51648179D01*
X71925849Y-51537178D01*
X71886762Y-51485418D01*
X71736041Y-51348019D01*
X71736039Y-51348017D01*
X71562642Y-51240655D01*
X71562635Y-51240651D01*
X71467546Y-51203814D01*
X71372456Y-51166976D01*
X71171976Y-51129500D01*
X70968024Y-51129500D01*
X70767544Y-51166976D01*
X70767541Y-51166976D01*
X70767541Y-51166977D01*
X70577364Y-51240651D01*
X70577357Y-51240655D01*
X70403960Y-51348017D01*
X70403958Y-51348019D01*
X70253237Y-51485418D01*
X70130327Y-51648178D01*
X70039422Y-51830739D01*
X70039417Y-51830752D01*
X69983602Y-52026917D01*
X69964785Y-52229999D01*
X69635215Y-52229999D01*
X69630634Y-52180567D01*
X69616397Y-52026917D01*
X69608578Y-51999436D01*
X69560582Y-51830750D01*
X69560159Y-51829901D01*
X69489980Y-51688962D01*
X69469673Y-51648179D01*
X69385849Y-51537178D01*
X69346762Y-51485418D01*
X69196041Y-51348019D01*
X69196039Y-51348017D01*
X69022642Y-51240655D01*
X69022635Y-51240651D01*
X68927546Y-51203814D01*
X68832456Y-51166976D01*
X68631976Y-51129500D01*
X68428024Y-51129500D01*
X68227544Y-51166976D01*
X68227541Y-51166976D01*
X68227541Y-51166977D01*
X68037364Y-51240651D01*
X68037357Y-51240655D01*
X67863960Y-51348017D01*
X67863958Y-51348019D01*
X67713237Y-51485418D01*
X67590327Y-51648178D01*
X67499422Y-51830739D01*
X67499417Y-51830752D01*
X67443602Y-52026917D01*
X67424785Y-52229999D01*
X67424785Y-52230000D01*
X67443602Y-52433082D01*
X67499417Y-52629247D01*
X67499422Y-52629260D01*
X67590327Y-52811821D01*
X67713237Y-52974581D01*
X67778304Y-53033897D01*
X67814586Y-53093608D01*
X67812825Y-53163456D01*
X67782447Y-53213215D01*
X67029438Y-53966225D01*
X67029437Y-53966226D01*
X66976002Y-54019660D01*
X66914679Y-54053144D01*
X66844987Y-54048159D01*
X66804784Y-54023615D01*
X66656041Y-53888019D01*
X66656039Y-53888017D01*
X66482642Y-53780655D01*
X66482639Y-53780653D01*
X66482637Y-53780652D01*
X66482636Y-53780651D01*
X66482635Y-53780651D01*
X66353339Y-53730562D01*
X66292456Y-53706976D01*
X66091976Y-53669500D01*
X65888024Y-53669500D01*
X65854800Y-53675710D01*
X65757096Y-53693974D01*
X65687581Y-53686942D01*
X65632903Y-53643445D01*
X65610421Y-53577291D01*
X65627274Y-53509484D01*
X65646622Y-53484413D01*
X65768099Y-53362936D01*
X65829420Y-53329454D01*
X65878561Y-53328731D01*
X65888024Y-53330500D01*
X65888026Y-53330500D01*
X66091974Y-53330500D01*
X66091976Y-53330500D01*
X66292456Y-53293024D01*
X66482637Y-53219348D01*
X66656041Y-53111981D01*
X66804112Y-52976997D01*
X66806762Y-52974581D01*
X66806764Y-52974579D01*
X66929673Y-52811821D01*
X67020582Y-52629250D01*
X67076397Y-52433083D01*
X67095215Y-52230000D01*
X67090634Y-52180567D01*
X67076397Y-52026917D01*
X67068578Y-51999436D01*
X67020582Y-51830750D01*
X67020159Y-51829901D01*
X66949980Y-51688962D01*
X66929673Y-51648179D01*
X66845849Y-51537178D01*
X66806762Y-51485418D01*
X66656041Y-51348019D01*
X66656039Y-51348017D01*
X66482642Y-51240655D01*
X66482635Y-51240651D01*
X66387546Y-51203814D01*
X66292456Y-51166976D01*
X66091976Y-51129500D01*
X65888024Y-51129500D01*
X65687544Y-51166976D01*
X65687541Y-51166976D01*
X65687541Y-51166977D01*
X65497364Y-51240651D01*
X65497357Y-51240655D01*
X65323960Y-51348017D01*
X65323958Y-51348019D01*
X65173237Y-51485418D01*
X65050327Y-51648178D01*
X64959422Y-51830739D01*
X64959417Y-51830752D01*
X64916284Y-51982347D01*
X64879004Y-52041440D01*
X64815694Y-52070997D01*
X64746455Y-52061635D01*
X64693269Y-52016325D01*
X64677243Y-51980505D01*
X64629105Y-51800849D01*
X64629101Y-51800840D01*
X64536666Y-51602612D01*
X64536664Y-51602608D01*
X64411216Y-51423450D01*
X64411211Y-51423444D01*
X64256554Y-51268787D01*
X64077387Y-51143333D01*
X63879159Y-51050898D01*
X63879150Y-51050894D01*
X63667889Y-50994288D01*
X63650000Y-50992722D01*
X63650000Y-51768120D01*
X63642993Y-51764075D01*
X63515826Y-51730000D01*
X63384174Y-51730000D01*
X63257007Y-51764075D01*
X63250000Y-51768120D01*
X63250000Y-50992722D01*
X63232110Y-50994288D01*
X63020849Y-51050894D01*
X63020840Y-51050898D01*
X62822612Y-51143333D01*
X62822608Y-51143335D01*
X62643450Y-51268783D01*
X62643444Y-51268788D01*
X62488788Y-51423444D01*
X62488783Y-51423450D01*
X62363335Y-51602608D01*
X62363333Y-51602612D01*
X62270898Y-51800840D01*
X62270895Y-51800846D01*
X62222756Y-51980506D01*
X62186391Y-52040166D01*
X62123544Y-52070695D01*
X62054168Y-52062400D01*
X62000290Y-52017915D01*
X61983715Y-51982347D01*
X61940582Y-51830750D01*
X61940159Y-51829901D01*
X61869980Y-51688962D01*
X61849673Y-51648179D01*
X61765849Y-51537178D01*
X61726762Y-51485418D01*
X61576041Y-51348019D01*
X61576039Y-51348017D01*
X61402642Y-51240655D01*
X61402635Y-51240651D01*
X61307546Y-51203814D01*
X61212456Y-51166976D01*
X61011976Y-51129500D01*
X60808024Y-51129500D01*
X60607544Y-51166976D01*
X60607541Y-51166976D01*
X60607541Y-51166977D01*
X60417364Y-51240651D01*
X60417357Y-51240655D01*
X60243960Y-51348017D01*
X60243958Y-51348019D01*
X60093237Y-51485418D01*
X59970327Y-51648178D01*
X59879422Y-51830739D01*
X59879417Y-51830752D01*
X59823602Y-52026917D01*
X59804785Y-52229999D01*
X59804785Y-52230000D01*
X59823602Y-52433082D01*
X59879417Y-52629247D01*
X59879422Y-52629260D01*
X59970327Y-52811821D01*
X60093237Y-52974581D01*
X60243958Y-53111980D01*
X60243960Y-53111982D01*
X60315417Y-53156226D01*
X60417363Y-53219348D01*
X60607544Y-53293024D01*
X60808024Y-53330500D01*
X60808026Y-53330500D01*
X61011974Y-53330500D01*
X61011976Y-53330500D01*
X61212456Y-53293024D01*
X61402637Y-53219348D01*
X61576041Y-53111981D01*
X61724112Y-52976997D01*
X61726762Y-52974581D01*
X61726764Y-52974579D01*
X61849673Y-52811821D01*
X61940582Y-52629250D01*
X61983716Y-52477651D01*
X62020994Y-52418559D01*
X62084304Y-52389002D01*
X62153543Y-52398364D01*
X62206730Y-52443674D01*
X62222756Y-52479494D01*
X62270894Y-52659150D01*
X62270898Y-52659159D01*
X62363333Y-52857387D01*
X62413740Y-52929376D01*
X62436067Y-52995583D01*
X62419057Y-53063350D01*
X62368109Y-53111163D01*
X62312165Y-53124500D01*
X62229435Y-53124500D01*
X62130565Y-53124500D01*
X62035062Y-53150090D01*
X62035060Y-53150091D01*
X62035059Y-53150091D01*
X61949436Y-53199526D01*
X61879526Y-53269436D01*
X61830091Y-53355059D01*
X61830091Y-53355060D01*
X61830090Y-53355062D01*
X61804500Y-53450565D01*
X61804500Y-53450567D01*
X61804500Y-53815453D01*
X61784815Y-53882492D01*
X61732011Y-53928247D01*
X61662853Y-53938191D01*
X61599297Y-53909166D01*
X61596963Y-53907091D01*
X61576041Y-53888019D01*
X61576039Y-53888017D01*
X61402642Y-53780655D01*
X61402639Y-53780653D01*
X61402637Y-53780652D01*
X61402636Y-53780651D01*
X61402635Y-53780651D01*
X61273339Y-53730562D01*
X61212456Y-53706976D01*
X61011976Y-53669500D01*
X60808024Y-53669500D01*
X60607544Y-53706976D01*
X60607541Y-53706976D01*
X60607541Y-53706977D01*
X60417364Y-53780651D01*
X60417357Y-53780655D01*
X60246574Y-53886398D01*
X60179213Y-53904953D01*
X60112514Y-53884145D01*
X60067653Y-53830579D01*
X60061442Y-53808152D01*
X60060843Y-53808311D01*
X60058800Y-53800568D01*
X60058800Y-53800565D01*
X60058776Y-53800474D01*
X60033211Y-53705063D01*
X59997636Y-53643445D01*
X59983777Y-53619440D01*
X59983773Y-53619435D01*
X59563863Y-53199526D01*
X59563862Y-53199525D01*
X59478238Y-53150090D01*
X59430486Y-53137295D01*
X59430484Y-53137294D01*
X59430482Y-53137293D01*
X59382736Y-53124500D01*
X59382735Y-53124500D01*
X59322574Y-53124500D01*
X59255535Y-53104815D01*
X59209780Y-53052011D01*
X59199836Y-52982853D01*
X59223619Y-52925774D01*
X59309673Y-52811821D01*
X59400582Y-52629250D01*
X59456397Y-52433083D01*
X59475215Y-52230000D01*
X59470634Y-52180567D01*
X59456397Y-52026917D01*
X59448578Y-51999436D01*
X59400582Y-51830750D01*
X59400159Y-51829901D01*
X59329980Y-51688962D01*
X59309673Y-51648179D01*
X59225849Y-51537178D01*
X59186762Y-51485418D01*
X59036041Y-51348019D01*
X59036039Y-51348017D01*
X58862642Y-51240655D01*
X58862635Y-51240651D01*
X58767546Y-51203814D01*
X58672456Y-51166976D01*
X58471976Y-51129500D01*
X58268024Y-51129500D01*
X58067544Y-51166976D01*
X58067541Y-51166976D01*
X58067541Y-51166977D01*
X57877364Y-51240651D01*
X57877357Y-51240655D01*
X57703960Y-51348017D01*
X57703958Y-51348019D01*
X57553237Y-51485418D01*
X57430326Y-51648178D01*
X57424055Y-51660774D01*
X57376551Y-51712010D01*
X57313056Y-51729500D01*
X56952407Y-51729500D01*
X56842784Y-51758872D01*
X56842785Y-51758873D01*
X56825113Y-51763608D01*
X56825111Y-51763609D01*
X56710989Y-51829498D01*
X56710983Y-51829502D01*
X55934902Y-52605583D01*
X55934900Y-52605586D01*
X55869008Y-52719712D01*
X55834900Y-52847008D01*
X55834900Y-67896742D01*
X55815215Y-67963781D01*
X55812950Y-67967182D01*
X55755181Y-68050875D01*
X55755180Y-68050876D01*
X55699162Y-68198581D01*
X55680122Y-68355399D01*
X55680122Y-68355400D01*
X55699162Y-68512218D01*
X55741057Y-68622683D01*
X55755180Y-68659923D01*
X55844917Y-68789930D01*
X55963160Y-68894683D01*
X55963162Y-68894684D01*
X56103034Y-68968096D01*
X56256414Y-69005900D01*
X56256415Y-69005900D01*
X56414385Y-69005900D01*
X56567765Y-68968096D01*
X56567771Y-68968092D01*
X56574521Y-68965533D01*
X56644184Y-68960161D01*
X56705692Y-68993305D01*
X56739518Y-69054441D01*
X56742500Y-69081472D01*
X56742500Y-74923622D01*
X56722815Y-74990661D01*
X56716876Y-74999108D01*
X56650464Y-75085657D01*
X56589956Y-75231737D01*
X56589955Y-75231739D01*
X56569318Y-75388498D01*
X56569318Y-75388501D01*
X56589955Y-75545260D01*
X56589956Y-75545262D01*
X56609991Y-75593632D01*
X56650464Y-75691341D01*
X56746718Y-75816782D01*
X56872159Y-75913036D01*
X57018238Y-75973544D01*
X57096619Y-75983863D01*
X57174999Y-75994182D01*
X57175000Y-75994182D01*
X57175001Y-75994182D01*
X57227254Y-75987302D01*
X57331762Y-75973544D01*
X57477841Y-75913036D01*
X57603282Y-75816782D01*
X57699536Y-75691341D01*
X57760044Y-75545262D01*
X57778474Y-75405273D01*
X57780682Y-75388501D01*
X57780682Y-75388498D01*
X57760044Y-75231739D01*
X57760044Y-75231738D01*
X57699536Y-75085659D01*
X57603282Y-74960218D01*
X57562258Y-74928739D01*
X57542012Y-74913203D01*
X57500810Y-74856774D01*
X57493500Y-74814828D01*
X57493500Y-55994500D01*
X57513185Y-55927461D01*
X57565989Y-55881706D01*
X57617500Y-55870500D01*
X57745500Y-55870500D01*
X57812539Y-55890185D01*
X57858294Y-55942989D01*
X57869500Y-55994500D01*
X57869500Y-60104108D01*
X57869500Y-60235892D01*
X57874856Y-60255881D01*
X57903608Y-60363187D01*
X57933497Y-60414955D01*
X57969500Y-60477314D01*
X57969502Y-60477316D01*
X60860949Y-63368763D01*
X60894434Y-63430086D01*
X60892535Y-63490377D01*
X60873602Y-63556919D01*
X60854785Y-63759999D01*
X60854785Y-63760000D01*
X60873602Y-63963082D01*
X60929417Y-64159247D01*
X60929422Y-64159260D01*
X61020327Y-64341821D01*
X61143237Y-64504581D01*
X61282638Y-64631660D01*
X61289766Y-64638159D01*
X61293958Y-64641980D01*
X61293960Y-64641982D01*
X61351809Y-64677800D01*
X61467363Y-64749348D01*
X61657544Y-64823024D01*
X61700999Y-64831147D01*
X61763278Y-64862814D01*
X61798551Y-64923126D01*
X61795617Y-64992934D01*
X61755409Y-65050075D01*
X61710305Y-65072810D01*
X61530849Y-65120894D01*
X61530840Y-65120898D01*
X61332614Y-65213332D01*
X61332612Y-65213333D01*
X61228838Y-65285995D01*
X61228838Y-65285996D01*
X61774822Y-65831980D01*
X61767007Y-65834075D01*
X61652993Y-65899901D01*
X61559901Y-65992993D01*
X61494075Y-66107007D01*
X61491980Y-66114822D01*
X60945996Y-65568838D01*
X60945995Y-65568838D01*
X60873333Y-65672612D01*
X60873332Y-65672614D01*
X60780898Y-65870840D01*
X60780894Y-65870849D01*
X60724289Y-66082105D01*
X60724287Y-66082115D01*
X60705225Y-66299999D01*
X60705225Y-66300000D01*
X60724287Y-66517884D01*
X60724289Y-66517894D01*
X60780894Y-66729150D01*
X60780898Y-66729159D01*
X60873333Y-66927387D01*
X60945996Y-67031161D01*
X61491980Y-66485176D01*
X61494075Y-66492993D01*
X61559901Y-66607007D01*
X61652993Y-66700099D01*
X61767007Y-66765925D01*
X61774820Y-66768018D01*
X61228837Y-67314002D01*
X61332612Y-67386667D01*
X61530840Y-67479101D01*
X61530849Y-67479105D01*
X61710305Y-67527189D01*
X61769965Y-67563553D01*
X61800495Y-67626400D01*
X61792201Y-67695776D01*
X61747716Y-67749654D01*
X61700999Y-67768852D01*
X61657544Y-67776975D01*
X61467364Y-67850651D01*
X61467357Y-67850655D01*
X61293960Y-67958017D01*
X61293958Y-67958019D01*
X61143237Y-68095418D01*
X61020327Y-68258178D01*
X60929422Y-68440739D01*
X60929417Y-68440752D01*
X60873602Y-68636917D01*
X60854785Y-68839999D01*
X60854785Y-68840000D01*
X60873602Y-69043082D01*
X60929417Y-69239247D01*
X60929422Y-69239260D01*
X61020327Y-69421821D01*
X61143237Y-69584581D01*
X61293958Y-69721980D01*
X61293960Y-69721982D01*
X61385835Y-69778868D01*
X61467363Y-69829348D01*
X61657544Y-69903024D01*
X61858024Y-69940500D01*
X61858026Y-69940500D01*
X62061974Y-69940500D01*
X62061976Y-69940500D01*
X62262456Y-69903024D01*
X62452637Y-69829348D01*
X62626041Y-69721981D01*
X62716962Y-69639096D01*
X62779766Y-69608479D01*
X62849153Y-69616677D01*
X62903093Y-69661086D01*
X62924461Y-69727609D01*
X62924500Y-69730733D01*
X62924500Y-70489266D01*
X62904815Y-70556305D01*
X62852011Y-70602060D01*
X62782853Y-70612004D01*
X62719297Y-70582979D01*
X62716962Y-70580904D01*
X62679321Y-70546590D01*
X62626041Y-70498019D01*
X62626038Y-70498017D01*
X62626037Y-70498016D01*
X62452642Y-70390655D01*
X62452635Y-70390651D01*
X62324658Y-70341073D01*
X62262456Y-70316976D01*
X62061976Y-70279500D01*
X61858024Y-70279500D01*
X61657544Y-70316976D01*
X61657541Y-70316976D01*
X61657541Y-70316977D01*
X61467364Y-70390651D01*
X61467357Y-70390655D01*
X61293960Y-70498017D01*
X61293958Y-70498019D01*
X61143237Y-70635418D01*
X61020327Y-70798178D01*
X60929422Y-70980739D01*
X60929417Y-70980752D01*
X60873602Y-71176918D01*
X60868898Y-71227692D01*
X60843112Y-71292629D01*
X60786311Y-71333317D01*
X60716530Y-71336837D01*
X60657746Y-71303932D01*
X60130219Y-70776405D01*
X60096734Y-70715082D01*
X60093900Y-70688724D01*
X60093900Y-69845157D01*
X60113585Y-69778118D01*
X60115850Y-69774717D01*
X60173620Y-69691023D01*
X60229637Y-69543318D01*
X60248678Y-69386500D01*
X60248593Y-69385795D01*
X60229637Y-69229681D01*
X60200491Y-69152831D01*
X60173620Y-69081977D01*
X60083883Y-68951970D01*
X59965640Y-68847217D01*
X59965638Y-68847216D01*
X59965637Y-68847215D01*
X59825765Y-68773803D01*
X59672386Y-68736000D01*
X59672385Y-68736000D01*
X59514415Y-68736000D01*
X59514414Y-68736000D01*
X59361034Y-68773803D01*
X59221162Y-68847215D01*
X59102916Y-68951971D01*
X59013181Y-69081975D01*
X59013180Y-69081976D01*
X58957162Y-69229681D01*
X58938122Y-69386499D01*
X58938122Y-69386500D01*
X58957162Y-69543318D01*
X59013180Y-69691023D01*
X59013180Y-69691024D01*
X59070950Y-69774717D01*
X59092833Y-69841071D01*
X59092900Y-69845157D01*
X59092900Y-70881508D01*
X59092900Y-71013292D01*
X59103649Y-71053407D01*
X59127008Y-71140587D01*
X59146588Y-71174500D01*
X59192900Y-71254714D01*
X59192902Y-71254716D01*
X61882409Y-73944223D01*
X61910669Y-73987932D01*
X61936663Y-74056470D01*
X61937480Y-74058623D01*
X62027217Y-74188630D01*
X62145460Y-74293383D01*
X62145462Y-74293384D01*
X62285334Y-74366796D01*
X62438714Y-74404600D01*
X62438715Y-74404600D01*
X62596685Y-74404600D01*
X62750065Y-74366796D01*
X62750073Y-74366791D01*
X62756523Y-74364346D01*
X62826186Y-74358975D01*
X62887693Y-74392120D01*
X62921518Y-74453256D01*
X62924500Y-74480286D01*
X62924500Y-75419436D01*
X62937277Y-75467123D01*
X62937291Y-75467173D01*
X62937295Y-75467186D01*
X62950090Y-75514938D01*
X62974963Y-75558020D01*
X62999526Y-75600563D01*
X63310289Y-75911326D01*
X63343774Y-75972649D01*
X63339331Y-76034765D01*
X63340986Y-76035236D01*
X63283603Y-76236915D01*
X63283602Y-76236917D01*
X63264785Y-76439999D01*
X63264785Y-76440000D01*
X63283602Y-76643082D01*
X63339417Y-76839247D01*
X63339422Y-76839260D01*
X63430327Y-77021821D01*
X63553237Y-77184581D01*
X63703958Y-77321980D01*
X63703960Y-77321982D01*
X63803141Y-77383392D01*
X63877363Y-77429348D01*
X64067544Y-77503024D01*
X64268024Y-77540500D01*
X64268026Y-77540500D01*
X64471974Y-77540500D01*
X64471976Y-77540500D01*
X64672456Y-77503024D01*
X64862637Y-77429348D01*
X65036041Y-77321981D01*
X65186764Y-77184579D01*
X65309673Y-77021821D01*
X65400582Y-76839250D01*
X65456397Y-76643083D01*
X65475215Y-76440000D01*
X65474205Y-76429105D01*
X65456397Y-76236917D01*
X65456396Y-76236915D01*
X65400582Y-76040750D01*
X65397836Y-76035236D01*
X65318559Y-75876025D01*
X65309673Y-75858179D01*
X65186764Y-75695421D01*
X65186762Y-75695418D01*
X65036041Y-75558019D01*
X65036039Y-75558017D01*
X64857763Y-75447634D01*
X64859109Y-75445459D01*
X64815882Y-75405353D01*
X64798486Y-75337684D01*
X64820436Y-75271351D01*
X64874763Y-75227416D01*
X64938597Y-75218956D01*
X65034500Y-75231582D01*
X65034501Y-75231582D01*
X65086754Y-75224702D01*
X65191262Y-75210944D01*
X65337341Y-75150436D01*
X65462782Y-75054182D01*
X65559036Y-74928741D01*
X65619544Y-74782662D01*
X65634903Y-74665997D01*
X65640182Y-74625901D01*
X65640182Y-74625900D01*
X65639480Y-74620570D01*
X65650242Y-74551534D01*
X65674734Y-74516701D01*
X66051220Y-74140216D01*
X66112542Y-74106732D01*
X66182234Y-74111716D01*
X66238167Y-74153588D01*
X66262584Y-74219052D01*
X66262900Y-74227898D01*
X66262900Y-74892264D01*
X66262900Y-74991136D01*
X66270658Y-75020090D01*
X66270659Y-75020093D01*
X66270658Y-75020093D01*
X66288488Y-75086634D01*
X66288491Y-75086641D01*
X66333073Y-75163859D01*
X66333074Y-75163859D01*
X66333077Y-75163865D01*
X66337926Y-75172263D01*
X66337927Y-75172264D01*
X66429539Y-75263876D01*
X66463024Y-75325199D01*
X66458040Y-75394891D01*
X66416168Y-75450824D01*
X66407136Y-75456984D01*
X66243957Y-75558020D01*
X66093237Y-75695418D01*
X65970327Y-75858178D01*
X65879422Y-76040739D01*
X65879417Y-76040752D01*
X65823602Y-76236917D01*
X65804785Y-76439999D01*
X65804785Y-76440000D01*
X65823602Y-76643082D01*
X65879417Y-76839247D01*
X65879422Y-76839260D01*
X65970327Y-77021821D01*
X66093237Y-77184581D01*
X66243958Y-77321980D01*
X66243960Y-77321982D01*
X66343141Y-77383392D01*
X66417363Y-77429348D01*
X66607544Y-77503024D01*
X66808024Y-77540500D01*
X66808026Y-77540500D01*
X67011974Y-77540500D01*
X67011976Y-77540500D01*
X67212456Y-77503024D01*
X67402637Y-77429348D01*
X67576041Y-77321981D01*
X67726764Y-77184579D01*
X67849673Y-77021821D01*
X67940582Y-76839250D01*
X67956736Y-76782475D01*
X67994012Y-76723386D01*
X68057321Y-76693828D01*
X68126561Y-76703189D01*
X68179748Y-76748499D01*
X68199996Y-76815370D01*
X68200000Y-76816413D01*
X68200000Y-77321479D01*
X68214835Y-77415149D01*
X68214837Y-77415155D01*
X68272356Y-77528041D01*
X68272363Y-77528050D01*
X68361949Y-77617636D01*
X68361953Y-77617639D01*
X68474855Y-77675166D01*
X68568514Y-77689999D01*
X69249999Y-77689999D01*
X69250000Y-77689998D01*
X69250000Y-76913428D01*
X69253147Y-76915245D01*
X69382857Y-76950000D01*
X69517143Y-76950000D01*
X69646853Y-76915245D01*
X69650000Y-76913428D01*
X69650000Y-77689999D01*
X70331479Y-77689999D01*
X70425149Y-77675164D01*
X70425155Y-77675162D01*
X70538041Y-77617643D01*
X70538050Y-77617636D01*
X70627636Y-77528050D01*
X70627639Y-77528046D01*
X70685166Y-77415144D01*
X70699999Y-77321485D01*
X70699999Y-76816415D01*
X70719683Y-76749376D01*
X70772487Y-76703621D01*
X70841646Y-76693677D01*
X70905202Y-76722702D01*
X70942976Y-76781480D01*
X70943265Y-76782479D01*
X70952623Y-76815370D01*
X70959418Y-76839249D01*
X70959422Y-76839260D01*
X71050327Y-77021821D01*
X71173237Y-77184581D01*
X71323958Y-77321980D01*
X71323960Y-77321982D01*
X71423141Y-77383392D01*
X71497363Y-77429348D01*
X71687544Y-77503024D01*
X71888024Y-77540500D01*
X71888026Y-77540500D01*
X72091974Y-77540500D01*
X72091976Y-77540500D01*
X72292456Y-77503024D01*
X72482637Y-77429348D01*
X72656041Y-77321981D01*
X72806764Y-77184579D01*
X72929673Y-77021821D01*
X73020582Y-76839250D01*
X73076397Y-76643083D01*
X73095215Y-76440000D01*
X73095215Y-76439999D01*
X73424785Y-76439999D01*
X73424785Y-76440000D01*
X73443602Y-76643082D01*
X73499417Y-76839247D01*
X73499422Y-76839260D01*
X73590327Y-77021821D01*
X73713237Y-77184581D01*
X73863958Y-77321980D01*
X73863960Y-77321982D01*
X73963141Y-77383392D01*
X74037363Y-77429348D01*
X74227544Y-77503024D01*
X74428024Y-77540500D01*
X74428026Y-77540500D01*
X74631974Y-77540500D01*
X74631976Y-77540500D01*
X74832456Y-77503024D01*
X75022637Y-77429348D01*
X75196041Y-77321981D01*
X75346764Y-77184579D01*
X75469673Y-77021821D01*
X75560582Y-76839250D01*
X75616397Y-76643083D01*
X75635215Y-76440000D01*
X75635215Y-76439999D01*
X75964785Y-76439999D01*
X75964785Y-76440000D01*
X75983602Y-76643082D01*
X76039417Y-76839247D01*
X76039422Y-76839260D01*
X76130327Y-77021821D01*
X76253237Y-77184581D01*
X76403958Y-77321980D01*
X76403960Y-77321982D01*
X76503141Y-77383392D01*
X76577363Y-77429348D01*
X76767544Y-77503024D01*
X76968024Y-77540500D01*
X76968026Y-77540500D01*
X77171974Y-77540500D01*
X77171976Y-77540500D01*
X77372456Y-77503024D01*
X77562637Y-77429348D01*
X77736041Y-77321981D01*
X77886764Y-77184579D01*
X78009673Y-77021821D01*
X78100582Y-76839250D01*
X78156397Y-76643083D01*
X78175215Y-76440000D01*
X78174205Y-76429105D01*
X78156397Y-76236917D01*
X78156396Y-76236915D01*
X78100582Y-76040750D01*
X78097836Y-76035236D01*
X78018559Y-75876025D01*
X78009673Y-75858179D01*
X77886764Y-75695421D01*
X77886762Y-75695418D01*
X77736041Y-75558019D01*
X77736039Y-75558017D01*
X77562642Y-75450655D01*
X77562639Y-75450653D01*
X77562637Y-75450652D01*
X77562636Y-75450651D01*
X77562635Y-75450651D01*
X77418700Y-75394891D01*
X77372456Y-75376976D01*
X77171976Y-75339500D01*
X76968024Y-75339500D01*
X76767544Y-75376976D01*
X76767541Y-75376976D01*
X76767541Y-75376977D01*
X76577364Y-75450651D01*
X76577357Y-75450655D01*
X76403960Y-75558017D01*
X76403958Y-75558019D01*
X76253237Y-75695418D01*
X76130327Y-75858178D01*
X76039422Y-76040739D01*
X76039417Y-76040752D01*
X75983602Y-76236917D01*
X75964785Y-76439999D01*
X75635215Y-76439999D01*
X75634205Y-76429105D01*
X75616397Y-76236917D01*
X75616396Y-76236915D01*
X75560582Y-76040750D01*
X75557836Y-76035236D01*
X75478559Y-75876025D01*
X75469673Y-75858179D01*
X75346764Y-75695421D01*
X75346762Y-75695418D01*
X75196041Y-75558019D01*
X75196039Y-75558017D01*
X75022642Y-75450655D01*
X75022639Y-75450653D01*
X75022637Y-75450652D01*
X75022636Y-75450651D01*
X75022635Y-75450651D01*
X74878700Y-75394891D01*
X74832456Y-75376976D01*
X74631976Y-75339500D01*
X74428024Y-75339500D01*
X74227544Y-75376976D01*
X74227541Y-75376976D01*
X74227541Y-75376977D01*
X74037364Y-75450651D01*
X74037357Y-75450655D01*
X73863960Y-75558017D01*
X73863958Y-75558019D01*
X73713237Y-75695418D01*
X73590327Y-75858178D01*
X73499422Y-76040739D01*
X73499417Y-76040752D01*
X73443602Y-76236917D01*
X73424785Y-76439999D01*
X73095215Y-76439999D01*
X73094205Y-76429105D01*
X73076397Y-76236917D01*
X73076396Y-76236915D01*
X73020582Y-76040750D01*
X73017836Y-76035236D01*
X72938559Y-75876025D01*
X72929673Y-75858179D01*
X72806764Y-75695421D01*
X72806762Y-75695418D01*
X72656041Y-75558019D01*
X72656039Y-75558017D01*
X72482642Y-75450655D01*
X72482639Y-75450653D01*
X72482637Y-75450652D01*
X72482636Y-75450651D01*
X72482635Y-75450651D01*
X72338700Y-75394891D01*
X72292456Y-75376976D01*
X72091976Y-75339500D01*
X71888024Y-75339500D01*
X71687544Y-75376976D01*
X71687541Y-75376976D01*
X71687541Y-75376977D01*
X71497364Y-75450651D01*
X71497357Y-75450655D01*
X71323960Y-75558017D01*
X71323958Y-75558019D01*
X71173237Y-75695418D01*
X71050327Y-75858178D01*
X70959422Y-76040739D01*
X70959417Y-76040752D01*
X70943265Y-76097521D01*
X70905985Y-76156614D01*
X70842675Y-76186171D01*
X70773436Y-76176809D01*
X70720250Y-76131498D01*
X70700003Y-76064626D01*
X70699999Y-76063586D01*
X70699999Y-75558520D01*
X70685164Y-75464850D01*
X70685162Y-75464844D01*
X70627643Y-75351958D01*
X70627636Y-75351949D01*
X70538050Y-75262363D01*
X70538046Y-75262360D01*
X70425144Y-75204833D01*
X70331486Y-75190000D01*
X69650000Y-75190000D01*
X69650000Y-75966571D01*
X69646853Y-75964755D01*
X69517143Y-75930000D01*
X69382857Y-75930000D01*
X69253147Y-75964755D01*
X69250000Y-75966571D01*
X69250000Y-75190000D01*
X68568520Y-75190000D01*
X68474850Y-75204835D01*
X68474844Y-75204837D01*
X68361958Y-75262356D01*
X68361949Y-75262363D01*
X68272363Y-75351949D01*
X68272360Y-75351953D01*
X68214833Y-75464855D01*
X68200000Y-75558514D01*
X68200000Y-76063584D01*
X68180315Y-76130623D01*
X68127511Y-76176378D01*
X68058353Y-76186322D01*
X67994797Y-76157297D01*
X67957023Y-76098519D01*
X67956734Y-76097519D01*
X67947079Y-76063586D01*
X67940582Y-76040750D01*
X67937836Y-76035236D01*
X67858559Y-75876025D01*
X67849673Y-75858179D01*
X67726764Y-75695421D01*
X67726762Y-75695418D01*
X67576041Y-75558019D01*
X67576039Y-75558017D01*
X67402640Y-75450653D01*
X67402628Y-75450647D01*
X67364705Y-75435956D01*
X67309304Y-75393383D01*
X67285714Y-75327616D01*
X67285500Y-75320330D01*
X67285500Y-75163867D01*
X67285500Y-75163865D01*
X67259910Y-75068362D01*
X67210475Y-74982738D01*
X67140562Y-74912825D01*
X67050219Y-74822482D01*
X67016734Y-74761159D01*
X67013900Y-74734801D01*
X67013900Y-68056232D01*
X67033585Y-67989193D01*
X67062415Y-67957855D01*
X67066682Y-67954582D01*
X67162936Y-67829141D01*
X67223444Y-67683062D01*
X67244082Y-67526300D01*
X67223444Y-67369538D01*
X67162936Y-67223459D01*
X67066682Y-67098018D01*
X66941241Y-67001764D01*
X66896177Y-66983098D01*
X66795162Y-66941256D01*
X66795160Y-66941255D01*
X66638401Y-66920618D01*
X66638399Y-66920618D01*
X66481639Y-66941255D01*
X66481634Y-66941257D01*
X66398652Y-66975629D01*
X66329182Y-66983098D01*
X66266703Y-66951822D01*
X66231052Y-66891733D01*
X66227200Y-66861068D01*
X66227200Y-65630545D01*
X66246885Y-65563506D01*
X66299689Y-65517751D01*
X66368847Y-65507807D01*
X66398652Y-65515984D01*
X66422938Y-65526044D01*
X66501319Y-65536363D01*
X66579699Y-65546682D01*
X66579700Y-65546682D01*
X66579701Y-65546682D01*
X66631954Y-65539802D01*
X66736462Y-65526044D01*
X66882541Y-65465536D01*
X67007982Y-65369282D01*
X67104236Y-65243841D01*
X67164744Y-65097762D01*
X67181800Y-64968209D01*
X67185382Y-64941001D01*
X67185382Y-64940998D01*
X67164744Y-64784239D01*
X67164744Y-64784238D01*
X67104236Y-64638159D01*
X67007982Y-64512718D01*
X66977973Y-64489691D01*
X66944913Y-64464323D01*
X66903711Y-64407895D01*
X66896400Y-64365948D01*
X66896400Y-62568379D01*
X66916085Y-62501340D01*
X66968889Y-62455585D01*
X67038047Y-62445641D01*
X67067849Y-62453817D01*
X67143238Y-62485044D01*
X67220373Y-62495199D01*
X67299999Y-62505682D01*
X67300000Y-62505682D01*
X67300001Y-62505682D01*
X67352254Y-62498802D01*
X67456762Y-62485044D01*
X67602841Y-62424536D01*
X67602842Y-62424534D01*
X67608047Y-62422379D01*
X67677516Y-62414910D01*
X67739996Y-62446185D01*
X67775648Y-62506274D01*
X67779500Y-62536940D01*
X67779500Y-66970123D01*
X67759815Y-67037162D01*
X67730988Y-67068498D01*
X67692520Y-67098015D01*
X67596263Y-67223460D01*
X67535756Y-67369537D01*
X67535755Y-67369539D01*
X67515118Y-67526298D01*
X67515118Y-67526301D01*
X67535755Y-67683060D01*
X67535756Y-67683062D01*
X67575443Y-67778876D01*
X67596264Y-67829141D01*
X67692518Y-67954582D01*
X67817959Y-68050836D01*
X67964038Y-68111344D01*
X68042419Y-68121663D01*
X68120799Y-68131982D01*
X68120800Y-68131982D01*
X68120801Y-68131982D01*
X68173054Y-68125102D01*
X68277562Y-68111344D01*
X68423641Y-68050836D01*
X68549082Y-67954582D01*
X68645336Y-67829141D01*
X68705844Y-67683062D01*
X68726482Y-67526300D01*
X68705844Y-67369538D01*
X68645336Y-67223459D01*
X68645335Y-67223458D01*
X68645335Y-67223457D01*
X68556124Y-67107194D01*
X68530930Y-67042025D01*
X68530500Y-67031708D01*
X68530500Y-60033999D01*
X68550185Y-59966960D01*
X68602989Y-59921205D01*
X68654500Y-59909999D01*
X69249999Y-59909999D01*
X69250000Y-59909998D01*
X69250000Y-59133428D01*
X69253147Y-59135245D01*
X69382857Y-59170000D01*
X69517143Y-59170000D01*
X69646853Y-59135245D01*
X69650000Y-59133428D01*
X69650000Y-59909999D01*
X70331479Y-59909999D01*
X70425149Y-59895164D01*
X70425155Y-59895162D01*
X70538041Y-59837643D01*
X70538050Y-59837636D01*
X70627636Y-59748050D01*
X70627639Y-59748046D01*
X70685166Y-59635144D01*
X70699999Y-59541485D01*
X70699999Y-59036415D01*
X70719683Y-58969376D01*
X70772487Y-58923621D01*
X70841646Y-58913677D01*
X70905202Y-58942702D01*
X70942976Y-59001480D01*
X70943265Y-59002479D01*
X70957637Y-59052992D01*
X70959418Y-59059249D01*
X70959422Y-59059260D01*
X71050327Y-59241821D01*
X71173237Y-59404581D01*
X71323958Y-59541980D01*
X71323960Y-59541982D01*
X71373570Y-59572699D01*
X71497363Y-59649348D01*
X71687544Y-59723024D01*
X71888024Y-59760500D01*
X71888026Y-59760500D01*
X72091974Y-59760500D01*
X72091976Y-59760500D01*
X72292456Y-59723024D01*
X72482637Y-59649348D01*
X72656041Y-59541981D01*
X72806764Y-59404579D01*
X72929673Y-59241821D01*
X72998186Y-59104226D01*
X73045687Y-59052992D01*
X73109185Y-59035500D01*
X73266131Y-59035500D01*
X73266135Y-59035500D01*
X73361638Y-59009910D01*
X73361643Y-59009906D01*
X73363609Y-59009380D01*
X73433459Y-59011043D01*
X73491322Y-59050205D01*
X73506704Y-59073884D01*
X73590325Y-59241819D01*
X73713237Y-59404581D01*
X73863958Y-59541980D01*
X73863960Y-59541982D01*
X73913570Y-59572699D01*
X74037363Y-59649348D01*
X74227544Y-59723024D01*
X74428024Y-59760500D01*
X74428026Y-59760500D01*
X74631974Y-59760500D01*
X74631976Y-59760500D01*
X74832456Y-59723024D01*
X75022637Y-59649348D01*
X75196041Y-59541981D01*
X75346764Y-59404579D01*
X75469673Y-59241821D01*
X75560582Y-59059250D01*
X75616397Y-58863083D01*
X75635215Y-58660000D01*
X75616397Y-58456917D01*
X75560582Y-58260750D01*
X75556174Y-58251898D01*
X75505435Y-58150000D01*
X75469673Y-58078179D01*
X75353414Y-57924227D01*
X75346762Y-57915418D01*
X75196041Y-57778019D01*
X75196039Y-57778017D01*
X75022642Y-57670655D01*
X75022639Y-57670653D01*
X75022637Y-57670652D01*
X75022636Y-57670651D01*
X75022635Y-57670651D01*
X74880600Y-57615627D01*
X74825199Y-57573054D01*
X74801608Y-57507287D01*
X74817319Y-57439207D01*
X74867343Y-57390428D01*
X74925394Y-57376000D01*
X75762335Y-57376000D01*
X75762336Y-57376000D01*
X75810086Y-57363205D01*
X75857838Y-57350410D01*
X75943462Y-57300975D01*
X76013375Y-57231062D01*
X77714511Y-55529926D01*
X77775834Y-55496441D01*
X77845526Y-55501425D01*
X77885730Y-55525970D01*
X78023957Y-55651980D01*
X78023960Y-55651982D01*
X78044118Y-55664463D01*
X78197363Y-55759348D01*
X78387544Y-55833024D01*
X78588024Y-55870500D01*
X78588027Y-55870500D01*
X78591726Y-55870843D01*
X78593385Y-55871501D01*
X78593659Y-55871553D01*
X78593648Y-55871606D01*
X78656663Y-55896629D01*
X78697351Y-55953429D01*
X78700871Y-56023210D01*
X78667966Y-56081995D01*
X77728482Y-57021481D01*
X77667159Y-57054966D01*
X77640801Y-57057800D01*
X77119435Y-57057800D01*
X77020565Y-57057800D01*
X76925062Y-57083390D01*
X76925060Y-57083391D01*
X76925059Y-57083391D01*
X76839436Y-57132826D01*
X76769526Y-57202736D01*
X76720091Y-57288359D01*
X76720091Y-57288360D01*
X76720090Y-57288362D01*
X76694500Y-57383865D01*
X76694500Y-57383867D01*
X76694500Y-57540330D01*
X76674815Y-57607369D01*
X76622011Y-57653124D01*
X76615295Y-57655956D01*
X76577371Y-57670647D01*
X76577359Y-57670653D01*
X76403960Y-57778017D01*
X76403958Y-57778019D01*
X76253237Y-57915418D01*
X76130327Y-58078178D01*
X76039422Y-58260739D01*
X76039417Y-58260752D01*
X75983602Y-58456917D01*
X75964785Y-58659999D01*
X75964785Y-58660000D01*
X75983602Y-58863082D01*
X76039417Y-59059247D01*
X76039422Y-59059260D01*
X76130327Y-59241821D01*
X76253237Y-59404581D01*
X76403958Y-59541980D01*
X76403960Y-59541982D01*
X76453570Y-59572699D01*
X76577363Y-59649348D01*
X76767544Y-59723024D01*
X76968024Y-59760500D01*
X76968026Y-59760500D01*
X77171974Y-59760500D01*
X77171976Y-59760500D01*
X77372456Y-59723024D01*
X77562637Y-59649348D01*
X77736041Y-59541981D01*
X77886764Y-59404579D01*
X78009673Y-59241821D01*
X78100582Y-59059250D01*
X78156397Y-58863083D01*
X78175215Y-58660000D01*
X78156397Y-58456917D01*
X78100582Y-58260750D01*
X78096174Y-58251898D01*
X78045435Y-58150000D01*
X78009673Y-58078179D01*
X77932451Y-57975921D01*
X77907760Y-57910561D01*
X77922325Y-57842226D01*
X77971522Y-57792613D01*
X77985422Y-57787021D01*
X77985131Y-57786319D01*
X77992629Y-57783212D01*
X77992638Y-57783210D01*
X78078262Y-57733775D01*
X78148175Y-57663862D01*
X78148174Y-57663862D01*
X78206743Y-57605293D01*
X80268951Y-55543086D01*
X80330272Y-55509603D01*
X80399964Y-55514587D01*
X80440168Y-55539132D01*
X80563957Y-55651980D01*
X80563960Y-55651982D01*
X80584118Y-55664463D01*
X80737363Y-55759348D01*
X80927544Y-55833024D01*
X81128024Y-55870500D01*
X81128027Y-55870500D01*
X81131726Y-55870843D01*
X81133385Y-55871501D01*
X81133659Y-55871553D01*
X81133648Y-55871606D01*
X81196663Y-55896629D01*
X81237351Y-55953429D01*
X81240871Y-56023210D01*
X81207966Y-56081995D01*
X80268482Y-57021481D01*
X80207159Y-57054966D01*
X80180801Y-57057800D01*
X79659435Y-57057800D01*
X79560565Y-57057800D01*
X79465062Y-57083390D01*
X79465060Y-57083391D01*
X79465059Y-57083391D01*
X79379436Y-57132826D01*
X79309526Y-57202736D01*
X79260091Y-57288359D01*
X79260091Y-57288360D01*
X79260090Y-57288362D01*
X79234500Y-57383865D01*
X79234500Y-57383867D01*
X79234500Y-57540330D01*
X79214815Y-57607369D01*
X79162011Y-57653124D01*
X79155295Y-57655956D01*
X79117371Y-57670647D01*
X79117359Y-57670653D01*
X78943960Y-57778017D01*
X78943958Y-57778019D01*
X78793237Y-57915418D01*
X78670327Y-58078178D01*
X78579422Y-58260739D01*
X78579417Y-58260752D01*
X78523602Y-58456917D01*
X78504785Y-58659999D01*
X78504785Y-58660000D01*
X78523602Y-58863082D01*
X78579417Y-59059247D01*
X78579422Y-59059260D01*
X78670327Y-59241821D01*
X78793237Y-59404581D01*
X78943958Y-59541980D01*
X78943960Y-59541982D01*
X78993570Y-59572699D01*
X79117363Y-59649348D01*
X79307544Y-59723024D01*
X79508024Y-59760500D01*
X79508026Y-59760500D01*
X79711974Y-59760500D01*
X79711976Y-59760500D01*
X79912456Y-59723024D01*
X80102637Y-59649348D01*
X80276041Y-59541981D01*
X80426764Y-59404579D01*
X80549673Y-59241821D01*
X80640582Y-59059250D01*
X80656736Y-59002475D01*
X80694012Y-58943386D01*
X80757321Y-58913828D01*
X80826561Y-58923189D01*
X80879748Y-58968499D01*
X80899996Y-59035370D01*
X80900000Y-59036413D01*
X80900000Y-59541479D01*
X80914835Y-59635149D01*
X80914837Y-59635155D01*
X80972356Y-59748041D01*
X80972363Y-59748050D01*
X81061949Y-59837636D01*
X81061953Y-59837639D01*
X81174855Y-59895166D01*
X81268514Y-59909999D01*
X81949999Y-59909999D01*
X81950000Y-59909998D01*
X81950000Y-59133428D01*
X81953147Y-59135245D01*
X82082857Y-59170000D01*
X82217143Y-59170000D01*
X82346853Y-59135245D01*
X82350000Y-59133428D01*
X82350000Y-59909999D01*
X83031479Y-59909999D01*
X83125149Y-59895164D01*
X83125155Y-59895162D01*
X83238041Y-59837643D01*
X83238050Y-59837636D01*
X83327636Y-59748050D01*
X83327639Y-59748046D01*
X83385166Y-59635144D01*
X83399999Y-59541485D01*
X83399999Y-59036415D01*
X83419683Y-58969376D01*
X83472487Y-58923621D01*
X83541646Y-58913677D01*
X83605202Y-58942702D01*
X83642976Y-59001480D01*
X83643265Y-59002479D01*
X83657637Y-59052992D01*
X83659418Y-59059249D01*
X83659422Y-59059260D01*
X83750327Y-59241821D01*
X83873237Y-59404581D01*
X84023958Y-59541980D01*
X84023960Y-59541982D01*
X84073570Y-59572699D01*
X84197363Y-59649348D01*
X84387544Y-59723024D01*
X84588024Y-59760500D01*
X84588026Y-59760500D01*
X84791974Y-59760500D01*
X84791976Y-59760500D01*
X84992456Y-59723024D01*
X85182637Y-59649348D01*
X85356041Y-59541981D01*
X85506764Y-59404579D01*
X85629673Y-59241821D01*
X85720582Y-59059250D01*
X85776397Y-58863083D01*
X85795215Y-58660000D01*
X85776397Y-58456917D01*
X85720582Y-58260750D01*
X85716174Y-58251898D01*
X85665435Y-58150000D01*
X85629673Y-58078179D01*
X85513414Y-57924227D01*
X85506762Y-57915418D01*
X85356041Y-57778019D01*
X85356039Y-57778017D01*
X85182642Y-57670655D01*
X85182639Y-57670653D01*
X85182637Y-57670652D01*
X85182636Y-57670651D01*
X85182635Y-57670651D01*
X85040600Y-57615627D01*
X84992456Y-57596976D01*
X84791976Y-57559500D01*
X84588024Y-57559500D01*
X84387544Y-57596976D01*
X84387541Y-57596976D01*
X84387541Y-57596977D01*
X84197364Y-57670651D01*
X84197357Y-57670655D01*
X84023960Y-57778017D01*
X84023958Y-57778019D01*
X83873237Y-57915418D01*
X83750327Y-58078178D01*
X83659422Y-58260739D01*
X83659417Y-58260752D01*
X83643265Y-58317521D01*
X83605985Y-58376614D01*
X83542675Y-58406171D01*
X83473436Y-58396809D01*
X83420250Y-58351498D01*
X83400003Y-58284626D01*
X83399999Y-58283586D01*
X83399999Y-57778520D01*
X83385164Y-57684850D01*
X83385162Y-57684844D01*
X83327643Y-57571958D01*
X83327636Y-57571949D01*
X83238050Y-57482363D01*
X83238046Y-57482360D01*
X83125144Y-57424833D01*
X83031486Y-57410000D01*
X82350000Y-57410000D01*
X82350000Y-58186571D01*
X82346853Y-58184755D01*
X82217143Y-58150000D01*
X82082857Y-58150000D01*
X81953147Y-58184755D01*
X81950000Y-58186571D01*
X81950000Y-57410000D01*
X81268519Y-57410000D01*
X81257525Y-57411742D01*
X81188231Y-57402785D01*
X81134781Y-57357787D01*
X81114143Y-57291035D01*
X81132870Y-57223722D01*
X81150445Y-57201591D01*
X82800474Y-55551563D01*
X82800475Y-55551562D01*
X82806222Y-55545815D01*
X82807980Y-55547573D01*
X82854280Y-55513749D01*
X82924025Y-55509577D01*
X82979794Y-55538791D01*
X83103957Y-55651980D01*
X83103960Y-55651982D01*
X83124118Y-55664463D01*
X83277363Y-55759348D01*
X83467544Y-55833024D01*
X83668024Y-55870500D01*
X83668026Y-55870500D01*
X83871974Y-55870500D01*
X83871976Y-55870500D01*
X84072456Y-55833024D01*
X84262637Y-55759348D01*
X84436041Y-55651981D01*
X84581549Y-55519333D01*
X84586762Y-55514581D01*
X84586766Y-55514577D01*
X84709673Y-55351821D01*
X84793296Y-55183881D01*
X84840797Y-55132647D01*
X84908460Y-55115225D01*
X84936389Y-55119380D01*
X84938357Y-55119907D01*
X84938362Y-55119910D01*
X85033865Y-55145500D01*
X85132735Y-55145500D01*
X85190815Y-55145500D01*
X85257854Y-55165185D01*
X85301813Y-55214225D01*
X85370327Y-55351821D01*
X85420104Y-55417737D01*
X85493237Y-55514581D01*
X85643958Y-55651980D01*
X85643960Y-55651982D01*
X85664118Y-55664463D01*
X85817363Y-55759348D01*
X86007544Y-55833024D01*
X86208024Y-55870500D01*
X86208026Y-55870500D01*
X86411974Y-55870500D01*
X86411976Y-55870500D01*
X86612456Y-55833024D01*
X86802637Y-55759348D01*
X86976041Y-55651981D01*
X87121549Y-55519333D01*
X87126762Y-55514581D01*
X87126764Y-55514579D01*
X87249673Y-55351821D01*
X87340582Y-55169250D01*
X87383716Y-55017651D01*
X87420994Y-54958559D01*
X87484304Y-54929002D01*
X87553543Y-54938364D01*
X87606730Y-54983674D01*
X87622756Y-55019494D01*
X87670894Y-55199150D01*
X87670898Y-55199159D01*
X87763333Y-55397387D01*
X87888787Y-55576554D01*
X88043445Y-55731212D01*
X88222612Y-55856666D01*
X88420840Y-55949101D01*
X88420849Y-55949105D01*
X88630608Y-56005309D01*
X88690269Y-56041674D01*
X88720798Y-56104521D01*
X88712503Y-56173896D01*
X88686196Y-56212765D01*
X87877482Y-57021481D01*
X87816159Y-57054966D01*
X87789801Y-57057800D01*
X87279435Y-57057800D01*
X87180565Y-57057800D01*
X87085062Y-57083390D01*
X87085060Y-57083391D01*
X87085059Y-57083391D01*
X86999436Y-57132826D01*
X86929526Y-57202736D01*
X86880091Y-57288359D01*
X86880091Y-57288360D01*
X86880090Y-57288362D01*
X86854500Y-57383865D01*
X86854500Y-57383867D01*
X86854500Y-57540330D01*
X86834815Y-57607369D01*
X86782011Y-57653124D01*
X86775295Y-57655956D01*
X86737371Y-57670647D01*
X86737359Y-57670653D01*
X86563960Y-57778017D01*
X86563958Y-57778019D01*
X86413237Y-57915418D01*
X86290327Y-58078178D01*
X86199422Y-58260739D01*
X86199417Y-58260752D01*
X86143602Y-58456917D01*
X86124785Y-58659999D01*
X86124785Y-58660000D01*
X86143602Y-58863082D01*
X86199417Y-59059247D01*
X86199422Y-59059260D01*
X86290327Y-59241821D01*
X86413237Y-59404581D01*
X86563958Y-59541980D01*
X86563960Y-59541982D01*
X86613570Y-59572699D01*
X86737363Y-59649348D01*
X86927544Y-59723024D01*
X87128024Y-59760500D01*
X87128026Y-59760500D01*
X87331974Y-59760500D01*
X87331976Y-59760500D01*
X87532456Y-59723024D01*
X87722637Y-59649348D01*
X87896041Y-59541981D01*
X88046764Y-59404579D01*
X88169673Y-59241821D01*
X88260582Y-59059250D01*
X88316397Y-58863083D01*
X88335215Y-58660000D01*
X88316397Y-58456917D01*
X88260582Y-58260750D01*
X88256174Y-58251898D01*
X88205435Y-58150000D01*
X88169673Y-58078179D01*
X88089929Y-57972581D01*
X88065238Y-57907222D01*
X88079803Y-57838887D01*
X88129000Y-57789275D01*
X88141440Y-57783291D01*
X88141627Y-57783212D01*
X88141638Y-57783210D01*
X88227262Y-57733775D01*
X88297175Y-57663862D01*
X90410475Y-55550562D01*
X90410479Y-55550554D01*
X90411540Y-55549173D01*
X90412741Y-55548295D01*
X90416222Y-55544815D01*
X90416764Y-55545357D01*
X90467964Y-55507966D01*
X90537710Y-55503806D01*
X90593459Y-55533015D01*
X90710442Y-55639659D01*
X90746724Y-55699370D01*
X90744963Y-55769218D01*
X90714585Y-55818977D01*
X89539438Y-56994125D01*
X89469527Y-57064035D01*
X89469525Y-57064037D01*
X89469525Y-57064038D01*
X89420090Y-57149662D01*
X89420090Y-57149663D01*
X89400246Y-57223722D01*
X89398280Y-57231060D01*
X89398279Y-57231062D01*
X89394500Y-57245164D01*
X89394500Y-57540330D01*
X89374815Y-57607369D01*
X89322011Y-57653124D01*
X89315295Y-57655956D01*
X89277371Y-57670647D01*
X89277359Y-57670653D01*
X89103960Y-57778017D01*
X89103958Y-57778019D01*
X88953237Y-57915418D01*
X88830327Y-58078178D01*
X88739422Y-58260739D01*
X88739417Y-58260752D01*
X88683602Y-58456917D01*
X88664785Y-58659999D01*
X88664785Y-58660000D01*
X88683602Y-58863082D01*
X88739417Y-59059247D01*
X88739422Y-59059260D01*
X88830327Y-59241821D01*
X88953237Y-59404581D01*
X89103958Y-59541980D01*
X89103960Y-59541982D01*
X89153570Y-59572699D01*
X89277363Y-59649348D01*
X89467544Y-59723024D01*
X89668024Y-59760500D01*
X89668026Y-59760500D01*
X89871974Y-59760500D01*
X89871976Y-59760500D01*
X90072456Y-59723024D01*
X90262637Y-59649348D01*
X90436041Y-59541981D01*
X90456961Y-59522910D01*
X90519765Y-59492292D01*
X90589152Y-59500489D01*
X90643093Y-59544899D01*
X90664461Y-59611421D01*
X90664500Y-59614546D01*
X90664500Y-69311424D01*
X90644815Y-69378463D01*
X90592011Y-69424218D01*
X90522853Y-69434162D01*
X90459297Y-69405137D01*
X90452819Y-69399105D01*
X88004316Y-66950602D01*
X88004314Y-66950600D01*
X87902354Y-66891733D01*
X87890187Y-66884708D01*
X87801959Y-66861068D01*
X87762892Y-66850600D01*
X76365592Y-66850600D01*
X76233807Y-66850600D01*
X76233804Y-66850600D01*
X76217154Y-66855061D01*
X76217155Y-66855062D01*
X76106514Y-66884708D01*
X76106512Y-66884708D01*
X76106512Y-66884709D01*
X75992386Y-66950600D01*
X75992383Y-66950602D01*
X74029805Y-68913181D01*
X73968482Y-68946666D01*
X73942124Y-68949500D01*
X71675323Y-68949500D01*
X71602264Y-68964032D01*
X71602260Y-68964033D01*
X71519399Y-69019399D01*
X71464033Y-69102260D01*
X71464032Y-69102264D01*
X71449500Y-69175321D01*
X71449500Y-70824678D01*
X71464032Y-70897735D01*
X71464033Y-70897739D01*
X71464034Y-70897740D01*
X71519399Y-70980601D01*
X71574170Y-71017197D01*
X71602260Y-71035966D01*
X71602264Y-71035967D01*
X71675321Y-71050499D01*
X71675324Y-71050500D01*
X71675326Y-71050500D01*
X72375500Y-71050500D01*
X72442539Y-71070185D01*
X72488294Y-71122989D01*
X72499500Y-71174500D01*
X72499500Y-71235808D01*
X72499500Y-71367592D01*
X72506098Y-71392217D01*
X72533608Y-71494887D01*
X72566554Y-71551950D01*
X72599500Y-71609014D01*
X72599502Y-71609016D01*
X73319479Y-72328993D01*
X73352964Y-72390316D01*
X73347980Y-72460008D01*
X73306108Y-72515941D01*
X73255993Y-72538291D01*
X73252262Y-72539033D01*
X73252260Y-72539033D01*
X73169399Y-72594399D01*
X73114033Y-72677260D01*
X73114032Y-72677264D01*
X73099500Y-72750321D01*
X73099500Y-74249678D01*
X73114032Y-74322735D01*
X73114033Y-74322739D01*
X73121679Y-74334182D01*
X73169399Y-74405601D01*
X73234256Y-74448936D01*
X73252260Y-74460966D01*
X73252264Y-74460967D01*
X73325321Y-74475499D01*
X73325324Y-74475500D01*
X73325326Y-74475500D01*
X74674676Y-74475500D01*
X74674677Y-74475499D01*
X74747740Y-74460966D01*
X74759804Y-74452905D01*
X74835796Y-74402130D01*
X74902473Y-74381252D01*
X74969853Y-74399737D01*
X75015170Y-74448936D01*
X75022358Y-74463043D01*
X75022363Y-74463050D01*
X75111949Y-74552636D01*
X75111953Y-74552639D01*
X75224855Y-74610166D01*
X75318514Y-74624999D01*
X75799999Y-74624999D01*
X76200000Y-74624999D01*
X76681479Y-74624999D01*
X76775149Y-74610164D01*
X76775155Y-74610162D01*
X76888041Y-74552643D01*
X76888050Y-74552636D01*
X76977636Y-74463050D01*
X76977639Y-74463046D01*
X77035166Y-74350144D01*
X77050000Y-74256486D01*
X77050000Y-73700000D01*
X76200000Y-73700000D01*
X76200000Y-74624999D01*
X75799999Y-74624999D01*
X75800000Y-74624998D01*
X75800000Y-73300000D01*
X76200000Y-73300000D01*
X77049999Y-73300000D01*
X77049999Y-72743520D01*
X77035164Y-72649850D01*
X77035162Y-72649844D01*
X76977643Y-72536958D01*
X76977636Y-72536949D01*
X76888050Y-72447363D01*
X76888046Y-72447360D01*
X76775144Y-72389833D01*
X76681486Y-72375000D01*
X76200000Y-72375000D01*
X76200000Y-73300000D01*
X75800000Y-73300000D01*
X75800000Y-72375000D01*
X75318520Y-72375000D01*
X75224850Y-72389835D01*
X75224844Y-72389837D01*
X75111958Y-72447356D01*
X75111949Y-72447363D01*
X75022363Y-72536949D01*
X75022358Y-72536956D01*
X75015170Y-72551064D01*
X74967195Y-72601859D01*
X74899374Y-72618654D01*
X74835796Y-72597870D01*
X74747743Y-72539035D01*
X74747735Y-72539032D01*
X74674677Y-72524500D01*
X74674674Y-72524500D01*
X74624500Y-72524500D01*
X74557461Y-72504815D01*
X74511706Y-72452011D01*
X74500500Y-72400500D01*
X74500500Y-72207410D01*
X74500500Y-72207408D01*
X74466392Y-72080114D01*
X74400500Y-71965986D01*
X74307314Y-71872800D01*
X74254251Y-71842163D01*
X74228574Y-71822460D01*
X73668295Y-71262181D01*
X73634810Y-71200858D01*
X73639794Y-71131166D01*
X73681666Y-71075233D01*
X73747130Y-71050816D01*
X73755976Y-71050500D01*
X74324676Y-71050500D01*
X74324677Y-71050499D01*
X74397740Y-71035966D01*
X74480601Y-70980601D01*
X74535966Y-70897740D01*
X74550500Y-70824674D01*
X74550500Y-69859476D01*
X74570185Y-69792437D01*
X74586819Y-69771795D01*
X75237819Y-69120795D01*
X75299142Y-69087310D01*
X75368834Y-69092294D01*
X75424767Y-69134166D01*
X75449184Y-69199630D01*
X75449500Y-69208476D01*
X75449500Y-70824678D01*
X75464032Y-70897735D01*
X75464033Y-70897739D01*
X75464034Y-70897740D01*
X75519399Y-70980601D01*
X75574170Y-71017197D01*
X75602260Y-71035966D01*
X75602264Y-71035967D01*
X75675321Y-71050499D01*
X75675324Y-71050500D01*
X75675326Y-71050500D01*
X76375500Y-71050500D01*
X76442539Y-71070185D01*
X76488294Y-71122989D01*
X76499500Y-71174500D01*
X76499500Y-71235808D01*
X76499500Y-71367592D01*
X76506098Y-71392217D01*
X76533608Y-71494887D01*
X76566554Y-71551950D01*
X76599500Y-71609014D01*
X76892686Y-71902200D01*
X77006814Y-71968092D01*
X77134108Y-72002200D01*
X77134110Y-72002200D01*
X82065890Y-72002200D01*
X82065892Y-72002200D01*
X82193186Y-71968092D01*
X82307314Y-71902200D01*
X82400500Y-71809014D01*
X82466392Y-71694886D01*
X82500500Y-71567592D01*
X82500500Y-71374500D01*
X82520185Y-71307461D01*
X82572989Y-71261706D01*
X82624500Y-71250500D01*
X82824676Y-71250500D01*
X82824677Y-71250499D01*
X82897740Y-71235966D01*
X82980601Y-71180601D01*
X83035966Y-71097740D01*
X83050500Y-71024674D01*
X83050500Y-70624500D01*
X83070185Y-70557461D01*
X83122989Y-70511706D01*
X83174500Y-70500500D01*
X83235808Y-70500500D01*
X83826011Y-70500500D01*
X83893050Y-70520185D01*
X83928060Y-70554059D01*
X83977117Y-70625130D01*
X84095360Y-70729883D01*
X84095362Y-70729884D01*
X84235234Y-70803296D01*
X84388614Y-70841100D01*
X84388615Y-70841100D01*
X84546585Y-70841100D01*
X84699965Y-70803296D01*
X84839840Y-70729883D01*
X84958083Y-70625130D01*
X85047820Y-70495123D01*
X85103837Y-70347418D01*
X85122878Y-70190600D01*
X85120515Y-70171134D01*
X85103837Y-70033781D01*
X85078332Y-69966532D01*
X85047820Y-69886077D01*
X84958083Y-69756070D01*
X84839840Y-69651317D01*
X84839838Y-69651316D01*
X84839837Y-69651315D01*
X84699965Y-69577903D01*
X84546586Y-69540100D01*
X84546585Y-69540100D01*
X84510524Y-69540100D01*
X84478562Y-69533749D01*
X84478037Y-69535712D01*
X84470187Y-69533608D01*
X84470186Y-69533608D01*
X84342892Y-69499500D01*
X84342891Y-69499500D01*
X83174500Y-69499500D01*
X83107461Y-69479815D01*
X83061706Y-69427011D01*
X83050500Y-69375500D01*
X83050500Y-68975323D01*
X83050499Y-68975321D01*
X83035967Y-68902264D01*
X83035966Y-68902260D01*
X83010268Y-68863800D01*
X82980601Y-68819399D01*
X82980599Y-68819397D01*
X82980598Y-68819396D01*
X82976183Y-68814981D01*
X82942698Y-68753658D01*
X82947682Y-68683966D01*
X82989554Y-68628033D01*
X83055018Y-68603616D01*
X83063864Y-68603300D01*
X87050524Y-68603300D01*
X87117563Y-68622985D01*
X87138205Y-68639619D01*
X87690181Y-69191594D01*
X87723666Y-69252917D01*
X87726500Y-69279275D01*
X87726500Y-69705042D01*
X87706815Y-69772081D01*
X87704550Y-69775482D01*
X87646781Y-69859175D01*
X87646780Y-69859176D01*
X87590762Y-70006881D01*
X87571722Y-70163699D01*
X87571722Y-70163700D01*
X87590762Y-70320518D01*
X87639455Y-70448909D01*
X87646780Y-70468223D01*
X87736517Y-70598230D01*
X87854760Y-70702983D01*
X87854762Y-70702984D01*
X87994634Y-70776396D01*
X88148014Y-70814200D01*
X88148015Y-70814200D01*
X88305985Y-70814200D01*
X88459365Y-70776396D01*
X88459752Y-70776193D01*
X88599240Y-70702983D01*
X88717483Y-70598230D01*
X88807220Y-70468223D01*
X88863237Y-70320518D01*
X88882278Y-70163700D01*
X88878885Y-70135751D01*
X88863237Y-70006881D01*
X88832943Y-69927003D01*
X88807220Y-69859177D01*
X88749450Y-69775482D01*
X88727567Y-69709127D01*
X88727500Y-69705042D01*
X88727500Y-69388776D01*
X88747185Y-69321737D01*
X88799989Y-69275982D01*
X88869147Y-69266038D01*
X88932703Y-69295063D01*
X88939181Y-69301095D01*
X89631581Y-69993495D01*
X89665066Y-70054818D01*
X89667900Y-70081176D01*
X89667900Y-73527942D01*
X89648215Y-73594981D01*
X89645950Y-73598382D01*
X89588181Y-73682075D01*
X89588180Y-73682076D01*
X89532162Y-73829781D01*
X89513122Y-73986599D01*
X89513122Y-73986600D01*
X89532162Y-74143418D01*
X89572462Y-74249678D01*
X89588180Y-74291123D01*
X89677917Y-74421130D01*
X89796160Y-74525883D01*
X89796162Y-74525884D01*
X89936034Y-74599296D01*
X90089414Y-74637100D01*
X90089415Y-74637100D01*
X90247385Y-74637100D01*
X90400765Y-74599296D01*
X90482875Y-74556200D01*
X90551381Y-74542475D01*
X90616435Y-74567967D01*
X90657379Y-74624582D01*
X90664500Y-74665997D01*
X90664500Y-74963100D01*
X90644815Y-75030139D01*
X90628181Y-75050781D01*
X90295028Y-75383933D01*
X90233705Y-75417418D01*
X90164013Y-75412434D01*
X90162554Y-75411879D01*
X90072461Y-75376977D01*
X90029381Y-75368924D01*
X89871976Y-75339500D01*
X89668024Y-75339500D01*
X89467544Y-75376976D01*
X89467541Y-75376976D01*
X89467541Y-75376977D01*
X89277364Y-75450651D01*
X89277357Y-75450655D01*
X89103960Y-75558017D01*
X89103958Y-75558019D01*
X88953237Y-75695418D01*
X88830327Y-75858178D01*
X88739422Y-76040739D01*
X88739417Y-76040752D01*
X88683602Y-76236917D01*
X88664785Y-76439999D01*
X88664785Y-76440000D01*
X88683602Y-76643082D01*
X88739417Y-76839247D01*
X88739422Y-76839260D01*
X88830327Y-77021821D01*
X88953237Y-77184581D01*
X89103958Y-77321980D01*
X89103960Y-77321982D01*
X89203141Y-77383392D01*
X89277363Y-77429348D01*
X89467544Y-77503024D01*
X89668024Y-77540500D01*
X89668026Y-77540500D01*
X89871974Y-77540500D01*
X89871976Y-77540500D01*
X90072456Y-77503024D01*
X90262637Y-77429348D01*
X90436041Y-77321981D01*
X90586764Y-77184579D01*
X90709673Y-77021821D01*
X90800582Y-76839250D01*
X90856397Y-76643083D01*
X90875215Y-76440000D01*
X90874205Y-76429105D01*
X90856397Y-76236917D01*
X90841442Y-76184355D01*
X90800582Y-76040750D01*
X90800581Y-76040748D01*
X90799013Y-76035237D01*
X90800994Y-76034673D01*
X90795902Y-75974174D01*
X90828614Y-75912435D01*
X90829622Y-75911413D01*
X91340474Y-75400563D01*
X91344620Y-75393383D01*
X91351807Y-75380936D01*
X91389908Y-75314942D01*
X91389908Y-75314940D01*
X91389910Y-75314938D01*
X91409407Y-75242175D01*
X91415500Y-75219436D01*
X91415500Y-75120564D01*
X91415500Y-59614546D01*
X91435185Y-59547507D01*
X91487989Y-59501752D01*
X91557147Y-59491808D01*
X91620703Y-59520833D01*
X91623039Y-59522910D01*
X91643957Y-59541980D01*
X91643960Y-59541982D01*
X91693570Y-59572699D01*
X91817363Y-59649348D01*
X92007544Y-59723024D01*
X92208024Y-59760500D01*
X92208026Y-59760500D01*
X92411974Y-59760500D01*
X92411976Y-59760500D01*
X92612456Y-59723024D01*
X92802637Y-59649348D01*
X92976041Y-59541981D01*
X92996961Y-59522910D01*
X93059765Y-59492292D01*
X93129152Y-59500489D01*
X93183093Y-59544899D01*
X93204461Y-59611421D01*
X93204500Y-59614546D01*
X93204500Y-74963100D01*
X93184815Y-75030139D01*
X93168181Y-75050781D01*
X92835028Y-75383933D01*
X92773705Y-75417418D01*
X92704013Y-75412434D01*
X92702554Y-75411879D01*
X92612461Y-75376977D01*
X92569381Y-75368924D01*
X92411976Y-75339500D01*
X92208024Y-75339500D01*
X92007544Y-75376976D01*
X92007541Y-75376976D01*
X92007541Y-75376977D01*
X91817364Y-75450651D01*
X91817357Y-75450655D01*
X91643960Y-75558017D01*
X91643958Y-75558019D01*
X91493237Y-75695418D01*
X91370327Y-75858178D01*
X91279422Y-76040739D01*
X91279417Y-76040752D01*
X91223602Y-76236917D01*
X91204785Y-76439999D01*
X91204785Y-76440000D01*
X91223602Y-76643082D01*
X91279417Y-76839247D01*
X91279422Y-76839260D01*
X91370327Y-77021821D01*
X91493237Y-77184581D01*
X91643958Y-77321980D01*
X91643960Y-77321982D01*
X91743141Y-77383392D01*
X91817363Y-77429348D01*
X92007544Y-77503024D01*
X92208024Y-77540500D01*
X92208026Y-77540500D01*
X92411974Y-77540500D01*
X92411976Y-77540500D01*
X92612456Y-77503024D01*
X92802637Y-77429348D01*
X92976041Y-77321981D01*
X93126764Y-77184579D01*
X93249673Y-77021821D01*
X93340582Y-76839250D01*
X93356736Y-76782475D01*
X93394012Y-76723386D01*
X93457321Y-76693828D01*
X93526561Y-76703189D01*
X93579748Y-76748499D01*
X93599996Y-76815370D01*
X93600000Y-76816413D01*
X93600000Y-77321479D01*
X93614835Y-77415149D01*
X93614837Y-77415155D01*
X93672356Y-77528041D01*
X93672363Y-77528050D01*
X93761949Y-77617636D01*
X93761953Y-77617639D01*
X93874855Y-77675166D01*
X93968514Y-77689999D01*
X94649999Y-77689999D01*
X94650000Y-77689998D01*
X94650000Y-76913428D01*
X94653147Y-76915245D01*
X94782857Y-76950000D01*
X94917143Y-76950000D01*
X95046853Y-76915245D01*
X95050000Y-76913428D01*
X95050000Y-77689999D01*
X95731479Y-77689999D01*
X95825149Y-77675164D01*
X95825155Y-77675162D01*
X95938041Y-77617643D01*
X95938046Y-77617639D01*
X95997390Y-77558295D01*
X96058713Y-77524810D01*
X96128405Y-77529794D01*
X96184339Y-77571665D01*
X96208648Y-77635736D01*
X96225385Y-77837729D01*
X96225387Y-77837738D01*
X96286412Y-78078717D01*
X96386266Y-78306364D01*
X96514506Y-78502650D01*
X97427158Y-77590000D01*
X96514505Y-76677347D01*
X96386267Y-76873632D01*
X96337556Y-76984684D01*
X96292600Y-77038170D01*
X96225864Y-77058860D01*
X96158536Y-77040185D01*
X96111993Y-76988075D01*
X96100000Y-76934874D01*
X96100000Y-76640000D01*
X95323428Y-76640000D01*
X95325245Y-76636853D01*
X95360000Y-76507143D01*
X95360000Y-76372857D01*
X95325245Y-76243147D01*
X95323428Y-76240000D01*
X96099999Y-76240000D01*
X96099999Y-75558520D01*
X96085164Y-75464850D01*
X96085162Y-75464844D01*
X96027643Y-75351958D01*
X96027636Y-75351949D01*
X95938050Y-75262363D01*
X95938046Y-75262360D01*
X95825144Y-75204833D01*
X95731486Y-75190000D01*
X95050000Y-75190000D01*
X95050000Y-75966571D01*
X95046853Y-75964755D01*
X94917143Y-75930000D01*
X94782857Y-75930000D01*
X94653147Y-75964755D01*
X94650000Y-75966571D01*
X94650000Y-75190000D01*
X94079500Y-75190000D01*
X94012461Y-75170315D01*
X93966706Y-75117511D01*
X93955500Y-75066000D01*
X93955500Y-62299998D01*
X98794318Y-62299998D01*
X98794318Y-62300001D01*
X98814955Y-62456760D01*
X98814956Y-62456762D01*
X98850577Y-62542760D01*
X98875464Y-62602841D01*
X98971718Y-62728282D01*
X99097159Y-62824536D01*
X99097160Y-62824536D01*
X99097161Y-62824537D01*
X99155588Y-62848738D01*
X99209992Y-62892578D01*
X99232057Y-62958872D01*
X99214778Y-63026572D01*
X99183623Y-63061674D01*
X99123620Y-63107716D01*
X99027363Y-63233160D01*
X98966856Y-63379237D01*
X98966855Y-63379239D01*
X98946218Y-63535998D01*
X98946218Y-63536001D01*
X98966855Y-63692760D01*
X98966856Y-63692762D01*
X99007424Y-63790703D01*
X99027364Y-63838841D01*
X99123618Y-63964282D01*
X99249059Y-64060536D01*
X99395138Y-64121044D01*
X99448119Y-64128019D01*
X99551899Y-64141682D01*
X99551900Y-64141682D01*
X99551901Y-64141682D01*
X99618264Y-64132945D01*
X99708662Y-64121044D01*
X99854741Y-64060536D01*
X99980182Y-63964282D01*
X100076436Y-63838841D01*
X100116664Y-63741723D01*
X100123447Y-63725347D01*
X100167288Y-63670944D01*
X100233582Y-63648879D01*
X100238008Y-63648800D01*
X103314235Y-63648800D01*
X103314236Y-63648800D01*
X103361986Y-63636005D01*
X103409738Y-63623210D01*
X103495362Y-63573775D01*
X103565275Y-63503862D01*
X103565274Y-63503862D01*
X103623843Y-63445293D01*
X104042901Y-63026235D01*
X104104222Y-62992752D01*
X104146769Y-62990980D01*
X104152100Y-62991682D01*
X104308862Y-62971044D01*
X104454941Y-62910536D01*
X104580382Y-62814282D01*
X104676636Y-62688841D01*
X104737144Y-62542762D01*
X104757782Y-62386000D01*
X104737144Y-62229238D01*
X104676636Y-62083159D01*
X104580382Y-61957718D01*
X104454941Y-61861464D01*
X104308862Y-61800956D01*
X104308860Y-61800955D01*
X104152101Y-61780318D01*
X104152099Y-61780318D01*
X103995339Y-61800955D01*
X103995337Y-61800956D01*
X103849260Y-61861463D01*
X103723818Y-61957718D01*
X103627563Y-62083160D01*
X103567056Y-62229237D01*
X103567055Y-62229239D01*
X103546418Y-62385998D01*
X103546418Y-62386007D01*
X103547120Y-62391343D01*
X103536349Y-62460377D01*
X103511861Y-62495199D01*
X103145580Y-62861482D01*
X103084260Y-62894966D01*
X103057901Y-62897800D01*
X102849653Y-62897800D01*
X102782614Y-62878115D01*
X102736859Y-62825311D01*
X102726915Y-62756153D01*
X102751275Y-62698315D01*
X102824536Y-62602841D01*
X102885044Y-62456762D01*
X102905228Y-62303451D01*
X102905682Y-62300001D01*
X102905682Y-62299998D01*
X102885044Y-62143239D01*
X102885044Y-62143238D01*
X102824536Y-61997159D01*
X102728282Y-61871718D01*
X102602841Y-61775464D01*
X102534574Y-61747187D01*
X102456762Y-61714956D01*
X102456760Y-61714955D01*
X102300001Y-61694318D01*
X102299999Y-61694318D01*
X102143239Y-61714955D01*
X102143237Y-61714956D01*
X101997160Y-61775463D01*
X101997159Y-61775464D01*
X101871718Y-61871718D01*
X101871716Y-61871719D01*
X101871715Y-61871721D01*
X101868441Y-61875988D01*
X101812013Y-61917190D01*
X101770067Y-61924500D01*
X99929933Y-61924500D01*
X99862894Y-61904815D01*
X99831559Y-61875988D01*
X99828284Y-61871721D01*
X99828282Y-61871718D01*
X99702841Y-61775464D01*
X99634574Y-61747187D01*
X99556762Y-61714956D01*
X99556760Y-61714955D01*
X99400001Y-61694318D01*
X99399999Y-61694318D01*
X99243239Y-61714955D01*
X99243237Y-61714956D01*
X99097160Y-61775463D01*
X98971718Y-61871718D01*
X98875463Y-61997160D01*
X98814956Y-62143237D01*
X98814955Y-62143239D01*
X98794318Y-62299998D01*
X93955500Y-62299998D01*
X93955500Y-60033999D01*
X93975185Y-59966960D01*
X94027989Y-59921205D01*
X94079500Y-59909999D01*
X94649999Y-59909999D01*
X94650000Y-59909998D01*
X94650000Y-59133428D01*
X94653147Y-59135245D01*
X94782857Y-59170000D01*
X94917143Y-59170000D01*
X95046853Y-59135245D01*
X95050000Y-59133428D01*
X95050000Y-59909999D01*
X95731479Y-59909999D01*
X95825149Y-59895164D01*
X95825155Y-59895162D01*
X95938041Y-59837643D01*
X95938050Y-59837636D01*
X96027636Y-59748050D01*
X96027639Y-59748046D01*
X96085166Y-59635144D01*
X96099999Y-59541485D01*
X96099999Y-59036415D01*
X96119683Y-58969376D01*
X96172487Y-58923621D01*
X96241646Y-58913677D01*
X96305202Y-58942702D01*
X96342976Y-59001480D01*
X96343265Y-59002479D01*
X96357637Y-59052992D01*
X96359418Y-59059249D01*
X96359422Y-59059260D01*
X96450327Y-59241821D01*
X96573237Y-59404581D01*
X96723958Y-59541980D01*
X96723960Y-59541982D01*
X96773570Y-59572699D01*
X96897363Y-59649348D01*
X97087544Y-59723024D01*
X97288024Y-59760500D01*
X97288026Y-59760500D01*
X97491974Y-59760500D01*
X97491976Y-59760500D01*
X97692456Y-59723024D01*
X97882637Y-59649348D01*
X98056041Y-59541981D01*
X98206764Y-59404579D01*
X98329673Y-59241821D01*
X98420582Y-59059250D01*
X98476397Y-58863083D01*
X98495215Y-58660000D01*
X98476397Y-58456917D01*
X98420582Y-58260750D01*
X98416174Y-58251898D01*
X98365435Y-58150000D01*
X98329673Y-58078179D01*
X98213414Y-57924227D01*
X98188722Y-57858865D01*
X98203287Y-57790531D01*
X98252485Y-57740918D01*
X98312368Y-57725500D01*
X99007632Y-57725500D01*
X99074671Y-57745185D01*
X99120426Y-57797989D01*
X99130370Y-57867147D01*
X99106586Y-57924227D01*
X98990327Y-58078178D01*
X98899422Y-58260739D01*
X98899417Y-58260752D01*
X98843602Y-58456917D01*
X98824785Y-58659999D01*
X98824785Y-58660000D01*
X98843602Y-58863082D01*
X98899417Y-59059247D01*
X98899422Y-59059260D01*
X98990327Y-59241821D01*
X99113237Y-59404581D01*
X99263958Y-59541980D01*
X99263960Y-59541982D01*
X99313570Y-59572699D01*
X99437363Y-59649348D01*
X99613905Y-59717740D01*
X99669306Y-59760313D01*
X99692897Y-59826080D01*
X99678256Y-59889519D01*
X99678574Y-59889651D01*
X99677789Y-59891545D01*
X99677186Y-59894160D01*
X99676501Y-59895362D01*
X99675465Y-59897156D01*
X99614956Y-60043237D01*
X99614955Y-60043239D01*
X99594318Y-60199998D01*
X99594318Y-60200001D01*
X99614955Y-60356760D01*
X99614956Y-60356762D01*
X99640917Y-60419438D01*
X99654839Y-60453047D01*
X99662308Y-60522516D01*
X99631033Y-60584996D01*
X99570944Y-60620648D01*
X99540278Y-60624500D01*
X99129933Y-60624500D01*
X99062894Y-60604815D01*
X99031559Y-60575988D01*
X99028284Y-60571721D01*
X99028282Y-60571718D01*
X98902841Y-60475464D01*
X98902737Y-60475421D01*
X98756762Y-60414956D01*
X98756760Y-60414955D01*
X98600001Y-60394318D01*
X98599999Y-60394318D01*
X98443239Y-60414955D01*
X98443237Y-60414956D01*
X98297160Y-60475463D01*
X98171718Y-60571718D01*
X98075463Y-60697160D01*
X98014956Y-60843237D01*
X98014955Y-60843239D01*
X97994318Y-60999998D01*
X97994318Y-61000001D01*
X98014955Y-61156760D01*
X98014956Y-61156762D01*
X98075464Y-61302841D01*
X98171718Y-61428282D01*
X98297159Y-61524536D01*
X98443238Y-61585044D01*
X98521619Y-61595363D01*
X98599999Y-61605682D01*
X98600000Y-61605682D01*
X98600001Y-61605682D01*
X98652254Y-61598802D01*
X98756762Y-61585044D01*
X98902841Y-61524536D01*
X99028282Y-61428282D01*
X99030490Y-61425404D01*
X99031559Y-61424012D01*
X99087987Y-61382810D01*
X99129933Y-61375500D01*
X105970067Y-61375500D01*
X106037106Y-61395185D01*
X106068441Y-61424012D01*
X106071328Y-61427774D01*
X106071718Y-61428282D01*
X106197159Y-61524536D01*
X106343238Y-61585044D01*
X106421619Y-61595363D01*
X106499999Y-61605682D01*
X106500000Y-61605682D01*
X106500001Y-61605682D01*
X106552254Y-61598802D01*
X106656762Y-61585044D01*
X106802841Y-61524536D01*
X106928282Y-61428282D01*
X107024536Y-61302841D01*
X107085044Y-61156762D01*
X107105682Y-61000000D01*
X107095068Y-60919382D01*
X107085044Y-60843239D01*
X107085044Y-60843238D01*
X107024536Y-60697159D01*
X106928282Y-60571718D01*
X106802841Y-60475464D01*
X106802737Y-60475421D01*
X106667582Y-60419438D01*
X106656762Y-60414956D01*
X106631486Y-60411628D01*
X106564058Y-60402751D01*
X106500162Y-60374484D01*
X106461691Y-60316160D01*
X106457305Y-60263628D01*
X106465682Y-60200000D01*
X106445044Y-60043238D01*
X106445042Y-60043234D01*
X106444044Y-60035650D01*
X106454809Y-59966615D01*
X106501189Y-59914359D01*
X106568458Y-59895473D01*
X106586381Y-59896991D01*
X106668514Y-59909999D01*
X107349999Y-59909999D01*
X107350000Y-59909998D01*
X107350000Y-59133428D01*
X107353147Y-59135245D01*
X107482857Y-59170000D01*
X107617143Y-59170000D01*
X107746853Y-59135245D01*
X107750000Y-59133428D01*
X107750000Y-59909999D01*
X108320500Y-59909999D01*
X108387539Y-59929684D01*
X108433294Y-59982488D01*
X108444500Y-60033999D01*
X108444500Y-62793101D01*
X108424815Y-62860140D01*
X108408181Y-62880782D01*
X107699526Y-63589436D01*
X107650091Y-63675059D01*
X107650091Y-63675060D01*
X107650090Y-63675062D01*
X107624500Y-63770565D01*
X107624500Y-63770567D01*
X107624500Y-68165186D01*
X107604815Y-68232225D01*
X107552011Y-68277980D01*
X107482853Y-68287924D01*
X107419297Y-68258899D01*
X107398925Y-68236309D01*
X107288494Y-68078597D01*
X107121402Y-67911506D01*
X107121395Y-67911501D01*
X106927834Y-67775967D01*
X106927830Y-67775965D01*
X106871406Y-67749654D01*
X106713663Y-67676097D01*
X106713659Y-67676096D01*
X106713655Y-67676094D01*
X106485413Y-67614938D01*
X106485403Y-67614936D01*
X106250001Y-67594341D01*
X106249999Y-67594341D01*
X106014596Y-67614936D01*
X106014586Y-67614938D01*
X105786344Y-67676094D01*
X105786335Y-67676098D01*
X105572171Y-67775964D01*
X105572169Y-67775965D01*
X105378597Y-67911505D01*
X105211505Y-68078597D01*
X105075965Y-68272169D01*
X105075964Y-68272171D01*
X104976098Y-68486335D01*
X104976094Y-68486344D01*
X104914938Y-68714586D01*
X104914936Y-68714596D01*
X104894341Y-68949999D01*
X104894341Y-68950000D01*
X104914936Y-69185403D01*
X104914938Y-69185413D01*
X104976094Y-69413655D01*
X104976096Y-69413659D01*
X104976097Y-69413663D01*
X105068990Y-69612872D01*
X105075965Y-69627830D01*
X105075967Y-69627834D01*
X105165760Y-69756070D01*
X105211501Y-69821396D01*
X105211506Y-69821402D01*
X105318813Y-69928709D01*
X105352298Y-69990032D01*
X105347314Y-70059724D01*
X105318813Y-70104071D01*
X103619005Y-71803881D01*
X103557682Y-71837366D01*
X103531324Y-71840200D01*
X103116576Y-71840200D01*
X103049537Y-71820515D01*
X103003782Y-71767711D01*
X102993838Y-71698553D01*
X103022863Y-71634997D01*
X103028895Y-71628519D01*
X103333027Y-71324386D01*
X103435682Y-71221730D01*
X103493685Y-71189016D01*
X103642265Y-71152396D01*
X103782140Y-71078983D01*
X103900383Y-70974230D01*
X103990120Y-70844223D01*
X104046137Y-70696518D01*
X104065178Y-70539700D01*
X104064431Y-70533543D01*
X104046137Y-70382881D01*
X104023231Y-70322484D01*
X103990120Y-70235177D01*
X103900383Y-70105170D01*
X103782140Y-70000417D01*
X103782138Y-70000416D01*
X103782137Y-70000415D01*
X103642265Y-69927003D01*
X103488886Y-69889200D01*
X103488885Y-69889200D01*
X103330915Y-69889200D01*
X103330914Y-69889200D01*
X103177534Y-69927003D01*
X103037662Y-70000415D01*
X102919416Y-70105171D01*
X102829681Y-70235174D01*
X102810644Y-70285371D01*
X102768465Y-70341073D01*
X102702867Y-70365130D01*
X102634677Y-70349903D01*
X102592652Y-70311839D01*
X102551042Y-70251557D01*
X102511983Y-70194970D01*
X102393740Y-70090217D01*
X102393738Y-70090216D01*
X102393737Y-70090215D01*
X102253865Y-70016803D01*
X102100486Y-69979000D01*
X102100485Y-69979000D01*
X101942515Y-69979000D01*
X101935015Y-69979000D01*
X101935015Y-69975749D01*
X101880448Y-69966532D01*
X101847031Y-69942717D01*
X101473219Y-69568905D01*
X101439734Y-69507582D01*
X101436900Y-69481224D01*
X101436900Y-69088906D01*
X101436756Y-69088370D01*
X101436738Y-69088304D01*
X101425453Y-69046187D01*
X101402792Y-68961614D01*
X101395798Y-68949500D01*
X101336900Y-68847486D01*
X101243714Y-68754300D01*
X101243713Y-68754299D01*
X101239383Y-68749969D01*
X101239372Y-68749959D01*
X100715616Y-68226202D01*
X100715615Y-68226201D01*
X100715614Y-68226200D01*
X100654617Y-68190983D01*
X100601487Y-68160308D01*
X100537839Y-68143254D01*
X100474192Y-68126200D01*
X100474191Y-68126200D01*
X100081875Y-68126200D01*
X100014836Y-68106515D01*
X99994194Y-68089881D01*
X99958174Y-68053861D01*
X99924689Y-67992538D01*
X99922759Y-67981125D01*
X99920653Y-67963781D01*
X99916137Y-67926582D01*
X99910419Y-67911506D01*
X99887342Y-67850655D01*
X99860120Y-67778877D01*
X99770383Y-67648870D01*
X99652140Y-67544117D01*
X99652138Y-67544116D01*
X99652137Y-67544115D01*
X99512265Y-67470703D01*
X99358886Y-67432900D01*
X99358885Y-67432900D01*
X99200915Y-67432900D01*
X99200914Y-67432900D01*
X99047534Y-67470703D01*
X98907662Y-67544115D01*
X98789416Y-67648871D01*
X98699681Y-67778875D01*
X98699680Y-67778876D01*
X98643662Y-67926581D01*
X98624622Y-68083399D01*
X98624622Y-68083400D01*
X98643662Y-68240218D01*
X98699680Y-68387923D01*
X98789417Y-68517930D01*
X98907660Y-68622683D01*
X98907662Y-68622684D01*
X99047534Y-68696096D01*
X99047533Y-68696096D01*
X99154606Y-68722486D01*
X99196112Y-68732716D01*
X99254119Y-68765432D01*
X99418359Y-68929672D01*
X99418369Y-68929683D01*
X99422699Y-68934013D01*
X99422700Y-68934014D01*
X99515886Y-69027200D01*
X99621832Y-69088368D01*
X99630014Y-69093092D01*
X99757307Y-69127200D01*
X99757308Y-69127200D01*
X100149624Y-69127200D01*
X100216663Y-69146885D01*
X100237300Y-69163514D01*
X100399582Y-69325795D01*
X100433066Y-69387117D01*
X100435900Y-69413475D01*
X100435900Y-69434934D01*
X100416215Y-69501973D01*
X100363411Y-69547728D01*
X100294253Y-69557672D01*
X100271769Y-69551867D01*
X100114886Y-69513200D01*
X100114885Y-69513200D01*
X99956915Y-69513200D01*
X99956914Y-69513200D01*
X99803534Y-69551003D01*
X99663662Y-69624415D01*
X99545416Y-69729171D01*
X99455681Y-69859175D01*
X99455680Y-69859176D01*
X99399662Y-70006881D01*
X99380622Y-70163699D01*
X99380622Y-70163700D01*
X99399662Y-70320518D01*
X99448355Y-70448909D01*
X99455680Y-70468223D01*
X99545417Y-70598230D01*
X99663660Y-70702983D01*
X99663662Y-70702984D01*
X99803534Y-70776396D01*
X99803533Y-70776396D01*
X99952111Y-70813016D01*
X100010118Y-70845732D01*
X100021694Y-70857308D01*
X100055179Y-70918631D01*
X100050195Y-70988323D01*
X100008323Y-71044256D01*
X99991640Y-71054785D01*
X99851161Y-71128516D01*
X99810875Y-71164206D01*
X99738461Y-71228359D01*
X99732916Y-71233271D01*
X99643181Y-71363275D01*
X99643180Y-71363276D01*
X99587162Y-71510981D01*
X99568122Y-71667799D01*
X99568122Y-71667800D01*
X99587162Y-71824618D01*
X99639197Y-71961821D01*
X99643180Y-71972323D01*
X99732917Y-72102330D01*
X99851160Y-72207083D01*
X99851162Y-72207084D01*
X99991034Y-72280496D01*
X99991033Y-72280496D01*
X100139611Y-72317116D01*
X100197618Y-72349832D01*
X100491459Y-72643672D01*
X100491469Y-72643683D01*
X100495799Y-72648013D01*
X100495800Y-72648014D01*
X100588986Y-72741200D01*
X100703114Y-72807092D01*
X100830407Y-72841200D01*
X100830408Y-72841200D01*
X102505712Y-72841200D01*
X102572751Y-72860885D01*
X102618506Y-72913689D01*
X102628450Y-72982847D01*
X102618094Y-73017605D01*
X102516098Y-73236335D01*
X102516094Y-73236344D01*
X102454938Y-73464586D01*
X102454936Y-73464596D01*
X102434341Y-73699999D01*
X102434341Y-73700000D01*
X102454936Y-73935403D01*
X102454938Y-73935413D01*
X102516094Y-74163655D01*
X102516096Y-74163659D01*
X102516097Y-74163663D01*
X102562309Y-74262765D01*
X102615965Y-74377830D01*
X102615967Y-74377834D01*
X102719633Y-74525883D01*
X102751505Y-74571401D01*
X102918599Y-74738495D01*
X102950967Y-74761159D01*
X103112165Y-74874032D01*
X103112166Y-74874032D01*
X103112170Y-74874035D01*
X103167002Y-74899604D01*
X103172664Y-74902244D01*
X103225103Y-74948417D01*
X103244255Y-75015610D01*
X103224039Y-75082492D01*
X103196422Y-75112479D01*
X103190180Y-75117336D01*
X103190180Y-75117338D01*
X104100000Y-76027158D01*
X104100001Y-76027158D01*
X105009818Y-75117338D01*
X105009818Y-75117337D01*
X104923230Y-75049943D01*
X104923228Y-75049942D01*
X104700098Y-74929191D01*
X104700884Y-74927737D01*
X104653028Y-74887494D01*
X104632354Y-74820753D01*
X104651044Y-74753430D01*
X104668659Y-74731237D01*
X104733899Y-74665997D01*
X104828495Y-74571401D01*
X104964035Y-74377830D01*
X105063903Y-74163663D01*
X105125063Y-73935408D01*
X105145659Y-73700000D01*
X105125063Y-73464592D01*
X105063903Y-73236337D01*
X104964035Y-73022171D01*
X104936501Y-72982847D01*
X104828494Y-72828597D01*
X104661402Y-72661506D01*
X104661401Y-72661505D01*
X104497550Y-72546775D01*
X104453926Y-72492198D01*
X104446733Y-72422699D01*
X104478255Y-72360345D01*
X104480961Y-72357551D01*
X106554863Y-70283649D01*
X106610449Y-70251557D01*
X106713663Y-70223903D01*
X106927830Y-70124035D01*
X107121401Y-69988495D01*
X107288495Y-69821401D01*
X107396783Y-69666750D01*
X107398925Y-69663691D01*
X107453502Y-69620066D01*
X107523000Y-69612872D01*
X107585355Y-69644395D01*
X107620769Y-69704625D01*
X107624500Y-69734814D01*
X107624500Y-71329435D01*
X107650090Y-71424938D01*
X107690474Y-71494886D01*
X107699526Y-71510563D01*
X108408181Y-72219218D01*
X108441666Y-72280541D01*
X108444500Y-72306899D01*
X108444500Y-75066000D01*
X108424815Y-75133039D01*
X108372011Y-75178794D01*
X108320500Y-75190000D01*
X107750000Y-75190000D01*
X107750000Y-75966571D01*
X107746853Y-75964755D01*
X107617143Y-75930000D01*
X107482857Y-75930000D01*
X107353147Y-75964755D01*
X107350000Y-75966571D01*
X107350000Y-75190000D01*
X107254819Y-75190000D01*
X107187780Y-75170315D01*
X107142025Y-75117511D01*
X107132081Y-75048353D01*
X107161106Y-74984797D01*
X107172592Y-74973184D01*
X107181023Y-74965715D01*
X107226383Y-74925530D01*
X107316120Y-74795523D01*
X107372137Y-74647818D01*
X107391178Y-74491000D01*
X107388524Y-74469138D01*
X107372137Y-74334181D01*
X107331829Y-74227898D01*
X107316120Y-74186477D01*
X107226383Y-74056470D01*
X107108140Y-73951717D01*
X107108138Y-73951716D01*
X107108137Y-73951715D01*
X106968265Y-73878303D01*
X106814886Y-73840500D01*
X106814885Y-73840500D01*
X106656915Y-73840500D01*
X106656914Y-73840500D01*
X106503534Y-73878303D01*
X106363662Y-73951715D01*
X106245416Y-74056471D01*
X106155681Y-74186475D01*
X106155680Y-74186476D01*
X106099663Y-74334178D01*
X106099662Y-74334182D01*
X106093039Y-74388728D01*
X106065416Y-74452905D01*
X106057624Y-74461460D01*
X105550486Y-74968600D01*
X105457302Y-75061783D01*
X105457300Y-75061786D01*
X105391408Y-75175912D01*
X105355197Y-75311058D01*
X105352725Y-75310395D01*
X105329616Y-75362618D01*
X105322634Y-75370205D01*
X104329101Y-76363739D01*
X104267778Y-76397224D01*
X104198087Y-76392240D01*
X104153739Y-76363739D01*
X104100000Y-76310000D01*
X104046260Y-76363740D01*
X103984937Y-76397225D01*
X103915245Y-76392241D01*
X103870898Y-76363740D01*
X102904505Y-75397347D01*
X102776267Y-75593632D01*
X102676412Y-75821282D01*
X102615387Y-76062261D01*
X102615386Y-76062268D01*
X102612959Y-76091550D01*
X102587804Y-76156734D01*
X102531401Y-76197971D01*
X102461658Y-76202168D01*
X102401702Y-76168988D01*
X99897716Y-73665002D01*
X99897715Y-73665001D01*
X99897714Y-73665000D01*
X99838772Y-73630970D01*
X99783587Y-73599108D01*
X99719939Y-73582054D01*
X99656292Y-73565000D01*
X99656291Y-73565000D01*
X98031044Y-73565000D01*
X97964005Y-73545315D01*
X97948820Y-73533818D01*
X97940240Y-73526217D01*
X97940238Y-73526216D01*
X97940237Y-73526215D01*
X97940233Y-73526212D01*
X97800365Y-73452803D01*
X97646986Y-73415000D01*
X97646985Y-73415000D01*
X97489015Y-73415000D01*
X97489014Y-73415000D01*
X97335634Y-73452803D01*
X97195762Y-73526215D01*
X97150197Y-73566582D01*
X97110444Y-73601800D01*
X97077516Y-73630971D01*
X96987781Y-73760975D01*
X96987780Y-73760976D01*
X96931762Y-73908681D01*
X96912722Y-74065499D01*
X96912722Y-74065500D01*
X96931762Y-74222318D01*
X96969848Y-74322740D01*
X96987780Y-74370023D01*
X97077517Y-74500030D01*
X97195760Y-74604783D01*
X97195762Y-74604784D01*
X97335634Y-74678196D01*
X97489014Y-74716000D01*
X97489015Y-74716000D01*
X97646985Y-74716000D01*
X97800365Y-74678196D01*
X97940233Y-74604787D01*
X97940234Y-74604785D01*
X97940240Y-74604783D01*
X97948818Y-74597183D01*
X98012050Y-74567463D01*
X98031044Y-74566000D01*
X99331724Y-74566000D01*
X99398763Y-74585685D01*
X99419405Y-74602319D01*
X99782801Y-74965715D01*
X99944906Y-75127819D01*
X99978391Y-75189142D01*
X99973407Y-75258833D01*
X99931536Y-75314767D01*
X99866071Y-75339184D01*
X99857225Y-75339500D01*
X99828024Y-75339500D01*
X99627544Y-75376976D01*
X99627541Y-75376976D01*
X99627541Y-75376977D01*
X99437364Y-75450651D01*
X99437357Y-75450655D01*
X99263960Y-75558017D01*
X99263958Y-75558019D01*
X99113237Y-75695418D01*
X98990327Y-75858178D01*
X98899422Y-76040739D01*
X98899417Y-76040752D01*
X98843602Y-76236917D01*
X98835581Y-76323481D01*
X98809794Y-76388418D01*
X98752993Y-76429105D01*
X98683212Y-76432625D01*
X98635947Y-76409892D01*
X98533231Y-76329944D01*
X98533228Y-76329942D01*
X98314614Y-76211635D01*
X98314603Y-76211630D01*
X98079493Y-76130916D01*
X97834293Y-76090000D01*
X97585707Y-76090000D01*
X97340506Y-76130916D01*
X97105396Y-76211630D01*
X97105385Y-76211635D01*
X96886768Y-76329944D01*
X96886765Y-76329946D01*
X96800180Y-76397337D01*
X96800180Y-76397338D01*
X97851421Y-77448579D01*
X98905492Y-78502651D01*
X99033731Y-78306369D01*
X99133587Y-78078717D01*
X99194612Y-77837738D01*
X99194614Y-77837729D01*
X99215141Y-77590005D01*
X99215141Y-77589995D01*
X99209407Y-77520805D01*
X99223487Y-77452369D01*
X99272332Y-77402409D01*
X99340433Y-77386788D01*
X99398260Y-77405137D01*
X99414440Y-77415155D01*
X99437363Y-77429348D01*
X99627544Y-77503024D01*
X99828024Y-77540500D01*
X99828026Y-77540500D01*
X100031974Y-77540500D01*
X100031976Y-77540500D01*
X100232456Y-77503024D01*
X100422637Y-77429348D01*
X100596041Y-77321981D01*
X100746764Y-77184579D01*
X100869673Y-77021821D01*
X100960582Y-76839250D01*
X101016397Y-76643083D01*
X101029658Y-76499963D01*
X101055444Y-76435027D01*
X101112244Y-76394339D01*
X101182025Y-76390819D01*
X101240810Y-76423724D01*
X103031759Y-78214672D01*
X103031769Y-78214683D01*
X103036099Y-78219013D01*
X103036100Y-78219014D01*
X103129286Y-78312200D01*
X103243414Y-78378092D01*
X103370707Y-78412200D01*
X103370708Y-78412200D01*
X103370709Y-78412200D01*
X104829390Y-78412200D01*
X104829392Y-78412200D01*
X104956686Y-78378092D01*
X105070814Y-78312200D01*
X106095313Y-77287700D01*
X106156634Y-77254217D01*
X106226326Y-77259201D01*
X106282259Y-77301073D01*
X106305466Y-77355987D01*
X106314835Y-77415149D01*
X106314837Y-77415155D01*
X106372356Y-77528041D01*
X106372363Y-77528050D01*
X106461949Y-77617636D01*
X106461953Y-77617639D01*
X106574855Y-77675166D01*
X106668514Y-77689999D01*
X107349999Y-77689999D01*
X107350000Y-77689998D01*
X107350000Y-76913428D01*
X107353147Y-76915245D01*
X107482857Y-76950000D01*
X107617143Y-76950000D01*
X107746853Y-76915245D01*
X107750000Y-76913428D01*
X107750000Y-77689999D01*
X108049601Y-77689999D01*
X108116640Y-77709684D01*
X108162395Y-77762488D01*
X108172339Y-77831646D01*
X108143314Y-77895202D01*
X108137282Y-77901680D01*
X107200782Y-78838181D01*
X107139459Y-78871666D01*
X107113101Y-78874500D01*
X98746054Y-78874500D01*
X98679015Y-78854815D01*
X98633260Y-78802011D01*
X98631916Y-78794758D01*
X97710000Y-77872842D01*
X96785251Y-78797589D01*
X96782215Y-78810945D01*
X96732349Y-78859885D01*
X96673945Y-78874500D01*
X87706899Y-78874500D01*
X87639860Y-78854815D01*
X87619218Y-78838181D01*
X85749709Y-76968672D01*
X85716224Y-76907349D01*
X85720666Y-76845234D01*
X85719013Y-76844764D01*
X85727080Y-76816413D01*
X85776397Y-76643083D01*
X85795215Y-76440000D01*
X85795215Y-76439999D01*
X86124785Y-76439999D01*
X86124785Y-76440000D01*
X86143602Y-76643082D01*
X86199417Y-76839247D01*
X86199422Y-76839260D01*
X86290327Y-77021821D01*
X86413237Y-77184581D01*
X86563958Y-77321980D01*
X86563960Y-77321982D01*
X86663141Y-77383392D01*
X86737363Y-77429348D01*
X86927544Y-77503024D01*
X87128024Y-77540500D01*
X87128026Y-77540500D01*
X87331974Y-77540500D01*
X87331976Y-77540500D01*
X87532456Y-77503024D01*
X87722637Y-77429348D01*
X87896041Y-77321981D01*
X88046764Y-77184579D01*
X88169673Y-77021821D01*
X88260582Y-76839250D01*
X88316397Y-76643083D01*
X88335215Y-76440000D01*
X88334205Y-76429105D01*
X88316397Y-76236917D01*
X88316396Y-76236915D01*
X88260582Y-76040750D01*
X88257836Y-76035236D01*
X88178559Y-75876025D01*
X88169673Y-75858179D01*
X88046764Y-75695421D01*
X88046762Y-75695418D01*
X87896041Y-75558019D01*
X87896039Y-75558017D01*
X87722642Y-75450655D01*
X87722639Y-75450653D01*
X87722637Y-75450652D01*
X87722636Y-75450651D01*
X87722635Y-75450651D01*
X87578700Y-75394891D01*
X87532456Y-75376976D01*
X87331976Y-75339500D01*
X87128024Y-75339500D01*
X86927544Y-75376976D01*
X86927541Y-75376976D01*
X86927541Y-75376977D01*
X86737364Y-75450651D01*
X86737357Y-75450655D01*
X86563960Y-75558017D01*
X86563958Y-75558019D01*
X86413237Y-75695418D01*
X86290327Y-75858178D01*
X86199422Y-76040739D01*
X86199417Y-76040752D01*
X86143602Y-76236917D01*
X86124785Y-76439999D01*
X85795215Y-76439999D01*
X85794205Y-76429105D01*
X85776397Y-76236917D01*
X85776396Y-76236915D01*
X85720582Y-76040750D01*
X85717836Y-76035236D01*
X85638559Y-75876025D01*
X85629673Y-75858179D01*
X85506764Y-75695421D01*
X85506762Y-75695418D01*
X85356041Y-75558019D01*
X85356039Y-75558017D01*
X85182642Y-75450655D01*
X85182639Y-75450653D01*
X85182637Y-75450652D01*
X85182636Y-75450651D01*
X85182635Y-75450651D01*
X85038700Y-75394891D01*
X84992456Y-75376976D01*
X84791976Y-75339500D01*
X84588024Y-75339500D01*
X84387544Y-75376976D01*
X84387541Y-75376976D01*
X84387541Y-75376977D01*
X84197364Y-75450651D01*
X84197357Y-75450655D01*
X84023960Y-75558017D01*
X84023958Y-75558019D01*
X83873237Y-75695418D01*
X83750327Y-75858178D01*
X83659422Y-76040739D01*
X83659417Y-76040752D01*
X83643265Y-76097521D01*
X83605985Y-76156614D01*
X83542675Y-76186171D01*
X83473436Y-76176809D01*
X83420250Y-76131498D01*
X83400003Y-76064626D01*
X83399999Y-76063586D01*
X83399999Y-75558520D01*
X83385164Y-75464850D01*
X83385162Y-75464844D01*
X83327643Y-75351958D01*
X83327636Y-75351949D01*
X83238050Y-75262363D01*
X83238046Y-75262360D01*
X83125144Y-75204833D01*
X83031486Y-75190000D01*
X82350000Y-75190000D01*
X82350000Y-75966571D01*
X82346853Y-75964755D01*
X82217143Y-75930000D01*
X82082857Y-75930000D01*
X81953147Y-75964755D01*
X81950000Y-75966571D01*
X81950000Y-75190000D01*
X81268520Y-75190000D01*
X81174850Y-75204835D01*
X81174844Y-75204837D01*
X81061958Y-75262356D01*
X81061949Y-75262363D01*
X80972363Y-75351949D01*
X80972360Y-75351953D01*
X80914833Y-75464855D01*
X80900000Y-75558514D01*
X80900000Y-76063584D01*
X80880315Y-76130623D01*
X80827511Y-76176378D01*
X80758353Y-76186322D01*
X80694797Y-76157297D01*
X80657023Y-76098519D01*
X80656734Y-76097519D01*
X80647079Y-76063586D01*
X80640582Y-76040750D01*
X80637836Y-76035236D01*
X80558559Y-75876025D01*
X80549673Y-75858179D01*
X80426764Y-75695421D01*
X80426762Y-75695418D01*
X80276041Y-75558019D01*
X80276039Y-75558017D01*
X80102642Y-75450655D01*
X80102639Y-75450653D01*
X80102637Y-75450652D01*
X80102636Y-75450651D01*
X80102635Y-75450651D01*
X79958700Y-75394891D01*
X79912456Y-75376976D01*
X79711976Y-75339500D01*
X79508024Y-75339500D01*
X79307544Y-75376976D01*
X79307541Y-75376976D01*
X79307541Y-75376977D01*
X79117364Y-75450651D01*
X79117357Y-75450655D01*
X78943960Y-75558017D01*
X78943958Y-75558019D01*
X78793237Y-75695418D01*
X78670327Y-75858178D01*
X78579422Y-76040739D01*
X78579417Y-76040752D01*
X78523602Y-76236917D01*
X78504785Y-76439999D01*
X78504785Y-76440000D01*
X78523602Y-76643082D01*
X78579417Y-76839247D01*
X78579422Y-76839260D01*
X78670327Y-77021821D01*
X78793237Y-77184581D01*
X78943958Y-77321980D01*
X78943960Y-77321982D01*
X79043141Y-77383392D01*
X79117363Y-77429348D01*
X79307544Y-77503024D01*
X79508024Y-77540500D01*
X79508026Y-77540500D01*
X79711974Y-77540500D01*
X79711976Y-77540500D01*
X79912456Y-77503024D01*
X80102637Y-77429348D01*
X80276041Y-77321981D01*
X80426764Y-77184579D01*
X80549673Y-77021821D01*
X80640582Y-76839250D01*
X80656736Y-76782475D01*
X80694012Y-76723386D01*
X80757321Y-76693828D01*
X80826561Y-76703189D01*
X80879748Y-76748499D01*
X80899996Y-76815370D01*
X80900000Y-76816413D01*
X80900000Y-77321479D01*
X80914835Y-77415149D01*
X80914837Y-77415155D01*
X80972356Y-77528041D01*
X80972363Y-77528050D01*
X81061949Y-77617636D01*
X81061953Y-77617639D01*
X81174855Y-77675166D01*
X81268514Y-77689999D01*
X81949999Y-77689999D01*
X81950000Y-77689998D01*
X81950000Y-76913428D01*
X81953147Y-76915245D01*
X82082857Y-76950000D01*
X82217143Y-76950000D01*
X82346853Y-76915245D01*
X82350000Y-76913428D01*
X82350000Y-77689999D01*
X83031479Y-77689999D01*
X83125149Y-77675164D01*
X83125155Y-77675162D01*
X83238041Y-77617643D01*
X83238050Y-77617636D01*
X83327636Y-77528050D01*
X83327639Y-77528046D01*
X83385166Y-77415144D01*
X83399999Y-77321485D01*
X83399999Y-76816415D01*
X83419683Y-76749376D01*
X83472487Y-76703621D01*
X83541646Y-76693677D01*
X83605202Y-76722702D01*
X83642976Y-76781480D01*
X83643265Y-76782479D01*
X83652623Y-76815370D01*
X83659418Y-76839249D01*
X83659422Y-76839260D01*
X83750327Y-77021821D01*
X83873237Y-77184581D01*
X84023958Y-77321980D01*
X84023960Y-77321982D01*
X84123141Y-77383392D01*
X84197363Y-77429348D01*
X84387544Y-77503024D01*
X84588024Y-77540500D01*
X84588026Y-77540500D01*
X84791974Y-77540500D01*
X84791976Y-77540500D01*
X84992456Y-77503024D01*
X85082556Y-77468118D01*
X85152174Y-77462256D01*
X85213914Y-77494965D01*
X85215027Y-77496064D01*
X87256782Y-79537819D01*
X87290267Y-79599142D01*
X87285283Y-79668834D01*
X87243411Y-79724767D01*
X87177947Y-79749184D01*
X87169101Y-79749500D01*
X53003481Y-79749500D01*
X52996528Y-79749305D01*
X52699106Y-79732602D01*
X52685288Y-79731045D01*
X52395046Y-79681730D01*
X52381489Y-79678636D01*
X52098586Y-79597133D01*
X52085462Y-79592540D01*
X51813472Y-79479879D01*
X51800943Y-79473846D01*
X51543273Y-79331436D01*
X51531499Y-79324038D01*
X51291395Y-79153676D01*
X51280523Y-79145006D01*
X51061002Y-78948830D01*
X51051169Y-78938997D01*
X50902627Y-78772779D01*
X50854993Y-78719476D01*
X50846323Y-78708604D01*
X50675961Y-78468500D01*
X50668563Y-78456726D01*
X50585463Y-78306369D01*
X50526149Y-78199049D01*
X50520120Y-78186527D01*
X50407459Y-77914537D01*
X50402866Y-77901413D01*
X50321363Y-77618510D01*
X50318269Y-77604953D01*
X50315728Y-77590000D01*
X50268953Y-77314703D01*
X50267397Y-77300900D01*
X50251725Y-77021821D01*
X50250695Y-77003471D01*
X50250500Y-76996519D01*
X50250500Y-76372070D01*
X51874500Y-76372070D01*
X51874500Y-76627930D01*
X51886420Y-76703189D01*
X51914526Y-76880640D01*
X51993588Y-77123972D01*
X51993589Y-77123975D01*
X52024469Y-77184579D01*
X52094479Y-77321981D01*
X52109750Y-77351950D01*
X52260132Y-77558935D01*
X52260136Y-77558940D01*
X52441059Y-77739863D01*
X52441064Y-77739867D01*
X52567388Y-77831646D01*
X52648053Y-77890252D01*
X52797080Y-77966185D01*
X52876024Y-78006410D01*
X52876027Y-78006411D01*
X52997693Y-78045942D01*
X53119361Y-78085474D01*
X53372070Y-78125500D01*
X53372071Y-78125500D01*
X53627929Y-78125500D01*
X53627930Y-78125500D01*
X53880639Y-78085474D01*
X54123975Y-78006410D01*
X54351947Y-77890252D01*
X54558942Y-77739862D01*
X54739862Y-77558942D01*
X54890252Y-77351947D01*
X55006410Y-77123975D01*
X55085474Y-76880639D01*
X55125500Y-76627930D01*
X55125500Y-76372070D01*
X55085474Y-76119361D01*
X55035240Y-75964755D01*
X55006411Y-75876027D01*
X55006410Y-75876024D01*
X54914387Y-75695421D01*
X54890252Y-75648053D01*
X54838695Y-75577091D01*
X54739867Y-75441064D01*
X54739863Y-75441059D01*
X54558940Y-75260136D01*
X54558935Y-75260132D01*
X54351950Y-75109750D01*
X54351949Y-75109749D01*
X54351947Y-75109748D01*
X54242893Y-75054182D01*
X54123975Y-74993589D01*
X54123972Y-74993588D01*
X53880640Y-74914526D01*
X53709969Y-74887494D01*
X53627930Y-74874500D01*
X53372070Y-74874500D01*
X53290031Y-74887494D01*
X53119359Y-74914526D01*
X52876027Y-74993588D01*
X52876024Y-74993589D01*
X52648049Y-75109750D01*
X52441064Y-75260132D01*
X52441059Y-75260136D01*
X52260136Y-75441059D01*
X52260132Y-75441064D01*
X52109750Y-75648049D01*
X51993589Y-75876024D01*
X51993588Y-75876027D01*
X51914526Y-76119359D01*
X51895418Y-76240000D01*
X51874500Y-76372070D01*
X50250500Y-76372070D01*
X50250500Y-71379999D01*
X50694785Y-71379999D01*
X50694785Y-71380000D01*
X50713602Y-71583082D01*
X50769417Y-71779247D01*
X50769422Y-71779260D01*
X50860327Y-71961821D01*
X50983237Y-72124581D01*
X51133958Y-72261980D01*
X51133960Y-72261982D01*
X51163934Y-72280541D01*
X51307363Y-72369348D01*
X51497544Y-72443024D01*
X51698024Y-72480500D01*
X51698026Y-72480500D01*
X51901974Y-72480500D01*
X51901976Y-72480500D01*
X52102456Y-72443024D01*
X52292637Y-72369348D01*
X52466041Y-72261981D01*
X52616764Y-72124579D01*
X52739673Y-71961821D01*
X52830582Y-71779250D01*
X52886397Y-71583083D01*
X52905215Y-71380000D01*
X52903665Y-71363277D01*
X52886397Y-71176917D01*
X52876060Y-71140586D01*
X52830582Y-70980750D01*
X52830507Y-70980600D01*
X52779517Y-70878197D01*
X52739673Y-70798179D01*
X52622790Y-70643401D01*
X52616762Y-70635418D01*
X52466041Y-70498019D01*
X52466039Y-70498017D01*
X52292642Y-70390655D01*
X52292635Y-70390651D01*
X52164658Y-70341073D01*
X52102456Y-70316976D01*
X51901976Y-70279500D01*
X51698024Y-70279500D01*
X51497544Y-70316976D01*
X51497541Y-70316976D01*
X51497541Y-70316977D01*
X51307364Y-70390651D01*
X51307357Y-70390655D01*
X51133960Y-70498017D01*
X51133958Y-70498019D01*
X50983237Y-70635418D01*
X50860327Y-70798178D01*
X50769422Y-70980739D01*
X50769417Y-70980752D01*
X50713602Y-71176917D01*
X50694785Y-71379999D01*
X50250500Y-71379999D01*
X50250500Y-68200173D01*
X50250499Y-68200170D01*
X50233988Y-68160308D01*
X50212364Y-68108103D01*
X50141897Y-68037636D01*
X50108021Y-68023604D01*
X50076547Y-68010567D01*
X50022143Y-67966725D01*
X50000079Y-67900431D01*
X50000000Y-67896006D01*
X50000000Y-66841298D01*
X50019685Y-66774259D01*
X50036314Y-66753622D01*
X50352748Y-66437188D01*
X50414067Y-66403706D01*
X50483758Y-66408690D01*
X50539692Y-66450561D01*
X50563953Y-66514058D01*
X50564288Y-66517887D01*
X50564289Y-66517894D01*
X50620894Y-66729150D01*
X50620898Y-66729159D01*
X50713333Y-66927387D01*
X50785996Y-67031161D01*
X51331980Y-66485176D01*
X51334075Y-66492993D01*
X51399901Y-66607007D01*
X51492993Y-66700099D01*
X51607007Y-66765925D01*
X51614822Y-66768019D01*
X51068837Y-67314002D01*
X51172612Y-67386667D01*
X51370840Y-67479101D01*
X51370849Y-67479105D01*
X51550305Y-67527189D01*
X51609965Y-67563553D01*
X51640495Y-67626400D01*
X51632201Y-67695776D01*
X51587716Y-67749654D01*
X51540999Y-67768852D01*
X51497544Y-67776975D01*
X51307364Y-67850651D01*
X51307357Y-67850655D01*
X51133960Y-67958017D01*
X51133958Y-67958019D01*
X50983237Y-68095418D01*
X50860327Y-68258178D01*
X50769422Y-68440739D01*
X50769417Y-68440752D01*
X50713602Y-68636917D01*
X50694785Y-68839999D01*
X50694785Y-68840000D01*
X50713602Y-69043082D01*
X50769417Y-69239247D01*
X50769422Y-69239260D01*
X50860327Y-69421821D01*
X50983237Y-69584581D01*
X51133958Y-69721980D01*
X51133960Y-69721982D01*
X51225835Y-69778868D01*
X51307363Y-69829348D01*
X51497544Y-69903024D01*
X51698024Y-69940500D01*
X51698026Y-69940500D01*
X51901974Y-69940500D01*
X51901976Y-69940500D01*
X52102456Y-69903024D01*
X52292637Y-69829348D01*
X52466041Y-69721981D01*
X52610621Y-69590179D01*
X52616762Y-69584581D01*
X52616764Y-69584579D01*
X52739673Y-69421821D01*
X52830582Y-69239250D01*
X52886397Y-69043083D01*
X52905215Y-68840000D01*
X52900575Y-68789930D01*
X52886397Y-68636917D01*
X52852541Y-68517928D01*
X52830582Y-68440750D01*
X52826428Y-68432408D01*
X52786272Y-68351764D01*
X52739673Y-68258179D01*
X52640007Y-68126200D01*
X52616762Y-68095418D01*
X52466041Y-67958019D01*
X52466039Y-67958017D01*
X52292642Y-67850655D01*
X52292635Y-67850651D01*
X52102455Y-67776975D01*
X52059000Y-67768852D01*
X51996720Y-67737184D01*
X51961448Y-67676871D01*
X51964382Y-67607063D01*
X52004592Y-67549923D01*
X52049694Y-67527189D01*
X52229150Y-67479105D01*
X52229164Y-67479100D01*
X52427383Y-67386669D01*
X52427391Y-67386665D01*
X52531161Y-67314003D01*
X51985177Y-66768019D01*
X51992993Y-66765925D01*
X52107007Y-66700099D01*
X52200099Y-66607007D01*
X52265925Y-66492993D01*
X52268019Y-66485177D01*
X52814003Y-67031161D01*
X52886665Y-66927391D01*
X52886669Y-66927383D01*
X52979100Y-66729164D01*
X52979105Y-66729150D01*
X53035710Y-66517894D01*
X53035712Y-66517884D01*
X53054775Y-66300000D01*
X53054775Y-66299999D01*
X53035712Y-66082115D01*
X53035710Y-66082105D01*
X52979105Y-65870849D01*
X52979101Y-65870840D01*
X52886668Y-65672615D01*
X52814002Y-65568838D01*
X52268018Y-66114821D01*
X52265925Y-66107007D01*
X52200099Y-65992993D01*
X52107007Y-65899901D01*
X51992993Y-65834075D01*
X51985176Y-65831980D01*
X52435886Y-65381270D01*
X52481925Y-65354690D01*
X52481233Y-65353018D01*
X52488729Y-65349912D01*
X52488738Y-65349910D01*
X52574362Y-65300475D01*
X52644275Y-65230562D01*
X52644274Y-65230562D01*
X52702843Y-65171993D01*
X53359975Y-64514863D01*
X53409411Y-64429237D01*
X53435000Y-64333736D01*
X53435000Y-64234864D01*
X53435000Y-59890065D01*
X53409410Y-59794562D01*
X53359975Y-59708938D01*
X53290062Y-59639025D01*
X52859709Y-59208672D01*
X52826224Y-59147349D01*
X52830666Y-59085234D01*
X52829013Y-59084764D01*
X52836272Y-59059252D01*
X52886397Y-58883083D01*
X52905215Y-58680000D01*
X52886397Y-58476917D01*
X52830582Y-58280750D01*
X52820624Y-58260752D01*
X52782782Y-58184755D01*
X52739673Y-58098179D01*
X52647349Y-57975922D01*
X52616762Y-57935418D01*
X52466041Y-57798019D01*
X52466039Y-57798017D01*
X52292642Y-57690655D01*
X52292635Y-57690651D01*
X52141093Y-57631944D01*
X52102456Y-57616976D01*
X51901976Y-57579500D01*
X51698024Y-57579500D01*
X51497544Y-57616976D01*
X51497541Y-57616976D01*
X51497541Y-57616977D01*
X51307364Y-57690651D01*
X51307357Y-57690655D01*
X51133960Y-57798017D01*
X51133958Y-57798019D01*
X50983237Y-57935418D01*
X50860327Y-58098178D01*
X50769422Y-58280739D01*
X50769417Y-58280752D01*
X50713602Y-58476917D01*
X50694785Y-58679999D01*
X50694785Y-58680000D01*
X50713602Y-58883082D01*
X50769417Y-59079247D01*
X50769422Y-59079260D01*
X50860327Y-59261821D01*
X50983237Y-59424581D01*
X51133958Y-59561980D01*
X51133960Y-59561982D01*
X51226528Y-59619297D01*
X51307363Y-59669348D01*
X51497544Y-59743024D01*
X51698024Y-59780500D01*
X51698026Y-59780500D01*
X51901974Y-59780500D01*
X51901976Y-59780500D01*
X52102456Y-59743024D01*
X52192556Y-59708118D01*
X52262174Y-59702256D01*
X52323914Y-59734965D01*
X52325027Y-59736064D01*
X52647681Y-60058718D01*
X52681166Y-60120041D01*
X52684000Y-60146399D01*
X52684000Y-60255881D01*
X52664315Y-60322920D01*
X52611511Y-60368675D01*
X52542353Y-60378619D01*
X52478797Y-60349594D01*
X52476464Y-60347520D01*
X52466041Y-60338019D01*
X52466039Y-60338017D01*
X52292642Y-60230655D01*
X52292635Y-60230651D01*
X52163339Y-60180562D01*
X52102456Y-60156976D01*
X51901976Y-60119500D01*
X51698024Y-60119500D01*
X51497544Y-60156976D01*
X51497541Y-60156976D01*
X51497541Y-60156977D01*
X51307364Y-60230651D01*
X51307357Y-60230655D01*
X51133960Y-60338017D01*
X51133958Y-60338019D01*
X50983237Y-60475418D01*
X50860327Y-60638178D01*
X50769422Y-60820739D01*
X50769417Y-60820752D01*
X50713602Y-61016917D01*
X50694785Y-61219999D01*
X50694785Y-61220000D01*
X50713602Y-61423082D01*
X50769417Y-61619247D01*
X50769422Y-61619260D01*
X50860327Y-61801821D01*
X50983237Y-61964581D01*
X51133958Y-62101980D01*
X51133960Y-62101982D01*
X51183701Y-62132780D01*
X51307363Y-62209348D01*
X51497544Y-62283024D01*
X51698024Y-62320500D01*
X51698026Y-62320500D01*
X51901974Y-62320500D01*
X51901976Y-62320500D01*
X52102456Y-62283024D01*
X52292637Y-62209348D01*
X52466041Y-62101981D01*
X52476461Y-62092481D01*
X52539264Y-62061864D01*
X52608651Y-62070061D01*
X52662592Y-62114470D01*
X52683961Y-62180992D01*
X52684000Y-62184118D01*
X52684000Y-62795881D01*
X52664315Y-62862920D01*
X52611511Y-62908675D01*
X52542353Y-62918619D01*
X52478797Y-62889594D01*
X52476464Y-62887520D01*
X52466041Y-62878019D01*
X52466039Y-62878017D01*
X52292642Y-62770655D01*
X52292635Y-62770651D01*
X52183264Y-62728281D01*
X52102456Y-62696976D01*
X51901976Y-62659500D01*
X51698024Y-62659500D01*
X51653524Y-62667818D01*
X51517345Y-62693274D01*
X51447830Y-62686243D01*
X51406880Y-62659066D01*
X51347316Y-62599502D01*
X51347314Y-62599500D01*
X51290250Y-62566554D01*
X51233187Y-62533608D01*
X51131173Y-62506274D01*
X51105892Y-62499500D01*
X51105891Y-62499500D01*
X50124000Y-62499500D01*
X50056961Y-62479815D01*
X50011206Y-62427011D01*
X50000000Y-62375500D01*
X50000000Y-62103993D01*
X50019685Y-62036954D01*
X50072489Y-61991199D01*
X50076534Y-61989437D01*
X50141897Y-61962364D01*
X50212364Y-61891897D01*
X50250500Y-61799828D01*
X50250500Y-53372070D01*
X51874500Y-53372070D01*
X51874500Y-53627930D01*
X51886717Y-53705061D01*
X51914526Y-53880640D01*
X51993588Y-54123972D01*
X51993589Y-54123975D01*
X52026304Y-54188180D01*
X52104093Y-54340849D01*
X52109750Y-54351950D01*
X52260132Y-54558935D01*
X52260136Y-54558940D01*
X52441059Y-54739863D01*
X52441064Y-54739867D01*
X52621607Y-54871038D01*
X52648053Y-54890252D01*
X52742478Y-54938364D01*
X52876024Y-55006410D01*
X52876027Y-55006411D01*
X52997693Y-55045942D01*
X53119361Y-55085474D01*
X53372070Y-55125500D01*
X53372071Y-55125500D01*
X53627929Y-55125500D01*
X53627930Y-55125500D01*
X53880639Y-55085474D01*
X54123975Y-55006410D01*
X54351947Y-54890252D01*
X54558942Y-54739862D01*
X54739862Y-54558942D01*
X54890252Y-54351947D01*
X55006410Y-54123975D01*
X55085474Y-53880639D01*
X55125500Y-53627930D01*
X55125500Y-53372070D01*
X55085474Y-53119361D01*
X55006410Y-52876025D01*
X55006410Y-52876024D01*
X54966185Y-52797080D01*
X54890252Y-52648053D01*
X54791695Y-52512400D01*
X54739867Y-52441064D01*
X54739863Y-52441059D01*
X54558940Y-52260136D01*
X54558935Y-52260132D01*
X54351950Y-52109750D01*
X54351949Y-52109749D01*
X54351947Y-52109748D01*
X54275894Y-52070997D01*
X54123975Y-51993589D01*
X54123972Y-51993588D01*
X53880640Y-51914526D01*
X53692796Y-51884774D01*
X53627930Y-51874500D01*
X53372070Y-51874500D01*
X53336777Y-51880090D01*
X53119359Y-51914526D01*
X52876027Y-51993588D01*
X52876024Y-51993589D01*
X52648049Y-52109750D01*
X52441064Y-52260132D01*
X52441059Y-52260136D01*
X52260136Y-52441059D01*
X52260132Y-52441064D01*
X52109750Y-52648049D01*
X51993589Y-52876024D01*
X51993588Y-52876027D01*
X51914526Y-53119359D01*
X51891502Y-53264726D01*
X51874500Y-53372070D01*
X50250500Y-53372070D01*
X50250500Y-53003480D01*
X50250695Y-52996528D01*
X50253482Y-52946902D01*
X50267398Y-52699097D01*
X50268952Y-52685298D01*
X50318269Y-52395041D01*
X50321363Y-52381489D01*
X50356325Y-52260136D01*
X50402867Y-52098582D01*
X50407459Y-52085462D01*
X50464294Y-51948249D01*
X50520123Y-51813463D01*
X50526145Y-51800957D01*
X50668566Y-51543267D01*
X50675961Y-51531499D01*
X50682503Y-51522279D01*
X50846330Y-51291385D01*
X50854985Y-51280531D01*
X51051179Y-51060991D01*
X51060991Y-51051179D01*
X51280531Y-50854985D01*
X51291385Y-50846330D01*
X51531504Y-50675957D01*
X51543267Y-50668566D01*
X51800957Y-50526145D01*
X51813463Y-50520123D01*
X52085462Y-50407459D01*
X52098582Y-50402867D01*
X52381494Y-50321361D01*
X52395041Y-50318269D01*
X52685298Y-50268952D01*
X52699097Y-50267398D01*
X52959562Y-50252770D01*
X52996529Y-50250695D01*
X53003481Y-50250500D01*
X53044170Y-50250500D01*
X111955830Y-50250500D01*
X111996519Y-50250500D01*
X112003471Y-50250695D01*
G37*
%TD.AperFunction*%
%TA.AperFunction,Conductor*%
G36*
X108387539Y-52625185D02*
G01*
X108433294Y-52677989D01*
X108444500Y-52729500D01*
X108444500Y-57286000D01*
X108424815Y-57353039D01*
X108372011Y-57398794D01*
X108320500Y-57410000D01*
X107750000Y-57410000D01*
X107750000Y-58186571D01*
X107746853Y-58184755D01*
X107617143Y-58150000D01*
X107482857Y-58150000D01*
X107353147Y-58184755D01*
X107350000Y-58186571D01*
X107350000Y-57410000D01*
X106668520Y-57410000D01*
X106574850Y-57424835D01*
X106574844Y-57424837D01*
X106461958Y-57482356D01*
X106461949Y-57482363D01*
X106372363Y-57571949D01*
X106372360Y-57571953D01*
X106314833Y-57684855D01*
X106300000Y-57778514D01*
X106300000Y-58283584D01*
X106280315Y-58350623D01*
X106227511Y-58396378D01*
X106158353Y-58406322D01*
X106094797Y-58377297D01*
X106057023Y-58318519D01*
X106056734Y-58317519D01*
X106047079Y-58283586D01*
X106040582Y-58260750D01*
X106036174Y-58251898D01*
X105985435Y-58150000D01*
X105949673Y-58078179D01*
X105833414Y-57924227D01*
X105826762Y-57915418D01*
X105676041Y-57778019D01*
X105676039Y-57778017D01*
X105502642Y-57670655D01*
X105502639Y-57670653D01*
X105502637Y-57670652D01*
X105502636Y-57670651D01*
X105502635Y-57670651D01*
X105354808Y-57613383D01*
X105332491Y-57604737D01*
X105277091Y-57562165D01*
X105253500Y-57496398D01*
X105269211Y-57428318D01*
X105289600Y-57401435D01*
X105660474Y-57030563D01*
X105661802Y-57028263D01*
X105709910Y-56944938D01*
X105717418Y-56916918D01*
X105725989Y-56884934D01*
X105733858Y-56855563D01*
X105735500Y-56849436D01*
X105735500Y-56750564D01*
X105735500Y-55907834D01*
X105755185Y-55840795D01*
X105807989Y-55795040D01*
X105877147Y-55785096D01*
X105930624Y-55806260D01*
X106002605Y-55856663D01*
X106002611Y-55856666D01*
X106200840Y-55949101D01*
X106200849Y-55949105D01*
X106412110Y-56005711D01*
X106430000Y-56007276D01*
X106430000Y-55231879D01*
X106437007Y-55235925D01*
X106564174Y-55270000D01*
X106695826Y-55270000D01*
X106822993Y-55235925D01*
X106830000Y-55231879D01*
X106830000Y-56007276D01*
X106847887Y-56005711D01*
X106847891Y-56005711D01*
X107059150Y-55949105D01*
X107059159Y-55949101D01*
X107257387Y-55856666D01*
X107436554Y-55731212D01*
X107591212Y-55576554D01*
X107716666Y-55397387D01*
X107809101Y-55199159D01*
X107809105Y-55199150D01*
X107865711Y-54987891D01*
X107865711Y-54987887D01*
X107867277Y-54970000D01*
X107091880Y-54970000D01*
X107095925Y-54962993D01*
X107130000Y-54835826D01*
X107130000Y-54704174D01*
X107095925Y-54577007D01*
X107091880Y-54570000D01*
X107867276Y-54570000D01*
X107865711Y-54552112D01*
X107865711Y-54552108D01*
X107809105Y-54340849D01*
X107809101Y-54340840D01*
X107716666Y-54142612D01*
X107716664Y-54142608D01*
X107591216Y-53963450D01*
X107591211Y-53963444D01*
X107436554Y-53808787D01*
X107257387Y-53683333D01*
X107059159Y-53590898D01*
X107059150Y-53590894D01*
X106879694Y-53542810D01*
X106820033Y-53506445D01*
X106789504Y-53443598D01*
X106797799Y-53374223D01*
X106842284Y-53320345D01*
X106888999Y-53301147D01*
X106932456Y-53293024D01*
X107122637Y-53219348D01*
X107296041Y-53111981D01*
X107444112Y-52976997D01*
X107446762Y-52974581D01*
X107446764Y-52974579D01*
X107569673Y-52811821D01*
X107638186Y-52674226D01*
X107685687Y-52622992D01*
X107749185Y-52605500D01*
X108320500Y-52605500D01*
X108387539Y-52625185D01*
G37*
%TD.AperFunction*%
%TD*%
M02*
