%TF.GenerationSoftware,KiCad,Pcbnew,8.0.9*%
%TF.CreationDate,2026-06-12T01:55:34+00:00*%
%TF.ProjectId,pico-ball-deck,7069636f-2d62-4616-9c6c-2d6465636b2e,rev?*%
%TF.SameCoordinates,Original*%
%TF.FileFunction,Copper,L1,Top*%
%TF.FilePolarity,Positive*%
%FSLAX46Y46*%
G04 Gerber Fmt 4.6, Leading zero omitted, Abs format (unit mm)*
G04 Created by KiCad (PCBNEW 8.0.9) date 2026-06-12 01:55:34*
%MOMM*%
%LPD*%
G01*
G04 APERTURE LIST*
%TA.AperFunction,ConnectorPad*%
%ADD10R,5.000000X1.000000*%
%TD*%
%TA.AperFunction,ComponentPad*%
%ADD11O,1.700000X1.700000*%
%TD*%
%TA.AperFunction,SMDPad,CuDef*%
%ADD12R,1.700000X3.500000*%
%TD*%
%TA.AperFunction,ComponentPad*%
%ADD13R,1.700000X1.700000*%
%TD*%
%TA.AperFunction,SMDPad,CuDef*%
%ADD14R,0.900000X0.950000*%
%TD*%
%TA.AperFunction,ComponentPad*%
%ADD15C,1.700000*%
%TD*%
%TA.AperFunction,ViaPad*%
%ADD16C,0.700000*%
%TD*%
%TA.AperFunction,ViaPad*%
%ADD17C,0.800000*%
%TD*%
%TA.AperFunction,Conductor*%
%ADD18C,0.500000*%
%TD*%
%TA.AperFunction,Conductor*%
%ADD19C,0.250000*%
%TD*%
G04 APERTURE END LIST*
D10*
%TO.P,J1,2,Pin_2*%
%TO.N,SO*%
X46500000Y-63000000D03*
%TO.P,J1,4,Pin_4*%
%TO.N,SD*%
X46500000Y-65000000D03*
%TO.P,J1,6,Pin_6*%
%TO.N,GND*%
X46500000Y-67000000D03*
%TD*%
D11*
%TO.P,U1,1*%
%TO.N,PSC*%
X112630000Y-58660000D03*
D12*
X112630000Y-57760000D03*
D11*
%TO.P,U1,2*%
%TO.N,PSI*%
X110090000Y-58660000D03*
D12*
X110090000Y-57760000D03*
D13*
%TO.P,U1,3*%
%TO.N,GND*%
X107550000Y-58660000D03*
D12*
X107550000Y-57760000D03*
D11*
%TO.P,U1,4*%
%TO.N,PSO*%
X105010000Y-58660000D03*
D12*
X105010000Y-57760000D03*
D11*
%TO.P,U1,5*%
%TO.N,PSD*%
X102470000Y-58660000D03*
D12*
X102470000Y-57760000D03*
D11*
%TO.P,U1,6*%
%TO.N,JOY_PRESS*%
X99930000Y-58660000D03*
D12*
X99930000Y-57760000D03*
D11*
%TO.P,U1,7*%
%TO.N,JOY_UP*%
X97390000Y-58660000D03*
D12*
X97390000Y-57760000D03*
D13*
%TO.P,U1,8*%
%TO.N,GND*%
X94850000Y-58660000D03*
D12*
X94850000Y-57760000D03*
D11*
%TO.P,U1,9*%
%TO.N,JOY_LEFT*%
X92310000Y-58660000D03*
D12*
X92310000Y-57760000D03*
D11*
%TO.P,U1,10*%
%TO.N,KEY3*%
X89770000Y-58660000D03*
D12*
X89770000Y-57760000D03*
D11*
%TO.P,U1,11*%
%TO.N,LCD_CS*%
X87230000Y-58660000D03*
D12*
X87230000Y-57760000D03*
D11*
%TO.P,U1,12*%
%TO.N,LCD_DC*%
X84690000Y-58660000D03*
D12*
X84690000Y-57760000D03*
D13*
%TO.P,U1,13*%
%TO.N,GND*%
X82150000Y-58660000D03*
D12*
X82150000Y-57760000D03*
D11*
%TO.P,U1,14*%
%TO.N,LCD_SCK*%
X79610000Y-58660000D03*
D12*
X79610000Y-57760000D03*
D11*
%TO.P,U1,15*%
%TO.N,LCD_MOSI*%
X77070000Y-58660000D03*
D12*
X77070000Y-57760000D03*
D11*
%TO.P,U1,16*%
%TO.N,LCD_RST*%
X74530000Y-58660000D03*
D12*
X74530000Y-57760000D03*
D11*
%TO.P,U1,17*%
%TO.N,LCD_BL*%
X71990000Y-58660000D03*
D12*
X71990000Y-57760000D03*
D13*
%TO.P,U1,18*%
%TO.N,GND*%
X69450000Y-58660000D03*
D12*
X69450000Y-57760000D03*
D11*
%TO.P,U1,19*%
%TO.N,I2C_SDA*%
X66910000Y-58660000D03*
D12*
X66910000Y-57760000D03*
D11*
%TO.P,U1,20*%
%TO.N,I2C_SCL*%
X64370000Y-58660000D03*
D12*
X64370000Y-57760000D03*
D11*
%TO.P,U1,21*%
%TO.N,UART_TX*%
X64370000Y-76440000D03*
D12*
X64370000Y-77340000D03*
D11*
%TO.P,U1,22*%
%TO.N,UART_RX*%
X66910000Y-76440000D03*
D12*
X66910000Y-77340000D03*
D13*
%TO.P,U1,23*%
%TO.N,GND*%
X69450000Y-76440000D03*
D12*
X69450000Y-77340000D03*
D11*
%TO.P,U1,24*%
%TO.N,N/C*%
X71990000Y-76440000D03*
D12*
X71990000Y-77340000D03*
D11*
%TO.P,U1,25*%
X74530000Y-76440000D03*
D12*
X74530000Y-77340000D03*
D11*
%TO.P,U1,26*%
X77070000Y-76440000D03*
D12*
X77070000Y-77340000D03*
D11*
%TO.P,U1,27*%
X79610000Y-76440000D03*
D12*
X79610000Y-77340000D03*
D13*
%TO.P,U1,28*%
%TO.N,GND*%
X82150000Y-76440000D03*
D12*
X82150000Y-77340000D03*
D11*
%TO.P,U1,29*%
%TO.N,KEY1*%
X84690000Y-76440000D03*
D12*
X84690000Y-77340000D03*
D11*
%TO.P,U1,30*%
%TO.N,N/C*%
X87230000Y-76440000D03*
D12*
X87230000Y-77340000D03*
D11*
%TO.P,U1,31*%
%TO.N,JOY_RIGHT*%
X89770000Y-76440000D03*
D12*
X89770000Y-77340000D03*
D11*
%TO.P,U1,32*%
%TO.N,KEY2*%
X92310000Y-76440000D03*
D12*
X92310000Y-77340000D03*
D13*
%TO.P,U1,33*%
%TO.N,GND*%
X94850000Y-76440000D03*
D12*
X94850000Y-77340000D03*
%TO.P,U1,34*%
%TO.N,JOY_DOWN*%
X97390000Y-77340000D03*
D11*
%TO.P,U1,35*%
%TO.N,N/C*%
X99930000Y-76440000D03*
D12*
X99930000Y-77340000D03*
%TO.P,U1,36*%
%TO.N,+3V3*%
X102470000Y-77340000D03*
%TO.P,U1,37*%
%TO.N,N/C*%
X105010000Y-77340000D03*
D13*
%TO.P,U1,38*%
%TO.N,GND*%
X107550000Y-76440000D03*
D12*
X107550000Y-77340000D03*
D11*
%TO.P,U1,39*%
%TO.N,VSYS*%
X110090000Y-76440000D03*
D12*
X110090000Y-77340000D03*
D11*
%TO.P,U1,40*%
%TO.N,VBUS*%
X112630000Y-76440000D03*
D12*
X112630000Y-77340000D03*
D11*
%TO.P,U1,41*%
%TO.N,N/C*%
X64600000Y-65010000D03*
D13*
%TO.P,U1,42*%
X64600000Y-67550000D03*
D11*
%TO.P,U1,43*%
X64600000Y-70090000D03*
%TD*%
D14*
%TO.P,R1,1*%
%TO.N,I2C_SDA*%
X57175000Y-76500000D03*
%TO.P,R1,2*%
%TO.N,+3V3*%
X58825000Y-76500000D03*
%TD*%
D13*
%TO.P,J2,1*%
%TO.N,+3V3*%
X58370000Y-54770000D03*
D11*
%TO.P,J2,2*%
%TO.N,+5V_SUGAR*%
X58370000Y-52230000D03*
%TO.P,J2,3*%
%TO.N,I2C_SDA*%
X60910000Y-54770000D03*
%TO.P,J2,4*%
%TO.N,+5V_SUGAR*%
X60910000Y-52230000D03*
%TO.P,J2,5*%
%TO.N,I2C_SCL*%
X63450000Y-54770000D03*
%TO.P,J2,6*%
%TO.N,GND*%
X63450000Y-52230000D03*
%TO.P,J2,7*%
%TO.N,N/C*%
X65990000Y-54770000D03*
%TO.P,J2,8*%
%TO.N,UART_TX*%
X65990000Y-52230000D03*
%TO.P,J2,9*%
%TO.N,GND*%
X68530000Y-54770000D03*
%TO.P,J2,10*%
%TO.N,UART_RX*%
X68530000Y-52230000D03*
%TO.P,J2,11*%
%TO.N,N/C*%
X71070000Y-54770000D03*
%TO.P,J2,12*%
X71070000Y-52230000D03*
%TO.P,J2,13*%
%TO.N,LCD_RST*%
X73610000Y-54770000D03*
%TO.P,J2,14*%
%TO.N,GND*%
X73610000Y-52230000D03*
%TO.P,J2,15*%
%TO.N,N/C*%
X76150000Y-54770000D03*
%TO.P,J2,16*%
X76150000Y-52230000D03*
%TO.P,J2,17*%
%TO.N,+3V3*%
X78690000Y-54770000D03*
%TO.P,J2,18*%
%TO.N,LCD_BL*%
X78690000Y-52230000D03*
%TO.P,J2,19*%
%TO.N,LCD_MOSI*%
X81230000Y-54770000D03*
%TO.P,J2,20*%
%TO.N,GND*%
X81230000Y-52230000D03*
%TO.P,J2,21*%
%TO.N,N/C*%
X83770000Y-54770000D03*
%TO.P,J2,22*%
%TO.N,LCD_DC*%
X83770000Y-52230000D03*
%TO.P,J2,23*%
%TO.N,LCD_SCK*%
X86310000Y-54770000D03*
%TO.P,J2,24*%
%TO.N,LCD_CS*%
X86310000Y-52230000D03*
%TO.P,J2,25*%
%TO.N,GND*%
X88850000Y-54770000D03*
%TO.P,J2,26*%
%TO.N,N/C*%
X88850000Y-52230000D03*
%TO.P,J2,27*%
X91390000Y-54770000D03*
%TO.P,J2,28*%
X91390000Y-52230000D03*
%TO.P,J2,29*%
%TO.N,JOY_LEFT*%
X93930000Y-54770000D03*
%TO.P,J2,30*%
%TO.N,GND*%
X93930000Y-52230000D03*
%TO.P,J2,31*%
%TO.N,JOY_UP*%
X96470000Y-54770000D03*
%TO.P,J2,32*%
%TO.N,N/C*%
X96470000Y-52230000D03*
%TO.P,J2,33*%
%TO.N,JOY_PRESS*%
X99010000Y-54770000D03*
%TO.P,J2,34*%
%TO.N,GND*%
X99010000Y-52230000D03*
%TO.P,J2,35*%
%TO.N,JOY_DOWN*%
X101550000Y-54770000D03*
%TO.P,J2,36*%
%TO.N,KEY3*%
X101550000Y-52230000D03*
%TO.P,J2,37*%
%TO.N,JOY_RIGHT*%
X104090000Y-54770000D03*
%TO.P,J2,38*%
%TO.N,KEY2*%
X104090000Y-52230000D03*
%TO.P,J2,39*%
%TO.N,GND*%
X106630000Y-54770000D03*
%TO.P,J2,40*%
%TO.N,KEY1*%
X106630000Y-52230000D03*
%TD*%
D14*
%TO.P,R2,1*%
%TO.N,I2C_SCL*%
X57175000Y-78400000D03*
%TO.P,R2,2*%
%TO.N,+3V3*%
X58825000Y-78400000D03*
%TD*%
D13*
%TO.P,U2,1,LV1*%
%TO.N,PSC*%
X61960000Y-58680000D03*
D15*
%TO.P,U2,2,LV2*%
%TO.N,PSI*%
X61960000Y-61220000D03*
%TO.P,U2,3,LV*%
%TO.N,+3V3*%
X61960000Y-63760000D03*
%TO.P,U2,4,GND_1*%
%TO.N,GND*%
X61960000Y-66300000D03*
%TO.P,U2,5,LV3*%
%TO.N,PSO*%
X61960000Y-68840000D03*
%TO.P,U2,6,LV4*%
%TO.N,PSD*%
X61960000Y-71380000D03*
%TO.P,U2,7,HV1*%
%TO.N,SC*%
X51800000Y-58680000D03*
%TO.P,U2,8,HV2*%
%TO.N,SI*%
X51800000Y-61220000D03*
%TO.P,U2,9,HV*%
%TO.N,GBVCC*%
X51800000Y-63760000D03*
%TO.P,U2,10,GND_2*%
%TO.N,GND*%
X51800000Y-66300000D03*
%TO.P,U2,11,HV3*%
%TO.N,SO*%
X51800000Y-68840000D03*
%TO.P,U2,12,EL*%
%TO.N,SD*%
X51800000Y-71380000D03*
%TD*%
D16*
%TO.N,GND*%
X52000000Y-79000000D03*
X57100000Y-50720000D03*
X103000000Y-64000000D03*
X87000000Y-69000000D03*
X74880000Y-50720000D03*
X67500000Y-73500000D03*
X110000000Y-50720000D03*
X51000000Y-53000000D03*
X95200000Y-50720000D03*
X114200000Y-67000000D03*
D17*
%TO.N,+3V3*%
X99279900Y-68083400D03*
X102021500Y-70629500D03*
%TO.N,+5V_SUGAR*%
X100223400Y-71667800D03*
X56335400Y-68355400D03*
X62517700Y-73754100D03*
X59593400Y-69386500D03*
X84467600Y-70190600D03*
%TO.N,VSYS*%
X90168400Y-73986600D03*
X106735900Y-74491000D03*
X97568000Y-74065500D03*
%TO.N,VBUS*%
X88227000Y-70163700D03*
X103409900Y-70539700D03*
X100035900Y-70163700D03*
D16*
%TO.N,SI*%
X49545500Y-63852100D03*
%TO.N,PSC*%
X98600000Y-61000000D03*
X106500000Y-61000000D03*
%TO.N,PSI*%
X105860000Y-60200000D03*
X100200000Y-60200000D03*
X67300000Y-60200000D03*
X67300000Y-61900000D03*
%TO.N,PSO*%
X102300000Y-62300000D03*
X99400000Y-62300000D03*
%TO.N,PSD*%
X104152100Y-62386000D03*
X102805800Y-53946800D03*
X99551900Y-63536000D03*
X111045600Y-62386000D03*
%TO.N,I2C_SDA*%
X66579700Y-64941000D03*
X57175000Y-75388500D03*
%TO.N,I2C_SCL*%
X65034500Y-74625900D03*
%TO.N,UART_RX*%
X66638400Y-67526300D03*
X68120800Y-67526300D03*
%TD*%
D18*
%TO.N,GND*%
X106630000Y-54770000D02*
X110000000Y-51400000D01*
X110000000Y-50720600D02*
X110000000Y-50720300D01*
X110000000Y-51400000D02*
X110000000Y-50879800D01*
X110000000Y-50720100D02*
X110000000Y-50720000D01*
X82150000Y-76440000D02*
X82150000Y-75088300D01*
X51100000Y-67000000D02*
X51800000Y-66300000D01*
X94850000Y-76440000D02*
X94850000Y-75088300D01*
X110000000Y-50721200D02*
X110000000Y-50720600D01*
X106000000Y-67000000D02*
X103000000Y-64000000D01*
X110000000Y-50799900D02*
X110000000Y-50759900D01*
X114200000Y-67000000D02*
X106000000Y-67000000D01*
X110000000Y-50879800D02*
X110000000Y-50799900D01*
X110000000Y-50729900D02*
X110000000Y-50724900D01*
X46500000Y-67000000D02*
X51100000Y-67000000D01*
X110000000Y-50739900D02*
X110000000Y-50729900D01*
X82150000Y-75088300D02*
X94850000Y-75088300D01*
X110000000Y-50722400D02*
X110000000Y-50721200D01*
X110000000Y-50724900D02*
X110000000Y-50722400D01*
X110000000Y-50759900D02*
X110000000Y-50739900D01*
X110000000Y-50720300D02*
X110000000Y-50720100D01*
D19*
%TO.N,+3V3*%
X77420000Y-53500000D02*
X78690000Y-54770000D01*
X58370000Y-54770000D02*
X59640000Y-53500000D01*
D18*
X60551500Y-72757200D02*
X60551500Y-65168500D01*
X102470000Y-76440000D02*
X102470000Y-71078000D01*
X60551500Y-72757200D02*
X59776700Y-73532000D01*
X71505300Y-68083400D02*
X99279900Y-68083400D01*
X60551500Y-72757200D02*
X66831500Y-72757200D01*
D19*
X59640000Y-53500000D02*
X77420000Y-53500000D01*
D18*
X59776700Y-73532000D02*
X59776700Y-76500000D01*
X66831500Y-72757200D02*
X71505300Y-68083400D01*
X102470000Y-71078000D02*
X102021500Y-70629500D01*
X58825000Y-78400000D02*
X58825000Y-76500000D01*
X60551500Y-65168500D02*
X61960000Y-63760000D01*
X58825000Y-76500000D02*
X59776700Y-76500000D01*
%TO.N,+5V_SUGAR*%
X81738200Y-74397200D02*
X66102900Y-74397200D01*
X100223400Y-71667800D02*
X84467600Y-71667800D01*
X66102900Y-74397200D02*
X65459800Y-73754100D01*
X58562300Y-68355400D02*
X56335400Y-68355400D01*
X59593400Y-69386500D02*
X58562300Y-68355400D01*
X84467600Y-71667800D02*
X81738200Y-74397200D01*
X65459800Y-73754100D02*
X62517700Y-73754100D01*
X60910000Y-52230000D02*
X58370000Y-52230000D01*
X84467600Y-71667800D02*
X84467600Y-70190600D01*
%TO.N,VSYS*%
X97489100Y-73986600D02*
X97568000Y-74065500D01*
X90168400Y-73986600D02*
X97489100Y-73986600D01*
X110090000Y-75088300D02*
X109492700Y-74491000D01*
X110090000Y-76440000D02*
X110090000Y-75088300D01*
X109492700Y-74491000D02*
X106735900Y-74491000D01*
%TO.N,VBUS*%
X108081400Y-70539700D02*
X103409900Y-70539700D01*
X112630000Y-75088300D02*
X108081400Y-70539700D01*
X112630000Y-76440000D02*
X112630000Y-75088300D01*
X100035900Y-70163700D02*
X88227000Y-70163700D01*
D19*
%TO.N,SI*%
X49545500Y-63852100D02*
X51800000Y-61597600D01*
X51800000Y-61597600D02*
X51800000Y-61220000D01*
%TO.N,SO*%
X53594800Y-61256600D02*
X52288200Y-59950000D01*
X50418700Y-60808900D02*
X50418700Y-61958000D01*
X50573300Y-70066700D02*
X50573300Y-71912200D01*
X50418700Y-61958000D02*
X49376700Y-63000000D01*
X46500000Y-63000000D02*
X49376700Y-63000000D01*
X53594800Y-71340500D02*
X53594800Y-61256600D01*
X51331800Y-72670700D02*
X52264600Y-72670700D01*
X51800000Y-68840000D02*
X50573300Y-70066700D01*
X50573300Y-71912200D02*
X51331800Y-72670700D01*
X52288200Y-59950000D02*
X51277600Y-59950000D01*
X51277600Y-59950000D02*
X50418700Y-60808900D01*
X52264600Y-72670700D02*
X53594800Y-71340500D01*
%TO.N,SD*%
X46500000Y-65000000D02*
X52295400Y-65000000D01*
X52295400Y-65000000D02*
X53063600Y-65768200D01*
X53063600Y-70116400D02*
X51800000Y-71380000D01*
X53063600Y-65768200D02*
X53063600Y-70116400D01*
%TO.N,PSC*%
X66260000Y-61000000D02*
X65310000Y-59950000D01*
X62660000Y-59950000D02*
X61960000Y-59250000D01*
X112630000Y-59890000D02*
X111520000Y-61000000D01*
X65310000Y-59950000D02*
X62660000Y-59950000D01*
X111520000Y-61000000D02*
X106500000Y-61000000D01*
X61960000Y-59250000D02*
X61960000Y-58680000D01*
X98600000Y-61000000D02*
X66260000Y-61000000D01*
X112630000Y-58660000D02*
X112630000Y-59890000D01*
%TO.N,PSI*%
X110090000Y-59450000D02*
X109440000Y-60200000D01*
X109440000Y-60200000D02*
X105860000Y-60200000D01*
X67300000Y-61900000D02*
X63100000Y-61900000D01*
X100200000Y-60200000D02*
X67300000Y-60200000D01*
X110090000Y-58660000D02*
X110090000Y-59450000D01*
X63100000Y-61900000D02*
X62420000Y-61220000D01*
X62420000Y-61220000D02*
X61960000Y-61220000D01*
%TO.N,PSO*%
X69300000Y-62300000D02*
X69300000Y-68500000D01*
X105010000Y-58660000D02*
X105010000Y-60360000D01*
X103070000Y-62300000D02*
X102300000Y-62300000D01*
X99400000Y-62300000D02*
X69300000Y-62300000D01*
X66600000Y-68500000D02*
X65300000Y-68860000D01*
X105010000Y-60360000D02*
X103070000Y-62300000D01*
X69300000Y-68500000D02*
X66600000Y-68500000D01*
X65300000Y-68860000D02*
X61960000Y-68840000D01*
%TO.N,PSD*%
X102805800Y-55297500D02*
X102805800Y-53946800D01*
X61960000Y-71380000D02*
X67150100Y-71380000D01*
X67150100Y-71380000D02*
X74994100Y-63536000D01*
X102470000Y-55633300D02*
X102805800Y-55297500D01*
X74994100Y-63536000D02*
X99551900Y-63536000D01*
X104152100Y-62386000D02*
X111045600Y-62386000D01*
X102470000Y-58660000D02*
X102470000Y-55633300D01*
%TO.N,I2C_SDA*%
X61434700Y-62490000D02*
X64128700Y-62490000D01*
X64128700Y-62490000D02*
X66579700Y-64941000D01*
X57175000Y-76500000D02*
X57175000Y-75388500D01*
X60701000Y-61756300D02*
X61434700Y-62490000D01*
X60910000Y-55996700D02*
X60701000Y-56205700D01*
X60701000Y-56205700D02*
X60701000Y-61756300D01*
X60910000Y-54770000D02*
X60910000Y-55996700D01*
%TO.N,I2C_SCL*%
X57175000Y-78400000D02*
X58026700Y-79251700D01*
X63951400Y-74625900D02*
X65034500Y-74625900D01*
X59481600Y-79251700D02*
X62190700Y-76542600D01*
X58026700Y-79251700D02*
X59481600Y-79251700D01*
X62190700Y-76542600D02*
X62190700Y-76386600D01*
X62190700Y-76386600D02*
X63951400Y-74625900D01*
%TO.N,UART_RX*%
X66638400Y-67526300D02*
X68120800Y-67526300D01*
%TO.N,LCD_DC*%
X83770000Y-53456700D02*
X84230000Y-53456700D01*
X83770000Y-52230000D02*
X83770000Y-53456700D01*
X85040000Y-54266700D02*
X85040000Y-55283300D01*
X84230000Y-53456700D02*
X85040000Y-54266700D01*
X84690000Y-58660000D02*
X84690000Y-55633300D01*
X85040000Y-55283300D02*
X84690000Y-55633300D01*
%TO.N,LCD_RST*%
X74530000Y-56916700D02*
X74530000Y-58660000D01*
X73610000Y-54770000D02*
X73610000Y-55996700D01*
X73610000Y-55996700D02*
X74530000Y-56916700D01*
%TO.N,JOY_UP*%
X97390000Y-56916700D02*
X97390000Y-58660000D01*
X96470000Y-55996700D02*
X97390000Y-56916700D01*
X96470000Y-54770000D02*
X96470000Y-55996700D01*
%TO.N,JOY_DOWN*%
X98620000Y-74170000D02*
X99970000Y-74170000D01*
X97390000Y-77340000D02*
X97390000Y-76440000D01*
X97390000Y-76440000D02*
X97390000Y-75400000D01*
X101550000Y-55042500D02*
X101550000Y-54770000D01*
X97390000Y-75400000D02*
X98620000Y-74170000D01*
X101200000Y-72940000D02*
X101200000Y-55392500D01*
X101200000Y-55392500D02*
X101200000Y-54900000D01*
X101200000Y-55392500D02*
X101550000Y-55042500D01*
X99970000Y-74170000D02*
X101200000Y-72940000D01*
%TO.N,JOY_LEFT*%
X92310000Y-58660000D02*
X92310000Y-55633300D01*
X93930000Y-54770000D02*
X92703300Y-54770000D01*
X92703300Y-55240000D02*
X92310000Y-55633300D01*
X92703300Y-54770000D02*
X92703300Y-55240000D01*
%TO.N,JOY_PRESS*%
X99010000Y-54770000D02*
X99010000Y-55996700D01*
X99930000Y-56916700D02*
X99930000Y-58660000D01*
X99010000Y-55996700D02*
X99930000Y-56916700D01*
%TD*%
%TA.AperFunction,Conductor*%
%TO.N,GND*%
G36*
X112003471Y-50250695D02*
G01*
X112044188Y-50252981D01*
X112300900Y-50267397D01*
X112314703Y-50268953D01*
X112604953Y-50318269D01*
X112618510Y-50321363D01*
X112901413Y-50402866D01*
X112914537Y-50407459D01*
X113186527Y-50520120D01*
X113199049Y-50526149D01*
X113397673Y-50635925D01*
X113456726Y-50668563D01*
X113468500Y-50675961D01*
X113708604Y-50846323D01*
X113719476Y-50854993D01*
X113938693Y-51050898D01*
X113938997Y-51051169D01*
X113948830Y-51061002D01*
X114145006Y-51280523D01*
X114153676Y-51291395D01*
X114324038Y-51531499D01*
X114331436Y-51543273D01*
X114473846Y-51800943D01*
X114479879Y-51813472D01*
X114592540Y-52085462D01*
X114597133Y-52098586D01*
X114678636Y-52381489D01*
X114681730Y-52395046D01*
X114731045Y-52685288D01*
X114732602Y-52699106D01*
X114749305Y-52996527D01*
X114749500Y-53003480D01*
X114749500Y-76996519D01*
X114749305Y-77003472D01*
X114732602Y-77300893D01*
X114731045Y-77314711D01*
X114681730Y-77604953D01*
X114678636Y-77618510D01*
X114597133Y-77901413D01*
X114592540Y-77914537D01*
X114479879Y-78186527D01*
X114473846Y-78199056D01*
X114331436Y-78456726D01*
X114324038Y-78468500D01*
X114153676Y-78708604D01*
X114145006Y-78719476D01*
X113948830Y-78938997D01*
X113938993Y-78948833D01*
X113937123Y-78950504D01*
X113874018Y-78980495D01*
X113804716Y-78971608D01*
X113751220Y-78926664D01*
X113730514Y-78859933D01*
X113730500Y-78858041D01*
X113730500Y-76496616D01*
X113731029Y-76485175D01*
X113735215Y-76440000D01*
X113735215Y-76439998D01*
X113731029Y-76394823D01*
X113730500Y-76383382D01*
X113730500Y-75565323D01*
X113730499Y-75565321D01*
X113715967Y-75492264D01*
X113715966Y-75492260D01*
X113702690Y-75472391D01*
X113660601Y-75409399D01*
X113577740Y-75354034D01*
X113577739Y-75354033D01*
X113577735Y-75354032D01*
X113504677Y-75339500D01*
X113504674Y-75339500D01*
X113254500Y-75339500D01*
X113187461Y-75319815D01*
X113141706Y-75267011D01*
X113130500Y-75215500D01*
X113130500Y-75022410D01*
X113130500Y-75022408D01*
X113096392Y-74895114D01*
X113030500Y-74780986D01*
X112937314Y-74687800D01*
X109436772Y-71187258D01*
X109403287Y-71125935D01*
X109408271Y-71056243D01*
X109450143Y-71000310D01*
X109512434Y-70976161D01*
X109513235Y-70976082D01*
X109525244Y-70975500D01*
X109568542Y-70975500D01*
X109586232Y-70971981D01*
X109611005Y-70967053D01*
X109623037Y-70965268D01*
X109666132Y-70961024D01*
X109707580Y-70948450D01*
X109719353Y-70945500D01*
X109761835Y-70937051D01*
X109801847Y-70920476D01*
X109813280Y-70916386D01*
X109854727Y-70903814D01*
X109892918Y-70883399D01*
X109903906Y-70878202D01*
X109943914Y-70861632D01*
X109979938Y-70837560D01*
X109990351Y-70831320D01*
X110022383Y-70814200D01*
X110028535Y-70810912D01*
X110028539Y-70810909D01*
X110062005Y-70783444D01*
X110071782Y-70776193D01*
X110107781Y-70752140D01*
X110107783Y-70752138D01*
X110107783Y-70752137D01*
X110138408Y-70721512D01*
X110147402Y-70713359D01*
X110180883Y-70685883D01*
X110208359Y-70652402D01*
X110216512Y-70643408D01*
X110247139Y-70612782D01*
X110250244Y-70608136D01*
X110271193Y-70576782D01*
X110278444Y-70567005D01*
X110305909Y-70533539D01*
X110305912Y-70533535D01*
X110315205Y-70516148D01*
X110326320Y-70495351D01*
X110332560Y-70484938D01*
X110356632Y-70448914D01*
X110373202Y-70408906D01*
X110378399Y-70397918D01*
X110398814Y-70359727D01*
X110411386Y-70318280D01*
X110415476Y-70306847D01*
X110428669Y-70274999D01*
X111344571Y-70274999D01*
X111344571Y-70275000D01*
X111348971Y-70322484D01*
X111349500Y-70333925D01*
X111349500Y-70365546D01*
X111357158Y-70413897D01*
X111357213Y-70414244D01*
X111358210Y-70422198D01*
X111364244Y-70487309D01*
X111372448Y-70516148D01*
X111375652Y-70530672D01*
X111377827Y-70544401D01*
X111377831Y-70544418D01*
X111398530Y-70608124D01*
X111399865Y-70612505D01*
X111422595Y-70692389D01*
X111422597Y-70692394D01*
X111422600Y-70692401D01*
X111428046Y-70703340D01*
X111431684Y-70712228D01*
X111431921Y-70712131D01*
X111433787Y-70716635D01*
X111433788Y-70716638D01*
X111433789Y-70716639D01*
X111451877Y-70752139D01*
X111472238Y-70792100D01*
X111472753Y-70793123D01*
X111517628Y-70883245D01*
X111517635Y-70883257D01*
X111574775Y-70958921D01*
X111576140Y-70960764D01*
X111622443Y-71024497D01*
X111623923Y-71025977D01*
X111635195Y-71038930D01*
X111645558Y-71052653D01*
X111646128Y-71053407D01*
X111674188Y-71078987D01*
X111703146Y-71105386D01*
X111707289Y-71109343D01*
X111750495Y-71152550D01*
X111750498Y-71152553D01*
X111766537Y-71164206D01*
X111777187Y-71172885D01*
X111803695Y-71197050D01*
X111803697Y-71197051D01*
X111803698Y-71197052D01*
X111849477Y-71225397D01*
X111854261Y-71228359D01*
X111861867Y-71233466D01*
X111897006Y-71258996D01*
X111930434Y-71276028D01*
X111939416Y-71281086D01*
X111967634Y-71298557D01*
X111984981Y-71309298D01*
X112023940Y-71324390D01*
X112035436Y-71329530D01*
X112047459Y-71335656D01*
X112058361Y-71341211D01*
X112110871Y-71358272D01*
X112117337Y-71360573D01*
X112183799Y-71386320D01*
X112183802Y-71386321D01*
X112207457Y-71390742D01*
X112222984Y-71394699D01*
X112230591Y-71397171D01*
X112230601Y-71397172D01*
X112230603Y-71397173D01*
X112302601Y-71408576D01*
X112305966Y-71409156D01*
X112393388Y-71425499D01*
X112393389Y-71425500D01*
X112393390Y-71425500D01*
X112606610Y-71425500D01*
X112694057Y-71409152D01*
X112697372Y-71408579D01*
X112769409Y-71397171D01*
X112777013Y-71394699D01*
X112792544Y-71390742D01*
X112816198Y-71386321D01*
X112882684Y-71360563D01*
X112889106Y-71358279D01*
X112941639Y-71341211D01*
X112964564Y-71329529D01*
X112976060Y-71324390D01*
X112981610Y-71322239D01*
X113015019Y-71309298D01*
X113060589Y-71281080D01*
X113069544Y-71276038D01*
X113102994Y-71258996D01*
X113138133Y-71233464D01*
X113145708Y-71228377D01*
X113196302Y-71197052D01*
X113222811Y-71172885D01*
X113233467Y-71164202D01*
X113249501Y-71152553D01*
X113292729Y-71109323D01*
X113296853Y-71105386D01*
X113298990Y-71103438D01*
X113353872Y-71053407D01*
X113364802Y-71038933D01*
X113376080Y-71025973D01*
X113377553Y-71024501D01*
X113423947Y-70960642D01*
X113425184Y-70958973D01*
X113482366Y-70883255D01*
X113527302Y-70793009D01*
X113527697Y-70792224D01*
X113566211Y-70716639D01*
X113566213Y-70716630D01*
X113568072Y-70712144D01*
X113568315Y-70712244D01*
X113571958Y-70703326D01*
X113577405Y-70692389D01*
X113600153Y-70612435D01*
X113601452Y-70608172D01*
X113622171Y-70544409D01*
X113623892Y-70533539D01*
X113624345Y-70530681D01*
X113627553Y-70516137D01*
X113628155Y-70514023D01*
X113635756Y-70487310D01*
X113641788Y-70422196D01*
X113642782Y-70414264D01*
X113650500Y-70365546D01*
X113650500Y-70333925D01*
X113651029Y-70322484D01*
X113655429Y-70275000D01*
X113655429Y-70274999D01*
X113651029Y-70227514D01*
X113650500Y-70216073D01*
X113650500Y-70184456D01*
X113648390Y-70171134D01*
X113642783Y-70135738D01*
X113641787Y-70127790D01*
X113639691Y-70105171D01*
X113635756Y-70062690D01*
X113627550Y-70033850D01*
X113624345Y-70019318D01*
X113622172Y-70005595D01*
X113622171Y-70005590D01*
X113601466Y-69941867D01*
X113600131Y-69937484D01*
X113577405Y-69857611D01*
X113571956Y-69846668D01*
X113568313Y-69837758D01*
X113568073Y-69837858D01*
X113566213Y-69833367D01*
X113566211Y-69833361D01*
X113527658Y-69757697D01*
X113527310Y-69757006D01*
X113482366Y-69666745D01*
X113482365Y-69666744D01*
X113482365Y-69666743D01*
X113425256Y-69591121D01*
X113423891Y-69589278D01*
X113377556Y-69525502D01*
X113376075Y-69524021D01*
X113364802Y-69511066D01*
X113353874Y-69496595D01*
X113296852Y-69444612D01*
X113292709Y-69440655D01*
X113249505Y-69397450D01*
X113249498Y-69397445D01*
X113249492Y-69397441D01*
X113233462Y-69385793D01*
X113222823Y-69377125D01*
X113196302Y-69352948D01*
X113196303Y-69352948D01*
X113196298Y-69352944D01*
X113196296Y-69352943D01*
X113145724Y-69321630D01*
X113138125Y-69316528D01*
X113102994Y-69291004D01*
X113069555Y-69273965D01*
X113060577Y-69268910D01*
X113015022Y-69240703D01*
X113015016Y-69240700D01*
X112976057Y-69225608D01*
X112964558Y-69220467D01*
X112941639Y-69208789D01*
X112941636Y-69208788D01*
X112941634Y-69208787D01*
X112889119Y-69191723D01*
X112882646Y-69189420D01*
X112816203Y-69163680D01*
X112816194Y-69163678D01*
X112792546Y-69159257D01*
X112777025Y-69155303D01*
X112769416Y-69152831D01*
X112769413Y-69152830D01*
X112769409Y-69152829D01*
X112754590Y-69150482D01*
X112697447Y-69141431D01*
X112694062Y-69140847D01*
X112623967Y-69127744D01*
X112606610Y-69124500D01*
X112393390Y-69124500D01*
X112305935Y-69140847D01*
X112302551Y-69141431D01*
X112230590Y-69152829D01*
X112230587Y-69152829D01*
X112222975Y-69155303D01*
X112207449Y-69159258D01*
X112183806Y-69163677D01*
X112183795Y-69163680D01*
X112117358Y-69189418D01*
X112110887Y-69191721D01*
X112058365Y-69208787D01*
X112058356Y-69208791D01*
X112035436Y-69220469D01*
X112023942Y-69225607D01*
X111984984Y-69240700D01*
X111984982Y-69240701D01*
X111939415Y-69268914D01*
X111930439Y-69273968D01*
X111897007Y-69291003D01*
X111897004Y-69291005D01*
X111861874Y-69316528D01*
X111854270Y-69321634D01*
X111803697Y-69352948D01*
X111777186Y-69377115D01*
X111766542Y-69385789D01*
X111750506Y-69397441D01*
X111750495Y-69397450D01*
X111707276Y-69440668D01*
X111703137Y-69444621D01*
X111646126Y-69496594D01*
X111635188Y-69511077D01*
X111623939Y-69524005D01*
X111622450Y-69525494D01*
X111622449Y-69525494D01*
X111576119Y-69589262D01*
X111574757Y-69591101D01*
X111517634Y-69666743D01*
X111517630Y-69666750D01*
X111472753Y-69756876D01*
X111472238Y-69757898D01*
X111433790Y-69833358D01*
X111431925Y-69837860D01*
X111431688Y-69837762D01*
X111428050Y-69846652D01*
X111422599Y-69857600D01*
X111422595Y-69857610D01*
X111399868Y-69937484D01*
X111398534Y-69941863D01*
X111377829Y-70005589D01*
X111375653Y-70019327D01*
X111372448Y-70033853D01*
X111364244Y-70062691D01*
X111358210Y-70127800D01*
X111357212Y-70135754D01*
X111349500Y-70184447D01*
X111349500Y-70216073D01*
X111348971Y-70227514D01*
X111344571Y-70274999D01*
X110428669Y-70274999D01*
X110432051Y-70266835D01*
X110440500Y-70224353D01*
X110443450Y-70212580D01*
X110456024Y-70171132D01*
X110460268Y-70128037D01*
X110462054Y-70115999D01*
X110470500Y-70073541D01*
X110470500Y-70030244D01*
X110471097Y-70018090D01*
X110472201Y-70006881D01*
X110475341Y-69975000D01*
X110471097Y-69931907D01*
X110470500Y-69919754D01*
X110470500Y-69876458D01*
X110465269Y-69850161D01*
X110462052Y-69833990D01*
X110460268Y-69821961D01*
X110456024Y-69778869D01*
X110456024Y-69778868D01*
X110443448Y-69737414D01*
X110440499Y-69725640D01*
X110432051Y-69683165D01*
X110415480Y-69643159D01*
X110411383Y-69631710D01*
X110398814Y-69590273D01*
X110378404Y-69552091D01*
X110373203Y-69541095D01*
X110356632Y-69501086D01*
X110332572Y-69465078D01*
X110326316Y-69454640D01*
X110305911Y-69416464D01*
X110305910Y-69416462D01*
X110278438Y-69382988D01*
X110271194Y-69373219D01*
X110247140Y-69337219D01*
X110247136Y-69337214D01*
X110216520Y-69306599D01*
X110208346Y-69297581D01*
X110202948Y-69291004D01*
X110188968Y-69273968D01*
X110180884Y-69264118D01*
X110147416Y-69236651D01*
X110138401Y-69228479D01*
X110107787Y-69197865D01*
X110107783Y-69197862D01*
X110107780Y-69197860D01*
X110091139Y-69186740D01*
X110071772Y-69173799D01*
X110062002Y-69166552D01*
X110028543Y-69139094D01*
X110028535Y-69139088D01*
X110011436Y-69129948D01*
X109990350Y-69118678D01*
X109979918Y-69112425D01*
X109943918Y-69088370D01*
X109943914Y-69088368D01*
X109903915Y-69071800D01*
X109892913Y-69066597D01*
X109854729Y-69046187D01*
X109854728Y-69046186D01*
X109854727Y-69046186D01*
X109813277Y-69033612D01*
X109801834Y-69029517D01*
X109761834Y-69012948D01*
X109761827Y-69012946D01*
X109719378Y-69004503D01*
X109707575Y-69001547D01*
X109666134Y-68988976D01*
X109666130Y-68988975D01*
X109623035Y-68984730D01*
X109611006Y-68982945D01*
X109568544Y-68974500D01*
X109568541Y-68974500D01*
X109525244Y-68974500D01*
X109513090Y-68973903D01*
X109470000Y-68969659D01*
X109426910Y-68973903D01*
X109414756Y-68974500D01*
X109371453Y-68974500D01*
X109328991Y-68982945D01*
X109316963Y-68984730D01*
X109273867Y-68988976D01*
X109232427Y-69001546D01*
X109220626Y-69004502D01*
X109178166Y-69012948D01*
X109178161Y-69012949D01*
X109138159Y-69029518D01*
X109126707Y-69033616D01*
X109085272Y-69046186D01*
X109047091Y-69066594D01*
X109036093Y-69071795D01*
X108996091Y-69088364D01*
X108960080Y-69112426D01*
X108949645Y-69118680D01*
X108911465Y-69139087D01*
X108911460Y-69139091D01*
X108877990Y-69166557D01*
X108868225Y-69173799D01*
X108832225Y-69197855D01*
X108832219Y-69197860D01*
X108801595Y-69228483D01*
X108792584Y-69236650D01*
X108759117Y-69264117D01*
X108731650Y-69297584D01*
X108723483Y-69306595D01*
X108692860Y-69337219D01*
X108692855Y-69337225D01*
X108668799Y-69373225D01*
X108661557Y-69382990D01*
X108634091Y-69416460D01*
X108634087Y-69416465D01*
X108613680Y-69454645D01*
X108607426Y-69465080D01*
X108583364Y-69501091D01*
X108566795Y-69541093D01*
X108561594Y-69552091D01*
X108541186Y-69590272D01*
X108528616Y-69631707D01*
X108524518Y-69643159D01*
X108507949Y-69683161D01*
X108507948Y-69683166D01*
X108499502Y-69725626D01*
X108496546Y-69737427D01*
X108483976Y-69778867D01*
X108479730Y-69821963D01*
X108477945Y-69833991D01*
X108469500Y-69876453D01*
X108469500Y-69919754D01*
X108468903Y-69931908D01*
X108464121Y-69980460D01*
X108437960Y-70045247D01*
X108380926Y-70085606D01*
X108311125Y-70088723D01*
X108278718Y-70075693D01*
X108274589Y-70073309D01*
X108274586Y-70073308D01*
X108147292Y-70039200D01*
X108147291Y-70039200D01*
X103872944Y-70039200D01*
X103805905Y-70019515D01*
X103790720Y-70008018D01*
X103782140Y-70000417D01*
X103782138Y-70000416D01*
X103782137Y-70000415D01*
X103782133Y-70000412D01*
X103642265Y-69927003D01*
X103488886Y-69889200D01*
X103488885Y-69889200D01*
X103330915Y-69889200D01*
X103330914Y-69889200D01*
X103177534Y-69927003D01*
X103037662Y-70000415D01*
X102919416Y-70105171D01*
X102829681Y-70235174D01*
X102810644Y-70285371D01*
X102768465Y-70341073D01*
X102702867Y-70365130D01*
X102634677Y-70349903D01*
X102592652Y-70311839D01*
X102554350Y-70256349D01*
X102511983Y-70194970D01*
X102393740Y-70090217D01*
X102393738Y-70090216D01*
X102393737Y-70090215D01*
X102253865Y-70016803D01*
X102100486Y-69979000D01*
X102100485Y-69979000D01*
X101942515Y-69979000D01*
X101942514Y-69979000D01*
X101789135Y-70016803D01*
X101757125Y-70033604D01*
X101688617Y-70047329D01*
X101623564Y-70021836D01*
X101582620Y-69965220D01*
X101575500Y-69923807D01*
X101575500Y-65125000D01*
X108464659Y-65125000D01*
X108468159Y-65160539D01*
X108468903Y-65168090D01*
X108469500Y-65180244D01*
X108469500Y-65223544D01*
X108477945Y-65266006D01*
X108479730Y-65278035D01*
X108483975Y-65321130D01*
X108483976Y-65321134D01*
X108496547Y-65362575D01*
X108499503Y-65374378D01*
X108507946Y-65416827D01*
X108507948Y-65416834D01*
X108524517Y-65456834D01*
X108528612Y-65468277D01*
X108541186Y-65509726D01*
X108541187Y-65509729D01*
X108561597Y-65547913D01*
X108566800Y-65558915D01*
X108583368Y-65598914D01*
X108583370Y-65598918D01*
X108607425Y-65634918D01*
X108613678Y-65645350D01*
X108619043Y-65655386D01*
X108634088Y-65683535D01*
X108634094Y-65683543D01*
X108661552Y-65717002D01*
X108668799Y-65726772D01*
X108692860Y-65762781D01*
X108692862Y-65762783D01*
X108692865Y-65762787D01*
X108723479Y-65793401D01*
X108731651Y-65802416D01*
X108759117Y-65835883D01*
X108792579Y-65863345D01*
X108792581Y-65863346D01*
X108801599Y-65871520D01*
X108832214Y-65902136D01*
X108832217Y-65902138D01*
X108832218Y-65902139D01*
X108868217Y-65926193D01*
X108868219Y-65926194D01*
X108877988Y-65933438D01*
X108911462Y-65960910D01*
X108949640Y-65981316D01*
X108960078Y-65987572D01*
X108967899Y-65992797D01*
X108996086Y-66011632D01*
X109036095Y-66028203D01*
X109047091Y-66033404D01*
X109085273Y-66053814D01*
X109126710Y-66066383D01*
X109138160Y-66070480D01*
X109178165Y-66087051D01*
X109220640Y-66095499D01*
X109232414Y-66098448D01*
X109273868Y-66111024D01*
X109316964Y-66115268D01*
X109328990Y-66117052D01*
X109359480Y-66123117D01*
X109371458Y-66125500D01*
X109371459Y-66125500D01*
X109414756Y-66125500D01*
X109426909Y-66126096D01*
X109470000Y-66130341D01*
X109513090Y-66126096D01*
X109525244Y-66125500D01*
X109568542Y-66125500D01*
X109584454Y-66122334D01*
X109611005Y-66117053D01*
X109623037Y-66115268D01*
X109666132Y-66111024D01*
X109707580Y-66098450D01*
X109719353Y-66095500D01*
X109761835Y-66087051D01*
X109801847Y-66070476D01*
X109813280Y-66066386D01*
X109854727Y-66053814D01*
X109892918Y-66033399D01*
X109903910Y-66028201D01*
X109943914Y-66011632D01*
X109979938Y-65987560D01*
X109990351Y-65981320D01*
X110016591Y-65967295D01*
X110028535Y-65960912D01*
X110028539Y-65960909D01*
X110062005Y-65933444D01*
X110071782Y-65926193D01*
X110107781Y-65902140D01*
X110107783Y-65902138D01*
X110110020Y-65899901D01*
X110138408Y-65871512D01*
X110147402Y-65863359D01*
X110180883Y-65835883D01*
X110208359Y-65802402D01*
X110216512Y-65793408D01*
X110247139Y-65762782D01*
X110271200Y-65726772D01*
X110278444Y-65717005D01*
X110305909Y-65683539D01*
X110305912Y-65683535D01*
X110318840Y-65659346D01*
X110326320Y-65645351D01*
X110332560Y-65634938D01*
X110356632Y-65598914D01*
X110373202Y-65558906D01*
X110378402Y-65547913D01*
X110398814Y-65509727D01*
X110411386Y-65468280D01*
X110415476Y-65456847D01*
X110432051Y-65416835D01*
X110440500Y-65374353D01*
X110443450Y-65362580D01*
X110456024Y-65321132D01*
X110460268Y-65278037D01*
X110462054Y-65265999D01*
X110462824Y-65262131D01*
X110470500Y-65223541D01*
X110470500Y-65180244D01*
X110471097Y-65168090D01*
X110471841Y-65160539D01*
X110475341Y-65125000D01*
X110471097Y-65081907D01*
X110470500Y-65069754D01*
X110470500Y-65026458D01*
X110467226Y-65009999D01*
X110462052Y-64983990D01*
X110460268Y-64971961D01*
X110459898Y-64968209D01*
X110456024Y-64928868D01*
X110443448Y-64887414D01*
X110440499Y-64875640D01*
X110432051Y-64833165D01*
X110428669Y-64824999D01*
X111344571Y-64824999D01*
X111344571Y-64825000D01*
X111348971Y-64872484D01*
X111349500Y-64883925D01*
X111349500Y-64915546D01*
X111353532Y-64941000D01*
X111357213Y-64964244D01*
X111358210Y-64972198D01*
X111364244Y-65037309D01*
X111372448Y-65066148D01*
X111375652Y-65080672D01*
X111377827Y-65094401D01*
X111377831Y-65094418D01*
X111398530Y-65158124D01*
X111399865Y-65162505D01*
X111422595Y-65242389D01*
X111422597Y-65242394D01*
X111422600Y-65242401D01*
X111428046Y-65253340D01*
X111431684Y-65262228D01*
X111431921Y-65262131D01*
X111433787Y-65266635D01*
X111472238Y-65342100D01*
X111472753Y-65343123D01*
X111517628Y-65433245D01*
X111517635Y-65433257D01*
X111574775Y-65508921D01*
X111576140Y-65510764D01*
X111622443Y-65574497D01*
X111623923Y-65575977D01*
X111635195Y-65588930D01*
X111637378Y-65591821D01*
X111646128Y-65603407D01*
X111703146Y-65655386D01*
X111707289Y-65659343D01*
X111750495Y-65702550D01*
X111750498Y-65702553D01*
X111766537Y-65714206D01*
X111777187Y-65722885D01*
X111803695Y-65747050D01*
X111803697Y-65747051D01*
X111803698Y-65747052D01*
X111829103Y-65762782D01*
X111854261Y-65778359D01*
X111861867Y-65783466D01*
X111897006Y-65808996D01*
X111930434Y-65826028D01*
X111939416Y-65831086D01*
X111974767Y-65852974D01*
X111984981Y-65859298D01*
X112023940Y-65874390D01*
X112035436Y-65879530D01*
X112058355Y-65891208D01*
X112058361Y-65891211D01*
X112110871Y-65908272D01*
X112117337Y-65910573D01*
X112183799Y-65936320D01*
X112183802Y-65936321D01*
X112207457Y-65940742D01*
X112222984Y-65944699D01*
X112230591Y-65947171D01*
X112230601Y-65947172D01*
X112230603Y-65947173D01*
X112302601Y-65958576D01*
X112305966Y-65959156D01*
X112393388Y-65975499D01*
X112393389Y-65975500D01*
X112393390Y-65975500D01*
X112606610Y-65975500D01*
X112694057Y-65959152D01*
X112697372Y-65958579D01*
X112769409Y-65947171D01*
X112777013Y-65944699D01*
X112792544Y-65940742D01*
X112816198Y-65936321D01*
X112882684Y-65910563D01*
X112889106Y-65908279D01*
X112941639Y-65891211D01*
X112964564Y-65879529D01*
X112976060Y-65874390D01*
X112981610Y-65872239D01*
X113015019Y-65859298D01*
X113060589Y-65831080D01*
X113069544Y-65826038D01*
X113102994Y-65808996D01*
X113138133Y-65783464D01*
X113145708Y-65778377D01*
X113196302Y-65747052D01*
X113222811Y-65722885D01*
X113233467Y-65714202D01*
X113249501Y-65702553D01*
X113292729Y-65659323D01*
X113296853Y-65655386D01*
X113353872Y-65603407D01*
X113364802Y-65588933D01*
X113376080Y-65575973D01*
X113377553Y-65574501D01*
X113423947Y-65510642D01*
X113425184Y-65508973D01*
X113482366Y-65433255D01*
X113527302Y-65343009D01*
X113527697Y-65342224D01*
X113566211Y-65266639D01*
X113566213Y-65266630D01*
X113568072Y-65262144D01*
X113568315Y-65262244D01*
X113571958Y-65253326D01*
X113577405Y-65242389D01*
X113600153Y-65162435D01*
X113601452Y-65158172D01*
X113622171Y-65094409D01*
X113624345Y-65080681D01*
X113627553Y-65066137D01*
X113635756Y-65037310D01*
X113641788Y-64972196D01*
X113642782Y-64964264D01*
X113650500Y-64915546D01*
X113650500Y-64883925D01*
X113651029Y-64872484D01*
X113655429Y-64825000D01*
X113655429Y-64824999D01*
X113651029Y-64777514D01*
X113650500Y-64766073D01*
X113650500Y-64734456D01*
X113650500Y-64734454D01*
X113642783Y-64685738D01*
X113641787Y-64677790D01*
X113639313Y-64651091D01*
X113635756Y-64612690D01*
X113627550Y-64583850D01*
X113624345Y-64569318D01*
X113622172Y-64555595D01*
X113622171Y-64555590D01*
X113601466Y-64491867D01*
X113600131Y-64487484D01*
X113588778Y-64447584D01*
X113577405Y-64407611D01*
X113571956Y-64396668D01*
X113568313Y-64387758D01*
X113568073Y-64387858D01*
X113566213Y-64383367D01*
X113566211Y-64383361D01*
X113527658Y-64307697D01*
X113527310Y-64307006D01*
X113482366Y-64216745D01*
X113482365Y-64216744D01*
X113482365Y-64216743D01*
X113441738Y-64162946D01*
X113425236Y-64141094D01*
X113423891Y-64139278D01*
X113377556Y-64075502D01*
X113376075Y-64074021D01*
X113364802Y-64061066D01*
X113353874Y-64046595D01*
X113325419Y-64020655D01*
X113296851Y-63994611D01*
X113292709Y-63990655D01*
X113249505Y-63947450D01*
X113249498Y-63947445D01*
X113249492Y-63947441D01*
X113233462Y-63935793D01*
X113222823Y-63927125D01*
X113196302Y-63902948D01*
X113196303Y-63902948D01*
X113196298Y-63902944D01*
X113196296Y-63902943D01*
X113145724Y-63871630D01*
X113138125Y-63866528D01*
X113102994Y-63841004D01*
X113069555Y-63823965D01*
X113060577Y-63818910D01*
X113015022Y-63790703D01*
X113015016Y-63790700D01*
X112976057Y-63775608D01*
X112964558Y-63770467D01*
X112941639Y-63758789D01*
X112941636Y-63758788D01*
X112941634Y-63758787D01*
X112889119Y-63741723D01*
X112882646Y-63739420D01*
X112816203Y-63713680D01*
X112816194Y-63713678D01*
X112792546Y-63709257D01*
X112777025Y-63705303D01*
X112769416Y-63702831D01*
X112769413Y-63702830D01*
X112769409Y-63702829D01*
X112754590Y-63700482D01*
X112697447Y-63691431D01*
X112694062Y-63690847D01*
X112623967Y-63677744D01*
X112606610Y-63674500D01*
X112393390Y-63674500D01*
X112305935Y-63690847D01*
X112302551Y-63691431D01*
X112230590Y-63702829D01*
X112230587Y-63702829D01*
X112222975Y-63705303D01*
X112207449Y-63709258D01*
X112183806Y-63713677D01*
X112183795Y-63713680D01*
X112117358Y-63739418D01*
X112110887Y-63741721D01*
X112058365Y-63758787D01*
X112058356Y-63758791D01*
X112035436Y-63770469D01*
X112023942Y-63775607D01*
X111984984Y-63790700D01*
X111984982Y-63790701D01*
X111939415Y-63818914D01*
X111930439Y-63823968D01*
X111897007Y-63841003D01*
X111897004Y-63841005D01*
X111861874Y-63866528D01*
X111854270Y-63871634D01*
X111803697Y-63902948D01*
X111777186Y-63927115D01*
X111766542Y-63935789D01*
X111750506Y-63947441D01*
X111750495Y-63947450D01*
X111707276Y-63990668D01*
X111703137Y-63994621D01*
X111646126Y-64046594D01*
X111635188Y-64061077D01*
X111623939Y-64074005D01*
X111622450Y-64075494D01*
X111622449Y-64075494D01*
X111576119Y-64139262D01*
X111574757Y-64141101D01*
X111517634Y-64216743D01*
X111517630Y-64216750D01*
X111472753Y-64306876D01*
X111472238Y-64307898D01*
X111433790Y-64383358D01*
X111431925Y-64387860D01*
X111431688Y-64387762D01*
X111428050Y-64396652D01*
X111422599Y-64407600D01*
X111422595Y-64407610D01*
X111399868Y-64487484D01*
X111398534Y-64491863D01*
X111377829Y-64555589D01*
X111375653Y-64569327D01*
X111372448Y-64583853D01*
X111364796Y-64610752D01*
X111364244Y-64612691D01*
X111358210Y-64677800D01*
X111357212Y-64685754D01*
X111349500Y-64734445D01*
X111349500Y-64766073D01*
X111348971Y-64777514D01*
X111344571Y-64824999D01*
X110428669Y-64824999D01*
X110415480Y-64793159D01*
X110411383Y-64781710D01*
X110398814Y-64740273D01*
X110378404Y-64702091D01*
X110373203Y-64691095D01*
X110356632Y-64651086D01*
X110332572Y-64615078D01*
X110326316Y-64604640D01*
X110307441Y-64569327D01*
X110305910Y-64566462D01*
X110278438Y-64532988D01*
X110271194Y-64523219D01*
X110247140Y-64487219D01*
X110247136Y-64487214D01*
X110216520Y-64456599D01*
X110208346Y-64447581D01*
X110180884Y-64414118D01*
X110147416Y-64386651D01*
X110138401Y-64378479D01*
X110107787Y-64347865D01*
X110107783Y-64347862D01*
X110107780Y-64347860D01*
X110090063Y-64336021D01*
X110071772Y-64323799D01*
X110062002Y-64316552D01*
X110028543Y-64289094D01*
X110028535Y-64289088D01*
X110011436Y-64279948D01*
X109990350Y-64268678D01*
X109979918Y-64262425D01*
X109943918Y-64238370D01*
X109943914Y-64238368D01*
X109903915Y-64221800D01*
X109892913Y-64216597D01*
X109854729Y-64196187D01*
X109854728Y-64196186D01*
X109854727Y-64196186D01*
X109813277Y-64183612D01*
X109801834Y-64179517D01*
X109761834Y-64162948D01*
X109761827Y-64162946D01*
X109719378Y-64154503D01*
X109707575Y-64151547D01*
X109666134Y-64138976D01*
X109666130Y-64138975D01*
X109623035Y-64134730D01*
X109611006Y-64132945D01*
X109568544Y-64124500D01*
X109568541Y-64124500D01*
X109525244Y-64124500D01*
X109513090Y-64123903D01*
X109470000Y-64119659D01*
X109426910Y-64123903D01*
X109414756Y-64124500D01*
X109371453Y-64124500D01*
X109328991Y-64132945D01*
X109316963Y-64134730D01*
X109273867Y-64138976D01*
X109232427Y-64151546D01*
X109220626Y-64154502D01*
X109178166Y-64162948D01*
X109178161Y-64162949D01*
X109138159Y-64179518D01*
X109126707Y-64183616D01*
X109085272Y-64196186D01*
X109047091Y-64216594D01*
X109036093Y-64221795D01*
X108996091Y-64238364D01*
X108960080Y-64262426D01*
X108949645Y-64268680D01*
X108911465Y-64289087D01*
X108911460Y-64289091D01*
X108877990Y-64316557D01*
X108868225Y-64323799D01*
X108832225Y-64347855D01*
X108832219Y-64347860D01*
X108801595Y-64378483D01*
X108792584Y-64386650D01*
X108759117Y-64414117D01*
X108731650Y-64447584D01*
X108723483Y-64456595D01*
X108692860Y-64487219D01*
X108692855Y-64487225D01*
X108668799Y-64523225D01*
X108661557Y-64532990D01*
X108634091Y-64566460D01*
X108634087Y-64566465D01*
X108613680Y-64604645D01*
X108607426Y-64615080D01*
X108583364Y-64651091D01*
X108566795Y-64691093D01*
X108561594Y-64702091D01*
X108541186Y-64740272D01*
X108528616Y-64781707D01*
X108524518Y-64793159D01*
X108507949Y-64833161D01*
X108507948Y-64833166D01*
X108499502Y-64875626D01*
X108496546Y-64887427D01*
X108483976Y-64928867D01*
X108479730Y-64971963D01*
X108477945Y-64983991D01*
X108469500Y-65026453D01*
X108469500Y-65069754D01*
X108468903Y-65081907D01*
X108466864Y-65102608D01*
X108464659Y-65125000D01*
X101575500Y-65125000D01*
X101575500Y-62707535D01*
X101595185Y-62640496D01*
X101647989Y-62594741D01*
X101717147Y-62584797D01*
X101780703Y-62613822D01*
X101797876Y-62632049D01*
X101871718Y-62728282D01*
X101997159Y-62824536D01*
X102143238Y-62885044D01*
X102200465Y-62892578D01*
X102299999Y-62905682D01*
X102300000Y-62905682D01*
X102300001Y-62905682D01*
X102352254Y-62898802D01*
X102456762Y-62885044D01*
X102602841Y-62824536D01*
X102728282Y-62728282D01*
X102730490Y-62725404D01*
X102731559Y-62724012D01*
X102787987Y-62682810D01*
X102829933Y-62675500D01*
X103119435Y-62675500D01*
X103119436Y-62675500D01*
X103167186Y-62662705D01*
X103214938Y-62649910D01*
X103300562Y-62600475D01*
X103370475Y-62530562D01*
X103374674Y-62526362D01*
X103435990Y-62492873D01*
X103505682Y-62497849D01*
X103561620Y-62539714D01*
X103576923Y-62566583D01*
X103626679Y-62686706D01*
X103627564Y-62688841D01*
X103723818Y-62814282D01*
X103849259Y-62910536D01*
X103995338Y-62971044D01*
X104073719Y-62981363D01*
X104152099Y-62991682D01*
X104152100Y-62991682D01*
X104152101Y-62991682D01*
X104204354Y-62984802D01*
X104308862Y-62971044D01*
X104454941Y-62910536D01*
X104580382Y-62814282D01*
X104582590Y-62811404D01*
X104583659Y-62810012D01*
X104640087Y-62768810D01*
X104682033Y-62761500D01*
X110515667Y-62761500D01*
X110582706Y-62781185D01*
X110614041Y-62810012D01*
X110616928Y-62813774D01*
X110617318Y-62814282D01*
X110742759Y-62910536D01*
X110888838Y-62971044D01*
X110967219Y-62981363D01*
X111045599Y-62991682D01*
X111045600Y-62991682D01*
X111045601Y-62991682D01*
X111097854Y-62984802D01*
X111202362Y-62971044D01*
X111348441Y-62910536D01*
X111473882Y-62814282D01*
X111570136Y-62688841D01*
X111630644Y-62542762D01*
X111651282Y-62386000D01*
X111630644Y-62229238D01*
X111570136Y-62083159D01*
X111473882Y-61957718D01*
X111348441Y-61861464D01*
X111202362Y-61800956D01*
X111202360Y-61800955D01*
X111045601Y-61780318D01*
X111045599Y-61780318D01*
X110888839Y-61800955D01*
X110888837Y-61800956D01*
X110742760Y-61861463D01*
X110742759Y-61861464D01*
X110617318Y-61957718D01*
X110617316Y-61957719D01*
X110617315Y-61957721D01*
X110614041Y-61961988D01*
X110557613Y-62003190D01*
X110515667Y-62010500D01*
X104682033Y-62010500D01*
X104614994Y-61990815D01*
X104583659Y-61961988D01*
X104580384Y-61957721D01*
X104580382Y-61957718D01*
X104454941Y-61861464D01*
X104332680Y-61810822D01*
X104278279Y-61766982D01*
X104256214Y-61700688D01*
X104273493Y-61632989D01*
X104292450Y-61608586D01*
X105264880Y-60636156D01*
X105326201Y-60602673D01*
X105395893Y-60607657D01*
X105428046Y-60625463D01*
X105431715Y-60628278D01*
X105431718Y-60628282D01*
X105557159Y-60724536D01*
X105703238Y-60785044D01*
X105795941Y-60797248D01*
X105859837Y-60825514D01*
X105898308Y-60883838D01*
X105902694Y-60936371D01*
X105894318Y-60999997D01*
X105894318Y-61000001D01*
X105914955Y-61156760D01*
X105914956Y-61156762D01*
X105971697Y-61293748D01*
X105975464Y-61302841D01*
X106071718Y-61428282D01*
X106197159Y-61524536D01*
X106343238Y-61585044D01*
X106421619Y-61595363D01*
X106499999Y-61605682D01*
X106500000Y-61605682D01*
X106500001Y-61605682D01*
X106564754Y-61597157D01*
X106656762Y-61585044D01*
X106802841Y-61524536D01*
X106928282Y-61428282D01*
X106930490Y-61425404D01*
X106931559Y-61424012D01*
X106987987Y-61382810D01*
X107029933Y-61375500D01*
X111569434Y-61375500D01*
X111569436Y-61375500D01*
X111639556Y-61356711D01*
X111664938Y-61349910D01*
X111750562Y-61300475D01*
X111820475Y-61230562D01*
X112930474Y-60120563D01*
X112945269Y-60094938D01*
X112979910Y-60034938D01*
X113005500Y-59939435D01*
X113005500Y-59884500D01*
X113025185Y-59817461D01*
X113077989Y-59771706D01*
X113129500Y-59760500D01*
X113504676Y-59760500D01*
X113504677Y-59760499D01*
X113577740Y-59745966D01*
X113660601Y-59690601D01*
X113715966Y-59607740D01*
X113730500Y-59534674D01*
X113730500Y-58716616D01*
X113731029Y-58705175D01*
X113735215Y-58660000D01*
X113735215Y-58659998D01*
X113731029Y-58614823D01*
X113730500Y-58603382D01*
X113730500Y-55985323D01*
X113730499Y-55985321D01*
X113715967Y-55912264D01*
X113715966Y-55912260D01*
X113702791Y-55892542D01*
X113660601Y-55829399D01*
X113605235Y-55792405D01*
X113577739Y-55774033D01*
X113577735Y-55774032D01*
X113504677Y-55759500D01*
X113504674Y-55759500D01*
X111755326Y-55759500D01*
X111755323Y-55759500D01*
X111682264Y-55774032D01*
X111682260Y-55774033D01*
X111599399Y-55829399D01*
X111544033Y-55912260D01*
X111544032Y-55912264D01*
X111529500Y-55985321D01*
X111529500Y-58603382D01*
X111528971Y-58614823D01*
X111524785Y-58659998D01*
X111524785Y-58660000D01*
X111528971Y-58705175D01*
X111529500Y-58716616D01*
X111529500Y-59534678D01*
X111544032Y-59607735D01*
X111544033Y-59607739D01*
X111558571Y-59629497D01*
X111599399Y-59690601D01*
X111682260Y-59745966D01*
X111682264Y-59745967D01*
X111755321Y-59760499D01*
X111755324Y-59760500D01*
X111755326Y-59760500D01*
X111929101Y-59760500D01*
X111996140Y-59780185D01*
X112041895Y-59832989D01*
X112051839Y-59902147D01*
X112022814Y-59965703D01*
X112016782Y-59972181D01*
X111400782Y-60588181D01*
X111339459Y-60621666D01*
X111313101Y-60624500D01*
X109843109Y-60624500D01*
X109776070Y-60604815D01*
X109730315Y-60552011D01*
X109720371Y-60482853D01*
X109738831Y-60439008D01*
X109736407Y-60437609D01*
X109741329Y-60429082D01*
X109755013Y-60409865D01*
X110280714Y-59803288D01*
X110339495Y-59765520D01*
X110374419Y-59760500D01*
X110964676Y-59760500D01*
X110964677Y-59760499D01*
X111037740Y-59745966D01*
X111120601Y-59690601D01*
X111175966Y-59607740D01*
X111190500Y-59534674D01*
X111190500Y-58716616D01*
X111191029Y-58705175D01*
X111195215Y-58660000D01*
X111195215Y-58659998D01*
X111191029Y-58614823D01*
X111190500Y-58603382D01*
X111190500Y-55985323D01*
X111190499Y-55985321D01*
X111175967Y-55912264D01*
X111175966Y-55912260D01*
X111162791Y-55892542D01*
X111120601Y-55829399D01*
X111065235Y-55792405D01*
X111037739Y-55774033D01*
X111037735Y-55774032D01*
X110964677Y-55759500D01*
X110964674Y-55759500D01*
X109215326Y-55759500D01*
X109215323Y-55759500D01*
X109142264Y-55774032D01*
X109142260Y-55774033D01*
X109059398Y-55829399D01*
X109004798Y-55911116D01*
X108951186Y-55955921D01*
X108881861Y-55964628D01*
X108818834Y-55934474D01*
X108791570Y-55892542D01*
X108789597Y-55893548D01*
X108727643Y-55771958D01*
X108727636Y-55771949D01*
X108638050Y-55682363D01*
X108638046Y-55682360D01*
X108525144Y-55624833D01*
X108431486Y-55610000D01*
X107805996Y-55610000D01*
X107738957Y-55590315D01*
X107693202Y-55537511D01*
X107683258Y-55468353D01*
X107704422Y-55414875D01*
X107716666Y-55397388D01*
X107809101Y-55199159D01*
X107809105Y-55199150D01*
X107865711Y-54987891D01*
X107865711Y-54987887D01*
X107867277Y-54970000D01*
X107091880Y-54970000D01*
X107095925Y-54962993D01*
X107130000Y-54835826D01*
X107130000Y-54704174D01*
X107095925Y-54577007D01*
X107091880Y-54570000D01*
X107867276Y-54570000D01*
X107865711Y-54552112D01*
X107865711Y-54552108D01*
X107809105Y-54340849D01*
X107809101Y-54340840D01*
X107716666Y-54142612D01*
X107716664Y-54142608D01*
X107591216Y-53963450D01*
X107591211Y-53963444D01*
X107436554Y-53808787D01*
X107257387Y-53683333D01*
X107059159Y-53590898D01*
X107059150Y-53590894D01*
X106879694Y-53542810D01*
X106820033Y-53506445D01*
X106789504Y-53443598D01*
X106797799Y-53374223D01*
X106799577Y-53372070D01*
X109874500Y-53372070D01*
X109874500Y-53627930D01*
X109885733Y-53698852D01*
X109914526Y-53880640D01*
X109993588Y-54123972D01*
X109993589Y-54123975D01*
X110058771Y-54251899D01*
X110104093Y-54340849D01*
X110109750Y-54351950D01*
X110260132Y-54558935D01*
X110260136Y-54558940D01*
X110441059Y-54739863D01*
X110441064Y-54739867D01*
X110587145Y-54846000D01*
X110648053Y-54890252D01*
X110742478Y-54938364D01*
X110876024Y-55006410D01*
X110876027Y-55006411D01*
X110997693Y-55045942D01*
X111119361Y-55085474D01*
X111372070Y-55125500D01*
X111372071Y-55125500D01*
X111627929Y-55125500D01*
X111627930Y-55125500D01*
X111880639Y-55085474D01*
X112123975Y-55006410D01*
X112351947Y-54890252D01*
X112558942Y-54739862D01*
X112739862Y-54558942D01*
X112890252Y-54351947D01*
X113006410Y-54123975D01*
X113085474Y-53880639D01*
X113125500Y-53627930D01*
X113125500Y-53372070D01*
X113085474Y-53119361D01*
X113006410Y-52876025D01*
X113006410Y-52876024D01*
X112942291Y-52750185D01*
X112890252Y-52648053D01*
X112809573Y-52537007D01*
X112739867Y-52441064D01*
X112739863Y-52441059D01*
X112558940Y-52260136D01*
X112558935Y-52260132D01*
X112351950Y-52109750D01*
X112351949Y-52109749D01*
X112351947Y-52109748D01*
X112275894Y-52070997D01*
X112123975Y-51993589D01*
X112123972Y-51993588D01*
X111880640Y-51914526D01*
X111754284Y-51894513D01*
X111627930Y-51874500D01*
X111372070Y-51874500D01*
X111287833Y-51887842D01*
X111119359Y-51914526D01*
X110876027Y-51993588D01*
X110876024Y-51993589D01*
X110648049Y-52109750D01*
X110441064Y-52260132D01*
X110441059Y-52260136D01*
X110260136Y-52441059D01*
X110260132Y-52441064D01*
X110109750Y-52648049D01*
X109993589Y-52876024D01*
X109993588Y-52876027D01*
X109914526Y-53119359D01*
X109898690Y-53219344D01*
X109874500Y-53372070D01*
X106799577Y-53372070D01*
X106842284Y-53320345D01*
X106888999Y-53301147D01*
X106932456Y-53293024D01*
X107122637Y-53219348D01*
X107296041Y-53111981D01*
X107446764Y-52974579D01*
X107569673Y-52811821D01*
X107660582Y-52629250D01*
X107716397Y-52433083D01*
X107735215Y-52230000D01*
X107729115Y-52164174D01*
X107716397Y-52026917D01*
X107713383Y-52016325D01*
X107660582Y-51830750D01*
X107660159Y-51829901D01*
X107600364Y-51709815D01*
X107569673Y-51648179D01*
X107485849Y-51537178D01*
X107446762Y-51485418D01*
X107296041Y-51348019D01*
X107296039Y-51348017D01*
X107122642Y-51240655D01*
X107122635Y-51240651D01*
X107027546Y-51203814D01*
X106932456Y-51166976D01*
X106731976Y-51129500D01*
X106528024Y-51129500D01*
X106327544Y-51166976D01*
X106327541Y-51166976D01*
X106327541Y-51166977D01*
X106137364Y-51240651D01*
X106137357Y-51240655D01*
X105963960Y-51348017D01*
X105963958Y-51348019D01*
X105813237Y-51485418D01*
X105690327Y-51648178D01*
X105599422Y-51830739D01*
X105599417Y-51830752D01*
X105543602Y-52026917D01*
X105524785Y-52229999D01*
X105524785Y-52230000D01*
X105543602Y-52433082D01*
X105599417Y-52629247D01*
X105599422Y-52629260D01*
X105690327Y-52811821D01*
X105813237Y-52974581D01*
X105963958Y-53111980D01*
X105963960Y-53111982D01*
X106035417Y-53156226D01*
X106137363Y-53219348D01*
X106327544Y-53293024D01*
X106370999Y-53301147D01*
X106433278Y-53332814D01*
X106468551Y-53393126D01*
X106465617Y-53462934D01*
X106425409Y-53520075D01*
X106380305Y-53542810D01*
X106200849Y-53590894D01*
X106200840Y-53590898D01*
X106002612Y-53683333D01*
X106002608Y-53683335D01*
X105823450Y-53808783D01*
X105823444Y-53808788D01*
X105668788Y-53963444D01*
X105668783Y-53963450D01*
X105543335Y-54142608D01*
X105543333Y-54142612D01*
X105450898Y-54340840D01*
X105450895Y-54340846D01*
X105402756Y-54520506D01*
X105366391Y-54580166D01*
X105303544Y-54610695D01*
X105234168Y-54602400D01*
X105180290Y-54557915D01*
X105163715Y-54522347D01*
X105120582Y-54370750D01*
X105120159Y-54369901D01*
X105070415Y-54270000D01*
X105029673Y-54188179D01*
X104906764Y-54025421D01*
X104906762Y-54025418D01*
X104756041Y-53888019D01*
X104756039Y-53888017D01*
X104582642Y-53780655D01*
X104582639Y-53780653D01*
X104582637Y-53780652D01*
X104582636Y-53780651D01*
X104582635Y-53780651D01*
X104462017Y-53733924D01*
X104392456Y-53706976D01*
X104191976Y-53669500D01*
X103988024Y-53669500D01*
X103787544Y-53706976D01*
X103787541Y-53706976D01*
X103787541Y-53706977D01*
X103597364Y-53780651D01*
X103597360Y-53780653D01*
X103553920Y-53807550D01*
X103486559Y-53826104D01*
X103419860Y-53805295D01*
X103374999Y-53751730D01*
X103374083Y-53749574D01*
X103373323Y-53747740D01*
X103343633Y-53676061D01*
X103330337Y-53643961D01*
X103330336Y-53643960D01*
X103330336Y-53643959D01*
X103234082Y-53518518D01*
X103108641Y-53422264D01*
X103076872Y-53409105D01*
X102962562Y-53361756D01*
X102962560Y-53361755D01*
X102805801Y-53341118D01*
X102805799Y-53341118D01*
X102649039Y-53361755D01*
X102649037Y-53361756D01*
X102502960Y-53422263D01*
X102377518Y-53518518D01*
X102281263Y-53643960D01*
X102243313Y-53735580D01*
X102199472Y-53789983D01*
X102133177Y-53812048D01*
X102065478Y-53794769D01*
X102063475Y-53793554D01*
X102042642Y-53780655D01*
X102042639Y-53780653D01*
X102042637Y-53780652D01*
X102042636Y-53780651D01*
X102042635Y-53780651D01*
X101922017Y-53733924D01*
X101852456Y-53706976D01*
X101651976Y-53669500D01*
X101448024Y-53669500D01*
X101247544Y-53706976D01*
X101247541Y-53706976D01*
X101247541Y-53706977D01*
X101057364Y-53780651D01*
X101057357Y-53780655D01*
X100883960Y-53888017D01*
X100883958Y-53888019D01*
X100733237Y-54025418D01*
X100610327Y-54188178D01*
X100519422Y-54370739D01*
X100519417Y-54370752D01*
X100463602Y-54566917D01*
X100444785Y-54769999D01*
X100444785Y-54770000D01*
X100463602Y-54973082D01*
X100519417Y-55169247D01*
X100519422Y-55169260D01*
X100569585Y-55270000D01*
X100610327Y-55351821D01*
X100733236Y-55514579D01*
X100765360Y-55543864D01*
X100801640Y-55603573D01*
X100799880Y-55673421D01*
X100760637Y-55731229D01*
X100696371Y-55758643D01*
X100681821Y-55759500D01*
X99878179Y-55759500D01*
X99811140Y-55739815D01*
X99765385Y-55687011D01*
X99755441Y-55617853D01*
X99784466Y-55554297D01*
X99794632Y-55543870D01*
X99826764Y-55514579D01*
X99949673Y-55351821D01*
X100040582Y-55169250D01*
X100096397Y-54973083D01*
X100115215Y-54770000D01*
X100112422Y-54739863D01*
X100096397Y-54566917D01*
X100092183Y-54552108D01*
X100040582Y-54370750D01*
X100040159Y-54369901D01*
X99990415Y-54270000D01*
X99949673Y-54188179D01*
X99826764Y-54025421D01*
X99826762Y-54025418D01*
X99676041Y-53888019D01*
X99676039Y-53888017D01*
X99502642Y-53780655D01*
X99502639Y-53780653D01*
X99502637Y-53780652D01*
X99502636Y-53780651D01*
X99502635Y-53780651D01*
X99312455Y-53706975D01*
X99269000Y-53698852D01*
X99206720Y-53667184D01*
X99171448Y-53606871D01*
X99174382Y-53537063D01*
X99214592Y-53479923D01*
X99259694Y-53457189D01*
X99439150Y-53409105D01*
X99439159Y-53409101D01*
X99637387Y-53316666D01*
X99816554Y-53191212D01*
X99971212Y-53036554D01*
X100096666Y-52857387D01*
X100189101Y-52659159D01*
X100189105Y-52659150D01*
X100237243Y-52479494D01*
X100273608Y-52419834D01*
X100336454Y-52389304D01*
X100405830Y-52397598D01*
X100459708Y-52442083D01*
X100476284Y-52477652D01*
X100519417Y-52629247D01*
X100519422Y-52629260D01*
X100610327Y-52811821D01*
X100733237Y-52974581D01*
X100883958Y-53111980D01*
X100883960Y-53111982D01*
X100955417Y-53156226D01*
X101057363Y-53219348D01*
X101247544Y-53293024D01*
X101448024Y-53330500D01*
X101448026Y-53330500D01*
X101651974Y-53330500D01*
X101651976Y-53330500D01*
X101852456Y-53293024D01*
X102042637Y-53219348D01*
X102216041Y-53111981D01*
X102366764Y-52974579D01*
X102489673Y-52811821D01*
X102580582Y-52629250D01*
X102636397Y-52433083D01*
X102655215Y-52230000D01*
X102655215Y-52229999D01*
X102984785Y-52229999D01*
X102984785Y-52230000D01*
X103003602Y-52433082D01*
X103059417Y-52629247D01*
X103059422Y-52629260D01*
X103150327Y-52811821D01*
X103273237Y-52974581D01*
X103423958Y-53111980D01*
X103423960Y-53111982D01*
X103495417Y-53156226D01*
X103597363Y-53219348D01*
X103787544Y-53293024D01*
X103988024Y-53330500D01*
X103988026Y-53330500D01*
X104191974Y-53330500D01*
X104191976Y-53330500D01*
X104392456Y-53293024D01*
X104582637Y-53219348D01*
X104756041Y-53111981D01*
X104906764Y-52974579D01*
X105029673Y-52811821D01*
X105120582Y-52629250D01*
X105176397Y-52433083D01*
X105195215Y-52230000D01*
X105189115Y-52164174D01*
X105176397Y-52026917D01*
X105173383Y-52016325D01*
X105120582Y-51830750D01*
X105120159Y-51829901D01*
X105060364Y-51709815D01*
X105029673Y-51648179D01*
X104945849Y-51537178D01*
X104906762Y-51485418D01*
X104756041Y-51348019D01*
X104756039Y-51348017D01*
X104582642Y-51240655D01*
X104582635Y-51240651D01*
X104487546Y-51203814D01*
X104392456Y-51166976D01*
X104191976Y-51129500D01*
X103988024Y-51129500D01*
X103787544Y-51166976D01*
X103787541Y-51166976D01*
X103787541Y-51166977D01*
X103597364Y-51240651D01*
X103597357Y-51240655D01*
X103423960Y-51348017D01*
X103423958Y-51348019D01*
X103273237Y-51485418D01*
X103150327Y-51648178D01*
X103059422Y-51830739D01*
X103059417Y-51830752D01*
X103003602Y-52026917D01*
X102984785Y-52229999D01*
X102655215Y-52229999D01*
X102649115Y-52164174D01*
X102636397Y-52026917D01*
X102633383Y-52016325D01*
X102580582Y-51830750D01*
X102580159Y-51829901D01*
X102520364Y-51709815D01*
X102489673Y-51648179D01*
X102405849Y-51537178D01*
X102366762Y-51485418D01*
X102216041Y-51348019D01*
X102216039Y-51348017D01*
X102042642Y-51240655D01*
X102042635Y-51240651D01*
X101947546Y-51203814D01*
X101852456Y-51166976D01*
X101651976Y-51129500D01*
X101448024Y-51129500D01*
X101247544Y-51166976D01*
X101247541Y-51166976D01*
X101247541Y-51166977D01*
X101057364Y-51240651D01*
X101057357Y-51240655D01*
X100883960Y-51348017D01*
X100883958Y-51348019D01*
X100733237Y-51485418D01*
X100610327Y-51648178D01*
X100519422Y-51830739D01*
X100519417Y-51830752D01*
X100476284Y-51982347D01*
X100439004Y-52041440D01*
X100375694Y-52070997D01*
X100306455Y-52061635D01*
X100253269Y-52016325D01*
X100237243Y-51980505D01*
X100189105Y-51800849D01*
X100189101Y-51800840D01*
X100096666Y-51602612D01*
X100096664Y-51602608D01*
X99971216Y-51423450D01*
X99971211Y-51423444D01*
X99816554Y-51268787D01*
X99637387Y-51143333D01*
X99439159Y-51050898D01*
X99439150Y-51050894D01*
X99227889Y-50994288D01*
X99210000Y-50992722D01*
X99210000Y-51768120D01*
X99202993Y-51764075D01*
X99075826Y-51730000D01*
X98944174Y-51730000D01*
X98817007Y-51764075D01*
X98810000Y-51768120D01*
X98810000Y-50992722D01*
X98792110Y-50994288D01*
X98580849Y-51050894D01*
X98580840Y-51050898D01*
X98382612Y-51143333D01*
X98382608Y-51143335D01*
X98203450Y-51268783D01*
X98203444Y-51268788D01*
X98048788Y-51423444D01*
X98048783Y-51423450D01*
X97923335Y-51602608D01*
X97923333Y-51602612D01*
X97830898Y-51800840D01*
X97830895Y-51800846D01*
X97782756Y-51980506D01*
X97746391Y-52040166D01*
X97683544Y-52070695D01*
X97614168Y-52062400D01*
X97560290Y-52017915D01*
X97543715Y-51982347D01*
X97500582Y-51830750D01*
X97500159Y-51829901D01*
X97440364Y-51709815D01*
X97409673Y-51648179D01*
X97325849Y-51537178D01*
X97286762Y-51485418D01*
X97136041Y-51348019D01*
X97136039Y-51348017D01*
X96962642Y-51240655D01*
X96962635Y-51240651D01*
X96867546Y-51203814D01*
X96772456Y-51166976D01*
X96571976Y-51129500D01*
X96368024Y-51129500D01*
X96167544Y-51166976D01*
X96167541Y-51166976D01*
X96167541Y-51166977D01*
X95977364Y-51240651D01*
X95977357Y-51240655D01*
X95803960Y-51348017D01*
X95803958Y-51348019D01*
X95653237Y-51485418D01*
X95530327Y-51648178D01*
X95439422Y-51830739D01*
X95439417Y-51830752D01*
X95396284Y-51982347D01*
X95359004Y-52041440D01*
X95295694Y-52070997D01*
X95226455Y-52061635D01*
X95173269Y-52016325D01*
X95157243Y-51980505D01*
X95109105Y-51800849D01*
X95109101Y-51800840D01*
X95016666Y-51602612D01*
X95016664Y-51602608D01*
X94891216Y-51423450D01*
X94891211Y-51423444D01*
X94736554Y-51268787D01*
X94557387Y-51143333D01*
X94359159Y-51050898D01*
X94359150Y-51050894D01*
X94147889Y-50994288D01*
X94130000Y-50992722D01*
X94130000Y-51768120D01*
X94122993Y-51764075D01*
X93995826Y-51730000D01*
X93864174Y-51730000D01*
X93737007Y-51764075D01*
X93730000Y-51768120D01*
X93730000Y-50992722D01*
X93712110Y-50994288D01*
X93500849Y-51050894D01*
X93500840Y-51050898D01*
X93302612Y-51143333D01*
X93302608Y-51143335D01*
X93123450Y-51268783D01*
X93123444Y-51268788D01*
X92968788Y-51423444D01*
X92968783Y-51423450D01*
X92843335Y-51602608D01*
X92843333Y-51602612D01*
X92750898Y-51800840D01*
X92750895Y-51800846D01*
X92702756Y-51980506D01*
X92666391Y-52040166D01*
X92603544Y-52070695D01*
X92534168Y-52062400D01*
X92480290Y-52017915D01*
X92463715Y-51982347D01*
X92420582Y-51830750D01*
X92420159Y-51829901D01*
X92360364Y-51709815D01*
X92329673Y-51648179D01*
X92245849Y-51537178D01*
X92206762Y-51485418D01*
X92056041Y-51348019D01*
X92056039Y-51348017D01*
X91882642Y-51240655D01*
X91882635Y-51240651D01*
X91787546Y-51203814D01*
X91692456Y-51166976D01*
X91491976Y-51129500D01*
X91288024Y-51129500D01*
X91087544Y-51166976D01*
X91087541Y-51166976D01*
X91087541Y-51166977D01*
X90897364Y-51240651D01*
X90897357Y-51240655D01*
X90723960Y-51348017D01*
X90723958Y-51348019D01*
X90573237Y-51485418D01*
X90450327Y-51648178D01*
X90359422Y-51830739D01*
X90359417Y-51830752D01*
X90303602Y-52026917D01*
X90284785Y-52229999D01*
X90284785Y-52230000D01*
X90303602Y-52433082D01*
X90359417Y-52629247D01*
X90359422Y-52629260D01*
X90450327Y-52811821D01*
X90573237Y-52974581D01*
X90723958Y-53111980D01*
X90723960Y-53111982D01*
X90795417Y-53156226D01*
X90897363Y-53219348D01*
X91087544Y-53293024D01*
X91288024Y-53330500D01*
X91288026Y-53330500D01*
X91491974Y-53330500D01*
X91491976Y-53330500D01*
X91692456Y-53293024D01*
X91882637Y-53219348D01*
X92056041Y-53111981D01*
X92206764Y-52974579D01*
X92329673Y-52811821D01*
X92420582Y-52629250D01*
X92463716Y-52477651D01*
X92500994Y-52418559D01*
X92564304Y-52389002D01*
X92633543Y-52398364D01*
X92686730Y-52443674D01*
X92702756Y-52479494D01*
X92750894Y-52659150D01*
X92750898Y-52659159D01*
X92843333Y-52857387D01*
X92968787Y-53036554D01*
X93123445Y-53191212D01*
X93302612Y-53316666D01*
X93500840Y-53409101D01*
X93500849Y-53409105D01*
X93680305Y-53457189D01*
X93739965Y-53493553D01*
X93770495Y-53556400D01*
X93762201Y-53625776D01*
X93717716Y-53679654D01*
X93670999Y-53698852D01*
X93627544Y-53706975D01*
X93437364Y-53780651D01*
X93437357Y-53780655D01*
X93263960Y-53888017D01*
X93263958Y-53888019D01*
X93113237Y-54025418D01*
X93008421Y-54164218D01*
X92990327Y-54188179D01*
X92921813Y-54325773D01*
X92874313Y-54377008D01*
X92810815Y-54394500D01*
X92653865Y-54394500D01*
X92556388Y-54420619D01*
X92486538Y-54418956D01*
X92428676Y-54379793D01*
X92413295Y-54356115D01*
X92370415Y-54270000D01*
X92329673Y-54188179D01*
X92206764Y-54025421D01*
X92206762Y-54025418D01*
X92056041Y-53888019D01*
X92056039Y-53888017D01*
X91882642Y-53780655D01*
X91882639Y-53780653D01*
X91882637Y-53780652D01*
X91882636Y-53780651D01*
X91882635Y-53780651D01*
X91762017Y-53733924D01*
X91692456Y-53706976D01*
X91491976Y-53669500D01*
X91288024Y-53669500D01*
X91087544Y-53706976D01*
X91087541Y-53706976D01*
X91087541Y-53706977D01*
X90897364Y-53780651D01*
X90897357Y-53780655D01*
X90723960Y-53888017D01*
X90723958Y-53888019D01*
X90573237Y-54025418D01*
X90450327Y-54188178D01*
X90359422Y-54370739D01*
X90359417Y-54370752D01*
X90316284Y-54522347D01*
X90279004Y-54581440D01*
X90215694Y-54610997D01*
X90146455Y-54601635D01*
X90093269Y-54556325D01*
X90077243Y-54520505D01*
X90029105Y-54340849D01*
X90029101Y-54340840D01*
X89936666Y-54142612D01*
X89936664Y-54142608D01*
X89811216Y-53963450D01*
X89811211Y-53963444D01*
X89656554Y-53808787D01*
X89477387Y-53683333D01*
X89279159Y-53590898D01*
X89279150Y-53590894D01*
X89099694Y-53542810D01*
X89040033Y-53506445D01*
X89009504Y-53443598D01*
X89017799Y-53374223D01*
X89062284Y-53320345D01*
X89108999Y-53301147D01*
X89152456Y-53293024D01*
X89342637Y-53219348D01*
X89516041Y-53111981D01*
X89666764Y-52974579D01*
X89789673Y-52811821D01*
X89880582Y-52629250D01*
X89936397Y-52433083D01*
X89955215Y-52230000D01*
X89949115Y-52164174D01*
X89936397Y-52026917D01*
X89933383Y-52016325D01*
X89880582Y-51830750D01*
X89880159Y-51829901D01*
X89820364Y-51709815D01*
X89789673Y-51648179D01*
X89705849Y-51537178D01*
X89666762Y-51485418D01*
X89516041Y-51348019D01*
X89516039Y-51348017D01*
X89342642Y-51240655D01*
X89342635Y-51240651D01*
X89247546Y-51203814D01*
X89152456Y-51166976D01*
X88951976Y-51129500D01*
X88748024Y-51129500D01*
X88547544Y-51166976D01*
X88547541Y-51166976D01*
X88547541Y-51166977D01*
X88357364Y-51240651D01*
X88357357Y-51240655D01*
X88183960Y-51348017D01*
X88183958Y-51348019D01*
X88033237Y-51485418D01*
X87910327Y-51648178D01*
X87819422Y-51830739D01*
X87819417Y-51830752D01*
X87763602Y-52026917D01*
X87744785Y-52229999D01*
X87744785Y-52230000D01*
X87763602Y-52433082D01*
X87819417Y-52629247D01*
X87819422Y-52629260D01*
X87910327Y-52811821D01*
X88033237Y-52974581D01*
X88183958Y-53111980D01*
X88183960Y-53111982D01*
X88255417Y-53156226D01*
X88357363Y-53219348D01*
X88547544Y-53293024D01*
X88590999Y-53301147D01*
X88653278Y-53332814D01*
X88688551Y-53393126D01*
X88685617Y-53462934D01*
X88645409Y-53520075D01*
X88600305Y-53542810D01*
X88420849Y-53590894D01*
X88420840Y-53590898D01*
X88222612Y-53683333D01*
X88222608Y-53683335D01*
X88043450Y-53808783D01*
X88043444Y-53808788D01*
X87888788Y-53963444D01*
X87888783Y-53963450D01*
X87763335Y-54142608D01*
X87763333Y-54142612D01*
X87670898Y-54340840D01*
X87670895Y-54340846D01*
X87622756Y-54520506D01*
X87586391Y-54580166D01*
X87523544Y-54610695D01*
X87454168Y-54602400D01*
X87400290Y-54557915D01*
X87383715Y-54522347D01*
X87340582Y-54370750D01*
X87340159Y-54369901D01*
X87290415Y-54270000D01*
X87249673Y-54188179D01*
X87126764Y-54025421D01*
X87126762Y-54025418D01*
X86976041Y-53888019D01*
X86976039Y-53888017D01*
X86802642Y-53780655D01*
X86802639Y-53780653D01*
X86802637Y-53780652D01*
X86802636Y-53780651D01*
X86802635Y-53780651D01*
X86682017Y-53733924D01*
X86612456Y-53706976D01*
X86411976Y-53669500D01*
X86208024Y-53669500D01*
X86007544Y-53706976D01*
X86007541Y-53706976D01*
X86007541Y-53706977D01*
X85817364Y-53780651D01*
X85817357Y-53780655D01*
X85643962Y-53888016D01*
X85495215Y-54023616D01*
X85432410Y-54054232D01*
X85363023Y-54046034D01*
X85323996Y-54019659D01*
X84517552Y-53213215D01*
X84484067Y-53151892D01*
X84489051Y-53082200D01*
X84521692Y-53033899D01*
X84586764Y-52974579D01*
X84709673Y-52811821D01*
X84800582Y-52629250D01*
X84856397Y-52433083D01*
X84875215Y-52230000D01*
X84875215Y-52229999D01*
X85204785Y-52229999D01*
X85204785Y-52230000D01*
X85223602Y-52433082D01*
X85279417Y-52629247D01*
X85279422Y-52629260D01*
X85370327Y-52811821D01*
X85493237Y-52974581D01*
X85643958Y-53111980D01*
X85643960Y-53111982D01*
X85715417Y-53156226D01*
X85817363Y-53219348D01*
X86007544Y-53293024D01*
X86208024Y-53330500D01*
X86208026Y-53330500D01*
X86411974Y-53330500D01*
X86411976Y-53330500D01*
X86612456Y-53293024D01*
X86802637Y-53219348D01*
X86976041Y-53111981D01*
X87126764Y-52974579D01*
X87249673Y-52811821D01*
X87340582Y-52629250D01*
X87396397Y-52433083D01*
X87415215Y-52230000D01*
X87409115Y-52164174D01*
X87396397Y-52026917D01*
X87393383Y-52016325D01*
X87340582Y-51830750D01*
X87340159Y-51829901D01*
X87280364Y-51709815D01*
X87249673Y-51648179D01*
X87165849Y-51537178D01*
X87126762Y-51485418D01*
X86976041Y-51348019D01*
X86976039Y-51348017D01*
X86802642Y-51240655D01*
X86802635Y-51240651D01*
X86707546Y-51203814D01*
X86612456Y-51166976D01*
X86411976Y-51129500D01*
X86208024Y-51129500D01*
X86007544Y-51166976D01*
X86007541Y-51166976D01*
X86007541Y-51166977D01*
X85817364Y-51240651D01*
X85817357Y-51240655D01*
X85643960Y-51348017D01*
X85643958Y-51348019D01*
X85493237Y-51485418D01*
X85370327Y-51648178D01*
X85279422Y-51830739D01*
X85279417Y-51830752D01*
X85223602Y-52026917D01*
X85204785Y-52229999D01*
X84875215Y-52229999D01*
X84869115Y-52164174D01*
X84856397Y-52026917D01*
X84853383Y-52016325D01*
X84800582Y-51830750D01*
X84800159Y-51829901D01*
X84740364Y-51709815D01*
X84709673Y-51648179D01*
X84625849Y-51537178D01*
X84586762Y-51485418D01*
X84436041Y-51348019D01*
X84436039Y-51348017D01*
X84262642Y-51240655D01*
X84262635Y-51240651D01*
X84167546Y-51203814D01*
X84072456Y-51166976D01*
X83871976Y-51129500D01*
X83668024Y-51129500D01*
X83467544Y-51166976D01*
X83467541Y-51166976D01*
X83467541Y-51166977D01*
X83277364Y-51240651D01*
X83277357Y-51240655D01*
X83103960Y-51348017D01*
X83103958Y-51348019D01*
X82953237Y-51485418D01*
X82830327Y-51648178D01*
X82739422Y-51830739D01*
X82739417Y-51830752D01*
X82696284Y-51982347D01*
X82659004Y-52041440D01*
X82595694Y-52070997D01*
X82526455Y-52061635D01*
X82473269Y-52016325D01*
X82457243Y-51980505D01*
X82409105Y-51800849D01*
X82409101Y-51800840D01*
X82316666Y-51602612D01*
X82316664Y-51602608D01*
X82191216Y-51423450D01*
X82191211Y-51423444D01*
X82036554Y-51268787D01*
X81857387Y-51143333D01*
X81659159Y-51050898D01*
X81659150Y-51050894D01*
X81447889Y-50994288D01*
X81430000Y-50992722D01*
X81430000Y-51768120D01*
X81422993Y-51764075D01*
X81295826Y-51730000D01*
X81164174Y-51730000D01*
X81037007Y-51764075D01*
X81030000Y-51768120D01*
X81030000Y-50992722D01*
X81012110Y-50994288D01*
X80800849Y-51050894D01*
X80800840Y-51050898D01*
X80602612Y-51143333D01*
X80602608Y-51143335D01*
X80423450Y-51268783D01*
X80423444Y-51268788D01*
X80268788Y-51423444D01*
X80268783Y-51423450D01*
X80143335Y-51602608D01*
X80143333Y-51602612D01*
X80050898Y-51800840D01*
X80050895Y-51800846D01*
X80002756Y-51980506D01*
X79966391Y-52040166D01*
X79903544Y-52070695D01*
X79834168Y-52062400D01*
X79780290Y-52017915D01*
X79763715Y-51982347D01*
X79720582Y-51830750D01*
X79720159Y-51829901D01*
X79660364Y-51709815D01*
X79629673Y-51648179D01*
X79545849Y-51537178D01*
X79506762Y-51485418D01*
X79356041Y-51348019D01*
X79356039Y-51348017D01*
X79182642Y-51240655D01*
X79182635Y-51240651D01*
X79087546Y-51203814D01*
X78992456Y-51166976D01*
X78791976Y-51129500D01*
X78588024Y-51129500D01*
X78387544Y-51166976D01*
X78387541Y-51166976D01*
X78387541Y-51166977D01*
X78197364Y-51240651D01*
X78197357Y-51240655D01*
X78023960Y-51348017D01*
X78023958Y-51348019D01*
X77873237Y-51485418D01*
X77750327Y-51648178D01*
X77659422Y-51830739D01*
X77659417Y-51830752D01*
X77603602Y-52026917D01*
X77584785Y-52229999D01*
X77584785Y-52230000D01*
X77603602Y-52433082D01*
X77659417Y-52629247D01*
X77659422Y-52629260D01*
X77750327Y-52811821D01*
X77873237Y-52974581D01*
X78023958Y-53111980D01*
X78023960Y-53111982D01*
X78095417Y-53156226D01*
X78197363Y-53219348D01*
X78387544Y-53293024D01*
X78588024Y-53330500D01*
X78588026Y-53330500D01*
X78791974Y-53330500D01*
X78791976Y-53330500D01*
X78992456Y-53293024D01*
X79182637Y-53219348D01*
X79356041Y-53111981D01*
X79506764Y-52974579D01*
X79629673Y-52811821D01*
X79720582Y-52629250D01*
X79763716Y-52477651D01*
X79800994Y-52418559D01*
X79864304Y-52389002D01*
X79933543Y-52398364D01*
X79986730Y-52443674D01*
X80002756Y-52479494D01*
X80050894Y-52659150D01*
X80050898Y-52659159D01*
X80143333Y-52857387D01*
X80268787Y-53036554D01*
X80423445Y-53191212D01*
X80602612Y-53316666D01*
X80800840Y-53409101D01*
X80800849Y-53409105D01*
X80980305Y-53457189D01*
X81039965Y-53493553D01*
X81070495Y-53556400D01*
X81062201Y-53625776D01*
X81017716Y-53679654D01*
X80970999Y-53698852D01*
X80927544Y-53706975D01*
X80737364Y-53780651D01*
X80737357Y-53780655D01*
X80563960Y-53888017D01*
X80563958Y-53888019D01*
X80413237Y-54025418D01*
X80290327Y-54188178D01*
X80199422Y-54370739D01*
X80199417Y-54370752D01*
X80143602Y-54566917D01*
X80124785Y-54769999D01*
X80124785Y-54770000D01*
X80143602Y-54973082D01*
X80199417Y-55169247D01*
X80199422Y-55169260D01*
X80249585Y-55270000D01*
X80290327Y-55351821D01*
X80413236Y-55514579D01*
X80445360Y-55543864D01*
X80481640Y-55603573D01*
X80479880Y-55673421D01*
X80440637Y-55731229D01*
X80376371Y-55758643D01*
X80361821Y-55759500D01*
X79558179Y-55759500D01*
X79491140Y-55739815D01*
X79445385Y-55687011D01*
X79435441Y-55617853D01*
X79464466Y-55554297D01*
X79474632Y-55543870D01*
X79506764Y-55514579D01*
X79629673Y-55351821D01*
X79720582Y-55169250D01*
X79776397Y-54973083D01*
X79795215Y-54770000D01*
X79792422Y-54739863D01*
X79776397Y-54566917D01*
X79772183Y-54552108D01*
X79720582Y-54370750D01*
X79720159Y-54369901D01*
X79670415Y-54270000D01*
X79629673Y-54188179D01*
X79506764Y-54025421D01*
X79506762Y-54025418D01*
X79356041Y-53888019D01*
X79356039Y-53888017D01*
X79182642Y-53780655D01*
X79182639Y-53780653D01*
X79182637Y-53780652D01*
X79182636Y-53780651D01*
X79182635Y-53780651D01*
X79062017Y-53733924D01*
X78992456Y-53706976D01*
X78791976Y-53669500D01*
X78588024Y-53669500D01*
X78533705Y-53679654D01*
X78387536Y-53706977D01*
X78297443Y-53741879D01*
X78227820Y-53747740D01*
X78166080Y-53715030D01*
X78164970Y-53713933D01*
X77650563Y-53199526D01*
X77650562Y-53199525D01*
X77564938Y-53150090D01*
X77517186Y-53137295D01*
X77517184Y-53137294D01*
X77517182Y-53137293D01*
X77469436Y-53124500D01*
X77469435Y-53124500D01*
X77102574Y-53124500D01*
X77035535Y-53104815D01*
X76989780Y-53052011D01*
X76979836Y-52982853D01*
X77003619Y-52925774D01*
X77089673Y-52811821D01*
X77180582Y-52629250D01*
X77236397Y-52433083D01*
X77255215Y-52230000D01*
X77249115Y-52164174D01*
X77236397Y-52026917D01*
X77233383Y-52016325D01*
X77180582Y-51830750D01*
X77180159Y-51829901D01*
X77120364Y-51709815D01*
X77089673Y-51648179D01*
X77005849Y-51537178D01*
X76966762Y-51485418D01*
X76816041Y-51348019D01*
X76816039Y-51348017D01*
X76642642Y-51240655D01*
X76642635Y-51240651D01*
X76547546Y-51203814D01*
X76452456Y-51166976D01*
X76251976Y-51129500D01*
X76048024Y-51129500D01*
X75847544Y-51166976D01*
X75847541Y-51166976D01*
X75847541Y-51166977D01*
X75657364Y-51240651D01*
X75657357Y-51240655D01*
X75483960Y-51348017D01*
X75483958Y-51348019D01*
X75333237Y-51485418D01*
X75210327Y-51648178D01*
X75119422Y-51830739D01*
X75119417Y-51830752D01*
X75076284Y-51982347D01*
X75039004Y-52041440D01*
X74975694Y-52070997D01*
X74906455Y-52061635D01*
X74853269Y-52016325D01*
X74837243Y-51980505D01*
X74789105Y-51800849D01*
X74789101Y-51800840D01*
X74696666Y-51602612D01*
X74696664Y-51602608D01*
X74571216Y-51423450D01*
X74571211Y-51423444D01*
X74416554Y-51268787D01*
X74237387Y-51143333D01*
X74039159Y-51050898D01*
X74039150Y-51050894D01*
X73827889Y-50994288D01*
X73810000Y-50992722D01*
X73810000Y-51768120D01*
X73802993Y-51764075D01*
X73675826Y-51730000D01*
X73544174Y-51730000D01*
X73417007Y-51764075D01*
X73410000Y-51768120D01*
X73410000Y-50992722D01*
X73392110Y-50994288D01*
X73180849Y-51050894D01*
X73180840Y-51050898D01*
X72982612Y-51143333D01*
X72982608Y-51143335D01*
X72803450Y-51268783D01*
X72803444Y-51268788D01*
X72648788Y-51423444D01*
X72648783Y-51423450D01*
X72523335Y-51602608D01*
X72523333Y-51602612D01*
X72430898Y-51800840D01*
X72430895Y-51800846D01*
X72382756Y-51980506D01*
X72346391Y-52040166D01*
X72283544Y-52070695D01*
X72214168Y-52062400D01*
X72160290Y-52017915D01*
X72143715Y-51982347D01*
X72100582Y-51830750D01*
X72100159Y-51829901D01*
X72040364Y-51709815D01*
X72009673Y-51648179D01*
X71925849Y-51537178D01*
X71886762Y-51485418D01*
X71736041Y-51348019D01*
X71736039Y-51348017D01*
X71562642Y-51240655D01*
X71562635Y-51240651D01*
X71467546Y-51203814D01*
X71372456Y-51166976D01*
X71171976Y-51129500D01*
X70968024Y-51129500D01*
X70767544Y-51166976D01*
X70767541Y-51166976D01*
X70767541Y-51166977D01*
X70577364Y-51240651D01*
X70577357Y-51240655D01*
X70403960Y-51348017D01*
X70403958Y-51348019D01*
X70253237Y-51485418D01*
X70130327Y-51648178D01*
X70039422Y-51830739D01*
X70039417Y-51830752D01*
X69983602Y-52026917D01*
X69964785Y-52229999D01*
X69964785Y-52230000D01*
X69983602Y-52433082D01*
X70039417Y-52629247D01*
X70039422Y-52629260D01*
X70074202Y-52699107D01*
X70130327Y-52811821D01*
X70216380Y-52925774D01*
X70241072Y-52991134D01*
X70226507Y-53059469D01*
X70177310Y-53109081D01*
X70117426Y-53124500D01*
X69482574Y-53124500D01*
X69415535Y-53104815D01*
X69369780Y-53052011D01*
X69359836Y-52982853D01*
X69383619Y-52925774D01*
X69469673Y-52811821D01*
X69560582Y-52629250D01*
X69616397Y-52433083D01*
X69635215Y-52230000D01*
X69629115Y-52164174D01*
X69616397Y-52026917D01*
X69613383Y-52016325D01*
X69560582Y-51830750D01*
X69560159Y-51829901D01*
X69500364Y-51709815D01*
X69469673Y-51648179D01*
X69385849Y-51537178D01*
X69346762Y-51485418D01*
X69196041Y-51348019D01*
X69196039Y-51348017D01*
X69022642Y-51240655D01*
X69022635Y-51240651D01*
X68927546Y-51203814D01*
X68832456Y-51166976D01*
X68631976Y-51129500D01*
X68428024Y-51129500D01*
X68227544Y-51166976D01*
X68227541Y-51166976D01*
X68227541Y-51166977D01*
X68037364Y-51240651D01*
X68037357Y-51240655D01*
X67863960Y-51348017D01*
X67863958Y-51348019D01*
X67713237Y-51485418D01*
X67590327Y-51648178D01*
X67499422Y-51830739D01*
X67499417Y-51830752D01*
X67443602Y-52026917D01*
X67424785Y-52229999D01*
X67424785Y-52230000D01*
X67443602Y-52433082D01*
X67499417Y-52629247D01*
X67499422Y-52629260D01*
X67534202Y-52699107D01*
X67590327Y-52811821D01*
X67676380Y-52925774D01*
X67701072Y-52991134D01*
X67686507Y-53059469D01*
X67637310Y-53109081D01*
X67577426Y-53124500D01*
X66942574Y-53124500D01*
X66875535Y-53104815D01*
X66829780Y-53052011D01*
X66819836Y-52982853D01*
X66843619Y-52925774D01*
X66929673Y-52811821D01*
X67020582Y-52629250D01*
X67076397Y-52433083D01*
X67095215Y-52230000D01*
X67089115Y-52164174D01*
X67076397Y-52026917D01*
X67073383Y-52016325D01*
X67020582Y-51830750D01*
X67020159Y-51829901D01*
X66960364Y-51709815D01*
X66929673Y-51648179D01*
X66845849Y-51537178D01*
X66806762Y-51485418D01*
X66656041Y-51348019D01*
X66656039Y-51348017D01*
X66482642Y-51240655D01*
X66482635Y-51240651D01*
X66387546Y-51203814D01*
X66292456Y-51166976D01*
X66091976Y-51129500D01*
X65888024Y-51129500D01*
X65687544Y-51166976D01*
X65687541Y-51166976D01*
X65687541Y-51166977D01*
X65497364Y-51240651D01*
X65497357Y-51240655D01*
X65323960Y-51348017D01*
X65323958Y-51348019D01*
X65173237Y-51485418D01*
X65050327Y-51648178D01*
X64959422Y-51830739D01*
X64959417Y-51830752D01*
X64916284Y-51982347D01*
X64879004Y-52041440D01*
X64815694Y-52070997D01*
X64746455Y-52061635D01*
X64693269Y-52016325D01*
X64677243Y-51980505D01*
X64629105Y-51800849D01*
X64629101Y-51800840D01*
X64536666Y-51602612D01*
X64536664Y-51602608D01*
X64411216Y-51423450D01*
X64411211Y-51423444D01*
X64256554Y-51268787D01*
X64077387Y-51143333D01*
X63879159Y-51050898D01*
X63879150Y-51050894D01*
X63667889Y-50994288D01*
X63650000Y-50992722D01*
X63650000Y-51768120D01*
X63642993Y-51764075D01*
X63515826Y-51730000D01*
X63384174Y-51730000D01*
X63257007Y-51764075D01*
X63250000Y-51768120D01*
X63250000Y-50992722D01*
X63232110Y-50994288D01*
X63020849Y-51050894D01*
X63020840Y-51050898D01*
X62822612Y-51143333D01*
X62822608Y-51143335D01*
X62643450Y-51268783D01*
X62643444Y-51268788D01*
X62488788Y-51423444D01*
X62488783Y-51423450D01*
X62363335Y-51602608D01*
X62363333Y-51602612D01*
X62270898Y-51800840D01*
X62270895Y-51800846D01*
X62222756Y-51980506D01*
X62186391Y-52040166D01*
X62123544Y-52070695D01*
X62054168Y-52062400D01*
X62000290Y-52017915D01*
X61983715Y-51982347D01*
X61940582Y-51830750D01*
X61940159Y-51829901D01*
X61880364Y-51709815D01*
X61849673Y-51648179D01*
X61765849Y-51537178D01*
X61726762Y-51485418D01*
X61576041Y-51348019D01*
X61576039Y-51348017D01*
X61402642Y-51240655D01*
X61402635Y-51240651D01*
X61307546Y-51203814D01*
X61212456Y-51166976D01*
X61011976Y-51129500D01*
X60808024Y-51129500D01*
X60607544Y-51166976D01*
X60607541Y-51166976D01*
X60607541Y-51166977D01*
X60417364Y-51240651D01*
X60417357Y-51240655D01*
X60243960Y-51348017D01*
X60243958Y-51348019D01*
X60093237Y-51485418D01*
X59970326Y-51648178D01*
X59964055Y-51660774D01*
X59916551Y-51712010D01*
X59853056Y-51729500D01*
X59426944Y-51729500D01*
X59359905Y-51709815D01*
X59315945Y-51660774D01*
X59309673Y-51648178D01*
X59186762Y-51485418D01*
X59036041Y-51348019D01*
X59036039Y-51348017D01*
X58862642Y-51240655D01*
X58862635Y-51240651D01*
X58767546Y-51203814D01*
X58672456Y-51166976D01*
X58471976Y-51129500D01*
X58268024Y-51129500D01*
X58067544Y-51166976D01*
X58067541Y-51166976D01*
X58067541Y-51166977D01*
X57877364Y-51240651D01*
X57877357Y-51240655D01*
X57703960Y-51348017D01*
X57703958Y-51348019D01*
X57553237Y-51485418D01*
X57430327Y-51648178D01*
X57339422Y-51830739D01*
X57339417Y-51830752D01*
X57283602Y-52026917D01*
X57264785Y-52229999D01*
X57264785Y-52230000D01*
X57283602Y-52433082D01*
X57339417Y-52629247D01*
X57339422Y-52629260D01*
X57430327Y-52811821D01*
X57553237Y-52974581D01*
X57703958Y-53111980D01*
X57703960Y-53111982D01*
X57775417Y-53156226D01*
X57877363Y-53219348D01*
X58067544Y-53293024D01*
X58268024Y-53330500D01*
X58268026Y-53330500D01*
X58471974Y-53330500D01*
X58471976Y-53330500D01*
X58672456Y-53293024D01*
X58862637Y-53219348D01*
X59036041Y-53111981D01*
X59186764Y-52974579D01*
X59309673Y-52811821D01*
X59315945Y-52799226D01*
X59363449Y-52747990D01*
X59426944Y-52730500D01*
X59853056Y-52730500D01*
X59920095Y-52750185D01*
X59964055Y-52799226D01*
X59970326Y-52811821D01*
X60018813Y-52876027D01*
X60056380Y-52925774D01*
X60081072Y-52991134D01*
X60066507Y-53059469D01*
X60017310Y-53109081D01*
X59957426Y-53124500D01*
X59590564Y-53124500D01*
X59542812Y-53137295D01*
X59542811Y-53137294D01*
X59495063Y-53150089D01*
X59495062Y-53150089D01*
X59409435Y-53199527D01*
X58975782Y-53633181D01*
X58914459Y-53666666D01*
X58888101Y-53669500D01*
X57495323Y-53669500D01*
X57422264Y-53684032D01*
X57422260Y-53684033D01*
X57339399Y-53739399D01*
X57284033Y-53822260D01*
X57284032Y-53822264D01*
X57269500Y-53895321D01*
X57269500Y-55644678D01*
X57284032Y-55717735D01*
X57284033Y-55717739D01*
X57284034Y-55717740D01*
X57339399Y-55800601D01*
X57400104Y-55841162D01*
X57422260Y-55855966D01*
X57422264Y-55855967D01*
X57495321Y-55870499D01*
X57495324Y-55870500D01*
X57495326Y-55870500D01*
X59244676Y-55870500D01*
X59244677Y-55870499D01*
X59317740Y-55855966D01*
X59400601Y-55800601D01*
X59455966Y-55717740D01*
X59470500Y-55644674D01*
X59470500Y-54251899D01*
X59490185Y-54184860D01*
X59506819Y-54164218D01*
X59759218Y-53911819D01*
X59820541Y-53878334D01*
X59846899Y-53875500D01*
X59957426Y-53875500D01*
X60024465Y-53895185D01*
X60070220Y-53947989D01*
X60080164Y-54017147D01*
X60056380Y-54074225D01*
X60020521Y-54121710D01*
X59970327Y-54188178D01*
X59879422Y-54370739D01*
X59879417Y-54370752D01*
X59823602Y-54566917D01*
X59804785Y-54769999D01*
X59804785Y-54770000D01*
X59823602Y-54973082D01*
X59879417Y-55169247D01*
X59879422Y-55169260D01*
X59970327Y-55351821D01*
X60093237Y-55514581D01*
X60243958Y-55651980D01*
X60243960Y-55651982D01*
X60350162Y-55717739D01*
X60396068Y-55746163D01*
X60407135Y-55753015D01*
X60453771Y-55805043D01*
X60464875Y-55874024D01*
X60436922Y-55938059D01*
X60429541Y-55946122D01*
X60400525Y-55975138D01*
X60370312Y-56027469D01*
X60351091Y-56060760D01*
X60351090Y-56060763D01*
X60337662Y-56110879D01*
X60329420Y-56141637D01*
X60325500Y-56156265D01*
X60325500Y-61706864D01*
X60325500Y-61805736D01*
X60337512Y-61850564D01*
X60351090Y-61901238D01*
X60383700Y-61957721D01*
X60400526Y-61986863D01*
X61200939Y-62787276D01*
X61234424Y-62848599D01*
X61229440Y-62918291D01*
X61196796Y-62966594D01*
X61143237Y-63015418D01*
X61020327Y-63178178D01*
X60929422Y-63360739D01*
X60929417Y-63360752D01*
X60873602Y-63556917D01*
X60854785Y-63759999D01*
X60854785Y-63760000D01*
X60873602Y-63963079D01*
X60873602Y-63963082D01*
X60873603Y-63963083D01*
X60892534Y-64029622D01*
X60891947Y-64099487D01*
X60860949Y-64151235D01*
X60244186Y-64768000D01*
X60151002Y-64861183D01*
X60151000Y-64861186D01*
X60085108Y-64975312D01*
X60051000Y-65102608D01*
X60051000Y-68686895D01*
X60031315Y-68753934D01*
X59978511Y-68799689D01*
X59909353Y-68809633D01*
X59869375Y-68796692D01*
X59825765Y-68773803D01*
X59677187Y-68737183D01*
X59619181Y-68704467D01*
X58869616Y-67954902D01*
X58869614Y-67954900D01*
X58810672Y-67920870D01*
X58755487Y-67889008D01*
X58691839Y-67871954D01*
X58628192Y-67854900D01*
X58628191Y-67854900D01*
X56798444Y-67854900D01*
X56731405Y-67835215D01*
X56716220Y-67823718D01*
X56707640Y-67816117D01*
X56707638Y-67816116D01*
X56707637Y-67816115D01*
X56707633Y-67816112D01*
X56567765Y-67742703D01*
X56414386Y-67704900D01*
X56414385Y-67704900D01*
X56256415Y-67704900D01*
X56256414Y-67704900D01*
X56103034Y-67742703D01*
X55963162Y-67816115D01*
X55844916Y-67920871D01*
X55755181Y-68050875D01*
X55755180Y-68050876D01*
X55699162Y-68198581D01*
X55680122Y-68355399D01*
X55680122Y-68355400D01*
X55699162Y-68512218D01*
X55738175Y-68615084D01*
X55755180Y-68659923D01*
X55844917Y-68789930D01*
X55963160Y-68894683D01*
X55975260Y-68901033D01*
X56103034Y-68968096D01*
X56256414Y-69005900D01*
X56256415Y-69005900D01*
X56414385Y-69005900D01*
X56567765Y-68968096D01*
X56707633Y-68894687D01*
X56707634Y-68894685D01*
X56707640Y-68894683D01*
X56716218Y-68887083D01*
X56779450Y-68857363D01*
X56798444Y-68855900D01*
X58303624Y-68855900D01*
X58370663Y-68875585D01*
X58391305Y-68892219D01*
X58915124Y-69416038D01*
X58948609Y-69477361D01*
X58950539Y-69488771D01*
X58957162Y-69543316D01*
X58957163Y-69543321D01*
X59007210Y-69675282D01*
X59013180Y-69691023D01*
X59102917Y-69821030D01*
X59221160Y-69925783D01*
X59223486Y-69927004D01*
X59361034Y-69999196D01*
X59514414Y-70037000D01*
X59514415Y-70037000D01*
X59672385Y-70037000D01*
X59825765Y-69999196D01*
X59869374Y-69976307D01*
X59937881Y-69962582D01*
X60002935Y-69988074D01*
X60043879Y-70044689D01*
X60051000Y-70086104D01*
X60051000Y-72498524D01*
X60031315Y-72565563D01*
X60014681Y-72586205D01*
X59376202Y-73224683D01*
X59376200Y-73224686D01*
X59310308Y-73338812D01*
X59276200Y-73466108D01*
X59276200Y-75650500D01*
X59256515Y-75717539D01*
X59203711Y-75763294D01*
X59152200Y-75774500D01*
X58350323Y-75774500D01*
X58277264Y-75789032D01*
X58277260Y-75789033D01*
X58194399Y-75844399D01*
X58139033Y-75927260D01*
X58139032Y-75927264D01*
X58124500Y-76000321D01*
X58124500Y-76999678D01*
X58139032Y-77072735D01*
X58139033Y-77072739D01*
X58139034Y-77072740D01*
X58194399Y-77155601D01*
X58269390Y-77205708D01*
X58314196Y-77259319D01*
X58324500Y-77308810D01*
X58324500Y-77591189D01*
X58304815Y-77658228D01*
X58269391Y-77694291D01*
X58194399Y-77744398D01*
X58139033Y-77827260D01*
X58139032Y-77827264D01*
X58124500Y-77900321D01*
X58124500Y-78519100D01*
X58104815Y-78586139D01*
X58052011Y-78631894D01*
X57982853Y-78641838D01*
X57919297Y-78612813D01*
X57912819Y-78606781D01*
X57911819Y-78605781D01*
X57878334Y-78544458D01*
X57875500Y-78518100D01*
X57875500Y-77900323D01*
X57875499Y-77900321D01*
X57860967Y-77827264D01*
X57860966Y-77827260D01*
X57805601Y-77744399D01*
X57722740Y-77689034D01*
X57722739Y-77689033D01*
X57722735Y-77689032D01*
X57649677Y-77674500D01*
X57649674Y-77674500D01*
X56700326Y-77674500D01*
X56700323Y-77674500D01*
X56627264Y-77689032D01*
X56627260Y-77689033D01*
X56544399Y-77744399D01*
X56489033Y-77827260D01*
X56489032Y-77827264D01*
X56474500Y-77900321D01*
X56474500Y-78899678D01*
X56489032Y-78972735D01*
X56489033Y-78972739D01*
X56507405Y-79000235D01*
X56544399Y-79055601D01*
X56627260Y-79110966D01*
X56627264Y-79110967D01*
X56700321Y-79125499D01*
X56700324Y-79125500D01*
X56700326Y-79125500D01*
X57318100Y-79125500D01*
X57385139Y-79145185D01*
X57405781Y-79161819D01*
X57781781Y-79537819D01*
X57815266Y-79599142D01*
X57810282Y-79668834D01*
X57768410Y-79724767D01*
X57702946Y-79749184D01*
X57694100Y-79749500D01*
X53003481Y-79749500D01*
X52996528Y-79749305D01*
X52699106Y-79732602D01*
X52685288Y-79731045D01*
X52395046Y-79681730D01*
X52381489Y-79678636D01*
X52098586Y-79597133D01*
X52085462Y-79592540D01*
X51813472Y-79479879D01*
X51800943Y-79473846D01*
X51543273Y-79331436D01*
X51531499Y-79324038D01*
X51291395Y-79153676D01*
X51280523Y-79145006D01*
X51062875Y-78950504D01*
X51061000Y-78948828D01*
X51051169Y-78938997D01*
X51016031Y-78899678D01*
X50854993Y-78719476D01*
X50846323Y-78708604D01*
X50675961Y-78468500D01*
X50668563Y-78456726D01*
X50526153Y-78199056D01*
X50520120Y-78186527D01*
X50407459Y-77914537D01*
X50402866Y-77901413D01*
X50321363Y-77618510D01*
X50318269Y-77604953D01*
X50294320Y-77464000D01*
X50268953Y-77314703D01*
X50267397Y-77300900D01*
X50250695Y-77003471D01*
X50250500Y-76996519D01*
X50250500Y-76372070D01*
X51874500Y-76372070D01*
X51874500Y-76627930D01*
X51884836Y-76693186D01*
X51914526Y-76880640D01*
X51993588Y-77123972D01*
X51993589Y-77123975D01*
X52053610Y-77241771D01*
X52109370Y-77351206D01*
X52109750Y-77351950D01*
X52260132Y-77558935D01*
X52260136Y-77558940D01*
X52441059Y-77739863D01*
X52441064Y-77739867D01*
X52561357Y-77827264D01*
X52648053Y-77890252D01*
X52797080Y-77966185D01*
X52876024Y-78006410D01*
X52876027Y-78006411D01*
X52997693Y-78045942D01*
X53119361Y-78085474D01*
X53372070Y-78125500D01*
X53372071Y-78125500D01*
X53627929Y-78125500D01*
X53627930Y-78125500D01*
X53880639Y-78085474D01*
X54123975Y-78006410D01*
X54351947Y-77890252D01*
X54558942Y-77739862D01*
X54739862Y-77558942D01*
X54890252Y-77351947D01*
X55006410Y-77123975D01*
X55085474Y-76880639D01*
X55125500Y-76627930D01*
X55125500Y-76372070D01*
X55085474Y-76119361D01*
X55046796Y-76000321D01*
X56474500Y-76000321D01*
X56474500Y-76999678D01*
X56489032Y-77072735D01*
X56489033Y-77072739D01*
X56489034Y-77072740D01*
X56544399Y-77155601D01*
X56619389Y-77205707D01*
X56627260Y-77210966D01*
X56627264Y-77210967D01*
X56700321Y-77225499D01*
X56700324Y-77225500D01*
X56700326Y-77225500D01*
X57649676Y-77225500D01*
X57649677Y-77225499D01*
X57722740Y-77210966D01*
X57805601Y-77155601D01*
X57860966Y-77072740D01*
X57875500Y-76999674D01*
X57875500Y-76000326D01*
X57875500Y-76000323D01*
X57875499Y-76000321D01*
X57860967Y-75927264D01*
X57860966Y-75927260D01*
X57805601Y-75844399D01*
X57757484Y-75812249D01*
X57712681Y-75758639D01*
X57703972Y-75689314D01*
X57711815Y-75661696D01*
X57760044Y-75545262D01*
X57780682Y-75388500D01*
X57777149Y-75361667D01*
X57761566Y-75243298D01*
X57760044Y-75231738D01*
X57699536Y-75085659D01*
X57603282Y-74960218D01*
X57477841Y-74863964D01*
X57476940Y-74863591D01*
X57331762Y-74803456D01*
X57331760Y-74803455D01*
X57175001Y-74782818D01*
X57174999Y-74782818D01*
X57018239Y-74803455D01*
X57018237Y-74803456D01*
X56872160Y-74863963D01*
X56746718Y-74960218D01*
X56650463Y-75085660D01*
X56589956Y-75231737D01*
X56589955Y-75231739D01*
X56569318Y-75388498D01*
X56569318Y-75388501D01*
X56589955Y-75545260D01*
X56589957Y-75545265D01*
X56638184Y-75661696D01*
X56645653Y-75731165D01*
X56614378Y-75793644D01*
X56592514Y-75812250D01*
X56544399Y-75844398D01*
X56489033Y-75927260D01*
X56489032Y-75927264D01*
X56474500Y-76000321D01*
X55046796Y-76000321D01*
X55035240Y-75964755D01*
X55006411Y-75876027D01*
X55006410Y-75876024D01*
X54948970Y-75763294D01*
X54890252Y-75648053D01*
X54830148Y-75565326D01*
X54739867Y-75441064D01*
X54739863Y-75441059D01*
X54558940Y-75260136D01*
X54558935Y-75260132D01*
X54351950Y-75109750D01*
X54351949Y-75109749D01*
X54351947Y-75109748D01*
X54242893Y-75054182D01*
X54123975Y-74993589D01*
X54123972Y-74993588D01*
X53880640Y-74914526D01*
X53670313Y-74881213D01*
X53627930Y-74874500D01*
X53372070Y-74874500D01*
X53329687Y-74881213D01*
X53119359Y-74914526D01*
X52876027Y-74993588D01*
X52876024Y-74993589D01*
X52648049Y-75109750D01*
X52441064Y-75260132D01*
X52441059Y-75260136D01*
X52260136Y-75441059D01*
X52260132Y-75441064D01*
X52109750Y-75648049D01*
X51993589Y-75876024D01*
X51993588Y-75876027D01*
X51914526Y-76119359D01*
X51878787Y-76345004D01*
X51874500Y-76372070D01*
X50250500Y-76372070D01*
X50250500Y-72419799D01*
X50270185Y-72352760D01*
X50322989Y-72307005D01*
X50392147Y-72297061D01*
X50455703Y-72326086D01*
X50462181Y-72332118D01*
X51031325Y-72901262D01*
X51101238Y-72971175D01*
X51186862Y-73020610D01*
X51186866Y-73020611D01*
X51227502Y-73031500D01*
X51227503Y-73031500D01*
X51242203Y-73035438D01*
X51282364Y-73046200D01*
X51282365Y-73046200D01*
X52314035Y-73046200D01*
X52314036Y-73046200D01*
X52357303Y-73034606D01*
X52368897Y-73031500D01*
X52386814Y-73026698D01*
X52409538Y-73020610D01*
X52495162Y-72971175D01*
X52565075Y-72901262D01*
X52565074Y-72901262D01*
X52623643Y-72842693D01*
X53895275Y-71571063D01*
X53929961Y-71510984D01*
X53929962Y-71510983D01*
X53944708Y-71485441D01*
X53944707Y-71485441D01*
X53944710Y-71485438D01*
X53970300Y-71389935D01*
X53970300Y-61207165D01*
X53944710Y-61111662D01*
X53895275Y-61026038D01*
X53825362Y-60956125D01*
X52539653Y-59670416D01*
X52506168Y-59609093D01*
X52511152Y-59539401D01*
X52543796Y-59491098D01*
X52561688Y-59474787D01*
X52616764Y-59424579D01*
X52739673Y-59261821D01*
X52830582Y-59079250D01*
X52886397Y-58883083D01*
X52905215Y-58680000D01*
X52898115Y-58603382D01*
X52886397Y-58476917D01*
X52849390Y-58346853D01*
X52830582Y-58280750D01*
X52816215Y-58251898D01*
X52782782Y-58184755D01*
X52739673Y-58098179D01*
X52616764Y-57935421D01*
X52616762Y-57935418D01*
X52466041Y-57798019D01*
X52466039Y-57798017D01*
X52292642Y-57690655D01*
X52292635Y-57690651D01*
X52186150Y-57649399D01*
X52102456Y-57616976D01*
X51901976Y-57579500D01*
X51698024Y-57579500D01*
X51497544Y-57616976D01*
X51497541Y-57616976D01*
X51497541Y-57616977D01*
X51307364Y-57690651D01*
X51307357Y-57690655D01*
X51133960Y-57798017D01*
X51133958Y-57798019D01*
X50983237Y-57935418D01*
X50860327Y-58098178D01*
X50769422Y-58280739D01*
X50769417Y-58280752D01*
X50713602Y-58476917D01*
X50694785Y-58679999D01*
X50694785Y-58680000D01*
X50713602Y-58883082D01*
X50769417Y-59079247D01*
X50769422Y-59079260D01*
X50860327Y-59261821D01*
X50983236Y-59424579D01*
X51038314Y-59474789D01*
X51074594Y-59534498D01*
X51072834Y-59604346D01*
X51042456Y-59654106D01*
X50462181Y-60234382D01*
X50400858Y-60267867D01*
X50331167Y-60262883D01*
X50275233Y-60221012D01*
X50250816Y-60155547D01*
X50250500Y-60146701D01*
X50250500Y-53372070D01*
X51874500Y-53372070D01*
X51874500Y-53627930D01*
X51885733Y-53698852D01*
X51914526Y-53880640D01*
X51993588Y-54123972D01*
X51993589Y-54123975D01*
X52058771Y-54251899D01*
X52104093Y-54340849D01*
X52109750Y-54351950D01*
X52260132Y-54558935D01*
X52260136Y-54558940D01*
X52441059Y-54739863D01*
X52441064Y-54739867D01*
X52587145Y-54846000D01*
X52648053Y-54890252D01*
X52742478Y-54938364D01*
X52876024Y-55006410D01*
X52876027Y-55006411D01*
X52997693Y-55045942D01*
X53119361Y-55085474D01*
X53372070Y-55125500D01*
X53372071Y-55125500D01*
X53627929Y-55125500D01*
X53627930Y-55125500D01*
X53880639Y-55085474D01*
X54123975Y-55006410D01*
X54351947Y-54890252D01*
X54558942Y-54739862D01*
X54739862Y-54558942D01*
X54890252Y-54351947D01*
X55006410Y-54123975D01*
X55085474Y-53880639D01*
X55125500Y-53627930D01*
X55125500Y-53372070D01*
X55085474Y-53119361D01*
X55006410Y-52876025D01*
X55006410Y-52876024D01*
X54942291Y-52750185D01*
X54890252Y-52648053D01*
X54809573Y-52537007D01*
X54739867Y-52441064D01*
X54739863Y-52441059D01*
X54558940Y-52260136D01*
X54558935Y-52260132D01*
X54351950Y-52109750D01*
X54351949Y-52109749D01*
X54351947Y-52109748D01*
X54275894Y-52070997D01*
X54123975Y-51993589D01*
X54123972Y-51993588D01*
X53880640Y-51914526D01*
X53754284Y-51894513D01*
X53627930Y-51874500D01*
X53372070Y-51874500D01*
X53287833Y-51887842D01*
X53119359Y-51914526D01*
X52876027Y-51993588D01*
X52876024Y-51993589D01*
X52648049Y-52109750D01*
X52441064Y-52260132D01*
X52441059Y-52260136D01*
X52260136Y-52441059D01*
X52260132Y-52441064D01*
X52109750Y-52648049D01*
X51993589Y-52876024D01*
X51993588Y-52876027D01*
X51914526Y-53119359D01*
X51898690Y-53219344D01*
X51874500Y-53372070D01*
X50250500Y-53372070D01*
X50250500Y-53003480D01*
X50250695Y-52996528D01*
X50258509Y-52857387D01*
X50267398Y-52699097D01*
X50268952Y-52685298D01*
X50318269Y-52395041D01*
X50321363Y-52381489D01*
X50356325Y-52260136D01*
X50402867Y-52098582D01*
X50407459Y-52085462D01*
X50450933Y-51980505D01*
X50520123Y-51813463D01*
X50526145Y-51800957D01*
X50668566Y-51543267D01*
X50675961Y-51531499D01*
X50708655Y-51485421D01*
X50846330Y-51291385D01*
X50854985Y-51280531D01*
X51051179Y-51060991D01*
X51060991Y-51051179D01*
X51280531Y-50854985D01*
X51291385Y-50846330D01*
X51531504Y-50675957D01*
X51543267Y-50668566D01*
X51800957Y-50526145D01*
X51813463Y-50520123D01*
X52085462Y-50407459D01*
X52098582Y-50402867D01*
X52381494Y-50321361D01*
X52395041Y-50318269D01*
X52685298Y-50268952D01*
X52699097Y-50267398D01*
X52959562Y-50252770D01*
X52996529Y-50250695D01*
X53003481Y-50250500D01*
X53044170Y-50250500D01*
X111955830Y-50250500D01*
X111996519Y-50250500D01*
X112003471Y-50250695D01*
G37*
%TD.AperFunction*%
%TA.AperFunction,Conductor*%
G36*
X107889763Y-71059885D02*
G01*
X107910405Y-71076519D01*
X111961705Y-75127819D01*
X111995190Y-75189142D01*
X111990206Y-75258834D01*
X111948334Y-75314767D01*
X111882870Y-75339184D01*
X111874024Y-75339500D01*
X111755323Y-75339500D01*
X111682264Y-75354032D01*
X111682260Y-75354033D01*
X111599399Y-75409399D01*
X111544033Y-75492260D01*
X111544032Y-75492264D01*
X111529500Y-75565321D01*
X111529500Y-76383382D01*
X111528971Y-76394823D01*
X111524785Y-76439998D01*
X111524785Y-76440000D01*
X111528971Y-76485175D01*
X111529500Y-76496616D01*
X111529500Y-79114678D01*
X111544032Y-79187735D01*
X111544033Y-79187739D01*
X111557310Y-79207610D01*
X111599399Y-79270601D01*
X111682260Y-79325966D01*
X111682264Y-79325967D01*
X111755321Y-79340499D01*
X111755324Y-79340500D01*
X111755326Y-79340500D01*
X112899629Y-79340500D01*
X112966668Y-79360185D01*
X113012423Y-79412989D01*
X113022367Y-79482147D01*
X112993342Y-79545703D01*
X112947079Y-79579062D01*
X112937077Y-79583204D01*
X112914534Y-79592542D01*
X112901413Y-79597133D01*
X112618510Y-79678636D01*
X112604953Y-79681730D01*
X112314711Y-79731045D01*
X112300893Y-79732602D01*
X112003472Y-79749305D01*
X111996519Y-79749500D01*
X59814199Y-79749500D01*
X59747160Y-79729815D01*
X59701405Y-79677011D01*
X59691461Y-79607853D01*
X59720486Y-79544297D01*
X59726518Y-79537819D01*
X61097863Y-78166474D01*
X62491174Y-76773163D01*
X62491175Y-76773162D01*
X62540610Y-76687538D01*
X62566200Y-76592035D01*
X62566200Y-76592032D01*
X62567261Y-76583975D01*
X62568931Y-76584195D01*
X62585885Y-76526460D01*
X62602519Y-76505818D01*
X63057819Y-76050518D01*
X63119142Y-76017033D01*
X63188834Y-76022017D01*
X63244767Y-76063889D01*
X63269184Y-76129353D01*
X63269500Y-76138199D01*
X63269500Y-76383382D01*
X63268971Y-76394823D01*
X63264785Y-76439998D01*
X63264785Y-76440000D01*
X63268971Y-76485175D01*
X63269500Y-76496616D01*
X63269500Y-79114678D01*
X63284032Y-79187735D01*
X63284033Y-79187739D01*
X63297310Y-79207610D01*
X63339399Y-79270601D01*
X63422260Y-79325966D01*
X63422264Y-79325967D01*
X63495321Y-79340499D01*
X63495324Y-79340500D01*
X63495326Y-79340500D01*
X65244676Y-79340500D01*
X65244677Y-79340499D01*
X65317740Y-79325966D01*
X65400601Y-79270601D01*
X65455966Y-79187740D01*
X65470500Y-79114674D01*
X65470500Y-76496616D01*
X65471029Y-76485175D01*
X65475215Y-76440000D01*
X65475215Y-76439998D01*
X65804785Y-76439998D01*
X65804785Y-76440000D01*
X65808971Y-76485175D01*
X65809500Y-76496616D01*
X65809500Y-79114678D01*
X65824032Y-79187735D01*
X65824033Y-79187739D01*
X65837310Y-79207610D01*
X65879399Y-79270601D01*
X65962260Y-79325966D01*
X65962264Y-79325967D01*
X66035321Y-79340499D01*
X66035324Y-79340500D01*
X66035326Y-79340500D01*
X67784676Y-79340500D01*
X67784677Y-79340499D01*
X67857740Y-79325966D01*
X67940601Y-79270601D01*
X67995202Y-79188883D01*
X68048811Y-79144079D01*
X68118136Y-79135370D01*
X68181164Y-79165524D01*
X68208432Y-79207456D01*
X68210403Y-79206452D01*
X68272356Y-79328041D01*
X68272363Y-79328050D01*
X68361949Y-79417636D01*
X68361953Y-79417639D01*
X68474855Y-79475166D01*
X68568514Y-79489999D01*
X69249999Y-79489999D01*
X69250000Y-79489998D01*
X69250000Y-76913428D01*
X69253147Y-76915245D01*
X69382857Y-76950000D01*
X69517143Y-76950000D01*
X69646853Y-76915245D01*
X69650000Y-76913428D01*
X69650000Y-79489999D01*
X70331479Y-79489999D01*
X70425149Y-79475164D01*
X70425155Y-79475162D01*
X70538041Y-79417643D01*
X70538050Y-79417636D01*
X70627636Y-79328050D01*
X70627639Y-79328046D01*
X70689595Y-79206452D01*
X70691867Y-79207610D01*
X70723187Y-79161792D01*
X70787542Y-79134584D01*
X70856390Y-79146488D01*
X70904797Y-79188883D01*
X70959398Y-79270600D01*
X70959399Y-79270601D01*
X71042260Y-79325966D01*
X71042264Y-79325967D01*
X71115321Y-79340499D01*
X71115324Y-79340500D01*
X71115326Y-79340500D01*
X72864676Y-79340500D01*
X72864677Y-79340499D01*
X72937740Y-79325966D01*
X73020601Y-79270601D01*
X73075966Y-79187740D01*
X73090500Y-79114674D01*
X73090500Y-76496616D01*
X73091029Y-76485175D01*
X73095215Y-76440000D01*
X73095215Y-76439998D01*
X73424785Y-76439998D01*
X73424785Y-76440000D01*
X73428971Y-76485175D01*
X73429500Y-76496616D01*
X73429500Y-79114678D01*
X73444032Y-79187735D01*
X73444033Y-79187739D01*
X73457310Y-79207610D01*
X73499399Y-79270601D01*
X73582260Y-79325966D01*
X73582264Y-79325967D01*
X73655321Y-79340499D01*
X73655324Y-79340500D01*
X73655326Y-79340500D01*
X75404676Y-79340500D01*
X75404677Y-79340499D01*
X75477740Y-79325966D01*
X75560601Y-79270601D01*
X75615966Y-79187740D01*
X75630500Y-79114674D01*
X75630500Y-76496616D01*
X75631029Y-76485175D01*
X75635215Y-76440000D01*
X75635215Y-76439998D01*
X75964785Y-76439998D01*
X75964785Y-76440000D01*
X75968971Y-76485175D01*
X75969500Y-76496616D01*
X75969500Y-79114678D01*
X75984032Y-79187735D01*
X75984033Y-79187739D01*
X75997310Y-79207610D01*
X76039399Y-79270601D01*
X76122260Y-79325966D01*
X76122264Y-79325967D01*
X76195321Y-79340499D01*
X76195324Y-79340500D01*
X76195326Y-79340500D01*
X77944676Y-79340500D01*
X77944677Y-79340499D01*
X78017740Y-79325966D01*
X78100601Y-79270601D01*
X78155966Y-79187740D01*
X78170500Y-79114674D01*
X78170500Y-76496616D01*
X78171029Y-76485175D01*
X78175215Y-76440000D01*
X78175215Y-76439998D01*
X78504785Y-76439998D01*
X78504785Y-76440000D01*
X78508971Y-76485175D01*
X78509500Y-76496616D01*
X78509500Y-79114678D01*
X78524032Y-79187735D01*
X78524033Y-79187739D01*
X78537310Y-79207610D01*
X78579399Y-79270601D01*
X78662260Y-79325966D01*
X78662264Y-79325967D01*
X78735321Y-79340499D01*
X78735324Y-79340500D01*
X78735326Y-79340500D01*
X80484676Y-79340500D01*
X80484677Y-79340499D01*
X80557740Y-79325966D01*
X80640601Y-79270601D01*
X80695202Y-79188883D01*
X80748811Y-79144079D01*
X80818136Y-79135370D01*
X80881164Y-79165524D01*
X80908432Y-79207456D01*
X80910403Y-79206452D01*
X80972356Y-79328041D01*
X80972363Y-79328050D01*
X81061949Y-79417636D01*
X81061953Y-79417639D01*
X81174855Y-79475166D01*
X81268514Y-79489999D01*
X81949999Y-79489999D01*
X81950000Y-79489998D01*
X81950000Y-76913428D01*
X81953147Y-76915245D01*
X82082857Y-76950000D01*
X82217143Y-76950000D01*
X82346853Y-76915245D01*
X82350000Y-76913428D01*
X82350000Y-79489999D01*
X83031479Y-79489999D01*
X83125149Y-79475164D01*
X83125155Y-79475162D01*
X83238041Y-79417643D01*
X83238050Y-79417636D01*
X83327636Y-79328050D01*
X83327639Y-79328046D01*
X83389595Y-79206452D01*
X83391867Y-79207610D01*
X83423187Y-79161792D01*
X83487542Y-79134584D01*
X83556390Y-79146488D01*
X83604797Y-79188883D01*
X83659398Y-79270600D01*
X83659399Y-79270601D01*
X83742260Y-79325966D01*
X83742264Y-79325967D01*
X83815321Y-79340499D01*
X83815324Y-79340500D01*
X83815326Y-79340500D01*
X85564676Y-79340500D01*
X85564677Y-79340499D01*
X85637740Y-79325966D01*
X85720601Y-79270601D01*
X85775966Y-79187740D01*
X85790500Y-79114674D01*
X85790500Y-76496616D01*
X85791029Y-76485175D01*
X85795215Y-76440000D01*
X85795215Y-76439998D01*
X86124785Y-76439998D01*
X86124785Y-76440000D01*
X86128971Y-76485175D01*
X86129500Y-76496616D01*
X86129500Y-79114678D01*
X86144032Y-79187735D01*
X86144033Y-79187739D01*
X86157310Y-79207610D01*
X86199399Y-79270601D01*
X86282260Y-79325966D01*
X86282264Y-79325967D01*
X86355321Y-79340499D01*
X86355324Y-79340500D01*
X86355326Y-79340500D01*
X88104676Y-79340500D01*
X88104677Y-79340499D01*
X88177740Y-79325966D01*
X88260601Y-79270601D01*
X88315966Y-79187740D01*
X88330500Y-79114674D01*
X88330500Y-76496616D01*
X88331029Y-76485175D01*
X88335215Y-76440000D01*
X88335215Y-76439998D01*
X88664785Y-76439998D01*
X88664785Y-76440000D01*
X88668971Y-76485175D01*
X88669500Y-76496616D01*
X88669500Y-79114678D01*
X88684032Y-79187735D01*
X88684033Y-79187739D01*
X88697310Y-79207610D01*
X88739399Y-79270601D01*
X88822260Y-79325966D01*
X88822264Y-79325967D01*
X88895321Y-79340499D01*
X88895324Y-79340500D01*
X88895326Y-79340500D01*
X90644676Y-79340500D01*
X90644677Y-79340499D01*
X90717740Y-79325966D01*
X90800601Y-79270601D01*
X90855966Y-79187740D01*
X90870500Y-79114674D01*
X90870500Y-76496616D01*
X90871029Y-76485175D01*
X90875215Y-76440000D01*
X90875215Y-76439998D01*
X90871029Y-76394823D01*
X90870500Y-76383382D01*
X90870500Y-75565323D01*
X90870499Y-75565321D01*
X90855967Y-75492264D01*
X90855966Y-75492260D01*
X90842690Y-75472391D01*
X90800601Y-75409399D01*
X90717740Y-75354034D01*
X90717739Y-75354033D01*
X90717735Y-75354032D01*
X90644677Y-75339500D01*
X90644674Y-75339500D01*
X88895326Y-75339500D01*
X88895323Y-75339500D01*
X88822264Y-75354032D01*
X88822260Y-75354033D01*
X88739399Y-75409399D01*
X88684033Y-75492260D01*
X88684032Y-75492264D01*
X88669500Y-75565321D01*
X88669500Y-76383382D01*
X88668971Y-76394823D01*
X88664785Y-76439998D01*
X88335215Y-76439998D01*
X88331029Y-76394823D01*
X88330500Y-76383382D01*
X88330500Y-75565323D01*
X88330499Y-75565321D01*
X88315967Y-75492264D01*
X88315966Y-75492260D01*
X88302690Y-75472391D01*
X88260601Y-75409399D01*
X88177740Y-75354034D01*
X88177739Y-75354033D01*
X88177735Y-75354032D01*
X88104677Y-75339500D01*
X88104674Y-75339500D01*
X86355326Y-75339500D01*
X86355323Y-75339500D01*
X86282264Y-75354032D01*
X86282260Y-75354033D01*
X86199399Y-75409399D01*
X86144033Y-75492260D01*
X86144032Y-75492264D01*
X86129500Y-75565321D01*
X86129500Y-76383382D01*
X86128971Y-76394823D01*
X86124785Y-76439998D01*
X85795215Y-76439998D01*
X85791029Y-76394823D01*
X85790500Y-76383382D01*
X85790500Y-75565323D01*
X85790499Y-75565321D01*
X85775967Y-75492264D01*
X85775966Y-75492260D01*
X85762690Y-75472391D01*
X85720601Y-75409399D01*
X85637740Y-75354034D01*
X85637739Y-75354033D01*
X85637735Y-75354032D01*
X85564677Y-75339500D01*
X85564674Y-75339500D01*
X83815326Y-75339500D01*
X83815323Y-75339500D01*
X83742264Y-75354032D01*
X83742260Y-75354033D01*
X83659398Y-75409399D01*
X83604798Y-75491116D01*
X83551186Y-75535921D01*
X83481861Y-75544628D01*
X83418834Y-75514474D01*
X83391570Y-75472542D01*
X83389597Y-75473548D01*
X83327643Y-75351958D01*
X83327636Y-75351949D01*
X83238050Y-75262363D01*
X83238046Y-75262360D01*
X83125144Y-75204833D01*
X83031486Y-75190000D01*
X82350000Y-75190000D01*
X82350000Y-75966571D01*
X82346853Y-75964755D01*
X82217143Y-75930000D01*
X82082857Y-75930000D01*
X81953147Y-75964755D01*
X81950000Y-75966571D01*
X81950000Y-75190000D01*
X81268520Y-75190000D01*
X81174850Y-75204835D01*
X81174844Y-75204837D01*
X81061958Y-75262356D01*
X81061949Y-75262363D01*
X80972363Y-75351949D01*
X80972360Y-75351953D01*
X80910405Y-75473548D01*
X80908135Y-75472391D01*
X80876789Y-75518226D01*
X80812428Y-75545418D01*
X80743582Y-75533497D01*
X80695202Y-75491116D01*
X80640601Y-75409399D01*
X80557739Y-75354033D01*
X80557735Y-75354032D01*
X80484677Y-75339500D01*
X80484674Y-75339500D01*
X78735326Y-75339500D01*
X78735323Y-75339500D01*
X78662264Y-75354032D01*
X78662260Y-75354033D01*
X78579399Y-75409399D01*
X78524033Y-75492260D01*
X78524032Y-75492264D01*
X78509500Y-75565321D01*
X78509500Y-76383382D01*
X78508971Y-76394823D01*
X78504785Y-76439998D01*
X78175215Y-76439998D01*
X78171029Y-76394823D01*
X78170500Y-76383382D01*
X78170500Y-75565323D01*
X78170499Y-75565321D01*
X78155967Y-75492264D01*
X78155966Y-75492260D01*
X78142690Y-75472391D01*
X78100601Y-75409399D01*
X78017740Y-75354034D01*
X78017739Y-75354033D01*
X78017735Y-75354032D01*
X77944677Y-75339500D01*
X77944674Y-75339500D01*
X76195326Y-75339500D01*
X76195323Y-75339500D01*
X76122264Y-75354032D01*
X76122260Y-75354033D01*
X76039399Y-75409399D01*
X75984033Y-75492260D01*
X75984032Y-75492264D01*
X75969500Y-75565321D01*
X75969500Y-76383382D01*
X75968971Y-76394823D01*
X75964785Y-76439998D01*
X75635215Y-76439998D01*
X75631029Y-76394823D01*
X75630500Y-76383382D01*
X75630500Y-75565323D01*
X75630499Y-75565321D01*
X75615967Y-75492264D01*
X75615966Y-75492260D01*
X75602690Y-75472391D01*
X75560601Y-75409399D01*
X75477740Y-75354034D01*
X75477739Y-75354033D01*
X75477735Y-75354032D01*
X75404677Y-75339500D01*
X75404674Y-75339500D01*
X73655326Y-75339500D01*
X73655323Y-75339500D01*
X73582264Y-75354032D01*
X73582260Y-75354033D01*
X73499399Y-75409399D01*
X73444033Y-75492260D01*
X73444032Y-75492264D01*
X73429500Y-75565321D01*
X73429500Y-76383382D01*
X73428971Y-76394823D01*
X73424785Y-76439998D01*
X73095215Y-76439998D01*
X73091029Y-76394823D01*
X73090500Y-76383382D01*
X73090500Y-75565323D01*
X73090499Y-75565321D01*
X73075967Y-75492264D01*
X73075966Y-75492260D01*
X73062690Y-75472391D01*
X73020601Y-75409399D01*
X72937740Y-75354034D01*
X72937739Y-75354033D01*
X72937735Y-75354032D01*
X72864677Y-75339500D01*
X72864674Y-75339500D01*
X71115326Y-75339500D01*
X71115323Y-75339500D01*
X71042264Y-75354032D01*
X71042260Y-75354033D01*
X70959398Y-75409399D01*
X70904798Y-75491116D01*
X70851186Y-75535921D01*
X70781861Y-75544628D01*
X70718834Y-75514474D01*
X70691570Y-75472542D01*
X70689597Y-75473548D01*
X70627643Y-75351958D01*
X70627636Y-75351949D01*
X70538050Y-75262363D01*
X70538046Y-75262360D01*
X70425144Y-75204833D01*
X70331486Y-75190000D01*
X69650000Y-75190000D01*
X69650000Y-75966571D01*
X69646853Y-75964755D01*
X69517143Y-75930000D01*
X69382857Y-75930000D01*
X69253147Y-75964755D01*
X69250000Y-75966571D01*
X69250000Y-75190000D01*
X68568520Y-75190000D01*
X68474850Y-75204835D01*
X68474844Y-75204837D01*
X68361958Y-75262356D01*
X68361949Y-75262363D01*
X68272363Y-75351949D01*
X68272360Y-75351953D01*
X68210405Y-75473548D01*
X68208135Y-75472391D01*
X68176789Y-75518226D01*
X68112428Y-75545418D01*
X68043582Y-75533497D01*
X67995202Y-75491116D01*
X67940601Y-75409399D01*
X67857739Y-75354033D01*
X67857735Y-75354032D01*
X67784677Y-75339500D01*
X67784674Y-75339500D01*
X66035326Y-75339500D01*
X66035323Y-75339500D01*
X65962264Y-75354032D01*
X65962260Y-75354033D01*
X65879399Y-75409399D01*
X65824033Y-75492260D01*
X65824032Y-75492264D01*
X65809500Y-75565321D01*
X65809500Y-76383382D01*
X65808971Y-76394823D01*
X65804785Y-76439998D01*
X65475215Y-76439998D01*
X65471029Y-76394823D01*
X65470500Y-76383382D01*
X65470500Y-75565323D01*
X65470499Y-75565321D01*
X65455967Y-75492264D01*
X65455966Y-75492260D01*
X65442690Y-75472391D01*
X65400601Y-75409399D01*
X65400599Y-75409398D01*
X65400599Y-75409397D01*
X65329165Y-75361667D01*
X65284359Y-75308055D01*
X65275652Y-75238730D01*
X65305806Y-75175703D01*
X65336063Y-75151173D01*
X65337332Y-75150439D01*
X65337341Y-75150436D01*
X65462782Y-75054182D01*
X65559036Y-74928741D01*
X65595684Y-74840263D01*
X65639522Y-74785864D01*
X65705816Y-74763798D01*
X65773515Y-74781076D01*
X65788918Y-74793041D01*
X65789140Y-74792753D01*
X65795581Y-74797695D01*
X65795586Y-74797700D01*
X65909714Y-74863592D01*
X66037008Y-74897700D01*
X66037010Y-74897700D01*
X81804090Y-74897700D01*
X81804092Y-74897700D01*
X81931386Y-74863592D01*
X82045514Y-74797700D01*
X84638595Y-72204619D01*
X84699918Y-72171134D01*
X84726276Y-72168300D01*
X99760356Y-72168300D01*
X99827395Y-72187985D01*
X99842579Y-72199481D01*
X99851160Y-72207083D01*
X99851162Y-72207084D01*
X99851166Y-72207087D01*
X99991034Y-72280496D01*
X100144414Y-72318300D01*
X100144415Y-72318300D01*
X100302385Y-72318300D01*
X100455765Y-72280496D01*
X100595637Y-72207085D01*
X100595638Y-72207083D01*
X100595640Y-72207083D01*
X100618274Y-72187030D01*
X100681505Y-72157311D01*
X100750769Y-72166493D01*
X100804072Y-72211665D01*
X100824493Y-72278484D01*
X100824500Y-72279847D01*
X100824500Y-72733100D01*
X100804815Y-72800139D01*
X100788181Y-72820781D01*
X99850782Y-73758181D01*
X99789459Y-73791666D01*
X99763101Y-73794500D01*
X98570564Y-73794500D01*
X98475063Y-73820089D01*
X98475060Y-73820090D01*
X98389440Y-73869522D01*
X98389434Y-73869527D01*
X98380005Y-73878956D01*
X98318681Y-73912439D01*
X98248990Y-73907452D01*
X98193057Y-73865579D01*
X98176385Y-73835243D01*
X98174314Y-73829781D01*
X98148220Y-73760977D01*
X98058483Y-73630970D01*
X97940240Y-73526217D01*
X97940238Y-73526216D01*
X97940237Y-73526215D01*
X97800365Y-73452803D01*
X97646986Y-73415000D01*
X97646985Y-73415000D01*
X97489015Y-73415000D01*
X97489014Y-73415000D01*
X97335634Y-73452803D01*
X97299258Y-73471896D01*
X97241632Y-73486100D01*
X90631444Y-73486100D01*
X90564405Y-73466415D01*
X90549220Y-73454918D01*
X90540640Y-73447317D01*
X90540638Y-73447316D01*
X90540637Y-73447315D01*
X90540633Y-73447312D01*
X90400765Y-73373903D01*
X90247386Y-73336100D01*
X90247385Y-73336100D01*
X90089415Y-73336100D01*
X90089414Y-73336100D01*
X89936034Y-73373903D01*
X89796162Y-73447315D01*
X89677916Y-73552071D01*
X89588181Y-73682075D01*
X89588180Y-73682076D01*
X89532162Y-73829781D01*
X89513122Y-73986599D01*
X89513122Y-73986600D01*
X89532162Y-74143418D01*
X89581794Y-74274285D01*
X89588180Y-74291123D01*
X89677917Y-74421130D01*
X89796160Y-74525883D01*
X89796162Y-74525884D01*
X89936034Y-74599296D01*
X90089414Y-74637100D01*
X90089415Y-74637100D01*
X90247385Y-74637100D01*
X90400765Y-74599296D01*
X90540633Y-74525887D01*
X90540634Y-74525885D01*
X90540640Y-74525883D01*
X90549218Y-74518283D01*
X90612450Y-74488563D01*
X90631444Y-74487100D01*
X97015895Y-74487100D01*
X97082934Y-74506785D01*
X97098120Y-74518282D01*
X97195760Y-74604783D01*
X97195762Y-74604784D01*
X97342276Y-74681682D01*
X97341468Y-74683219D01*
X97389733Y-74719755D01*
X97413798Y-74785350D01*
X97398580Y-74853542D01*
X97377749Y-74881213D01*
X97159438Y-75099525D01*
X97089526Y-75169436D01*
X97040091Y-75255059D01*
X97036981Y-75262569D01*
X97033758Y-75261234D01*
X97005807Y-75307181D01*
X96942986Y-75337765D01*
X96922317Y-75339500D01*
X96515323Y-75339500D01*
X96442264Y-75354032D01*
X96442260Y-75354033D01*
X96359398Y-75409399D01*
X96304798Y-75491116D01*
X96251186Y-75535921D01*
X96181861Y-75544628D01*
X96118834Y-75514474D01*
X96091570Y-75472542D01*
X96089597Y-75473548D01*
X96027643Y-75351958D01*
X96027636Y-75351949D01*
X95938050Y-75262363D01*
X95938046Y-75262360D01*
X95825144Y-75204833D01*
X95731486Y-75190000D01*
X95050000Y-75190000D01*
X95050000Y-75966571D01*
X95046853Y-75964755D01*
X94917143Y-75930000D01*
X94782857Y-75930000D01*
X94653147Y-75964755D01*
X94650000Y-75966571D01*
X94650000Y-75190000D01*
X93968520Y-75190000D01*
X93874850Y-75204835D01*
X93874844Y-75204837D01*
X93761958Y-75262356D01*
X93761949Y-75262363D01*
X93672363Y-75351949D01*
X93672360Y-75351953D01*
X93610405Y-75473548D01*
X93608135Y-75472391D01*
X93576789Y-75518226D01*
X93512428Y-75545418D01*
X93443582Y-75533497D01*
X93395202Y-75491116D01*
X93340601Y-75409399D01*
X93257739Y-75354033D01*
X93257735Y-75354032D01*
X93184677Y-75339500D01*
X93184674Y-75339500D01*
X91435326Y-75339500D01*
X91435323Y-75339500D01*
X91362264Y-75354032D01*
X91362260Y-75354033D01*
X91279399Y-75409399D01*
X91224033Y-75492260D01*
X91224032Y-75492264D01*
X91209500Y-75565321D01*
X91209500Y-76383382D01*
X91208971Y-76394823D01*
X91204785Y-76439998D01*
X91204785Y-76440000D01*
X91208971Y-76485175D01*
X91209500Y-76496616D01*
X91209500Y-79114678D01*
X91224032Y-79187735D01*
X91224033Y-79187739D01*
X91237310Y-79207610D01*
X91279399Y-79270601D01*
X91362260Y-79325966D01*
X91362264Y-79325967D01*
X91435321Y-79340499D01*
X91435324Y-79340500D01*
X91435326Y-79340500D01*
X93184676Y-79340500D01*
X93184677Y-79340499D01*
X93257740Y-79325966D01*
X93340601Y-79270601D01*
X93395202Y-79188883D01*
X93448811Y-79144079D01*
X93518136Y-79135370D01*
X93581164Y-79165524D01*
X93608432Y-79207456D01*
X93610403Y-79206452D01*
X93672356Y-79328041D01*
X93672363Y-79328050D01*
X93761949Y-79417636D01*
X93761953Y-79417639D01*
X93874855Y-79475166D01*
X93968514Y-79489999D01*
X94649999Y-79489999D01*
X94650000Y-79489998D01*
X94650000Y-76913428D01*
X94653147Y-76915245D01*
X94782857Y-76950000D01*
X94917143Y-76950000D01*
X95046853Y-76915245D01*
X95050000Y-76913428D01*
X95050000Y-79489999D01*
X95731479Y-79489999D01*
X95825149Y-79475164D01*
X95825155Y-79475162D01*
X95938041Y-79417643D01*
X95938050Y-79417636D01*
X96027636Y-79328050D01*
X96027639Y-79328046D01*
X96089595Y-79206452D01*
X96091867Y-79207610D01*
X96123187Y-79161792D01*
X96187542Y-79134584D01*
X96256390Y-79146488D01*
X96304797Y-79188883D01*
X96359398Y-79270600D01*
X96359399Y-79270601D01*
X96442260Y-79325966D01*
X96442264Y-79325967D01*
X96515321Y-79340499D01*
X96515324Y-79340500D01*
X96515326Y-79340500D01*
X98264676Y-79340500D01*
X98264677Y-79340499D01*
X98337740Y-79325966D01*
X98420601Y-79270601D01*
X98475966Y-79187740D01*
X98490500Y-79114674D01*
X98490500Y-76439998D01*
X98824785Y-76439998D01*
X98824785Y-76440000D01*
X98828971Y-76485175D01*
X98829500Y-76496616D01*
X98829500Y-79114678D01*
X98844032Y-79187735D01*
X98844033Y-79187739D01*
X98857310Y-79207610D01*
X98899399Y-79270601D01*
X98982260Y-79325966D01*
X98982264Y-79325967D01*
X99055321Y-79340499D01*
X99055324Y-79340500D01*
X99055326Y-79340500D01*
X100804676Y-79340500D01*
X100804677Y-79340499D01*
X100877740Y-79325966D01*
X100960601Y-79270601D01*
X101015966Y-79187740D01*
X101030500Y-79114674D01*
X101030500Y-76496616D01*
X101031029Y-76485175D01*
X101035215Y-76440000D01*
X101035215Y-76439998D01*
X101031029Y-76394823D01*
X101030500Y-76383382D01*
X101030500Y-75565323D01*
X101030499Y-75565321D01*
X101015967Y-75492264D01*
X101015966Y-75492260D01*
X101002690Y-75472391D01*
X100960601Y-75409399D01*
X100877740Y-75354034D01*
X100877739Y-75354033D01*
X100877735Y-75354032D01*
X100804677Y-75339500D01*
X100804674Y-75339500D01*
X99055326Y-75339500D01*
X99055323Y-75339500D01*
X98982264Y-75354032D01*
X98982260Y-75354033D01*
X98899399Y-75409399D01*
X98844033Y-75492260D01*
X98844032Y-75492264D01*
X98829500Y-75565321D01*
X98829500Y-76383382D01*
X98828971Y-76394823D01*
X98824785Y-76439998D01*
X98490500Y-76439998D01*
X98490500Y-75565326D01*
X98490500Y-75565323D01*
X98490499Y-75565321D01*
X98475967Y-75492264D01*
X98475966Y-75492260D01*
X98462690Y-75472391D01*
X98420601Y-75409399D01*
X98337740Y-75354034D01*
X98337739Y-75354033D01*
X98337735Y-75354032D01*
X98258700Y-75338311D01*
X98259102Y-75336287D01*
X98203039Y-75313643D01*
X98162686Y-75256605D01*
X98159576Y-75186804D01*
X98192307Y-75128729D01*
X98739219Y-74581819D01*
X98800542Y-74548334D01*
X98826900Y-74545500D01*
X100019434Y-74545500D01*
X100019436Y-74545500D01*
X100061361Y-74534265D01*
X100070222Y-74531892D01*
X100085126Y-74527898D01*
X100114938Y-74519910D01*
X100200562Y-74470475D01*
X100270475Y-74400562D01*
X100270474Y-74400562D01*
X100329043Y-74341993D01*
X101500475Y-73170563D01*
X101549911Y-73084937D01*
X101575500Y-72989436D01*
X101575500Y-72890564D01*
X101575500Y-71335192D01*
X101595185Y-71268153D01*
X101647989Y-71222398D01*
X101717147Y-71212454D01*
X101757126Y-71225396D01*
X101762771Y-71228359D01*
X101789134Y-71242196D01*
X101816156Y-71248856D01*
X101875174Y-71263402D01*
X101935555Y-71298557D01*
X101967344Y-71360777D01*
X101969500Y-71383799D01*
X101969500Y-75215500D01*
X101949815Y-75282539D01*
X101897011Y-75328294D01*
X101845500Y-75339500D01*
X101595323Y-75339500D01*
X101522264Y-75354032D01*
X101522260Y-75354033D01*
X101439399Y-75409399D01*
X101384033Y-75492260D01*
X101384032Y-75492264D01*
X101369500Y-75565321D01*
X101369500Y-79114678D01*
X101384032Y-79187735D01*
X101384033Y-79187739D01*
X101397310Y-79207610D01*
X101439399Y-79270601D01*
X101522260Y-79325966D01*
X101522264Y-79325967D01*
X101595321Y-79340499D01*
X101595324Y-79340500D01*
X101595326Y-79340500D01*
X103344676Y-79340500D01*
X103344677Y-79340499D01*
X103417740Y-79325966D01*
X103500601Y-79270601D01*
X103555966Y-79187740D01*
X103570500Y-79114674D01*
X103570500Y-75565326D01*
X103570500Y-75565323D01*
X103570499Y-75565321D01*
X103909500Y-75565321D01*
X103909500Y-79114678D01*
X103924032Y-79187735D01*
X103924033Y-79187739D01*
X103937310Y-79207610D01*
X103979399Y-79270601D01*
X104062260Y-79325966D01*
X104062264Y-79325967D01*
X104135321Y-79340499D01*
X104135324Y-79340500D01*
X104135326Y-79340500D01*
X105884676Y-79340500D01*
X105884677Y-79340499D01*
X105957740Y-79325966D01*
X106040601Y-79270601D01*
X106095202Y-79188883D01*
X106148811Y-79144079D01*
X106218136Y-79135370D01*
X106281164Y-79165524D01*
X106308432Y-79207456D01*
X106310403Y-79206452D01*
X106372356Y-79328041D01*
X106372363Y-79328050D01*
X106461949Y-79417636D01*
X106461953Y-79417639D01*
X106574855Y-79475166D01*
X106668514Y-79489999D01*
X107349999Y-79489999D01*
X107350000Y-79489998D01*
X107350000Y-77464000D01*
X107369685Y-77396961D01*
X107422489Y-77351206D01*
X107474000Y-77340000D01*
X107626000Y-77340000D01*
X107693039Y-77359685D01*
X107738794Y-77412489D01*
X107750000Y-77464000D01*
X107750000Y-79489999D01*
X108431479Y-79489999D01*
X108525149Y-79475164D01*
X108525155Y-79475162D01*
X108638041Y-79417643D01*
X108638050Y-79417636D01*
X108727636Y-79328050D01*
X108727639Y-79328046D01*
X108789595Y-79206452D01*
X108791867Y-79207610D01*
X108823187Y-79161792D01*
X108887542Y-79134584D01*
X108956390Y-79146488D01*
X109004797Y-79188883D01*
X109059398Y-79270600D01*
X109059399Y-79270601D01*
X109142260Y-79325966D01*
X109142264Y-79325967D01*
X109215321Y-79340499D01*
X109215324Y-79340500D01*
X109215326Y-79340500D01*
X110964676Y-79340500D01*
X110964677Y-79340499D01*
X111037740Y-79325966D01*
X111120601Y-79270601D01*
X111175966Y-79187740D01*
X111190500Y-79114674D01*
X111190500Y-76496616D01*
X111191029Y-76485175D01*
X111195215Y-76440000D01*
X111195215Y-76439998D01*
X111191029Y-76394823D01*
X111190500Y-76383382D01*
X111190500Y-75565323D01*
X111190499Y-75565321D01*
X111175967Y-75492264D01*
X111175966Y-75492260D01*
X111162690Y-75472391D01*
X111120601Y-75409399D01*
X111037740Y-75354034D01*
X111037739Y-75354033D01*
X111037735Y-75354032D01*
X110964677Y-75339500D01*
X110964674Y-75339500D01*
X110714500Y-75339500D01*
X110647461Y-75319815D01*
X110601706Y-75267011D01*
X110590500Y-75215500D01*
X110590500Y-75022410D01*
X110590500Y-75022408D01*
X110556392Y-74895114D01*
X110490500Y-74780986D01*
X110397314Y-74687800D01*
X109800014Y-74090500D01*
X109741072Y-74056470D01*
X109685887Y-74024608D01*
X109622239Y-74007554D01*
X109558592Y-73990500D01*
X109558591Y-73990500D01*
X107198944Y-73990500D01*
X107131905Y-73970815D01*
X107116720Y-73959318D01*
X107108140Y-73951717D01*
X107108138Y-73951716D01*
X107108137Y-73951715D01*
X107108133Y-73951712D01*
X106968265Y-73878303D01*
X106814886Y-73840500D01*
X106814885Y-73840500D01*
X106656915Y-73840500D01*
X106656914Y-73840500D01*
X106503534Y-73878303D01*
X106363662Y-73951715D01*
X106245416Y-74056471D01*
X106155681Y-74186475D01*
X106155680Y-74186476D01*
X106099662Y-74334181D01*
X106080622Y-74490999D01*
X106080622Y-74491000D01*
X106099662Y-74647818D01*
X106126945Y-74719755D01*
X106155680Y-74795523D01*
X106245417Y-74925530D01*
X106363660Y-75030283D01*
X106431101Y-75065679D01*
X106481313Y-75114263D01*
X106497288Y-75182282D01*
X106473953Y-75248140D01*
X106461157Y-75263156D01*
X106372360Y-75351953D01*
X106310405Y-75473548D01*
X106308135Y-75472391D01*
X106276789Y-75518226D01*
X106212428Y-75545418D01*
X106143582Y-75533497D01*
X106095202Y-75491116D01*
X106040601Y-75409399D01*
X105957739Y-75354033D01*
X105957735Y-75354032D01*
X105884677Y-75339500D01*
X105884674Y-75339500D01*
X104135326Y-75339500D01*
X104135323Y-75339500D01*
X104062264Y-75354032D01*
X104062260Y-75354033D01*
X103979399Y-75409399D01*
X103924033Y-75492260D01*
X103924032Y-75492264D01*
X103909500Y-75565321D01*
X103570499Y-75565321D01*
X103555967Y-75492264D01*
X103555966Y-75492260D01*
X103542690Y-75472391D01*
X103500601Y-75409399D01*
X103417740Y-75354034D01*
X103417739Y-75354033D01*
X103417735Y-75354032D01*
X103344677Y-75339500D01*
X103344674Y-75339500D01*
X103094500Y-75339500D01*
X103027461Y-75319815D01*
X102981706Y-75267011D01*
X102970500Y-75215500D01*
X102970500Y-71248856D01*
X102990185Y-71181817D01*
X103042989Y-71136062D01*
X103112147Y-71126118D01*
X103152126Y-71139060D01*
X103171951Y-71149465D01*
X103177535Y-71152396D01*
X103177534Y-71152396D01*
X103330914Y-71190200D01*
X103330915Y-71190200D01*
X103488885Y-71190200D01*
X103642265Y-71152396D01*
X103782133Y-71078987D01*
X103782134Y-71078985D01*
X103782140Y-71078983D01*
X103790718Y-71071383D01*
X103853950Y-71041663D01*
X103872944Y-71040200D01*
X107822724Y-71040200D01*
X107889763Y-71059885D01*
G37*
%TD.AperFunction*%
%TA.AperFunction,Conductor*%
G36*
X99737106Y-60595185D02*
G01*
X99768441Y-60624012D01*
X99768816Y-60624500D01*
X99771718Y-60628282D01*
X99897159Y-60724536D01*
X100043238Y-60785044D01*
X100121619Y-60795363D01*
X100199999Y-60805682D01*
X100200000Y-60805682D01*
X100200001Y-60805682D01*
X100274583Y-60795863D01*
X100356762Y-60785044D01*
X100502841Y-60724536D01*
X100625016Y-60630787D01*
X100690182Y-60605595D01*
X100758627Y-60619633D01*
X100808617Y-60668447D01*
X100824500Y-60729165D01*
X100824500Y-69763137D01*
X100804815Y-69830176D01*
X100752011Y-69875931D01*
X100682853Y-69885875D01*
X100619297Y-69856850D01*
X100598450Y-69833577D01*
X100563014Y-69782239D01*
X100526383Y-69729170D01*
X100408140Y-69624417D01*
X100408138Y-69624416D01*
X100408137Y-69624415D01*
X100268265Y-69551003D01*
X100114886Y-69513200D01*
X100114885Y-69513200D01*
X99956915Y-69513200D01*
X99956914Y-69513200D01*
X99803534Y-69551003D01*
X99663666Y-69624412D01*
X99663662Y-69624415D01*
X99663660Y-69624417D01*
X99655081Y-69632016D01*
X99591850Y-69661737D01*
X99572856Y-69663200D01*
X88690044Y-69663200D01*
X88623005Y-69643515D01*
X88607820Y-69632018D01*
X88599240Y-69624417D01*
X88599238Y-69624416D01*
X88599237Y-69624415D01*
X88599233Y-69624412D01*
X88459365Y-69551003D01*
X88305986Y-69513200D01*
X88305985Y-69513200D01*
X88148015Y-69513200D01*
X88148014Y-69513200D01*
X87994634Y-69551003D01*
X87854762Y-69624415D01*
X87806983Y-69666743D01*
X87740518Y-69725626D01*
X87736516Y-69729171D01*
X87646781Y-69859175D01*
X87646780Y-69859176D01*
X87590762Y-70006881D01*
X87571722Y-70163699D01*
X87571722Y-70163700D01*
X87590762Y-70320518D01*
X87627812Y-70418209D01*
X87646780Y-70468223D01*
X87736517Y-70598230D01*
X87854760Y-70702983D01*
X87854762Y-70702984D01*
X87994634Y-70776396D01*
X88148014Y-70814200D01*
X88148015Y-70814200D01*
X88305985Y-70814200D01*
X88459365Y-70776396D01*
X88599233Y-70702987D01*
X88599234Y-70702985D01*
X88599240Y-70702983D01*
X88607818Y-70695383D01*
X88671050Y-70665663D01*
X88690044Y-70664200D01*
X99572856Y-70664200D01*
X99639895Y-70683885D01*
X99655079Y-70695381D01*
X99663660Y-70702983D01*
X99663662Y-70702984D01*
X99663666Y-70702987D01*
X99803534Y-70776396D01*
X99956914Y-70814200D01*
X99964360Y-70815104D01*
X99963957Y-70818415D01*
X100016639Y-70833885D01*
X100062394Y-70886689D01*
X100072338Y-70955847D01*
X100043313Y-71019403D01*
X99997544Y-71051367D01*
X99997676Y-71051618D01*
X99995702Y-71052653D01*
X99993573Y-71054141D01*
X99991034Y-71055103D01*
X99851166Y-71128512D01*
X99851162Y-71128515D01*
X99851160Y-71128517D01*
X99842581Y-71136116D01*
X99779350Y-71165837D01*
X99760356Y-71167300D01*
X85092100Y-71167300D01*
X85025061Y-71147615D01*
X84979306Y-71094811D01*
X84968100Y-71043300D01*
X84968100Y-70649257D01*
X84987785Y-70582218D01*
X84990050Y-70578817D01*
X85003029Y-70560014D01*
X85047820Y-70495123D01*
X85103837Y-70347418D01*
X85122878Y-70190600D01*
X85122310Y-70185917D01*
X85103837Y-70033781D01*
X85076834Y-69962582D01*
X85047820Y-69886077D01*
X84958083Y-69756070D01*
X84839840Y-69651317D01*
X84839838Y-69651316D01*
X84839837Y-69651315D01*
X84699965Y-69577903D01*
X84546586Y-69540100D01*
X84546585Y-69540100D01*
X84388615Y-69540100D01*
X84388614Y-69540100D01*
X84235234Y-69577903D01*
X84095362Y-69651315D01*
X83977116Y-69756071D01*
X83887381Y-69886075D01*
X83887380Y-69886076D01*
X83831362Y-70033781D01*
X83812322Y-70190599D01*
X83812322Y-70190600D01*
X83831362Y-70347418D01*
X83887380Y-70495123D01*
X83887380Y-70495124D01*
X83945150Y-70578817D01*
X83967033Y-70645171D01*
X83967100Y-70649257D01*
X83967100Y-71409124D01*
X83947415Y-71476163D01*
X83930781Y-71496805D01*
X81567205Y-73860381D01*
X81505882Y-73893866D01*
X81479524Y-73896700D01*
X66361576Y-73896700D01*
X66294537Y-73877015D01*
X66273895Y-73860381D01*
X65882895Y-73469381D01*
X65849410Y-73408058D01*
X65854394Y-73338366D01*
X65896266Y-73282433D01*
X65961730Y-73258016D01*
X65970576Y-73257700D01*
X66897390Y-73257700D01*
X66897392Y-73257700D01*
X67024686Y-73223592D01*
X67138814Y-73157700D01*
X71676295Y-68620219D01*
X71737618Y-68586734D01*
X71763976Y-68583900D01*
X98816856Y-68583900D01*
X98883895Y-68603585D01*
X98899079Y-68615081D01*
X98907660Y-68622683D01*
X98907662Y-68622684D01*
X98907666Y-68622687D01*
X99047534Y-68696096D01*
X99200914Y-68733900D01*
X99200915Y-68733900D01*
X99358885Y-68733900D01*
X99512265Y-68696096D01*
X99581184Y-68659924D01*
X99652140Y-68622683D01*
X99770383Y-68517930D01*
X99860120Y-68387923D01*
X99916137Y-68240218D01*
X99935178Y-68083400D01*
X99931529Y-68053343D01*
X99916137Y-67926581D01*
X99887342Y-67850655D01*
X99860120Y-67778877D01*
X99770383Y-67648870D01*
X99652140Y-67544117D01*
X99652138Y-67544116D01*
X99652137Y-67544115D01*
X99512265Y-67470703D01*
X99358886Y-67432900D01*
X99358885Y-67432900D01*
X99200915Y-67432900D01*
X99200914Y-67432900D01*
X99047534Y-67470703D01*
X98907666Y-67544112D01*
X98907662Y-67544115D01*
X98907660Y-67544117D01*
X98899081Y-67551716D01*
X98835850Y-67581437D01*
X98816856Y-67582900D01*
X71777599Y-67582900D01*
X71710560Y-67563215D01*
X71664805Y-67510411D01*
X71654861Y-67441253D01*
X71683886Y-67377697D01*
X71689918Y-67371219D01*
X75113318Y-63947819D01*
X75174641Y-63914334D01*
X75200999Y-63911500D01*
X99021967Y-63911500D01*
X99089006Y-63931185D01*
X99120341Y-63960012D01*
X99122695Y-63963079D01*
X99123618Y-63964282D01*
X99249059Y-64060536D01*
X99395138Y-64121044D01*
X99448119Y-64128019D01*
X99551899Y-64141682D01*
X99551900Y-64141682D01*
X99551901Y-64141682D01*
X99618264Y-64132945D01*
X99708662Y-64121044D01*
X99854741Y-64060536D01*
X99980182Y-63964282D01*
X100076436Y-63838841D01*
X100136944Y-63692762D01*
X100157582Y-63536000D01*
X100152252Y-63495517D01*
X100136944Y-63379239D01*
X100136944Y-63379238D01*
X100076436Y-63233159D01*
X99980182Y-63107718D01*
X99854741Y-63011464D01*
X99796310Y-62987261D01*
X99741907Y-62943420D01*
X99719842Y-62877126D01*
X99737121Y-62809426D01*
X99768273Y-62774327D01*
X99828282Y-62728282D01*
X99924536Y-62602841D01*
X99985044Y-62456762D01*
X100005682Y-62300000D01*
X99985044Y-62143238D01*
X99924536Y-61997159D01*
X99828282Y-61871718D01*
X99702841Y-61775464D01*
X99556762Y-61714956D01*
X99556760Y-61714955D01*
X99400001Y-61694318D01*
X99399999Y-61694318D01*
X99243239Y-61714955D01*
X99243237Y-61714956D01*
X99097160Y-61775463D01*
X99065798Y-61799527D01*
X98971718Y-61871718D01*
X98971716Y-61871719D01*
X98971715Y-61871721D01*
X98968441Y-61875988D01*
X98912013Y-61917190D01*
X98870067Y-61924500D01*
X69349435Y-61924500D01*
X69250565Y-61924500D01*
X69155062Y-61950090D01*
X69155060Y-61950091D01*
X69155059Y-61950091D01*
X69069436Y-61999526D01*
X68999526Y-62069436D01*
X68950091Y-62155059D01*
X68950091Y-62155060D01*
X68950090Y-62155062D01*
X68924500Y-62250565D01*
X68924500Y-62250567D01*
X68924500Y-67274030D01*
X68904815Y-67341069D01*
X68852011Y-67386824D01*
X68782853Y-67396768D01*
X68719297Y-67367743D01*
X68685939Y-67321483D01*
X68645336Y-67223460D01*
X68645336Y-67223459D01*
X68549082Y-67098018D01*
X68423641Y-67001764D01*
X68277562Y-66941256D01*
X68277560Y-66941255D01*
X68120801Y-66920618D01*
X68120799Y-66920618D01*
X67964039Y-66941255D01*
X67964037Y-66941256D01*
X67817960Y-67001763D01*
X67817959Y-67001764D01*
X67692518Y-67098018D01*
X67692516Y-67098019D01*
X67692515Y-67098021D01*
X67689241Y-67102288D01*
X67632813Y-67143490D01*
X67590867Y-67150800D01*
X67168333Y-67150800D01*
X67101294Y-67131115D01*
X67069959Y-67102288D01*
X67066684Y-67098021D01*
X67066682Y-67098018D01*
X66941241Y-67001764D01*
X66795162Y-66941256D01*
X66795160Y-66941255D01*
X66638401Y-66920618D01*
X66638399Y-66920618D01*
X66481639Y-66941255D01*
X66481637Y-66941256D01*
X66335560Y-67001763D01*
X66210118Y-67098018D01*
X66113863Y-67223460D01*
X66053356Y-67369537D01*
X66053355Y-67369539D01*
X66032718Y-67526298D01*
X66032718Y-67526301D01*
X66053355Y-67683060D01*
X66053356Y-67683062D01*
X66093043Y-67778876D01*
X66113864Y-67829141D01*
X66169617Y-67901800D01*
X66210119Y-67954583D01*
X66214597Y-67958019D01*
X66265291Y-67996917D01*
X66306493Y-68053343D01*
X66310648Y-68123089D01*
X66276436Y-68184010D01*
X66222897Y-68214794D01*
X65857593Y-68315956D01*
X65787732Y-68314877D01*
X65729544Y-68276200D01*
X65701504Y-68212203D01*
X65700500Y-68196454D01*
X65700500Y-66675323D01*
X65700499Y-66675321D01*
X65685967Y-66602264D01*
X65685966Y-66602260D01*
X65630601Y-66519399D01*
X65547740Y-66464034D01*
X65547739Y-66464033D01*
X65547735Y-66464032D01*
X65474677Y-66449500D01*
X65474674Y-66449500D01*
X63725326Y-66449500D01*
X63725323Y-66449500D01*
X63652264Y-66464032D01*
X63652260Y-66464033D01*
X63569399Y-66519399D01*
X63514033Y-66602260D01*
X63514032Y-66602264D01*
X63499500Y-66675321D01*
X63499500Y-68348966D01*
X63479815Y-68416005D01*
X63427011Y-68461760D01*
X63374758Y-68472964D01*
X63081786Y-68471210D01*
X63014865Y-68451124D01*
X62971528Y-68402483D01*
X62899674Y-68258180D01*
X62776762Y-68095418D01*
X62626041Y-67958019D01*
X62626039Y-67958017D01*
X62452642Y-67850655D01*
X62452635Y-67850651D01*
X62262455Y-67776975D01*
X62219000Y-67768852D01*
X62156720Y-67737184D01*
X62121448Y-67676871D01*
X62124382Y-67607063D01*
X62164592Y-67549923D01*
X62209694Y-67527189D01*
X62389150Y-67479105D01*
X62389164Y-67479100D01*
X62587383Y-67386669D01*
X62587391Y-67386665D01*
X62691161Y-67314003D01*
X62145177Y-66768019D01*
X62152993Y-66765925D01*
X62267007Y-66700099D01*
X62360099Y-66607007D01*
X62425925Y-66492993D01*
X62428019Y-66485177D01*
X62974003Y-67031161D01*
X63046665Y-66927391D01*
X63046669Y-66927383D01*
X63139100Y-66729164D01*
X63139105Y-66729150D01*
X63195710Y-66517894D01*
X63195712Y-66517884D01*
X63214775Y-66300000D01*
X63214775Y-66299999D01*
X63195712Y-66082115D01*
X63195710Y-66082105D01*
X63139105Y-65870849D01*
X63139101Y-65870840D01*
X63046668Y-65672615D01*
X62974002Y-65568838D01*
X62428018Y-66114821D01*
X62425925Y-66107007D01*
X62360099Y-65992993D01*
X62267007Y-65899901D01*
X62152993Y-65834075D01*
X62145177Y-65831980D01*
X62691161Y-65285996D01*
X62587387Y-65213333D01*
X62389159Y-65120898D01*
X62389150Y-65120894D01*
X62209694Y-65072810D01*
X62150033Y-65036445D01*
X62119504Y-64973598D01*
X62127799Y-64904223D01*
X62172284Y-64850345D01*
X62218999Y-64831147D01*
X62262456Y-64823024D01*
X62452637Y-64749348D01*
X62626041Y-64641981D01*
X62776764Y-64504579D01*
X62899673Y-64341821D01*
X62990582Y-64159250D01*
X63046397Y-63963083D01*
X63065215Y-63760000D01*
X63063521Y-63741723D01*
X63046397Y-63556917D01*
X63040446Y-63536001D01*
X62990582Y-63360750D01*
X62899673Y-63178179D01*
X62813619Y-63064225D01*
X62788928Y-62998866D01*
X62803493Y-62930531D01*
X62852690Y-62880919D01*
X62912574Y-62865500D01*
X63921801Y-62865500D01*
X63988840Y-62885185D01*
X64009482Y-62901819D01*
X64806512Y-63698849D01*
X64839997Y-63760172D01*
X64835013Y-63829864D01*
X64793141Y-63885797D01*
X64727677Y-63910214D01*
X64707396Y-63910002D01*
X64701976Y-63909500D01*
X64498024Y-63909500D01*
X64297544Y-63946976D01*
X64297541Y-63946976D01*
X64297541Y-63946977D01*
X64107364Y-64020651D01*
X64107357Y-64020655D01*
X63933960Y-64128017D01*
X63933958Y-64128019D01*
X63783237Y-64265418D01*
X63660327Y-64428178D01*
X63569422Y-64610739D01*
X63569417Y-64610752D01*
X63513602Y-64806917D01*
X63494785Y-65009999D01*
X63494785Y-65010000D01*
X63513602Y-65213082D01*
X63569417Y-65409247D01*
X63569422Y-65409260D01*
X63660327Y-65591821D01*
X63783237Y-65754581D01*
X63933958Y-65891980D01*
X63933960Y-65891982D01*
X64023089Y-65947168D01*
X64107363Y-65999348D01*
X64297544Y-66073024D01*
X64498024Y-66110500D01*
X64498026Y-66110500D01*
X64701974Y-66110500D01*
X64701976Y-66110500D01*
X64902456Y-66073024D01*
X65092637Y-65999348D01*
X65266041Y-65891981D01*
X65416764Y-65754579D01*
X65539673Y-65591821D01*
X65630582Y-65409250D01*
X65686397Y-65213083D01*
X65705215Y-65010000D01*
X65694780Y-64897390D01*
X65708195Y-64828822D01*
X65756552Y-64778390D01*
X65824498Y-64762107D01*
X65890460Y-64785144D01*
X65905932Y-64798269D01*
X65939462Y-64831799D01*
X65972947Y-64893122D01*
X65974720Y-64935660D01*
X65974018Y-64941000D01*
X65974018Y-64941002D01*
X65994655Y-65097760D01*
X65994656Y-65097762D01*
X66054567Y-65242401D01*
X66055164Y-65243841D01*
X66151418Y-65369282D01*
X66276859Y-65465536D01*
X66422938Y-65526044D01*
X66501319Y-65536363D01*
X66579699Y-65546682D01*
X66579700Y-65546682D01*
X66579701Y-65546682D01*
X66631954Y-65539802D01*
X66736462Y-65526044D01*
X66882541Y-65465536D01*
X67007982Y-65369282D01*
X67104236Y-65243841D01*
X67164744Y-65097762D01*
X67181800Y-64968209D01*
X67185382Y-64941001D01*
X67185382Y-64940998D01*
X67164744Y-64784239D01*
X67164744Y-64784238D01*
X67104236Y-64638159D01*
X67007982Y-64512718D01*
X66882541Y-64416464D01*
X66876877Y-64414118D01*
X66736462Y-64355956D01*
X66736460Y-64355955D01*
X66579702Y-64335318D01*
X66579700Y-64335318D01*
X66574360Y-64336020D01*
X66505327Y-64325253D01*
X66470499Y-64300762D01*
X64656918Y-62487181D01*
X64623433Y-62425858D01*
X64628417Y-62356166D01*
X64670289Y-62300233D01*
X64735753Y-62275816D01*
X64744599Y-62275500D01*
X66770067Y-62275500D01*
X66837106Y-62295185D01*
X66868441Y-62324012D01*
X66871328Y-62327774D01*
X66871718Y-62328282D01*
X66997159Y-62424536D01*
X67143238Y-62485044D01*
X67221619Y-62495363D01*
X67299999Y-62505682D01*
X67300000Y-62505682D01*
X67300001Y-62505682D01*
X67359498Y-62497849D01*
X67456762Y-62485044D01*
X67602841Y-62424536D01*
X67728282Y-62328282D01*
X67824536Y-62202841D01*
X67885044Y-62056762D01*
X67905682Y-61900000D01*
X67885044Y-61743238D01*
X67824536Y-61597159D01*
X67824535Y-61597158D01*
X67824535Y-61597157D01*
X67807523Y-61574987D01*
X67782328Y-61509818D01*
X67796366Y-61441373D01*
X67845179Y-61391383D01*
X67905898Y-61375500D01*
X98070067Y-61375500D01*
X98137106Y-61395185D01*
X98168441Y-61424012D01*
X98171328Y-61427774D01*
X98171718Y-61428282D01*
X98297159Y-61524536D01*
X98443238Y-61585044D01*
X98521619Y-61595363D01*
X98599999Y-61605682D01*
X98600000Y-61605682D01*
X98600001Y-61605682D01*
X98664754Y-61597157D01*
X98756762Y-61585044D01*
X98902841Y-61524536D01*
X99028282Y-61428282D01*
X99124536Y-61302841D01*
X99185044Y-61156762D01*
X99205682Y-61000000D01*
X99185044Y-60843238D01*
X99145160Y-60746951D01*
X99137692Y-60677484D01*
X99168967Y-60615004D01*
X99229056Y-60579352D01*
X99259722Y-60575500D01*
X99670067Y-60575500D01*
X99737106Y-60595185D01*
G37*
%TD.AperFunction*%
%TA.AperFunction,Conductor*%
G36*
X50750211Y-65395185D02*
G01*
X50795966Y-65447989D01*
X50805910Y-65517147D01*
X50784747Y-65570624D01*
X50713333Y-65672613D01*
X50620898Y-65870840D01*
X50620894Y-65870849D01*
X50564289Y-66082105D01*
X50564287Y-66082115D01*
X50545225Y-66299999D01*
X50545225Y-66300000D01*
X50564287Y-66517884D01*
X50564289Y-66517894D01*
X50620894Y-66729150D01*
X50620898Y-66729159D01*
X50713333Y-66927387D01*
X50785996Y-67031161D01*
X51331980Y-66485177D01*
X51334075Y-66492993D01*
X51399901Y-66607007D01*
X51492993Y-66700099D01*
X51607007Y-66765925D01*
X51614820Y-66768018D01*
X51068837Y-67314002D01*
X51172612Y-67386667D01*
X51370840Y-67479101D01*
X51370849Y-67479105D01*
X51550305Y-67527189D01*
X51609965Y-67563553D01*
X51640495Y-67626400D01*
X51632201Y-67695776D01*
X51587716Y-67749654D01*
X51540999Y-67768852D01*
X51497544Y-67776975D01*
X51307364Y-67850651D01*
X51307357Y-67850655D01*
X51133960Y-67958017D01*
X51133958Y-67958019D01*
X50983237Y-68095418D01*
X50860327Y-68258178D01*
X50769422Y-68440739D01*
X50769417Y-68440752D01*
X50713602Y-68636917D01*
X50694785Y-68839999D01*
X50694785Y-68840000D01*
X50713602Y-69043082D01*
X50744829Y-69152829D01*
X50768678Y-69236650D01*
X50770987Y-69244763D01*
X50769003Y-69245327D01*
X50774098Y-69305816D01*
X50741390Y-69367557D01*
X50740290Y-69368671D01*
X50462181Y-69646781D01*
X50400858Y-69680266D01*
X50331167Y-69675282D01*
X50275233Y-69633411D01*
X50250816Y-69567946D01*
X50250500Y-69559100D01*
X50250500Y-68200173D01*
X50250499Y-68200170D01*
X50246239Y-68189885D01*
X50212364Y-68108103D01*
X50141897Y-68037636D01*
X50109462Y-68024201D01*
X50076547Y-68010567D01*
X50022143Y-67966725D01*
X50000079Y-67900431D01*
X50000000Y-67896006D01*
X50000000Y-65499500D01*
X50019685Y-65432461D01*
X50072489Y-65386706D01*
X50124000Y-65375500D01*
X50683172Y-65375500D01*
X50750211Y-65395185D01*
G37*
%TD.AperFunction*%
%TA.AperFunction,Conductor*%
G36*
X69650000Y-59700500D02*
G01*
X69630315Y-59767539D01*
X69577511Y-59813294D01*
X69526000Y-59824500D01*
X69374000Y-59824500D01*
X69306961Y-59804815D01*
X69261206Y-59752011D01*
X69250000Y-59700500D01*
X69250000Y-59133428D01*
X69253147Y-59135245D01*
X69382857Y-59170000D01*
X69517143Y-59170000D01*
X69646853Y-59135245D01*
X69650000Y-59133428D01*
X69650000Y-59700500D01*
G37*
%TD.AperFunction*%
%TA.AperFunction,Conductor*%
G36*
X82350000Y-59700500D02*
G01*
X82330315Y-59767539D01*
X82277511Y-59813294D01*
X82226000Y-59824500D01*
X82074000Y-59824500D01*
X82006961Y-59804815D01*
X81961206Y-59752011D01*
X81950000Y-59700500D01*
X81950000Y-59133428D01*
X81953147Y-59135245D01*
X82082857Y-59170000D01*
X82217143Y-59170000D01*
X82346853Y-59135245D01*
X82350000Y-59133428D01*
X82350000Y-59700500D01*
G37*
%TD.AperFunction*%
%TA.AperFunction,Conductor*%
G36*
X95050000Y-59700500D02*
G01*
X95030315Y-59767539D01*
X94977511Y-59813294D01*
X94926000Y-59824500D01*
X94774000Y-59824500D01*
X94706961Y-59804815D01*
X94661206Y-59752011D01*
X94650000Y-59700500D01*
X94650000Y-59133428D01*
X94653147Y-59135245D01*
X94782857Y-59170000D01*
X94917143Y-59170000D01*
X95046853Y-59135245D01*
X95050000Y-59133428D01*
X95050000Y-59700500D01*
G37*
%TD.AperFunction*%
%TA.AperFunction,Conductor*%
G36*
X107750000Y-59700500D02*
G01*
X107730315Y-59767539D01*
X107677511Y-59813294D01*
X107626000Y-59824500D01*
X107474000Y-59824500D01*
X107406961Y-59804815D01*
X107361206Y-59752011D01*
X107350000Y-59700500D01*
X107350000Y-59133428D01*
X107353147Y-59135245D01*
X107482857Y-59170000D01*
X107617143Y-59170000D01*
X107746853Y-59135245D01*
X107750000Y-59133428D01*
X107750000Y-59700500D01*
G37*
%TD.AperFunction*%
%TA.AperFunction,Conductor*%
G36*
X69593039Y-57779685D02*
G01*
X69638794Y-57832489D01*
X69650000Y-57884000D01*
X69650000Y-58186571D01*
X69646853Y-58184755D01*
X69517143Y-58150000D01*
X69382857Y-58150000D01*
X69253147Y-58184755D01*
X69250000Y-58186571D01*
X69250000Y-57884000D01*
X69269685Y-57816961D01*
X69322489Y-57771206D01*
X69374000Y-57760000D01*
X69526000Y-57760000D01*
X69593039Y-57779685D01*
G37*
%TD.AperFunction*%
%TA.AperFunction,Conductor*%
G36*
X82625830Y-52397598D02*
G01*
X82679708Y-52442083D01*
X82696284Y-52477652D01*
X82739417Y-52629247D01*
X82739422Y-52629260D01*
X82830327Y-52811821D01*
X82953237Y-52974581D01*
X83103958Y-53111980D01*
X83103960Y-53111982D01*
X83175417Y-53156226D01*
X83277363Y-53219348D01*
X83315293Y-53234042D01*
X83370694Y-53276612D01*
X83394286Y-53342378D01*
X83394500Y-53349668D01*
X83394500Y-53506135D01*
X83420090Y-53601638D01*
X83420091Y-53601640D01*
X83421316Y-53606211D01*
X83419653Y-53676061D01*
X83380491Y-53733924D01*
X83346336Y-53753931D01*
X83277370Y-53780648D01*
X83277357Y-53780655D01*
X83103960Y-53888017D01*
X83103958Y-53888019D01*
X82953237Y-54025418D01*
X82830327Y-54188178D01*
X82739422Y-54370739D01*
X82739417Y-54370752D01*
X82683602Y-54566917D01*
X82664785Y-54769999D01*
X82664785Y-54770000D01*
X82683602Y-54973082D01*
X82739417Y-55169247D01*
X82739422Y-55169260D01*
X82830327Y-55351821D01*
X82875223Y-55411273D01*
X82899915Y-55476634D01*
X82885350Y-55544969D01*
X82836153Y-55594582D01*
X82776269Y-55610000D01*
X82350000Y-55610000D01*
X82350000Y-58186571D01*
X82346853Y-58184755D01*
X82217143Y-58150000D01*
X82082857Y-58150000D01*
X81953147Y-58184755D01*
X81950000Y-58186571D01*
X81950000Y-55657542D01*
X81969685Y-55590503D01*
X81990458Y-55565908D01*
X82046764Y-55514579D01*
X82169673Y-55351821D01*
X82260582Y-55169250D01*
X82316397Y-54973083D01*
X82335215Y-54770000D01*
X82332422Y-54739863D01*
X82316397Y-54566917D01*
X82312183Y-54552108D01*
X82260582Y-54370750D01*
X82260159Y-54369901D01*
X82210415Y-54270000D01*
X82169673Y-54188179D01*
X82046764Y-54025421D01*
X82046762Y-54025418D01*
X81896041Y-53888019D01*
X81896039Y-53888017D01*
X81722642Y-53780655D01*
X81722639Y-53780653D01*
X81722637Y-53780652D01*
X81722636Y-53780651D01*
X81722635Y-53780651D01*
X81532455Y-53706975D01*
X81489000Y-53698852D01*
X81426720Y-53667184D01*
X81391448Y-53606871D01*
X81394382Y-53537063D01*
X81434592Y-53479923D01*
X81479694Y-53457189D01*
X81659150Y-53409105D01*
X81659159Y-53409101D01*
X81857387Y-53316666D01*
X82036554Y-53191212D01*
X82191212Y-53036554D01*
X82316666Y-52857387D01*
X82409101Y-52659159D01*
X82409105Y-52659150D01*
X82457243Y-52479494D01*
X82493608Y-52419834D01*
X82556454Y-52389304D01*
X82625830Y-52397598D01*
G37*
%TD.AperFunction*%
%TA.AperFunction,Conductor*%
G36*
X97713543Y-52398364D02*
G01*
X97766730Y-52443674D01*
X97782756Y-52479494D01*
X97830894Y-52659150D01*
X97830898Y-52659159D01*
X97923333Y-52857387D01*
X98048787Y-53036554D01*
X98203445Y-53191212D01*
X98382612Y-53316666D01*
X98580840Y-53409101D01*
X98580849Y-53409105D01*
X98760305Y-53457189D01*
X98819965Y-53493553D01*
X98850495Y-53556400D01*
X98842201Y-53625776D01*
X98797716Y-53679654D01*
X98750999Y-53698852D01*
X98707544Y-53706975D01*
X98517364Y-53780651D01*
X98517357Y-53780655D01*
X98343960Y-53888017D01*
X98343958Y-53888019D01*
X98193237Y-54025418D01*
X98070327Y-54188178D01*
X97979422Y-54370739D01*
X97979417Y-54370752D01*
X97923602Y-54566917D01*
X97904785Y-54769999D01*
X97904785Y-54770000D01*
X97923602Y-54973082D01*
X97979417Y-55169247D01*
X97979422Y-55169260D01*
X98029585Y-55270000D01*
X98070327Y-55351821D01*
X98193236Y-55514579D01*
X98225360Y-55543864D01*
X98261640Y-55603573D01*
X98259880Y-55673421D01*
X98220637Y-55731229D01*
X98156371Y-55758643D01*
X98141821Y-55759500D01*
X97338179Y-55759500D01*
X97271140Y-55739815D01*
X97225385Y-55687011D01*
X97215441Y-55617853D01*
X97244466Y-55554297D01*
X97254632Y-55543870D01*
X97286764Y-55514579D01*
X97409673Y-55351821D01*
X97500582Y-55169250D01*
X97556397Y-54973083D01*
X97575215Y-54770000D01*
X97572422Y-54739863D01*
X97556397Y-54566917D01*
X97552183Y-54552108D01*
X97500582Y-54370750D01*
X97500159Y-54369901D01*
X97450415Y-54270000D01*
X97409673Y-54188179D01*
X97286764Y-54025421D01*
X97286762Y-54025418D01*
X97136041Y-53888019D01*
X97136039Y-53888017D01*
X96962642Y-53780655D01*
X96962639Y-53780653D01*
X96962637Y-53780652D01*
X96962636Y-53780651D01*
X96962635Y-53780651D01*
X96842017Y-53733924D01*
X96772456Y-53706976D01*
X96571976Y-53669500D01*
X96368024Y-53669500D01*
X96167544Y-53706976D01*
X96167541Y-53706976D01*
X96167541Y-53706977D01*
X95977364Y-53780651D01*
X95977357Y-53780655D01*
X95803960Y-53888017D01*
X95803958Y-53888019D01*
X95653237Y-54025418D01*
X95530327Y-54188178D01*
X95439422Y-54370739D01*
X95439417Y-54370752D01*
X95383602Y-54566917D01*
X95364785Y-54769999D01*
X95364785Y-54770000D01*
X95383602Y-54973082D01*
X95439417Y-55169247D01*
X95439422Y-55169260D01*
X95530327Y-55351821D01*
X95575223Y-55411273D01*
X95599915Y-55476634D01*
X95585350Y-55544969D01*
X95536153Y-55594582D01*
X95476269Y-55610000D01*
X95050000Y-55610000D01*
X95050000Y-58186571D01*
X95046853Y-58184755D01*
X94917143Y-58150000D01*
X94782857Y-58150000D01*
X94653147Y-58184755D01*
X94650000Y-58186571D01*
X94650000Y-55657542D01*
X94669685Y-55590503D01*
X94690458Y-55565908D01*
X94746764Y-55514579D01*
X94869673Y-55351821D01*
X94960582Y-55169250D01*
X95016397Y-54973083D01*
X95035215Y-54770000D01*
X95032422Y-54739863D01*
X95016397Y-54566917D01*
X95012183Y-54552108D01*
X94960582Y-54370750D01*
X94960159Y-54369901D01*
X94910415Y-54270000D01*
X94869673Y-54188179D01*
X94746764Y-54025421D01*
X94746762Y-54025418D01*
X94596041Y-53888019D01*
X94596039Y-53888017D01*
X94422642Y-53780655D01*
X94422639Y-53780653D01*
X94422637Y-53780652D01*
X94422636Y-53780651D01*
X94422635Y-53780651D01*
X94232455Y-53706975D01*
X94189000Y-53698852D01*
X94126720Y-53667184D01*
X94091448Y-53606871D01*
X94094382Y-53537063D01*
X94134592Y-53479923D01*
X94179694Y-53457189D01*
X94359150Y-53409105D01*
X94359159Y-53409101D01*
X94557387Y-53316666D01*
X94736554Y-53191212D01*
X94891212Y-53036554D01*
X95016666Y-52857387D01*
X95109101Y-52659159D01*
X95109105Y-52659150D01*
X95157243Y-52479494D01*
X95193608Y-52419834D01*
X95256454Y-52389304D01*
X95325830Y-52397598D01*
X95379708Y-52442083D01*
X95396284Y-52477652D01*
X95439417Y-52629247D01*
X95439422Y-52629260D01*
X95530327Y-52811821D01*
X95653237Y-52974581D01*
X95803958Y-53111980D01*
X95803960Y-53111982D01*
X95875417Y-53156226D01*
X95977363Y-53219348D01*
X96167544Y-53293024D01*
X96368024Y-53330500D01*
X96368026Y-53330500D01*
X96571974Y-53330500D01*
X96571976Y-53330500D01*
X96772456Y-53293024D01*
X96962637Y-53219348D01*
X97136041Y-53111981D01*
X97286764Y-52974579D01*
X97409673Y-52811821D01*
X97500582Y-52629250D01*
X97543716Y-52477651D01*
X97580994Y-52418559D01*
X97644304Y-52389002D01*
X97713543Y-52398364D01*
G37*
%TD.AperFunction*%
%TA.AperFunction,Conductor*%
G36*
X107693039Y-57779685D02*
G01*
X107738794Y-57832489D01*
X107750000Y-57884000D01*
X107750000Y-58186571D01*
X107746853Y-58184755D01*
X107617143Y-58150000D01*
X107482857Y-58150000D01*
X107353147Y-58184755D01*
X107350000Y-58186571D01*
X107350000Y-57884000D01*
X107369685Y-57816961D01*
X107422489Y-57771206D01*
X107474000Y-57760000D01*
X107626000Y-57760000D01*
X107693039Y-57779685D01*
G37*
%TD.AperFunction*%
%TD*%
M02*
